<svg width="14" height="14" viewBox="0 0 14 14" xmlns="http://www.w3.org/2000/svg">
    <path fill-rule="evenodd" clip-rule="evenodd"
        d="M7 10.9139C6.3002 11.345 5.47602 11.5937 4.59375 11.5937C2.05669 11.5937 0 9.53706 0 7C0 4.46294 2.05669 2.40625 4.59375 2.40625C5.47602 2.40625 6.3002 2.65497 7 3.08612C7.6998 2.65497 8.52398 2.40625 9.40625 2.40625C11.9433 2.40625 14 4.46294 14 7C14 9.53706 11.9433 11.5937 9.40625 11.5937C8.52398 11.5937 7.6998 11.345 7 10.9139ZM5.90117 9.96948C5.50123 10.1458 5.05892 10.2437 4.59375 10.2437C2.80228 10.2437 1.35 8.79147 1.35 7C1.35 5.20853 2.80228 3.75625 4.59375 3.75625C5.05892 3.75625 5.50123 3.85417 5.90117 4.03051C5.22209 4.83128 4.8125 5.86781 4.8125 7C4.8125 8.13219 5.22209 9.16872 5.90117 9.96948ZM8.09883 4.03051C8.49877 3.85417 8.94107 3.75625 9.40625 3.75625C11.1977 3.75625 12.65 5.20853 12.65 7C12.65 8.79147 11.1977 10.2437 9.40625 10.2437C8.94107 10.2437 8.49877 10.1458 8.09883 9.96948C8.77791 9.16871 9.1875 8.13219 9.1875 7C9.1875 5.86781 8.77791 4.83128 8.09883 4.03051ZM7 4.82468C7.52049 5.40007 7.8375 6.16301 7.8375 7C7.8375 7.83698 7.52049 8.59993 7 9.17532C6.47951 8.59993 6.1625 7.83698 6.1625 7C6.1625 6.16301 6.47951 5.40007 7 4.82468Z" />
    <path
        d="M7.8375 7C7.8375 6.16301 7.52049 5.40007 7 4.82468C6.47951 5.40007 6.1625 6.16301 6.1625 7C6.1625 7.83698 6.47951 8.59993 7 9.17532C7.52049 8.59993 7.8375 7.83698 7.8375 7Z" />
</svg>