<svg width="24" height="24" viewBox="0 0 24 24" xmlns="http://www.w3.org/2000/svg">
    <path fill-rule="evenodd"
        fill="#CCCCCC"
        d="M21.828 5.775c-.15-.225-.374-.375-.598-.525l.075-.525c.15-1.35-.822-2.55-2.167-2.625H9.576c-.224 0-.448-.075-.597-.3L8.232.9C7.709.375 7.036 0 6.289 0H3.675C3.002 0 2.33.3 1.882.825c-.523.525-.747 1.2-.673 1.95l.3 2.4c-.3.15-.598.3-.897.6A2.476 2.476 0 0 0 .014 7.65l.822 9.375A2.762 2.762 0 0 0 3.6 19.5h9.637c-.075-.3-.075-.6-.075-.9 0-.225 0-.525.075-.75H3.6c-.598 0-1.046-.45-1.046-.975L1.658 7.5a.85.85 0 0 1 .224-.6c.15-.15.373-.3.597-.3h17.556c.224 0 .448.075.597.3a.85.85 0 0 1 .224.6l-.522 5.7c.597.15 1.12.45 1.568.75l.598-6.3c0-.675-.224-1.35-.672-1.875Zm-2.241-.825H3.152l-.3-2.4c0-.225.076-.45.225-.6.15-.15.374-.3.598-.3h2.614c.224 0 .449.075.598.3l.747.9c.448.6 1.12.9 1.868.9h9.263c.224 0 .448.075.597.225.15.15.225.375.225.6v.375Z" />
    <path fill-rule="evenodd"
        d="M18.375 12.75c3.15 0 5.625 2.55 5.625 5.625S21.45 24 18.375 24s-5.625-2.55-5.625-5.625 2.55-5.625 5.625-5.625Zm0 1.95c-1.05 0-1.95.9-1.95 1.95v.675c-.375 0-.675.3-.675.675v2.625c0 .375.3.675.675.675h3.9c.375 0 .675-.3.675-.675V18c0-.375-.3-.675-.675-.675v-.675c0-1.05-.9-1.95-1.95-1.95Zm0 3.75c.3 0 .525.225.45.45 0 .225-.075.375-.225.45v.675c0 .15-.075.225-.225.225-.15 0-.225-.075-.225-.225v-.675c-.15-.15-.225-.3-.225-.45 0-.225.15-.45.45-.45Zm0-3.075c.75 0 1.35.6 1.275 1.35v.675h-2.625v-.675c0-.75.6-1.35 1.35-1.35Z" />
</svg>
  