<svg width="14" height="14" viewBox="0 0 14 14" xmlns="http://www.w3.org/2000/svg">
    <defs></defs>
    <path fill-rule="evenodd" clip-rule="evenodd"
        d="M1 2.13001C1 1.57772 1.44772 1.13 2 1.13H8.39986C8.95214 1.13 9.3999 1.57772 9.3999 2.13001V2.88001C9.3999 3.4323 8.95214 3.88 8.39986 3.88H2C1.44772 3.88 1 3.4323 1 2.88001V2.13001ZM1 6.63014C1 6.07786 1.44772 5.63014 2 5.63014H12C12.5523 5.63014 13 6.07786 13 6.63014V7.38014C13 7.93242 12.5523 8.38015 12 8.38015H2C1.44772 8.38015 1 7.93242 1 7.38014V6.63014ZM1 11.1303C1 10.578 1.44772 10.1303 2 10.1303H4.79971C5.352 10.1303 5.79971 10.578 5.79971 11.1303V11.8803C5.79971 12.4326 5.352 12.8803 4.79971 12.8803H2C1.44772 12.8803 1 12.4326 1 11.8803V11.1303Z"></path>
</svg>