<svg width="16" height="16" viewBox="0 0 16 16" xmlns="http://www.w3.org/2000/svg">
  <path d="M4.6855 2.0013C4.70691 2.00189 4.72801 2.00517 4.7493 2.00781C4.7699 2.01037 4.79052 2.01124 4.8105 2.01563C4.8406 2.02223 4.86991 2.03215 4.89904 2.04297C4.90843 2.04647 4.9185 2.04818 4.92768 2.05208C4.94584 2.05978 4.96221 2.07134 4.97977 2.08073C5.00041 2.09178 5.0217 2.1015 5.04097 2.11458C5.07525 2.13788 5.10822 2.16491 5.13862 2.19531L7.80529 4.86198C8.06531 5.12227 8.06531 5.5444 7.80529 5.80469C7.54502 6.06495 7.12295 6.06479 6.86258 5.80469L5.33393 4.27604V13.3333C5.33393 13.7014 5.03523 13.9997 4.66727 14C4.29908 14 4.0006 13.7015 4.0006 13.3333V4.27604L2.47195 5.80469C2.21169 6.06495 1.78962 6.06479 1.52925 5.80469C1.2689 5.54434 1.2689 5.12233 1.52925 4.86198L4.19591 2.19531L4.24669 2.14974C4.25203 2.14539 4.25819 2.14218 4.26362 2.13802C4.28527 2.12149 4.30771 2.10627 4.33133 2.09245C4.34415 2.08494 4.3572 2.07819 4.37039 2.07161C4.3933 2.06018 4.41639 2.04914 4.44071 2.04036C4.45614 2.0348 4.47185 2.03043 4.48758 2.02604C4.51189 2.01926 4.53646 2.01313 4.5618 2.00911C4.57994 2.00623 4.59821 2.00529 4.61649 2.00391C4.63314 2.00266 4.6503 2 4.66727 2C4.67337 2 4.67943 2.00113 4.6855 2.0013Z"/>
  <path d="M11.3339 2C11.7019 2.00026 12.0006 2.29864 12.0006 2.66667V11.724L13.5292 10.1953C13.7896 9.93521 14.2117 9.93505 14.472 10.1953C14.732 10.4556 14.732 10.8777 14.472 11.138L11.8053 13.8047C11.7737 13.8363 11.7386 13.8645 11.7011 13.8893C11.6955 13.8931 11.6886 13.8949 11.6829 13.8984C11.6161 13.9398 11.5426 13.9713 11.4628 13.987C11.3769 14.0039 11.2883 14.0041 11.2024 13.987C11.1228 13.9711 11.049 13.9399 10.9824 13.8984C10.9766 13.8949 10.9698 13.8931 10.9641 13.8893C10.9273 13.8648 10.8938 13.8358 10.8626 13.8047L8.19591 11.138C7.93556 10.8777 7.93556 10.4557 8.19591 10.1953C8.45628 9.93521 8.87836 9.93505 9.13862 10.1953L10.6673 11.724V2.66667C10.6673 2.29848 10.9657 2 11.3339 2Z"/>
</svg>
