<svg width="24" height="24" viewBox="0 0 24 24">
  <path fill-rule="evenodd" d="M7.218 12.483a.81.81 0 0 0-.232.485l-.394 3.55a.81.81 0 0 0 .893.893l3.55-.394a.81.81 0 0 0 .485-.232l9.085-9.09a1.928 1.928 0 0 0 .101-2.61l.004-.006-1.684-1.684a1.929 1.929 0 0 0-2.722 0l-9.086 9.088Zm12.24-5.932-.002.003-1.624 1.624-2.01-2.01 1.627-1.626c.12-.12.313-.12.433 0l1.576 1.577c.12.12.12.313 0 .432Zm-4.78.761 2.01 2.01-6.114 6.115-2.261.25.25-2.26 6.115-6.115ZM3.447 4.09a2.096 2.096 0 0 0-.614 1.482v13.5a2.096 2.096 0 0 0 2.096 2.096h13.5a2.096 2.096 0 0 0 2.096-2.096v-5.786a.81.81 0 0 0-1.62 0v5.786a.476.476 0 0 1-.476.477H4.93a.476.476 0 0 1-.477-.477v-13.5a.476.476 0 0 1 .477-.476h5.786a.81.81 0 1 0 0-1.62H4.929c-.556 0-1.089.221-1.482.614Z"/>
</svg>
