<svg xmlns="http://www.w3.org/2000/svg" width="16" height="16" viewBox="0 0 16 16">
  <defs>
    <clipPath id="a">
      <path d="M0 0h16v16H0z"/>
    </clipPath>
  </defs>
  <g clip-path="url(#a)">
    <path fill-rule="evenodd" d="M8.733.999a.733.733 0 0 0-1.466 0v3.4L3.765 5.587a.741.741 0 0 0-.036.013.733.733 0 0 0-.606.327l-2.933 4.4a.734.734 0 0 0-.123.407V12.2a3.667 3.667 0 0 0 7.333 0v-1.466a.734.734 0 0 0-.123-.407L4.894 6.752l5.728-1.94L8.723 7.66a.733.733 0 0 0-.123.406v1.466a3.667 3.667 0 1 0 7.333 0V8.066a.733.733 0 0 0-.123-.406l-2.892-4.34a.733.733 0 0 0-.946-.514l-3.24 1.097V.999Zm5.408 6.8-1.874-2.811-1.874 2.811h3.748Zm-4.074 1.467h4.4v.266a2.2 2.2 0 0 1-4.4 0v-.266Zm-4.46 1.2L3.733 7.654 1.86 10.466h3.748Zm-4.074 1.467h4.4v.266a2.2 2.2 0 0 1-4.4 0v-.266Z"/>
  </g>
</svg>
