<svg width="16" height="16" viewBox="0 0 16 16" xmlns="http://www.w3.org/2000/svg">
	<path d="M6.80078 0C7.38477 0.000194427 7.85827 0.47361 7.8584 1.05762C7.8584 1.06211 7.85748 1.06681 7.85742 1.07129L7.8584 5.68555C7.85862 5.15272 8.29041 4.72088 8.82324 4.7207C9.35622 4.7207 9.78884 5.15262 9.78906 5.68555V6.41309C9.78914 5.88003 10.2272 5.44824 10.7676 5.44824C11.3079 5.44836 11.746 5.8801 11.7461 6.41309V7.14062C11.7531 6.64279 12.1587 6.24125 12.6582 6.24121C13.1577 6.24121 13.5623 6.64277 13.5693 7.14062L13.5703 11.7432C13.5786 11.8475 13.584 11.9531 13.584 12.0596C13.584 12.1654 13.5785 12.2703 13.5703 12.374V12.5488H13.5527C13.3117 14.4941 11.654 15.9999 9.64355 16C8.14451 16 6.84093 15.1629 6.1748 13.9307L6.1709 13.9336L5.39746 12.5488H5.38574L3.41504 9.00488L3.41699 9.00293L3.37598 8.92969L3.38086 8.92676L2.41504 7.19629C2.69598 7.04205 3.01919 6.9551 3.3623 6.95508C4.13243 6.95508 4.79692 7.3988 5.12109 8.04297L5.65039 8.99023L5.74219 9.11035V1.07129C5.74213 1.06681 5.74219 1.06211 5.74219 1.05762C5.74231 0.47349 6.21662 0 6.80078 0Z" />
</svg>
