<svg width="24" height="24" viewBox="0 0 24 24" xmlns="http://www.w3.org/2000/svg">
  <path fill-rule="evenodd" d="M12.205 14.698a1.956 1.956 0 1 1-3.911 0 1.956 1.956 0 0 1 3.911 0Zm-1.955.756a.756.756 0 1 0 0-1.512.756.756 0 0 0 0 1.512Z"/>
  <path d="M14.248 7.998a1.023 1.023 0 1 0 0-2.047 1.023 1.023 0 0 0 0 2.047Zm-1.463 4.142a.756.756 0 0 1 .242-1.041l1.033-.643a.756.756 0 0 1 .799 1.282l-1.033.644a.756.756 0 0 1-1.04-.242Zm-2.627-2.83a.756.756 0 1 0 1.491-.249L11.4 7.57a.756.756 0 0 0-1.49.249l.248 1.491Z"/>
  <path fill-rule="evenodd" d="M15.198 2.435a5.643 5.643 0 0 0-2.685-.306L11.94.882a.756.756 0 1 0-1.373.632l.467 1.015a5.708 5.708 0 0 0-.565.276l-.635-.756a.756.756 0 0 0-1.157.973l.58.69c-.203.2-.393.418-.566.65l-.898-.294a.756.756 0 0 0-.47 1.437l.625.204a5.81 5.81 0 0 0-.03.08l-2.181 5.904-.415-.349a.756.756 0 0 0-.973 1.158l.95.797c-.056.43-.06.86-.017 1.283l-1.019.172a.756.756 0 0 0 .253 1.49l1.12-.19a5.662 5.662 0 0 0 2.378 2.824c-.086.175-.184.357-.289.553l-.015.027c-.172.32-.37.686-.507 1.05-.14.377-.25.835-.157 1.32.097.51.396.938.856 1.281.491.366 1.009.491 1.524.428.474-.058.892-.27 1.22-.456.152-.087.28-.165.397-.236.177-.108.332-.202.52-.297.276-.14.491-.203.683-.203.52 0 .743.174.839.274a.62.62 0 0 1 .123.19.764.764 0 0 0 1.477-.389l-.735.181.735-.18v-.005l-.002-.005-.003-.01-.007-.025a1.686 1.686 0 0 0-.104-.265 2.144 2.144 0 0 0-.38-.546c-.391-.41-1.017-.747-1.943-.747-.532 0-.995.177-1.371.366-.23.116-.49.273-.708.404-.105.064-.2.121-.278.166-.295.168-.492.248-.649.267-.114.014-.24.002-.426-.136-.216-.162-.256-.278-.268-.343-.018-.092-.008-.242.088-.498.096-.258.246-.539.435-.888l.008-.014c.11-.203.23-.428.344-.664 1.447.4 2.941.196 4.19-.476l.772.92a.756.756 0 0 0 1.158-.97l-.704-.84c.4-.38.747-.823 1.027-1.32l1.228.104a.756.756 0 0 0 .129-1.506l-.742-.063 2.073-5.61c.026-.07.05-.14.072-.209l.66.244a.756.756 0 0 0 .523-1.418l-.908-.335a5.644 5.644 0 0 0-.053-1.056l.88-.134a.756.756 0 1 0-.229-1.495l-1.07.164a5.698 5.698 0 0 0-.562-.996l.745-.631a.756.756 0 0 0-.976-1.154l-.799.676a5.66 5.66 0 0 0-1.636-.938Zm-.392 13.012 2.312-6.26a4.14 4.14 0 1 0-7.768-2.87l-2.313 6.26a4.14 4.14 0 0 0 7.769 2.87Z"/>
</svg>
