<svg xmlns="http://www.w3.org/2000/svg" width="16" height="16" viewBox="0 0 16 16">
  <path
    d="M 0 2 C 0 0.895 0.895 0 2 0 L 14 0 C 15.105 0 16 0.895 16 2 L 16 14 C 16 15.105 15.105 16 14 16 L 2 16 C 0.895 16 0 15.105 0 14 Z M 11.744 3.962 C 11.602 3.993 11.478 4.079 11.398 4.201 L 6.91 10.284 L 4.59 7.663 C 4.443 7.458 4.198 7.378 3.976 7.478 C 3.766 7.573 3.621 7.808 3.594 8.084 C 3.567 8.356 3.656 8.627 3.832 8.787 L 6.565 11.877 C 6.8 12.141 7.159 12.118 7.373 11.83 L 12.247 5.218 C 12.414 4.998 12.457 4.665 12.357 4.385 C 12.251 4.091 12.005 3.913 11.743 3.962 Z"></path>
</svg>