<svg width="24" height="24" viewBox="0 0 24 24">
  <path fill-rule="evenodd" d="M12 14.53c-.662 0-1.354-.425-1.404-1.375l-.28-6.545v-.025c0-.93.755-1.687 1.685-1.687s1.686.757 1.686 1.687v.024l-.28 6.54A1.41 1.41 0 0 1 12 14.531Zm.453-7.603a.45.45 0 0 0-.9 0l.249 5.791c.01.19.07.223.2.223.058 0 .192-.022.202-.225l.248-5.789Zm-1.816 8.892c.36-.36.857-.566 1.364-.566a1.935 1.935 0 0 1 1.927 1.927c0 .51-.208 1.008-.569 1.365a1.92 1.92 0 0 1-1.358.56 1.94 1.94 0 0 1-1.364-.563 1.94 1.94 0 0 1-.563-1.363c0-.506.206-1.002.563-1.36Zm.852 1.88c.267.27.757.27 1.019.003A.727.727 0 0 0 12 16.457a.727.727 0 0 0-.512 1.243Z"/>
  <path fill-rule="evenodd" d="M22.364 12c0 5.724-4.64 10.364-10.364 10.364-5.724 0-10.364-4.64-10.364-10.364C1.636 6.276 6.276 1.636 12 1.636c5.724 0 10.364 4.64 10.364 10.364Zm-1.582 0a8.782 8.782 0 1 1-17.564 0 8.782 8.782 0 0 1 17.564 0Z"/>
</svg>
