<svg width="16" height="16" viewBox="0 0 16 16" xmlns="http://www.w3.org/2000/svg">
  <path fill-rule="evenodd" d="m13.416 2.807-.032 1.453a7.258 7.258 0 0 0-1.556-1.687C10.57 1.586 9.042 1.085 7.49 1.148c-1.553.064-3.041.689-4.227 1.775-.993.91-1.695 2.11-2.082 3.444-.126.436.163.87.606.97.463.102.915-.2 1.063-.651.302-.918.803-1.744 1.496-2.38A5.05 5.05 0 0 1 7.553 2.96a4.995 4.995 0 0 1 3.291 1.081 5.54 5.54 0 0 1 1.365 1.575l-1.887-.348a.84.84 0 0 0-.31 1.652l3.582.686a1.143 1.143 0 0 0 1.357-1.094l.09-3.667a.813.813 0 1 0-1.625-.038ZM1.143 13.647a.813.813 0 1 0 1.625.038l.033-1.454a7.243 7.243 0 0 0 1.555 1.687c1.258.987 2.786 1.489 4.339 1.425 1.553-.063 3.04-.688 4.227-1.775.992-.909 1.695-2.11 2.081-3.443.127-.436-.162-.871-.606-.97-.463-.103-.914.2-1.062.65-.302.918-.803 1.744-1.497 2.38a5.05 5.05 0 0 1-3.206 1.346 4.995 4.995 0 0 1-3.292-1.08 5.547 5.547 0 0 1-1.365-1.576l1.888.348a.84.84 0 0 0 .31-1.651l-3.582-.687A1.143 1.143 0 0 0 1.233 9.98l-.09 3.667Z"/>
</svg>
