<svg width="14" height="14" viewBox="0 0 14 14" xmlns="http://www.w3.org/2000/svg">
<g clip-path="url(#clip0_1265_422)">
<path d="M6.79565 6.35679C7.51238 6.35679 8.09341 5.77518 8.09341 5.05772C8.09341 4.34026 7.51238 3.75864 6.79565 3.75864C6.07892 3.75864 5.49789 4.34026 5.49789 5.05772C5.49789 5.77518 6.07892 6.35679 6.79565 6.35679Z" />
<path d="M5.28604 10.1078C5.99974 10.1078 6.57831 9.52861 6.57831 8.81419C6.57831 8.09976 5.99974 7.52061 5.28604 7.52061C4.57234 7.52061 3.99377 8.09976 3.99377 8.81419C3.99377 9.52861 4.57234 10.1078 5.28604 10.1078Z" />
<path fill-rule="evenodd" clip-rule="evenodd" d="M2.14066 3.78484L0.333928 2.07441C-0.0943055 1.66901 -0.11316 0.992875 0.291815 0.564232C0.696789 0.13559 1.37224 0.116754 1.80047 0.522161L3.20866 1.85529C4.46152 0.464407 6.48107 -0.0990109 8.34435 0.590023C9.482 1.01072 10.3607 1.8241 10.8836 2.81994L12.5291 2.14882C13.0753 1.92604 13.6984 2.18837 13.9208 2.73474C14.1432 3.2811 13.8807 3.90461 13.3345 4.12738L11.4252 4.90608C11.4387 5.48338 11.3456 6.07282 11.1336 6.64735L9.75583 10.3806L11.4221 11.9211C11.8551 12.3214 11.882 12.9973 11.4821 13.4307C11.0822 13.8641 10.407 13.8909 9.97401 13.4906L8.59011 12.2112C7.32908 13.4354 5.43093 13.901 3.67204 13.2505C1.23024 12.3476 -0.0185391 9.63561 0.882817 7.19322L2.14066 3.78484ZM9.55786 6.06465L8.14965 9.88046C7.56953 11.4524 5.82525 12.2556 4.25369 11.6744C2.68213 11.0933 1.87841 9.34785 2.45853 7.77591L3.86674 3.9601C4.44686 2.38816 6.19114 1.58496 7.7627 2.16612C9.33426 2.74728 10.138 4.49271 9.55786 6.06465Z" />
</g>
<defs>
<clipPath id="clip0_1265_422">
<rect width="14" height="14" fill="white" />
</clipPath>
</defs>
</svg>
