<svg width="24" height="24" viewBox="0 0 24 24">
  <path fill-rule="evenodd" d="M1.404 3.785c0-.481.391-.872.873-.872h6.695c.482 0 .873.39.873.873v6.695a.872.872 0 0 1-.873.872H2.277a.873.873 0 0 1-.873-.872V3.785Zm1.746.873v4.95H8.1v-4.95H3.15ZM1.404 14.905c0-.482.391-.873.873-.873h6.695c.482 0 .873.391.873.873V21.6a.873.873 0 0 1-.873.873H2.277a.873.873 0 0 1-.873-.873v-6.695Zm1.746.873v4.95H8.1v-4.95H3.15Zm9.62-.873c0-.482.392-.873.874-.873h6.695c.482 0 .873.391.873.873V21.6a.873.873 0 0 1-.873.873h-6.695a.873.873 0 0 1-.873-.873v-6.695Zm1.746.873v4.95h4.95v-4.95h-4.95Zm-2.878-8.027a.873.873 0 0 1 0-1.234l4.734-4.734a.873.873 0 0 1 1.234 0l4.734 4.734c.34.34.34.893 0 1.234l-4.734 4.734a.873.873 0 0 1-1.234 0l-4.734-4.734Zm1.851-.617 3.5 3.5 3.5-3.5-3.5-3.5-3.5 3.5Z"/>
</svg>
