<svg width="22" height="22" viewBox="0 0 22 22" xmlns="http://www.w3.org/2000/svg">
    <path fill-rule="evenodd" clip-rule="evenodd" d="M21.0888 11.1888C21.0888 11.9236 20.4931 12.5194 19.7583 12.5194L1.99084 12.5194C1.25599 12.5194 0.660265 11.9236 0.660265 11.1888C0.660265 10.4539 1.25599 9.85822 1.99084 9.85822H19.7583C20.4931 9.85822 21.0888 10.4539 21.0888 11.1888ZM21.0888 4.78764C21.0888 5.5225 20.4931 6.11822 19.7583 6.11822L1.99084 6.11822C1.25599 6.11822 0.660265 5.5225 0.660265 4.78764C0.660265 4.05279 1.25599 3.45707 1.99084 3.45707L19.7583 3.45707C20.4931 3.45707 21.0888 4.05279 21.0888 4.78764ZM21.0888 17.5899C21.0888 18.3248 20.4931 18.9205 19.7583 18.9205H1.99084C1.25599 18.9205 0.660265 18.3248 0.660265 17.5899C0.660265 16.8551 1.25599 16.2594 1.99084 16.2594H19.7583C20.4931 16.2594 21.0888 16.8551 21.0888 17.5899Z" />
</svg>