<svg width="22" height="22" viewBox="0 0 22 22" fill="none" xmlns="http://www.w3.org/2000/svg">
<path d="M18.9024 9.61312C18.9024 9.26334 19.1842 8.87734 19.6411 8.87734C20.098 8.87734 20.3608 9.26334 20.3608 9.61312L20.3608 12.1465C20.3608 12.4032 20.2232 12.6376 20.0318 12.7626C19.7191 12.485 19.2761 12.177 18.9024 11.9813L18.9024 11.6102L17.9431 11.6102C17.5179 11.4968 17.0711 11.4363 16.6101 11.4363C16.5553 11.4363 16.3995 11.4346 16.3451 11.4363C16.3575 11.2832 16.3638 11.032 16.3638 10.8772C16.3638 7.72921 13.824 5.27429 10.7662 5.27429C7.70834 5.27429 5.16071 7.82001 5.16071 10.8798C5.16071 13.9396 7.61816 16.4852 10.7662 16.4852C10.9977 16.4852 11.3199 16.4622 11.5474 16.4345C11.5479 16.4969 11.5485 16.5589 11.5485 16.6213C11.5485 16.9998 11.6106 17.548 11.6881 17.9033C11.6298 17.9103 11.5513 17.9244 11.4928 17.93L11.4928 19.0165L12.0982 19.0165C12.2612 19.3276 12.5066 19.7078 12.7271 19.9775C12.6021 20.2939 12.317 20.5009 12.0406 20.4776L9.50731 20.4776C9.15753 20.4776 8.76619 20.1962 8.76619 19.7431C8.76619 19.29 9.14847 19.0165 9.49824 19.0165L10.0357 19.0165L10.0357 17.93C8.63497 17.788 7.42028 17.2743 6.34591 16.3643L5.53005 17.1476L5.90973 17.5273C6.15529 17.7743 6.23009 18.229 5.90942 18.5516C5.58874 18.8742 5.12015 18.7968 4.87312 18.5513L3.09346 16.7716C2.78422 16.543 2.67737 16.0198 3.02751 15.6697C3.37765 15.3196 3.88906 15.4478 4.1174 15.7476L4.49294 16.1232L5.28347 15.3019C4.38495 14.2236 3.87959 13.0081 3.74665 11.6108L2.62564 11.6108L2.62564 12.1465C2.62564 12.4962 2.36172 12.8775 1.89826 12.8775C1.43479 12.8775 1.1692 12.4962 1.1692 12.1465L1.1692 9.61312C1.1692 9.26334 1.44939 8.87832 1.89826 8.87832C2.34713 8.87832 2.62564 9.26334 2.62564 9.61312L2.62564 10.1497L3.74665 10.1497C3.87959 8.75244 4.3892 7.53155 5.28771 6.4533L4.50628 5.63878L4.12525 6.0198C3.87823 6.26536 3.418 6.34036 3.09751 6.01988C2.77703 5.69939 2.85023 5.22469 3.09579 4.97767L4.87545 3.198C5.10403 2.88876 5.6386 2.80467 5.97566 3.14173C6.31272 3.47878 6.20477 3.99913 5.90492 4.22747L5.5247 4.60769L6.34413 5.39688C7.42238 4.49836 8.63848 3.99317 10.0357 3.86023L10.0357 2.74304L9.49824 2.74304C9.14846 2.74304 8.7701 2.45902 8.7701 2.01314C8.7701 1.56726 9.14846 1.2821 9.49824 1.2821L12.0316 1.2821C12.3814 1.2821 12.7623 1.56726 12.7623 2.01314C12.7623 2.45902 12.3814 2.74304 12.0316 2.74304L11.4928 2.74304L11.4928 3.86023C12.89 3.99317 14.1102 4.50389 15.1885 5.4024L16.0038 4.62186L15.6235 4.24153C15.3439 4.00207 15.2638 3.48969 15.5893 3.16419C15.9148 2.8387 16.4194 2.93646 16.6543 3.21076L18.4466 4.99042C18.6922 5.23744 18.7664 5.70291 18.4481 6.02304C18.1299 6.34317 17.6629 6.26676 17.4158 6.0212L17.0379 5.64327L16.2795 6.4618C17.1781 7.54005 17.684 8.75596 17.817 10.1532L18.9024 10.1532L18.9024 9.61312Z"/>
<path fill-rule="evenodd" clip-rule="evenodd" d="M20.8326 16.4891C20.8326 18.7674 18.9863 20.7235 16.6177 20.7235C14.2491 20.7235 12.3912 18.8198 12.3912 16.4852C12.3912 14.1506 14.2733 12.2782 16.6101 12.2782C18.9469 12.2782 20.8326 14.2109 20.8326 16.4891ZM17.7193 18.5829C17.9876 18.3401 18.1099 18.0321 18.1099 17.6532C18.1099 17.2743 18.0435 17.1688 17.8898 16.9122C17.7197 16.6906 17.4053 16.4702 16.9465 16.2509C16.5996 16.0852 16.3792 15.9711 16.2852 15.9084C16.1934 15.8435 16.1263 15.7775 16.0838 15.7104C16.0412 15.641 15.981 15.4715 15.981 15.3798C15.981 15.2321 16.0763 15.0242 16.2239 14.9303C16.3291 14.8386 16.5084 14.7978 16.7053 14.7978C16.8709 14.7978 17.0388 14.819 17.2089 14.8615C17.3812 14.9041 17.5351 14.9581 17.797 15.0655L18.056 14.4279C17.8031 14.3183 17.6423 14.2657 17.4095 14.2053C17.1768 14.1448 16.9304 14.1212 16.6753 14.1212C16.1509 14.1464 15.7912 14.2849 15.4958 14.5333C15.2342 14.8323 15.1668 15.0864 15.1668 15.4647C15.1668 15.6952 15.1898 15.799 15.2793 15.9713C15.3688 16.1437 15.4885 16.2947 15.6385 16.4245C15.7884 16.5543 16.0096 16.6864 16.3132 16.8307C16.6332 16.9829 16.8311 17.0854 16.9341 17.1548C17.0393 17.2242 17.2051 17.3528 17.2259 17.4392C17.2796 17.5131 17.2818 17.6156 17.2818 17.7118C17.2818 17.9188 17.1646 18.1259 17.0036 18.1907C16.8827 18.278 16.7081 18.3217 16.4799 18.3217C16.2896 18.3217 16.0793 18.2914 15.8488 18.231C15.6205 18.1706 15.4333 18.1095 15.1021 17.9618L15.1021 18.7079C15.5049 18.9048 15.8756 18.976 16.3993 18.976C16.9677 18.976 17.451 18.8256 17.7193 18.5829Z"/>
<path d="M11.7232 15.1962C11.9011 14.5516 12.2144 13.9084 12.6099 13.3915C12.5318 12.7665 11.8795 12.0634 11.003 12.0634C10.1266 12.0634 9.35993 12.7626 9.35993 13.7157C9.35993 14.6688 10.1482 15.3563 11.003 15.3563C11.2298 15.3563 11.5291 15.2838 11.7232 15.1962Z"/>
<path d="M8.92243 10.8798C8.92243 10.2313 8.4029 9.67664 7.71858 9.67664C7.03426 9.67664 6.51618 10.1962 6.51618 10.8798C6.51618 11.5634 7.05134 12.0829 7.73884 12.0829C8.42634 12.0829 8.92243 11.5283 8.92243 10.8798Z"/>
<path fill-rule="evenodd" clip-rule="evenodd" d="M12.4433 10.9969C11.254 11.0632 10.2174 10.122 10.2193 8.88488C10.2212 7.6478 11.2427 6.73523 12.4433 6.7782C13.6438 6.82117 14.442 7.81445 14.442 8.88488C14.442 9.95532 13.6326 10.9307 12.4433 10.9969ZM12.4433 8.03589C11.972 8.03589 11.5621 8.39147 11.5591 8.88488C11.5562 9.37829 11.9967 9.76092 12.4433 9.75391C12.8899 9.74691 13.2779 9.35485 13.2779 8.88488C13.2779 8.41492 12.9146 8.03589 12.4433 8.03589Z"/>
</svg>
