<svg width="22" height="22" viewBox="0 0 22 22" xmlns="http://www.w3.org/2000/svg">
    <path fill-rule="evenodd" clip-rule="evenodd" d="M17.2187 15.8358C17.998 15.8358 18.6088 16.4436 18.6088 17.2189C18.6088 18.0025 17.998 18.6163 17.2187 18.6163C16.444 18.6163 15.8149 17.9897 15.8149 17.2189C15.8149 16.4436 16.4318 15.8358 17.2187 15.8358ZM4.79563 12.3993C4.01635 12.3993 3.40552 11.7855 3.40552 11.0026C3.40552 10.2265 4.01635 9.61878 4.79563 9.61878C5.58327 9.61878 6.20017 10.2265 6.20017 11.0026C6.20017 11.7727 5.56961 12.3993 4.79563 12.3993ZM17.2187 3.38288C17.998 3.38288 18.6088 3.99665 18.6088 4.78029C18.6088 5.55638 17.998 6.16337 17.2187 6.16337C16.4318 6.16337 15.8149 5.55638 15.8149 4.78029C15.8149 4.01024 16.444 3.38288 17.2187 3.38288ZM17.2187 9.61878C17.998 9.61878 18.6088 10.2265 18.6088 11.0026C18.6088 11.7855 17.998 12.3993 17.2187 12.3993C16.444 12.3993 15.8149 11.7727 15.8149 11.0026C15.8149 10.2265 16.4318 9.61878 17.2187 9.61878ZM14.52 11.77C14.8364 12.9824 15.994 13.92 17.2187 13.92C18.7181 13.92 20.04 12.5012 20.04 11.0026C20.04 9.50326 18.7181 8.07997 17.2187 8.07997C15.9879 8.07997 14.8303 9.02921 14.52 10.25H11.79V5.59997H14.54C14.8746 6.7792 16.022 7.59997 17.2187 7.59997C18.7181 7.59997 20.04 6.27962 20.04 4.78028C20.04 3.2817 18.7181 1.95996 17.2187 1.95996C15.978 1.95996 14.7983 2.84638 14.51 4.07997H11.0216C10.8463 4.07997 10.5768 4.1872 10.4516 4.3095C10.3242 4.43332 10.2522 4.66176 10.25 4.84974V10.25H7.48994C7.17959 9.02921 6.0264 8.07996 4.79563 8.07996C3.28942 8.07996 1.95995 9.49996 1.95995 11.0026C1.95995 12.4648 3.32736 13.92 4.79563 13.92C6.02109 13.92 7.17428 12.9824 7.48994 11.77H10.25V17.1706C10.256 17.5314 10.6604 17.92 11.0208 17.92H14.51C14.7998 19.1513 15.9803 20.04 17.2187 20.04C18.7181 20.04 20.04 18.7175 20.04 17.2189C20.04 15.7203 18.7181 14.4 17.2187 14.4C16.022 14.4 14.8746 15.22 14.54 16.4H11.79V11.77H14.52Z" />
</svg>
    