<svg width="24" height="24" viewBox="0 0 24 24" xmlns="http://www.w3.org/2000/svg">
  <path d="M6.028 18.418h7.164c.485 0 .866-.296.866-.674 0-.377-.381-.673-.866-.673H6.028c-.485 0-.866.296-.866.673 0 .378.381.674.866.674Zm7.164-2.833H6.028c-.477 0-.866-.305-.866-.682 0-.372.381-.664.866-.664h7.164c.477 0 .866.307.866.683 0 .372-.381.663-.866.663Z"/>
  <path fill-rule="evenodd" d="M22.087 5.672c0-.22-.09-.436-.249-.593L17.512.717a.85.85 0 0 0-.593-.248H8.434c-.959 0-1.769.812-1.769 1.773v3.015h-3.01c-.975 0-1.768.795-1.768 1.773v14.723c0 .978.793 1.773 1.769 1.773h11.908c.977 0 1.77-.795 1.77-1.773v-3.015h3.008c.96 0 1.77-.813 1.77-1.773l-.025-11.293ZM3.594 7.006c0-.032.028-.061.062-.061h7.643v3.492c0 .465.377.843.842.843h3.484v10.45a.063.063 0 0 1-.061.061H3.656a.063.063 0 0 1-.062-.061V7.006Zm13.49 2.837-4.326-4.362a.85.85 0 0 0-.593-.247H8.372V2.242c0-.034.028-.062.062-.062h7.643v3.492c0 .465.377.844.842.844h3.484v10.45a.063.063 0 0 1-.061.06h-3.007v-6.59a.845.845 0 0 0-.25-.593Zm-4.076-.274V8.132l1.434 1.437h-1.434Zm4.753-4.765V3.368l1.434 1.436h-1.434Z"/>
</svg>
