<svg width="24" height="24" viewBox="0 0 24 24">
  <path fill-rule="evenodd" d="M11.375 4.116c0 .537-.408.979-.93 1.032h-.107l-1.964 3.57c-.196 0-.442.035-.647.223a.188.188 0 0 0-.027.028 3.556 3.556 0 0 1 2.644.797 3.06 3.06 0 0 1 3.082-.04 3.555 3.555 0 0 1 2.222-.776c.58 0 1.126.138 1.61.383l.542-1.2c.583-1.293 1.167-2.586 1.733-3.885.165-.376.451-.66.834-.799.275-.1.552-.097.644-.096h.018a1.036 1.036 0 0 1 .264 2.039h-.109c-.395.884-.769 1.779-1.143 2.673-.384.92-.768 1.839-1.175 2.748a1.105 1.105 0 0 1-.04.08 3.57 3.57 0 1 1-6.475.255 1.314 1.314 0 0 0-.966.04 3.57 3.57 0 1 1-6.32-.595c.132-.387.322-.773.446-.99l3.273-5.728a.996.996 0 0 1 .12-.169h.001l.001-.002.003-.003.005-.006.012-.013a1.42 1.42 0 0 1 .115-.111l.029-.026c.063-.057.145-.13.245-.192a1.966 1.966 0 0 1 1.023-.273c.572 0 1.036.464 1.037 1.036Zm-9.44 1.208A2.096 2.096 0 0 1 4.03 3.229h2.036a.81.81 0 1 1 0 1.619H4.03a.476.476 0 0 0-.476.476v13.5a.476.476 0 0 0 .476.477h13.5a.477.477 0 0 0 .477-.476V17.61a.812.812 0 0 1 .81-.818.812.812 0 0 1 .81.818v1.213a2.096 2.096 0 0 1-2.096 2.096H4.03a2.096 2.096 0 0 1-2.096-2.096v-13.5Zm11.888 7.197a1.825 1.825 0 1 1 3.65 0 1.825 1.825 0 0 1-3.65 0Zm-5.751-1.825a1.825 1.825 0 1 0 0 3.649 1.825 1.825 0 0 0 0-3.65Z"/>
</svg>
