<svg width="24" height="24" viewBox="0 0 24 24">
  <path fill-rule="evenodd" d="m11.992 8.712-.64 1.538a1.855 1.855 0 0 1-1.563 1.136l-1.66.133 1.264 1.084c.528.452.759 1.162.598 1.838l-.387 1.62 1.422-.868a1.855 1.855 0 0 1 1.933 0l1.421.868-.386-1.62a1.854 1.854 0 0 1 .597-1.838l1.265-1.084-1.66-.133a1.855 1.855 0 0 1-1.564-1.136l-.64-1.538ZM13 7.015c-.372-.896-1.641-.896-2.014 0L9.892 9.642a.273.273 0 0 1-.23.167l-2.837.228c-.967.077-1.36 1.284-.622 1.916l2.161 1.851a.27.27 0 0 1 .088.27l-.66 2.769c-.225.944.801 1.69 1.63 1.184l2.428-1.484a.273.273 0 0 1 .284 0l2.43 1.484c.827.505 1.854-.24 1.629-1.184l-.66-2.769a.273.273 0 0 1 .087-.27l2.162-1.851c.737-.632.344-1.839-.623-1.916l-2.837-.228a.273.273 0 0 1-.23-.167L13 7.015Z"/>
  <path d="M11.201 2.111a.79.79 0 1 1 1.582 0v1.69a.791.791 0 0 1-1.582 0v-1.69Zm11.055 9.091a.79.79 0 0 1 0 1.582h-1.691a.79.79 0 0 1 0-1.582h1.69Zm-3.466-7.13a.791.791 0 0 1 1.119 1.119l-1.196 1.195a.79.79 0 1 1-1.119-1.118l1.196-1.196Zm1.945 14.727a.79.79 0 1 1-1.119 1.118l-1.195-1.195a.79.79 0 1 1 1.118-1.119l1.196 1.196Zm-9.534 1.386a.79.79 0 0 1 1.582 0v1.69a.791.791 0 0 1-1.582 0v-1.69ZM3.42 11.202a.79.79 0 1 1 0 1.582H1.73a.79.79 0 1 1 0-1.582h1.69Zm1.028 6.401a.79.79 0 1 1 1.119 1.119L4.37 19.917A.791.791 0 0 1 3.253 18.8l1.195-1.196ZM6.39 5.268a.79.79 0 1 1-1.12 1.118L4.076 5.191a.79.79 0 1 1 1.119-1.119L6.39 5.268Z"/>
</svg>
