<svg width="24" height="24" viewBox="0 0 24 24" xmlns="http://www.w3.org/2000/svg">
  <path d="M11.037 3.929c.346-1.074.519-1.611.552-1.664.223-.354.599-.354.822 0 .033.053.206.59.552 1.664.542 1.681 1.343 3.496 2.477 4.63 1.135 1.135 2.95 1.936 4.631 2.478 1.074.346 1.611.519 1.663.552.354.223.354.599 0 .822-.052.033-.589.206-1.663.552-1.681.542-3.496 1.343-4.63 2.477-1.135 1.135-1.936 2.95-2.478 4.631-.346 1.074-.519 1.611-.552 1.663-.223.354-.599.354-.822 0-.033-.052-.206-.589-.552-1.663-.542-1.681-1.343-3.496-2.477-4.63-1.135-1.135-2.95-1.936-4.631-2.478-1.074-.346-1.611-.519-1.664-.552-.354-.223-.354-.599 0-.822.053-.033.59-.206 1.664-.552 1.681-.542 3.496-1.343 4.63-2.477 1.135-1.135 1.936-2.95 2.478-4.631"/>
</svg>
