<svg width="24" height="24" viewBox="0 0 24 24">
  <path fill-rule="evenodd" d="M18.145 19.726a1.942 1.942 0 0 1-2.63.742 1.869 1.869 0 0 1-.755-2.578c.526-.92 1.685-1.234 2.64-.717.944.512 1.271 1.634.745 2.553Zm-12.115-5.2c-1.038 0-1.877-.819-1.877-1.828 0-1.01.839-1.828 1.877-1.828s1.878.818 1.878 1.828c0 1.01-.84 1.827-1.878 1.827Zm9.485-9.495a1.945 1.945 0 0 1 2.63.743c.526.92.199 2.042-.746 2.553-.954.519-2.113.202-2.639-.717-.524-.914-.184-2.07.755-2.58Zm2.79 10.559c-1.491-.808-3.342-.5-4.546.742l-4.24-2.224a3.58 3.58 0 0 0 .29-1.41c0-.466-.098-.909-.26-1.321l4.21-2.21c1.204 1.244 3.055 1.551 4.546.743 1.825-.989 2.483-3.24 1.468-5.017l-.078-.134-.004.003c-1.052-1.677-3.296-2.261-5.074-1.296-1.483.804-2.194 2.492-1.753 4.137L8.469 9.909a3.808 3.808 0 0 0-2.44-.89c-2.088 0-3.779 1.646-3.779 3.68 0 2.031 1.691 3.679 3.78 3.679.897 0 1.71-.318 2.36-.827l4.474 2.348c-.44 1.643.27 3.331 1.753 4.136 1.778.964 4.022.38 5.074-1.297l.004.003.078-.134c1.015-1.776.357-4.027-1.468-5.017Z"/>
</svg>
