<svg width="22" height="22" viewBox="0 0 22 22" xmlns="http://www.w3.org/2000/svg">
    <path
        d="M5.52585 16.8827H12.0923C12.537 16.8827 12.8864 16.6115 12.8864 16.2658C12.8864 15.92 12.537 15.6488 12.0923 15.6488H5.52585C5.08116 15.6488 4.73177 15.92 4.73177 16.2658C4.73177 16.6115 5.08116 16.8827 5.52585 16.8827Z" />
    <path
        d="M12.0923 14.2867H5.52585C5.08849 14.2867 4.73177 14.0069 4.73177 13.6612C4.73177 13.3203 5.08116 13.0528 5.52585 13.0528H12.0923C12.5297 13.0528 12.8864 13.3338 12.8864 13.6783C12.8864 14.0191 12.537 14.2867 12.0923 14.2867Z" />
    <path fill-rule="evenodd" clip-rule="evenodd"
        d="M20.2468 5.19931C20.2468 4.99774 20.1637 4.79983 20.0183 4.65567L16.0528 0.657161C15.9074 0.513005 15.7095 0.429932 15.5092 0.429932H7.73083C6.85246 0.429932 6.10968 1.17393 6.10968 2.05475V4.81938H3.35116C2.4569 4.81938 1.73001 5.54749 1.73001 6.44419V19.9399C1.73001 20.8366 2.4569 21.566 3.35116 21.566H14.2667C15.1622 21.566 15.8903 20.8366 15.8903 19.9399V17.1765H18.6464C19.526 17.1765 20.27 16.4313 20.27 15.5517L20.2468 5.19931ZM3.29496 6.4222C3.29496 6.39288 3.32062 6.36601 3.35116 6.36601H10.3574V9.56677C10.3574 9.99313 10.7031 10.3401 11.1295 10.3401H14.3229V19.9192C14.3229 19.9485 14.2973 19.9754 14.2667 19.9754H3.35116C3.32062 19.9754 3.29496 19.9485 3.29496 19.9192V6.4222ZM15.6607 9.02313L11.6951 5.02462C11.5498 4.88046 11.3519 4.79739 11.1515 4.79739H7.67464V2.05475C7.67464 2.02421 7.70029 1.99855 7.73083 1.99855H14.7371V5.19931C14.7371 5.62568 15.0828 5.97263 15.5092 5.97263H18.7026V15.5517C18.7026 15.581 18.677 15.6079 18.6464 15.6079H15.8903V9.56677C15.8903 9.36642 15.806 9.16728 15.6607 9.02313ZM11.9236 8.77147V7.45451L13.2381 8.77147H11.9236ZM16.2813 4.40401V3.08705L17.5958 4.40401H16.2813Z" />
</svg>
    