<svg width="22" height="22" viewBox="0 0 22 22" xmlns="http://www.w3.org/2000/svg">
  <path
    d="M18.4937 15.675C18.4937 13.4062 16.8437 11.4812 14.6437 11.0688C14.3687 11 14.1625 11.1375 13.9562 11.3438C13.2 12.2375 12.1687 12.7188 11 12.7188C9.83125 12.7188 8.8 12.2375 8.04375 11.3438C7.90625 11.1375 7.63125 11.0688 7.35625 11.0688C5.0875 11.4812 3.50625 13.4062 3.50625 15.675C3.50625 16.3396 3.50625 17.0042 3.50625 17.6688C3.50625 17.8358 3.53865 18.0319 3.575 18.15C3.85 19.0437 4.675 19.7313 5.6375 19.7313H16.2937C17.2562 19.7313 18.2187 19.25 18.425 18.15C18.4766 17.875 18.4937 17.8337 18.4937 17.6688C18.4937 16.9115 18.4657 16.4316 18.4937 15.675ZM17.05 17.5312C17.05 17.9438 16.7062 18.2875 16.2937 18.2875H5.70625C5.29375 18.2875 4.95 17.9438 4.95 17.5312V15.675C4.95 14.2312 5.9125 12.9937 7.21875 12.5812C8.04375 13.4062 9.075 13.8875 10.175 14.0938C10.45 14.1625 10.725 14.1625 11 14.1625C11.275 14.1625 11.55 14.1625 11.825 14.0938C12.925 13.9563 13.9562 13.4062 14.7812 12.5812C16.1562 12.9937 17.05 14.2312 17.05 15.675V17.5312ZM11 10.7937C13.4062 10.7937 15.3312 8.86875 15.3312 6.4625C15.3312 4.05625 13.4062 2.0625 11 2.0625C8.59375 2.0625 6.66875 3.9875 6.66875 6.39375C6.66875 8.8 8.59375 10.7937 11 10.7937ZM11 3.50625C12.5812 3.50625 13.8875 4.8125 13.8875 6.39375C13.8875 7.975 12.5812 9.28125 11 9.28125C9.41875 9.28125 8.1125 7.975 8.1125 6.39375C8.1125 4.8125 9.41875 3.50625 11 3.50625Z" />
</svg>
  