<svg width="25" height="24" viewBox="0 0 25 24">
  <path fill-rule="evenodd" d="M19.69.927A.927.927 0 0 0 18.762 0H.927A.927.927 0 0 0 0 .927v13.516c0 .512.415.927.927.927h2.357v3.226a.927.927 0 0 0 1.555.683l4.255-3.909h.89v1.84c0 .512.416.927.928.927h6.136l2.75 2.79c.581.59 1.587.178 1.587-.652v-2.138h1.721a.927.927 0 0 0 .927-.927V5.441a.927.927 0 0 0-.927-.927H19.69V.927Zm0 5.147h2.796v10.504h-2.649v2.183l-2.152-2.183h-6.153V15.37h7.23a.927.927 0 0 0 .928-.927v-8.37ZM18.142 1.56H1.548v12.277h3.284v3.346l3.672-3.346h9.638V1.56Zm-6.396 8.272c.302 0 .546.245.546.546v.443a.545.545 0 0 1-.546.546H5.212a.545.545 0 0 1-.545-.546v-.443c0-.301.244-.546.545-.546h6.534ZM6.621 7.236c.301 0 .546.245.546.546v.443a.545.545 0 0 1-.546.546H5.212a.545.545 0 0 1-.545-.546v-.443c0-.301.244-.546.545-.546h1.41Zm8.2 0c.301 0 .546.245.546.546v.443a.546.546 0 0 1-.546.546h-1.106a.545.545 0 0 1-.546-.546v-.443c0-.301.245-.546.546-.546h1.106Zm-5.446 0c.302 0 .546.245.546.546v.443a.545.545 0 0 1-.546.546H8.086a.545.545 0 0 1-.545-.546v-.443c0-.301.244-.546.545-.546h1.29Zm2.875 0c.3 0 .545.245.545.546v.443a.545.545 0 0 1-.545.546h-1.41a.545.545 0 0 1-.545-.546v-.443c0-.301.244-.546.546-.546h1.409Zm2.544-2.57c.302 0 .546.245.546.546v.443a.545.545 0 0 1-.546.546H5.212a.545.545 0 0 1-.545-.546v-.443c0-.301.244-.545.545-.545h9.582Z"/>
</svg>
