<svg width="22" height="22" viewBox="0 0 22 22" xmlns="http://www.w3.org/2000/svg">
  <path d="M19.0779 5.79787C19.7867 5.79787 20.3613 5.2233 20.3613 4.51453C20.3613 3.80577 19.7867 3.2312 19.0779 3.2312C18.6368 3.2312 18.2477 3.45375 18.0167 3.79268H11C10.6013 3.79268 10.2781 4.11588 10.2781 4.51456V7.11982H7.14993C6.75125 7.11982 6.42806 7.44302 6.42806 7.8417V11.6353H4.05642C3.82543 11.2964 3.4363 11.0738 2.9952 11.0738C2.28644 11.0738 1.71187 11.6484 1.71187 12.3572C1.71187 13.0659 2.28644 13.6405 2.9952 13.6405C3.43629 13.6405 3.8254 13.418 4.05639 13.0791H6.42806V17.3479C6.42806 17.7466 6.75125 18.0697 7.14993 18.0697H18.0167C18.2477 18.4087 18.6368 18.6313 19.0779 18.6313C19.7867 18.6313 20.3613 18.0567 20.3613 17.3479C20.3613 16.6392 19.7867 16.0646 19.0779 16.0646C18.6369 16.0646 18.2478 16.2871 18.0168 16.626H7.87181V8.56357H10.2781V10.6936C10.2781 11.0923 10.6013 11.4154 11 11.4154H18.0167C18.2477 11.7544 18.6368 11.9769 19.0779 11.9769C19.7867 11.9769 20.3613 11.4023 20.3613 10.6936C20.3613 9.98479 19.7867 9.41023 19.0779 9.41023C18.6368 9.41023 18.2477 9.63277 18.0167 9.97169H11.7219V5.23643H18.0167C18.2477 5.57534 18.6369 5.79787 19.0779 5.79787Z" />
</svg>
  