<svg width="22" height="22" viewBox="0 0 22 22" xmlns="http://www.w3.org/2000/svg">
    <path fill-rule="evenodd" clip-rule="evenodd" d="M11.7806 17.3984H9.8633V14.4539H12.3969C12.7393 13.8376 13.1501 13.3583 13.698 12.9475V10.6193H16.6424V11.7834C16.7109 11.7834 16.7794 11.7834 16.9163 11.7834C17.2587 11.7834 17.6011 11.8518 17.875 11.8518V1.99128C17.875 1.6489 17.6011 1.375 17.2587 1.375H1.30378H1.23531C0.892928 1.375 0.6875 1.6489 0.6875 1.99128V17.9462C0.6875 18.2886 0.961404 18.5625 1.30378 18.5625H11.9861C11.8491 18.2201 11.7806 17.8093 11.7806 17.3984ZM13.698 2.60757H16.6424V5.55204H13.698V2.60757ZM13.698 6.85309H16.6424V9.3867H13.698V6.85309ZM9.8633 2.60757H12.3969V5.55204H9.8633V2.60757ZM9.8633 6.85309H12.3969V9.3867H9.8633V6.85309ZM9.8633 10.6193H12.3969V13.1529H9.8633V10.6193ZM4.79607 17.3984H1.85159V14.4539H4.79607V17.3984ZM4.79607 13.1529H1.85159V10.6193H4.79607V13.1529ZM4.79607 9.3867H1.85159V6.85309H4.79607V9.3867ZM4.79607 5.55204H1.85159V2.60757H4.79607V5.55204ZM8.63073 17.3984H6.09711V14.4539H8.63073V17.3984ZM8.63073 13.1529H6.09711V10.6193H8.63073V13.1529ZM8.63073 9.3867H6.09711V6.85309H8.63073V9.3867ZM8.63073 5.55204H6.09711V2.60757H8.63073V5.55204Z" fill="#CCCCCC" />
    <path fill-rule="evenodd" clip-rule="evenodd" d="M16.8438 11.6875C19.7312 11.6875 22 14.025 22 16.8438C22 19.6625 19.6625 22 16.8438 22C14.025 22 11.6875 19.6625 11.6875 16.8438C11.6875 14.025 14.025 11.6875 16.8438 11.6875ZM16.8438 13.475C15.8813 13.475 15.0562 14.3 15.0562 15.2625V15.8813C14.7125 15.8813 14.4375 16.1562 14.4375 16.5V18.9062C14.4375 19.25 14.7125 19.525 15.0562 19.525H18.6313C18.975 19.525 19.25 19.25 19.25 18.9062V16.5C19.25 16.1562 18.975 15.8813 18.6313 15.8813V15.2625C18.6313 14.3 17.8062 13.475 16.8438 13.475ZM16.8438 16.9125C17.1188 16.9125 17.325 17.1188 17.2563 17.325C17.2563 17.5313 17.1875 17.6687 17.05 17.7375V18.3563C17.05 18.4938 16.9813 18.5625 16.8438 18.5625C16.7062 18.5625 16.6375 18.4938 16.6375 18.3563V17.7375C16.5 17.6 16.4312 17.4625 16.4312 17.325C16.4312 17.1188 16.5687 16.9125 16.8438 16.9125ZM16.8438 14.0938C17.5312 14.0938 18.0813 14.6437 18.0125 15.3312V15.95H15.6063V15.3312C15.6063 14.6437 16.1562 14.0938 16.8438 14.0938Z" />
</svg>
    