<svg width="24" height="24" viewBox="0 0 24 24">
  <path fill-rule="evenodd" d="M13.443 5.465c1.19-1.19 2.877-1.622 4.374-1.707a10.18 10.18 0 0 1 1.887.067 5.6 5.6 0 0 1 .405.066c.022.11.045.246.067.405.064.484.108 1.147.066 1.886-.086 1.497-.517 3.183-1.708 4.375-.614.615-2.2 1.92-3.672 3.1-.728.584-1.415 1.127-1.921 1.524l-.297.233-.486-.486-.007-.006-.996-.997 2.024-2.024a.762.762 0 1 0-1.08-1.08l-2.024 2.024-1.49-1.489.233-.298c.398-.505.942-1.193 1.525-1.92 1.182-1.473 2.485-3.058 3.1-3.673Zm-3.368 9.54 2.167 2.167c.327.334.433.91.381 1.58a5.313 5.313 0 0 1-.216 1.119l-.004.013a.765.765 0 0 0 1.202.841l.001-.001.004-.002.011-.01.039-.032a12.305 12.305 0 0 0 .6-.543c.376-.364.873-.887 1.35-1.516.896-1.188 1.856-2.946 1.478-4.801 1.05-.859 2.036-1.693 2.526-2.183 1.569-1.57 2.057-3.694 2.152-5.368.05-.846 0-1.607-.077-2.176a7.198 7.198 0 0 0-.129-.716 2.815 2.815 0 0 0-.077-.264 1.498 1.498 0 0 0-.057-.137.86.86 0 0 0-.401-.401 1.184 1.184 0 0 0-.14-.058 2.81 2.81 0 0 0-.262-.077 7.178 7.178 0 0 0-.717-.13 11.791 11.791 0 0 0-2.175-.077c-1.674.096-3.799.584-5.368 2.152-.493.493-1.336 1.49-2.2 2.549-1.838-.352-3.575.6-4.752 1.488a13.275 13.275 0 0 0-1.944 1.814c-.05.058-.09.103-.116.135l-.032.04-.009.01-.003.004h-.001a.764.764 0 0 0 .842 1.202l.013-.004a4.746 4.746 0 0 1 .303-.084c.212-.05.5-.106.814-.13.676-.053 1.256.055 1.589.388l1.156 1.156.004.005.968.967-1.233 1.233a.763.763 0 1 0 1.08 1.08l1.233-1.233ZM7.45 10.33l.168-.214c.357-.455.832-1.055 1.348-1.701-.897.117-1.814.607-2.635 1.227a9.018 9.018 0 0 0-.314.247c.471.042.977.165 1.433.44Zm6.94 7.37c.635-.84 1.133-1.778 1.236-2.697-.662.53-1.278 1.016-1.742 1.38l-.205.162c.293.464.42.986.465 1.47.082-.101.165-.206.247-.314Zm2.456-9.62c-.298.298-.726.268-.96.035-.233-.233-.263-.663.034-.96.297-.297.727-.267.96-.034.233.233.263.662-.034.96Zm1.08 1.08c-.871.872-2.268.887-3.12.035-.852-.852-.836-2.25.034-3.12.87-.87 2.268-.886 3.12-.034.852.852.837 2.249-.034 3.12ZM6.672 18.408a.764.764 0 0 0-1.08-1.08l-3.154 3.154a.764.764 0 0 0 1.08 1.08l3.154-3.154Zm3.957-.667c.26.333.2.813-.13 1.073l-3.54 2.768a.764.764 0 0 1-.941-1.203l3.539-2.769a.765.765 0 0 1 1.072.131ZM5.183 13.5a.765.765 0 0 1 1.204.941l-2.77 3.54a.763.763 0 1 1-1.202-.941l2.768-3.54Z"/>
</svg>
