<svg width="24" height="24" viewBox="0 0 24 24">
    <path fill-rule="evenodd"
        fill="#CCCCCC"
        d="M12.852 18.98H10.76v-3.212h2.764a5.032 5.032 0 0 1 1.42-1.644v-2.54h3.211v1.27h.3c.373 0 .746.075 1.045.075V2.172a.67.67 0 0 0-.672-.672H1.348c-.374 0-.598.299-.598.672v17.406a.67.67 0 0 0 .672.672h11.654a3.49 3.49 0 0 1-.224-1.27Zm2.091-16.135h3.212v3.212h-3.212V2.845Zm0 4.631h3.212v2.764h-3.212V7.476ZM10.76 2.845h2.764v3.212H10.76V2.845Zm0 4.631h2.764v2.764H10.76V7.476Zm0 4.109h2.764v2.764H10.76v-2.764ZM5.232 18.98H2.02v-3.212h3.212v3.212Zm0-4.631H2.02v-2.764h3.212v2.764Zm0-4.109H2.02V7.476h3.212v2.764Zm0-4.183H2.02V2.845h3.212v3.212ZM9.415 18.98H6.651v-3.212h2.764v3.212Zm0-4.631H6.651v-2.764h2.764v2.764Zm0-4.109H6.651V7.476h2.764v2.764Zm0-4.183H6.651V2.845h2.764v3.212Z" />
    <path fill-rule="evenodd"
        d="M18.375 12.75c3.15 0 5.625 2.55 5.625 5.625S21.45 24 18.375 24s-5.625-2.55-5.625-5.625 2.55-5.625 5.625-5.625Zm0 1.95c-1.05 0-1.95.9-1.95 1.95v.675c-.375 0-.675.3-.675.675v2.625c0 .375.3.675.675.675h3.9c.375 0 .675-.3.675-.675V18c0-.375-.3-.675-.675-.675v-.675c0-1.05-.9-1.95-1.95-1.95Zm0 3.75c.3 0 .525.225.45.45 0 .225-.075.375-.225.45v.675c0 .15-.075.225-.225.225-.15 0-.225-.075-.225-.225v-.675c-.15-.15-.225-.3-.225-.45 0-.225.15-.45.45-.45Zm0-3.075c.75 0 1.35.6 1.275 1.35v.675h-2.625v-.675c0-.75.6-1.35 1.35-1.35Z" />
</svg>
  