<svg width="16" height="16" viewBox="0 0 16 16" version="1.1">
  <defs></defs>
  <path style="opacity: 0.01;" d="M 9.18 13.165 C 9.18 13.501 8.906 13.77 8.57 13.77 C 8.234 13.77 7.962 13.501 7.962 13.165 C 7.962 12.83 8.234 12.556 8.57 12.556 C 8.906 12.556 9.18 12.83 9.18 13.165 Z">
    <animateTransform attributeName="transform" type="rotate" from="0 8 8" to="360 8 8" dur="2s" repeatCount="indefinite"></animateTransform>
    <animate attributeName="opacity" dur="1.8s" values="1;1;1;1;0;0;0;0;0;" repeatCount="indefinite" begin="0"></animate>
  </path>
  <path style="opacity: 0.01;" d="M 6.737 12.697 C 6.737 13.131 6.386 13.479 5.955 13.479 C 5.522 13.479 5.169 13.131 5.169 12.697 C 5.169 12.265 5.522 11.912 5.955 11.912 C 6.386 11.912 6.737 12.265 6.737 12.697 Z">
    <animateTransform attributeName="transform" type="rotate" from="0 8 8" to="360 8 8" dur="2s" repeatCount="indefinite"></animateTransform>
    <animate attributeName="opacity" dur="1.8s" values="1;1;1;1;0;0;0;0;0;" repeatCount="indefinite" begin="0.1"></animate>
  </path>
  <path style="opacity: 0.01;" d="M 4.65 10.936 C 4.65 11.413 4.265 11.798 3.792 11.798 C 3.314 11.798 2.93 11.413 2.93 10.936 C 2.93 10.461 3.314 10.075 3.792 10.075 C 4.265 10.075 4.65 10.461 4.65 10.936 Z">
    <animateTransform attributeName="transform" type="rotate" from="0 8 8" to="360 8 8" dur="2s" repeatCount="indefinite"></animateTransform>
    <animate attributeName="opacity" dur="1.8s" values="1;1;1;1;0;0;0;0;0;" repeatCount="indefinite" begin="0.2"></animate>
  </path>
  <path style="opacity: 0.01;" d="M 3.925 8.036 C 3.925 8.568 3.495 8.998 2.964 8.998 C 2.43 8.998 2 8.568 2 8.036 C 2 7.505 2.43 7.074 2.964 7.074 C 3.495 7.074 3.925 7.505 3.925 8.036 Z">
    <animateTransform attributeName="transform" type="rotate" from="0 8 8" to="360 8 8" dur="2s" repeatCount="indefinite"></animateTransform>
    <animate attributeName="opacity" dur="1.8s" values="1;1;1;1;0;0;0;0;0;" repeatCount="indefinite" begin="0.3"></animate>
  </path>
  <path style="opacity: 0.01;" d="M 5.352 4.816 C 5.352 5.404 4.875 5.877 4.287 5.877 C 3.701 5.877 3.226 5.404 3.226 4.816 C 3.226 4.229 3.701 3.75 4.287 3.75 C 4.875 3.75 5.352 4.229 5.352 4.816 Z">
    <animateTransform attributeName="transform" type="rotate" from="0 8 8" to="360 8 8" dur="2s" repeatCount="indefinite"></animateTransform>
    <animate attributeName="opacity" dur="1.8s" values="1;1;1;1;0;0;0;0;0;" repeatCount="indefinite" begin="0.4"></animate>
  </path>
  <path style="opacity: 0.01;" d="M 8.729 3.343 C 8.729 3.96 8.233 4.457 7.616 4.457 C 6.999 4.457 6.504 3.96 6.504 3.343 C 6.504 2.729 6.999 2.231 7.616 2.231 C 8.233 2.231 8.729 2.729 8.729 3.343 Z">
    <animateTransform attributeName="transform" type="rotate" from="0 8 8" to="360 8 8" dur="2s" repeatCount="indefinite"></animateTransform>
    <animate attributeName="opacity" dur="1.8s" values="1;1;1;1;0;0;0;0;0;" repeatCount="indefinite" begin="0.5"></animate>
  </path>
  <path style="opacity: 0.01;" d="M 12.471 4.743 C 12.471 5.383 11.952 5.907 11.306 5.907 C 10.666 5.907 10.142 5.383 10.142 4.743 C 10.142 4.097 10.666 3.579 11.306 3.579 C 11.952 3.579 12.471 4.097 12.471 4.743 Z">
    <animateTransform attributeName="transform" type="rotate" from="0 8 8" to="360 8 8" dur="2s" repeatCount="indefinite"></animateTransform>
    <animate attributeName="opacity" dur="1.8s" values="1;1;1;1;0;0;0;0;0;" repeatCount="indefinite" begin="0.6"></animate>
  </path>
  <path style="opacity: 0.01;" d="M 14 8.178 C 14 8.848 13.453 9.395 12.784 9.395 C 12.112 9.395 11.569 8.848 11.569 8.178 C 11.569 7.507 12.112 6.964 12.784 6.964 C 13.453 6.964 14 7.507 14 8.178 Z">
    <animateTransform attributeName="transform" type="rotate" from="0 8 8" to="360 8 8" dur="2s" repeatCount="indefinite"></animateTransform>
    <animate attributeName="opacity" dur="1.8s" values="1;1;1;1;0;0;0;0;0;" repeatCount="indefinite" begin="0.7"></animate>
  </path>
  <path style="opacity: 0.01;" d="M 12.481 11.675 C 12.481 12.4 11.893 12.99 11.163 12.99 C 10.438 12.99 9.849 12.4 9.849 11.675 C 9.849 10.948 10.438 10.36 11.163 10.36 C 11.893 10.36 12.481 10.948 12.481 11.675 Z">
    <animateTransform attributeName="transform" type="rotate" from="0 8 8" to="360 8 8" dur="2s" repeatCount="indefinite"></animateTransform>
    <animate attributeName="opacity" dur="1.8s" values="1;1;1;1;0;0;0;0;0;" repeatCount="indefinite" begin="0.8"></animate>
  </path>
</svg>