<svg width="10" height="11" viewBox="0 0 10 11" fill="none" xmlns="http://www.w3.org/2000/svg">
<path fill-rule="evenodd" clip-rule="evenodd" d="M9.09673 6.91395C8.69442 6.96067 8.38214 7.30259 8.38214 7.71744L8.38128 8.80367H1.61662L1.61786 7.71746C1.61786 7.27068 1.25569 6.9085 0.808931 6.9085C0.362171 6.9085 0 7.27068 0 7.71744V9.55729L0.00016114 9.60763C3.34098e-08 10.0596 0.362171 10.4218 0.808931 10.4218H9.18811C9.60296 10.4218 9.94488 10.1095 9.9916 9.70721L9.99836 9.57397L10 7.71744C10 7.27068 9.63783 6.9085 9.19107 6.9085L9.09673 6.91395Z" fill="#3867FA"/>
<path d="M4.48252 7.5223C4.62352 7.66737 4.81581 7.74787 5.0156 7.74581L5.11321 7.73811C5.27408 7.71447 5.42398 7.63719 5.53871 7.51668C5.67697 7.37144 5.75261 7.1755 5.74843 6.96916L5.74843 3.26708L6.58221 4.23746C6.74562 4.43339 6.99501 4.53083 7.24426 4.49664C7.51707 4.45927 7.74751 4.27013 7.84187 4.00505C7.93654 3.7391 7.87825 3.44153 7.68848 3.23048L5.5623 0.756056C5.42163 0.59367 5.21975 0.500881 5.00791 0.500881C4.79606 0.500881 4.59418 0.593669 4.45396 0.755537L2.32542 3.23267C2.23784 3.33115 2.17882 3.44943 2.15104 3.57486C2.12169 3.70734 2.12718 3.84779 2.17064 3.9813C2.25499 4.24044 2.4691 4.43273 2.7306 4.48526C2.99158 4.53769 3.26025 4.44299 3.43523 4.23554L4.26739 3.26708L4.26735 6.97265C4.26315 7.17824 4.3409 7.37661 4.48252 7.5223Z" fill="#3867FA"/>
</svg>
