<svg width="14" height="14" viewBox="0 0 14 14" xmlns="http://www.w3.org/2000/svg">
    <path fill-rule="evenodd" clip-rule="evenodd" d="M13.2917 5.6H11.674C11.5778 5.27625 11.4379 4.97875 11.2804 4.69L12.4697 3.5C12.7408 3.22875 12.7408 2.7825 12.4697 2.51125L11.4816 1.5225C11.2105 1.25125 10.7645 1.25125 10.4934 1.5225L9.30418 2.7125C9.01562 2.56375 8.7183 2.42375 8.39475 2.3275V0.7C8.39475 0.315 8.07995 0 7.69519 0H6.29606C5.91131 0 5.5965 0.315 5.5965 0.7V2.3275C5.25547 2.4325 4.94066 2.5725 4.6346 2.73875L3.49781 1.60125C3.23548 1.33875 2.807 1.33875 2.54466 1.60125L1.60025 2.555C1.33791 2.8175 1.33791 3.24625 1.60025 3.50875L2.73704 4.64625C2.56215 4.94375 2.42224 5.25875 2.3173 5.6H0.699563C0.314803 5.6 0 5.915 0 6.3V7.7C0 8.085 0.314803 8.4 0.699563 8.4H2.3173C2.41349 8.72375 2.5534 9.02125 2.71081 9.31L1.52155 10.5C1.25047 10.7712 1.25047 11.2175 1.52155 11.4888L2.50968 12.4775C2.78076 12.7487 3.22673 12.7487 3.49781 12.4775L4.68707 11.2875C4.97564 11.445 5.27295 11.5763 5.5965 11.6725V13.3C5.5965 13.685 5.91131 14 6.29606 14H7.69519C8.07995 14 8.39475 13.685 8.39475 13.3V11.6725C8.73579 11.5675 9.05059 11.4275 9.35665 11.2612L10.4934 12.3988C10.7558 12.6613 11.1843 12.6613 11.4466 12.3988L12.3997 11.445C12.6621 11.1825 12.6621 10.7537 12.3997 10.4913L11.263 9.35375C11.4291 9.0475 11.5778 8.7325 11.6827 8.39125H13.3004C13.6852 8.39125 14 8.07625 14 7.69125V6.29125C13.9913 5.915 13.6765 5.6 13.2917 5.6ZM6.99563 9.625C5.54403 9.625 4.37227 8.4525 4.37227 7C4.37227 5.5475 5.54403 4.375 6.99563 4.375C8.44722 4.375 9.61899 5.5475 9.61899 7C9.61899 8.4525 8.44722 9.625 6.99563 9.625Z" />
</svg>