<svg width="22" height="22" viewBox="0 0 22 22" xmlns="http://www.w3.org/2000/svg">
    <defs></defs>
    <path fill-rule="evenodd" clip-rule="evenodd"
        d="M 18.034 2.131 C 18.034 1.662 17.653 1.281 17.184 1.281 L 0.835 1.281 C 0.365 1.281 -0.015 1.662 -0.015 2.131 L -0.015 14.52 C -0.015 14.99 0.365 15.37 0.835 15.37 L 2.995 15.37 L 2.995 18.328 C 2.995 19.068 3.875 19.454 4.42 18.953 L 8.321 15.37 L 9.137 15.37 L 9.137 17.057 C 9.137 17.527 9.518 17.907 9.988 17.907 L 15.612 17.907 L 18.132 20.464 C 18.666 21.005 19.588 20.627 19.588 19.867 L 19.588 17.907 L 21.165 17.907 C 21.635 17.907 22.015 17.527 22.015 17.057 L 22.015 6.269 C 22.015 5.8 21.635 5.419 21.165 5.419 L 18.034 5.419 L 18.034 2.131 Z M 18.034 6.849 L 20.597 6.849 L 20.597 16.477 L 18.169 16.477 L 18.169 18.479 L 16.196 16.477 L 10.556 16.477 L 10.556 15.37 L 17.184 15.37 C 17.653 15.37 18.034 14.99 18.034 14.52 L 18.034 6.849 Z M 16.615 2.711 L 1.403 2.711 L 1.403 13.965 L 4.414 13.965 L 4.414 17.033 L 7.78 13.965 L 16.615 13.965 L 16.615 2.711 Z M 10.752 10.294 C 11.028 10.294 11.252 10.518 11.252 10.794 L 11.252 11.201 C 11.252 11.477 11.028 11.701 10.752 11.701 L 4.762 11.701 C 4.486 11.701 4.262 11.477 4.262 11.201 L 4.262 10.794 C 4.262 10.518 4.486 10.294 4.762 10.294 L 10.752 10.294 Z M 6.054 7.915 C 6.33 7.915 6.554 8.139 6.554 8.415 L 6.554 8.821 C 6.554 9.097 6.33 9.321 6.054 9.321 L 4.762 9.321 C 4.486 9.321 4.262 9.097 4.262 8.821 L 4.262 8.415 C 4.262 8.139 4.486 7.915 4.762 7.915 L 6.054 7.915 Z M 13.571 7.915 C 13.847 7.915 14.071 8.139 14.071 8.415 L 14.071 8.821 C 14.071 9.097 13.847 9.321 13.571 9.321 L 12.557 9.321 C 12.28 9.321 12.057 9.097 12.057 8.821 L 12.057 8.415 C 12.057 8.139 12.28 7.915 12.557 7.915 L 13.571 7.915 Z M 8.579 7.915 C 8.855 7.915 9.079 8.139 9.079 8.415 L 9.079 8.821 C 9.079 9.097 8.855 9.321 8.579 9.321 L 7.397 9.321 C 7.121 9.321 6.897 9.097 6.897 8.821 L 6.897 8.415 C 6.897 8.139 7.121 7.915 7.397 7.915 L 8.579 7.915 Z M 11.214 7.915 C 11.49 7.915 11.714 8.139 11.714 8.415 L 11.714 8.821 C 11.714 9.097 11.49 9.321 11.214 9.321 L 9.922 9.321 C 9.646 9.321 9.422 9.097 9.422 8.821 L 9.422 8.415 C 9.422 8.139 9.646 7.915 9.922 7.915 L 11.214 7.915 Z M 13.546 5.559 C 13.822 5.559 14.046 5.783 14.046 6.059 L 14.046 6.465 C 14.046 6.742 13.822 6.965 13.546 6.965 L 4.762 6.965 C 4.486 6.965 4.262 6.742 4.262 6.465 L 4.262 6.059 C 4.262 5.783 4.486 5.559 4.762 5.559 L 13.546 5.559 Z"></path>
</svg>