<svg width="16" height="16" viewBox="0 0 16 16">
  <path fill-rule="evenodd" d="M9.813 6.188a3.9 3.9 0 0 1 0 5.517L8.088 13.43a3.906 3.906 0 0 1-5.518 0 3.906 3.906 0 0 1 0-5.518l.952-.952a.41.41 0 0 1 .7.272c.017.455.099.912.25 1.354a.413.413 0 0 1-.098.426l-.336.336c-.719.72-.742 1.89-.03 2.617a1.85 1.85 0 0 0 2.627.013l1.725-1.724a1.848 1.848 0 0 0-.265-2.834.412.412 0 0 1-.178-.324c-.01-.271.086-.55.3-.765l.54-.54a.412.412 0 0 1 .529-.045c.188.131.364.28.527.441ZM13.43 2.57a3.906 3.906 0 0 0-5.518 0L6.187 4.295a3.9 3.9 0 0 0 .527 5.96.412.412 0 0 0 .529-.045l.54-.541c.214-.214.31-.494.3-.765a.412.412 0 0 0-.178-.324 1.848 1.848 0 0 1-.265-2.834l1.724-1.724a1.85 1.85 0 0 1 2.627.013c.713.726.69 1.898-.03 2.617l-.335.336a.413.413 0 0 0-.098.426c.151.442.232.899.25 1.354a.41.41 0 0 0 .7.272l.952-.953a3.906 3.906 0 0 0 0-5.517Z"/>
</svg>
