<svg width="16" height="16" viewBox="0 0 16 16" xmlns="http://www.w3.org/2000/svg">
  <path d="M8.393 7.602a.571.571 0 0 0-.812.002l-6.298 6.39a.571.571 0 0 0 .006.808l.733.722a.571.571 0 0 0 .808-.006l4.756-4.826a.571.571 0 0 1 .812-.002l4.793 4.832a.571.571 0 0 0 .808.003l.73-.725a.571.571 0 0 0 .004-.808l-6.34-6.39Z"/>
  <path d="M7.58.479a.571.571 0 0 1 .813-.002l6.34 6.39a.571.571 0 0 1-.003.808L14 8.4a.571.571 0 0 1-.809-.003L8.398 3.565a.571.571 0 0 0-.812.002L2.83 8.393a.571.571 0 0 1-.808.006l-.733-.722a.571.571 0 0 1-.006-.809L7.581.478Z"/>
</svg>
