<svg width="24" height="24" viewBox="0 0 24 24" xmlns="http://www.w3.org/2000/svg">
  <path fill-rule="evenodd" d="M0 6.4C0 5.095 1.05 4 2.375 4h5.5C9.2 4 10.25 5.095 10.25 6.4v6.342c0 .585-.13 1.156-.391 1.687L7.909 18.4A2.837 2.837 0 0 1 5.358 20c-2.14 0-3.484-2.268-2.547-4.159l.001-.002.707-1.439H2.375C1.05 14.4 0 13.305 0 12V6.4ZM2.375 6A.392.392 0 0 0 2 6.4V12c0 .235.188.4.375.4h3.553a.5.5 0 0 1 .448.72l-1.77 3.605-.002.004C4.306 17.33 4.748 18 5.36 18a.837.837 0 0 0 .748-.469l.004-.008 1.953-3.976c.124-.253.186-.522.186-.805V6.4c0-.235-.188-.4-.375-.4h-5.5Zm11.375.4c0-1.305 1.05-2.4 2.375-2.4h5.5C22.95 4 24 5.095 24 6.4v6.342c0 .585-.13 1.156-.391 1.687l-1.95 3.972A2.837 2.837 0 0 1 19.108 20c-2.139 0-3.484-2.268-2.547-4.159l.001-.002.707-1.439h-1.145c-1.325 0-2.375-1.095-2.375-2.4V6.4Zm2.375-.4a.392.392 0 0 0-.375.4V12c0 .235.188.4.375.4h3.553a.5.5 0 0 1 .448.72l-1.77 3.605-.002.004c-.298.601.144 1.271.755 1.271a.837.837 0 0 0 .748-.469l.004-.008 1.953-3.976c.124-.253.186-.522.186-.805V6.4c0-.235-.188-.4-.375-.4h-5.5Z"/>
</svg>
