<svg width="24" height="24" viewBox="0 0 24 24" xmlns="http://www.w3.org/2000/svg">
  <g clip-path="url(#clip0_2875_216)">
    <path d="M13.037 5.929c.346-1.074.519-1.611.552-1.664.223-.353.599-.353.822 0 .033.053.206.59.552 1.664.542 1.681 1.343 3.496 2.477 4.63 1.135 1.135 2.95 1.936 4.631 2.478 1.074.346 1.611.519 1.663.552.354.223.354.599 0 .822-.052.033-.589.206-1.663.552-1.681.542-3.496 1.343-4.63 2.477-1.135 1.135-1.936 2.95-2.478 4.631-.346 1.074-.519 1.611-.552 1.663-.223.354-.599.354-.822 0-.033-.052-.206-.589-.552-1.663-.542-1.681-1.343-3.496-2.477-4.63-1.135-1.135-2.95-1.936-4.631-2.478-1.074-.346-1.611-.519-1.664-.552-.353-.223-.353-.599 0-.822.053-.033.59-.206 1.664-.552 1.681-.542 3.496-1.343 4.63-2.477 1.135-1.135 1.936-2.95 2.478-4.631M4.067.868c.155-.483.233-.725.248-.749.1-.159.27-.159.37 0 .015.024.093.266.248.749.244.757.605 1.573 1.115 2.084.51.51 1.327.87 2.084 1.115.483.155.725.233.749.248.159.1.159.27 0 .37-.024.015-.266.093-.749.248-.756.244-1.573.605-2.084 1.115-.51.51-.87 1.327-1.115 2.084-.155.483-.233.725-.248.749-.1.159-.27.159-.37 0a15 15 0 0 1-.248-.749c-.244-.756-.605-1.573-1.115-2.084-.51-.51-1.327-.87-2.084-1.115a15 15 0 0 1-.749-.248c-.159-.1-.159-.27 0-.37.024-.015.266-.093.749-.248.757-.244 1.573-.605 2.084-1.115.51-.51.87-1.327 1.115-2.084"/>
  </g>
</svg>
