<svg width="16" height="16" viewBox="0 0 16 16" xmlns="http://www.w3.org/2000/svg">
  <path d="M8.83536 16C10.0065 16 11.0152 15.7664 11.8613 15.2991C12.7074 14.8366 13.3575 14.1687 13.8116 13.2956C14.2705 12.4271 14.5 11.3817 14.5 10.1593V8.20531C14.5 7.32743 14.2873 6.63127 13.8618 6.11681C13.4412 5.60236 12.858 5.33333 12.1122 5.30973C11.9975 5.03599 11.8135 4.82124 11.5601 4.66549C11.3115 4.50973 11.0223 4.43186 10.6925 4.43186C10.5108 4.43186 10.334 4.45782 10.1619 4.50973C10.0376 4.20767 9.85117 3.97404 9.60259 3.80885C9.3588 3.64366 9.07198 3.56106 8.74214 3.56106C8.64653 3.56106 8.55093 3.57522 8.45532 3.60354V1.84071C8.45532 1.2885 8.28801 0.844838 7.95339 0.509735C7.62355 0.169912 7.19333 0 6.66271 0C6.11776 0 5.67319 0.169912 5.32901 0.509735C4.98483 0.844838 4.81274 1.2885 4.81274 1.84071V6.95221C4.81274 6.99941 4.79601 7.02301 4.76255 7.02301C4.74343 7.02301 4.7267 7.01121 4.71236 6.98761L4.43988 6.37168C4.29169 6.12625 4.10526 5.93982 3.88058 5.81239C3.65591 5.68496 3.40734 5.62124 3.13486 5.62124C2.67595 5.62124 2.28875 5.76283 1.97325 6.04602C1.65775 6.32448 1.5 6.70206 1.5 7.17876C1.5 7.32035 1.51195 7.46903 1.53585 7.62478C1.56453 7.77581 1.60517 7.92212 1.65775 8.06372L2.97711 11.6673C3.49816 13.0926 4.25345 14.1711 5.24297 14.9027C6.23727 15.6342 7.43473 16 8.83536 16ZM8.88555 14.4C7.84823 14.4 6.96148 14.1357 6.22532 13.6071C5.49393 13.0832 4.90596 12.2525 4.46139 11.115L3.06315 7.5823C3.03447 7.50207 3.02013 7.42655 3.02013 7.35575C3.02013 7.2708 3.04881 7.19764 3.10618 7.13628C3.16832 7.07493 3.24959 7.04425 3.34997 7.04425C3.49816 7.04425 3.60811 7.12684 3.67981 7.29204L4.77689 9.49381C4.86771 9.6826 4.98005 9.81711 5.1139 9.89735C5.25253 9.97286 5.39833 10.0106 5.5513 10.0106C5.74729 10.0106 5.91699 9.94218 6.0604 9.80531C6.20381 9.66372 6.27551 9.47493 6.27551 9.23894L6.28268 1.75575C6.28268 1.6472 6.31375 1.55988 6.3759 1.49381C6.44282 1.42773 6.52887 1.39469 6.63403 1.39469C6.7392 1.39469 6.82524 1.42773 6.89217 1.49381C6.95909 1.55988 6.99255 1.6472 6.99255 1.75575V6.8885C6.99255 7.05841 7.0547 7.20472 7.17899 7.32743C7.30805 7.45015 7.46102 7.5115 7.63789 7.5115C7.80998 7.5115 7.95817 7.45015 8.08246 7.32743C8.21153 7.20472 8.27606 7.05841 8.27606 6.8885V5.1115C8.38123 5.07847 8.48639 5.06195 8.59156 5.06195C8.71107 5.06195 8.80667 5.09971 8.87838 5.17522C8.95486 5.24602 8.99311 5.34513 8.99311 5.47257V7.19292C8.99311 7.36755 9.05525 7.51386 9.17954 7.63186C9.30382 7.74513 9.45201 7.80177 9.6241 7.80177C9.79141 7.80177 9.93721 7.74513 10.0615 7.63186C10.1858 7.51386 10.2479 7.36755 10.2479 7.19292V5.9823C10.3531 5.94926 10.4583 5.93274 10.5634 5.93274C10.6829 5.93274 10.7785 5.9705 10.8502 6.04602C10.9267 6.11681 10.965 6.21593 10.965 6.34336V7.47611C10.965 7.65074 11.0271 7.79941 11.1514 7.92212C11.2805 8.04012 11.4334 8.09912 11.6103 8.09912C11.7824 8.09912 11.9306 8.04012 12.0549 7.92212C12.1839 7.79941 12.2485 7.65074 12.2485 7.47611V6.92389C12.4875 6.92389 12.6691 7.02537 12.7934 7.22832C12.9225 7.42655 12.987 7.72389 12.987 8.12035V10.0248C12.987 10.9499 12.8221 11.7381 12.4923 12.3894C12.1672 13.0407 11.6987 13.5386 11.0869 13.8832C10.475 14.2277 9.74122 14.4 8.88555 14.4Z"/>
</svg>
