<svg width="22" height="22" viewBox="0 0 22 22" xmlns="http://www.w3.org/2000/svg">
    <path fill-rule="evenodd" clip-rule="evenodd" d="M16.6329 18.0819C16.1459 18.9326 15.0862 19.2328 14.2218 18.7622C13.3609 18.2975 13.0502 17.237 13.53 16.399C14.0122 15.5564 15.0743 15.2678 15.9495 15.7418C16.8151 16.2112 17.1152 17.2393 16.6329 18.0819ZM5.5274 13.3148C4.57604 13.3148 3.80686 12.5649 3.80686 11.64C3.80686 10.7139 4.57604 9.96402 5.5274 9.96402C6.47875 9.96402 7.24913 10.7139 7.24913 11.64C7.24913 12.5649 6.47875 13.3148 5.5274 13.3148ZM14.2218 4.6116C15.0862 4.14335 16.1459 4.44238 16.6329 5.29311C17.1152 6.13573 16.8151 7.16495 15.9495 7.6332C15.0743 8.1084 14.0122 7.81864 13.53 6.97603C13.0502 6.13804 13.3609 5.07869 14.2218 4.6116ZM16.7794 14.2907C15.4125 13.5501 13.7157 13.8317 12.612 14.971L8.72558 12.9323C8.89585 12.5336 8.99229 12.0978 8.99229 11.64C8.99229 11.2123 8.9018 10.8066 8.75296 10.4288L12.612 8.40396C13.7157 9.54329 15.4125 9.82493 16.7794 9.08431C18.4523 8.17794 19.056 6.1137 18.1249 4.48526L18.0534 4.3624L18.0498 4.36472C17.0854 2.82784 15.0291 2.29237 13.399 3.17671C12.0393 3.91386 11.388 5.46117 11.7916 6.96907L7.7635 9.08315C7.15745 8.58129 6.38469 8.26719 5.5274 8.26719C3.61277 8.26719 2.0625 9.77625 2.0625 11.64C2.0625 13.5025 3.61277 15.0128 5.5274 15.0128C6.35016 15.0128 7.09553 14.7219 7.69087 14.2548L11.7916 16.4071C11.388 17.9138 12.0393 19.4611 13.399 20.1983C15.0291 21.0826 17.0854 20.5472 18.0498 19.0103L18.0534 19.0126L18.1249 18.8897C19.056 17.2613 18.4523 15.1982 16.7794 14.2907Z" />
</svg>
    