<svg width="16" height="16" viewBox="0 0 16 16">
  <path fill-rule="evenodd" d="M7.826 1.143a4.237 4.237 0 0 1 4.219 4.007l.005.217v1.066l.027.005a1.599 1.599 0 0 1 1.261 1.26l.022.15.007.152v5.266c0 .824-.634 1.506-1.438 1.584l-.153.007h-7.9a1.595 1.595 0 0 1-1.583-1.438l-.007-.153V8c0-.721.485-1.333 1.145-1.527l.144-.035.027-.005V5.367a4.238 4.238 0 0 1 3.794-4.202l.214-.017.216-.005Zm0 7.255c-.844 0-1.547.642-1.547 1.448l.01.16.028.154c.06.251.183.472.36.653l.104.094.001.907c0 .56.47.995 1.044.995l.13-.008.13-.025c.46-.115.784-.498.784-.962V10.9l.101-.095a1.37 1.37 0 0 0 .403-.96c0-.806-.703-1.448-1.548-1.448Zm0-5.39c-1.24 0-2.266.972-2.353 2.191l-.006.168v1.042h4.718V5.367c0-1.24-.972-2.266-2.19-2.353l-.169-.006Z"/>
</svg>
