<svg width="22" height="22" viewBox="0 0 22 22" xmlns="http://www.w3.org/2000/svg">
    <path fill-rule="evenodd" clip-rule="evenodd" d="M14.322 7.727V6.09014C14.322 4.25548 12.8347 2.76819 11 2.76819C9.16536 2.76819 7.67807 4.25548 7.67807 6.09014V7.727H6.08931V6.09014C6.08931 3.37803 8.28791 1.17943 11 1.17943C13.7121 1.17943 15.9107 3.37803 15.9107 6.09014V7.727H14.322ZM16.3279 9.31576H5.67201C5.27317 9.31576 4.94984 9.63909 4.94984 10.0379V18.5113C4.94984 18.9102 5.27317 19.2335 5.67201 19.2335H16.3279C16.7268 19.2335 17.0501 18.9102 17.0501 18.5113V10.0379C17.0501 9.63908 16.7268 9.31576 16.3279 9.31576ZM5.67201 7.727C4.39572 7.727 3.36108 8.76164 3.36108 10.0379V18.5113C3.36108 19.7876 4.39572 20.8222 5.67201 20.8222H16.3279C17.6042 20.8222 18.6389 19.7876 18.6389 18.5113V10.0379C18.6389 8.76164 17.6042 7.727 16.3279 7.727H5.67201ZM11.8 14.1801C12.1965 13.9011 12.48 13.4411 12.48 12.9705C12.48 12.2172 11.7534 11.49 11.0001 11.49C10.2467 11.49 9.51999 12.2172 9.51999 12.9705C9.51999 13.4411 9.80353 13.901 10.2 14.18V16.3808C10.2 16.7574 10.6232 17.06 10.9999 17.06C11.3766 17.06 11.8 16.7574 11.8 16.3808V14.1801Z"/>
</svg>