<svg width="24" height="24" viewBox="0 0 24 24">
  <path fill-rule="evenodd" d="M15.767 3.535a2.46 2.46 0 0 1 2.32 1.641h2.848a.818.818 0 1 1 0 1.637h-2.848a2.46 2.46 0 0 1-4.64 0H3.07a.818.818 0 0 1 0-1.637h10.376a2.46 2.46 0 0 1 2.32-1.641Zm.5 3.373a1.042 1.042 0 0 0 .54-.912c0-.333-.157-.63-.4-.82h.005a1.037 1.037 0 0 0-1.29 0h.005a1.038 1.038 0 0 0 .64 1.86c.18 0 .351-.047.5-.128ZM7.31 9.544a2.46 2.46 0 0 1 2.321 1.642h11.303a.818.818 0 1 1 0 1.636H9.631a2.46 2.46 0 0 1-4.64 0H3.07a.818.818 0 0 1 0-1.636h1.92a2.46 2.46 0 0 1 2.32-1.642Zm.5 3.374a1.038 1.038 0 0 0 .14-1.732h.006a1.037 1.037 0 0 0-1.29 0h.005a1.038 1.038 0 0 0 .14 1.732 1.036 1.036 0 0 0 1 0Zm6.918 4.283a2.46 2.46 0 0 0-4.644 0H3.07a.818.818 0 0 0 0 1.637h7.017a2.46 2.46 0 0 0 4.636 0h6.21a.818.818 0 1 0 0-1.637h-6.206Zm-1.686 1.637a1.035 1.035 0 0 1-.636.217 1.035 1.035 0 0 1-.636-.217 1.038 1.038 0 0 1-.011-1.637h-.005a1.037 1.037 0 0 1 1.304 0h-.005a1.038 1.038 0 0 1-.01 1.637Z"/>
</svg>
