<svg width="24" height="24" viewBox="0 0 24 24">
  <path fill-rule="evenodd" d="M12.085 16.582a1.56 1.56 0 0 1 1.552 1.553 1.557 1.557 0 0 1-1.553 1.552c-.41 0-.81-.165-1.099-.454a1.564 1.564 0 0 1-.453-1.098c0-.409.165-.809.453-1.097.29-.29.69-.456 1.1-.456ZM12.06 3.937c2.712 0 5.004 1.846 5.126 4.113l.005.194-.007.243-.02.234c-.139 1.296-.816 2.134-2.243 3.221l-.216.167-.376.302c-.737.615-.988 1.007-1.057 1.657a.75.75 0 0 1-.75.74h-.783a.85.85 0 0 1-.85-.867c.134-1.41.877-2.342 2.347-3.462 1.243-.939 1.57-1.349 1.57-2.24 0-1.287-1.21-2.301-2.746-2.301l-.189.005-.194.016c-1.218.139-1.829.633-2.153 1.366a.974.974 0 0 1-.927.676h-.97a.561.561 0 0 1-.549-.676c.353-2.072 2.425-3.388 4.982-3.388Z"/>
</svg>
