<svg width="16" height="16" viewBox="0 0 16 16" xmlns="http://www.w3.org/2000/svg">
  <path d="M4.15859 0.318183C4.58283 -0.106074 5.27052 -0.106048 5.69477 0.318183L8.41915 3.04164C9.24738 3.8702 10.4491 6.10181 8.92413 8.57131C8.00062 10.0669 8.586 10.8903 8.66315 10.968L11.8405 14.1455C12.2647 14.5697 12.2645 15.2575 11.8405 15.6818C11.4163 16.1061 10.7286 16.1061 10.3044 15.6818L7.12592 12.5043C6.29442 11.6722 5.6541 9.72954 7.07499 7.42867C7.89518 6.1001 7.26513 4.96037 6.88297 4.5779L4.15859 1.85444C3.73444 1.43022 3.73453 0.742454 4.15859 0.318183Z"/>
  <path d="M10.2057 6.23722C11.2299 6.25783 12.0396 6.66251 12.5036 7.1263L15.682 10.3038C16.1061 10.728 16.1059 11.4169 15.682 11.8412C15.2578 12.2654 14.5691 12.2654 14.1448 11.8412L13.1847 10.8799L11.2687 12.7971L10.1166 11.6449L12.0315 9.72775L10.9674 8.66255C10.9092 8.605 10.4443 8.27182 9.60311 8.47371C9.6082 8.46248 9.75672 8.13293 9.86515 7.75756C9.97541 7.3759 10.0277 7.242 10.1113 6.82393C10.1664 6.54818 10.2057 6.23722 10.2057 6.23722Z"/>
  <path d="M5.87618 4.36252L3.96657 6.27011L4.57871 6.88228C4.86119 7.16451 5.55607 7.58215 6.43527 7.45095C6.43527 7.45095 6.30901 7.71094 6.21142 7.92307C6.00922 8.36267 5.94826 8.49631 5.82526 9.00524C5.70659 9.49629 5.71819 9.62875 5.71917 9.63757C4.49562 9.52388 3.52955 8.90644 3.04147 8.41854L0.318149 5.69508C-0.106075 5.27083 -0.106024 4.5831 0.318149 4.15882C0.742428 3.73493 1.4302 3.73468 1.85433 4.15882L2.81444 5.11792L4.72405 3.20927L5.87618 4.36252Z"/>
</svg>
