<svg width="24" height="24" viewBox="0 0 24 24" fill="none" xmlns="http://www.w3.org/2000/svg">
    <path fill-rule="evenodd" clip-rule="evenodd"
        d="M12.9463 18.8208C12.9463 18.7447 12.9463 18.6687 12.9463 18.5851H5.15229C5.02092 18.5871 4.89423 18.536 4.80062 18.4431C4.70701 18.3502 4.6543 18.2233 4.65432 18.0909C4.65537 17.9924 4.68703 17.8967 4.74486 17.8173L5.85398 16.0079H13.6933C14.3218 14.8859 15.3121 14.0141 16.5 13.5371L13.8366 9.12018V4.67281C14.7155 4.47274 15.3297 3.67207 15.3003 2.76462V2.66579C15.3003 1.60773 14.4491 0.75 13.399 0.75H8.50228C7.45219 0.75 6.60093 1.60773 6.60093 2.66579V2.76462C6.58252 3.6636 7.19428 4.45158 8.06467 4.65V9.09737L4.79013 14.5178C4.66406 14.6164 4.57602 14.7562 4.54114 14.9132L3.31885 16.9354C2.70168 17.9534 3.00699 19.282 4.00545 19.9231C4.35288 20.131 4.74825 20.2437 5.15229 20.25H13.1349C13.0113 19.7837 12.9479 19.3034 12.9463 18.8208ZM9.6114 9.80439C9.69432 9.67524 9.73883 9.52487 9.73966 9.37105V3.86696C9.73552 3.40388 9.36177 3.03068 8.90216 3.0307H8.50228C8.44092 3.03074 8.38217 3.00567 8.3395 2.96124C8.29682 2.91681 8.27388 2.85682 8.27593 2.79503V2.66579C8.27586 2.53854 8.37606 2.43422 8.50228 2.43012H13.399C13.5282 2.43012 13.6329 2.53563 13.6329 2.66579V2.76462C13.6329 2.89478 13.5282 3.00029 13.399 3.00029H12.9991C12.5424 3.00442 12.1733 3.37642 12.1692 3.83655V9.34064C12.1666 9.49148 12.2086 9.63968 12.2899 9.76637L15.0438 14.2898H6.85746L9.6114 9.80439Z"
        fill="#CCCCCC" />
    <path fill-rule="evenodd" clip-rule="evenodd"
        d="M18.375 12.75C21.4816 12.75 24 15.2684 24 18.375C24 21.4816 21.4816 24 18.375 24C15.2684 24 12.75 21.4816 12.75 18.375C12.75 15.2684 15.2684 12.75 18.375 12.75ZM18.3862 14.8741C17.3441 14.8741 16.4817 15.6848 16.4175 16.725V17.385C16.0559 17.385 15.7616 17.6759 15.7575 18.0375V20.6625C15.7575 21.027 16.053 21.3225 16.4175 21.3225H20.3475C20.5219 21.3225 20.689 21.2527 20.8116 21.1287C20.9341 21.0047 21.002 20.8368 21 20.6625L21.0075 18.0375C21.0075 17.6771 20.7154 17.385 20.355 17.385V16.725C20.2908 15.6848 19.4284 14.8741 18.3862 14.8741ZM18.375 18.4575C18.6442 18.4575 18.8625 18.6758 18.8625 18.945C18.8598 19.1169 18.7654 19.2742 18.615 19.3575V20.0325C18.5945 20.1469 18.495 20.2302 18.3787 20.2302C18.2625 20.2302 18.163 20.1469 18.1425 20.0325V19.3575C17.9898 19.2767 17.8944 19.1178 17.895 18.945C17.895 18.6787 18.1087 18.4616 18.375 18.4575ZM18.375 15.4125C18.7231 15.4125 19.0569 15.5508 19.3031 15.7969C19.5492 16.0431 19.6875 16.3769 19.6875 16.725V17.385H17.0625V16.725C17.0666 16.0018 17.6518 15.4166 18.375 15.4125Z"
    />
</svg>