<svg width="16" height="16" viewBox="0 0 16 16" xmlns="http://www.w3.org/2000/svg">
  <path fill-rule="evenodd"
    d="M8 16A8 8 0 1 0 8 0a8 8 0 0 0 0 16Zm3.158-2.498c-.93.535-2.008.84-3.158.84a6.314 6.314 0 0 1-3.158-.84l1.8-1.8c.423.156.88.24 1.358.24.477 0 .935-.084 1.359-.24l1.8 1.8Zm2.344-2.344c.535-.93.84-2.008.84-3.158s-.305-2.228-.84-3.158l-1.8 1.8c.156.423.24.88.24 1.358 0 .478-.084.935-.24 1.36l1.8 1.799Zm-2.344-8.66-1.799 1.8A3.935 3.935 0 0 0 8 4.058c-.478 0-.935.084-1.36.24l-1.798-1.8A6.314 6.314 0 0 1 8 1.658c1.15 0 2.229.305 3.159.84Zm-8.66 2.344A6.314 6.314 0 0 0 1.658 8c0 1.15.305 2.229.84 3.159l1.8-1.8A3.935 3.935 0 0 1 4.058 8c0-.477.084-.935.24-1.359l-1.8-1.8ZM8 10.286a2.286 2.286 0 1 0 0-4.572 2.286 2.286 0 0 0 0 4.572Z" />
</svg>