<svg xmlns="http://www.w3.org/2000/svg" width="24" height="24" viewBox="0 0 24 24">
  <path fill-rule="evenodd" d="M9.853 7.185c.664 0 1.636.425 1.686 1.376v6.57a1.687 1.687 0 0 1-3.371 0V8.567c.042-.899 1.036-1.382 1.685-1.382Zm-.451 7.603a.45.45 0 0 0 .9 0V9.223c-.01-.19-.202-.449-.45-.449-.249 0-.44.248-.45.451v5.563Zm6.43-6.228c-.05-.95-1.022-1.375-1.686-1.375-.65 0-1.643.483-1.685 1.381v6.565c0 .93.756 1.686 1.685 1.686.93 0 1.686-.756 1.686-1.686v-6.57Zm-1.688 6.668a.45.45 0 0 1-.45-.44V9.225c.01-.203.202-.45.45-.45.25 0 .44.258.45.448v5.565a.45.45 0 0 1-.45.44Z" clip-rule="evenodd"/>
  <path fill-rule="evenodd" d="M12 22c5.523 0 10-4.477 10-10S17.523 2 12 2 2 6.477 2 12s4.477 10 10 10Zm0-1.667a8.333 8.333 0 1 0 0-16.666 8.333 8.333 0 0 0 0 16.666Z" clip-rule="evenodd"/>
</svg>
