<svg xmlns="http://www.w3.org/2000/svg" width="16" height="16" viewBox="0 0 16 16">
  <defs>
    <clipPath id="a">
      <path d="M0 0h16v16H0z"/>
    </clipPath>
  </defs>
  <g clip-path="url(#a)">
    <path fill-rule="evenodd" d="M6.572.995A.833.833 0 0 1 7.333.5a2.833 2.833 0 0 1 2.834 2.833v1.834h2.935a2.167 2.167 0 0 1 2.162 2.491l-.92 6a2.168 2.168 0 0 1-2.162 1.842H2.667A2.167 2.167 0 0 1 .5 13.333V8.667A2.167 2.167 0 0 1 2.667 6.5h1.458L6.572.995ZM3.833 8.167H2.667a.5.5 0 0 0-.5.5v4.666a.5.5 0 0 0 .5.5h1.166V8.167ZM5.5 13.833h6.696a.5.5 0 0 0 .5-.425l.92-6a.501.501 0 0 0-.5-.575H9.333A.833.833 0 0 1 8.5 6V3.333a1.167 1.167 0 0 0-.674-1.057L5.5 7.51v6.323Z"/>
  </g>
</svg>
