<svg width="16" height="16" viewBox="0 0 16 16" xmlns="http://www.w3.org/2000/svg">
	<path d="M1.89998 1.00001C1.89998 0.50295 1.49703 0.100006 0.999976 0.100006C0.502919 0.100006 0.0999756 0.50295 0.0999756 1.00001V15C0.0999756 15.4971 0.502919 15.9 0.999976 15.9H15C15.497 15.9 15.9 15.4971 15.9 15C15.9 14.5029 15.497 14.1 15 14.1H1.89998V1.00001Z" />
	<path d="M5.49998 3.75003C6.19033 3.75003 6.74998 3.19039 6.74998 2.50003C6.74998 1.80967 6.19033 1.25003 5.49998 1.25003C4.80962 1.25003 4.24998 1.80967 4.24998 2.50003C4.24998 3.19039 4.80962 3.75003 5.49998 3.75003Z" />
	<path d="M12.5 6.75003C13.1903 6.75003 13.75 6.19039 13.75 5.50003C13.75 4.80967 13.1903 4.25003 12.5 4.25003C11.8096 4.25003 11.25 4.80967 11.25 5.50003C11.25 6.19039 11.8096 6.75003 12.5 6.75003Z" />
	<path d="M12.75 9.50003C12.75 10.1904 12.1903 10.75 11.5 10.75C10.8096 10.75 10.25 10.1904 10.25 9.50003C10.25 8.80967 10.8096 8.25003 11.5 8.25003C12.1903 8.25003 12.75 8.80967 12.75 9.50003Z" />
	<path d="M7.49998 8.75003C8.19033 8.75003 8.74998 8.19039 8.74998 7.50003C8.74998 6.80967 8.19033 6.25003 7.49998 6.25003C6.80962 6.25003 6.24998 6.80967 6.24998 7.50003C6.24998 8.19039 6.80962 8.75003 7.49998 8.75003Z" />
	<path d="M5.49998 11.25C5.49998 11.9404 4.94033 12.5 4.24998 12.5C3.55962 12.5 2.99998 11.9404 2.99998 11.25C2.99998 10.5597 3.55962 10 4.24998 10C4.94033 10 5.49998 10.5597 5.49998 11.25Z" />
</svg>
