<svg width="24" height="24" viewBox="0 0 24 24" xmlns="http://www.w3.org/2000/svg">
  <path d="M3.142 21.243h11.554a.77.77 0 1 0 0-1.54H3.912V2.756h9.244v3.851c0 .425.344.77.77.77h3.851V9.69a.77.77 0 1 0 1.54 0V6.61a.775.775 0 0 0-.226-.546l-4.62-4.62a.776.776 0 0 0-.545-.226H3.142a.77.77 0 0 0-.77.77v18.486c0 .425.345.77.77.77ZM14.696 3.846l1.992 1.992h-1.992V3.846Z"/>
  <path d="M11.615 9.305c0-2.18-2.018-4.627-2.104-4.73-.294-.35-.89-.35-1.184 0-.086.103-2.104 2.55-2.104 4.73A2.7 2.7 0 0 0 8.92 12a2.7 2.7 0 0 0 2.696-2.695Zm-3.851 0c0-.942.618-2.113 1.156-2.932.537.817 1.154 1.987 1.154 2.932a1.157 1.157 0 0 1-2.31 0Zm0 5.005a.77.77 0 0 1-.77.77h-.77a.77.77 0 1 1 0-1.54h.77a.77.77 0 0 1 .77.77Zm6.932 0a.77.77 0 0 1-.77.77h-3.852a.77.77 0 1 1 0-1.54h3.852a.77.77 0 0 1 .77.77Zm-6.932 3.082a.77.77 0 0 1-.77.77h-.77a.77.77 0 1 1 0-1.54h.77a.77.77 0 0 1 .77.77Zm6.932 0a.77.77 0 0 1-.77.77h-3.852a.77.77 0 1 1 0-1.54h3.852a.77.77 0 0 1 .77.77Zm.77-5.392v2.31a.77.77 0 0 0 .77.771v5.392a2.313 2.313 0 0 0 2.311 2.31 2.313 2.313 0 0 0 2.31-2.31V15.08a.77.77 0 0 0 .771-.77V12a.77.77 0 0 0-.77-.77h-4.622a.77.77 0 0 0-.77.77Zm3.851 8.473a.771.771 0 0 1-1.54 0V15.08h1.54v5.392Zm-2.31-7.703h3.08v.77h-3.08v-.77Z"/>
  <path fill-rule="evenodd" d="M2.372 20.473c0 .425.345.77.77.77h11.554a.77.77 0 1 0 0-1.54H3.912V2.756h9.244v3.851c0 .425.344.77.77.77h3.851V9.69a.77.77 0 1 0 1.54 0V6.61a.775.775 0 0 0-.226-.546l-4.62-4.62a.776.776 0 0 0-.545-.226H3.142a.77.77 0 0 0-.77.77v18.486Zm9.243-11.168c0-2.18-2.018-4.627-2.104-4.73-.294-.35-.89-.35-1.184 0-.086.103-2.104 2.55-2.104 4.73A2.7 2.7 0 0 0 8.92 12a2.7 2.7 0 0 0 2.696-2.695Zm-3.85 5.005a.77.77 0 0 1-.771.77h-.77a.77.77 0 1 1 0-1.54h.77a.77.77 0 0 1 .77.77Zm6.93 0a.77.77 0 0 1-.77.77h-3.85a.77.77 0 1 1 0-1.54h3.85a.77.77 0 0 1 .77.77Zm-6.93 3.082a.77.77 0 0 1-.771.77h-.77a.77.77 0 1 1 0-1.54h.77a.77.77 0 0 1 .77.77Zm6.93 0a.77.77 0 0 1-.77.77h-3.85a.77.77 0 1 1 0-1.54h3.85a.77.77 0 0 1 .77.77ZM15.467 12v2.31a.77.77 0 0 0 .77.771v5.392a2.313 2.313 0 0 0 2.311 2.31 2.313 2.313 0 0 0 2.31-2.31V15.08a.77.77 0 0 0 .771-.77V12a.77.77 0 0 0-.77-.77h-4.622a.77.77 0 0 0-.77.77ZM7.764 9.305c0-.942.618-2.113 1.156-2.932.537.817 1.154 1.987 1.154 2.932a1.157 1.157 0 0 1-2.31 0Zm8.924-3.467-1.992-1.992v1.992h1.992Zm2.63 14.635a.771.771 0 0 1-1.541 0V15.08h1.54v5.392Zm.77-7.703h-3.081v.77h3.08v-.77Z"/>
</svg>
