<svg width="16" height="16" viewBox="0 0 16 16" xmlns="http://www.w3.org/2000/svg">
  <path fill-rule="evenodd" clip-rule="evenodd"
    d="M8.36129 0.27822C8.13419 0.152052 7.85805 0.152052 7.63095 0.27822L1.27343 3.81017C1.26978 3.81219 1.26614 3.81424 1.26252 3.81633C1.19411 3.85567 1.13337 3.90489 1.08169 3.9616C1.04659 4.00012 1.01567 4.0421 0.989363 4.08681C0.940463 4.16991 0.907529 4.26241 0.893366 4.35953C0.888167 4.39519 0.885498 4.43147 0.885498 4.46813V11.5333C0.885498 11.8064 1.03355 12.058 1.27226 12.1906L7.63095 15.7233C7.85764 15.8492 8.13383 15.8496 8.36129 15.7233L14.72 12.1906C14.9587 12.058 15.1067 11.8064 15.1067 11.5333V4.46813C15.1067 4.22919 14.9934 4.00668 14.8051 3.86594C14.7831 3.8495 14.7601 3.83417 14.7361 3.82006C14.7312 3.81716 14.7262 3.81432 14.7213 3.81153L8.36129 0.27822ZM2.38938 11.0909V5.74607L7.24418 8.44318V13.788L2.38938 11.0909ZM8.74806 13.788V8.44318L13.6029 5.74607V11.0909L8.74806 13.788ZM12.8065 4.46813L7.99612 7.14055L3.18577 4.46813L7.99612 1.79572L12.8065 4.46813Z"
  />
</svg>