<svg width="16" height="16" viewBox="0 0 16 16" xmlns="http://www.w3.org/2000/svg">
	<path d="M7.74707 10.1475C8.28284 10.1475 8.704 10.5072 8.7041 11.0273C8.7041 11.5476 8.2829 11.9072 7.74707 11.9072C7.21119 11.9072 6.78223 11.54 6.78223 11.0273C6.78233 10.5071 7.21125 10.1475 7.74707 10.1475Z" />
	<path d="M8 4.09473C9.40825 4.09488 10.5642 4.86009 10.5645 6.12988C10.5645 6.98689 10.12 7.42353 9.35449 7.9209C8.8876 8.21927 8.59691 8.47947 8.55859 8.84668C8.55094 8.86962 8.55061 8.90788 8.54297 8.93848C8.5047 9.25979 8.20641 9.50479 7.75488 9.50488C7.219 9.50488 6.92773 9.26754 6.92773 8.80078V8.72461C6.92773 8.08951 7.30315 7.70697 7.84668 7.33203C8.4742 6.89604 8.79566 6.65087 8.7959 6.22266C8.7959 5.76355 8.45092 5.45703 7.91504 5.45703C7.50948 5.45714 7.21854 5.65594 6.97363 6.00781C6.75928 6.24502 6.62925 6.47461 6.16992 6.47461C5.74122 6.47461 5.43457 6.20665 5.43457 5.81641C5.4346 5.67111 5.46597 5.53317 5.51953 5.39551C5.77998 4.66875 6.69112 4.09473 8 4.09473Z" />
	<path fill-rule="evenodd" clip-rule="evenodd" d="M8 0C12.4183 0 16 3.58172 16 8C16 12.4183 12.4183 16 8 16C3.58172 16 0 12.4183 0 8C0 3.58172 3.58172 0 8 0ZM8 1.59961C4.46538 1.59961 1.59961 4.46538 1.59961 8C1.59961 11.5346 4.46538 14.4004 8 14.4004C11.5346 14.4004 14.4004 11.5346 14.4004 8C14.4004 4.46538 11.5346 1.59961 8 1.59961Z" />
</svg>
