<svg width="24" height="24" viewBox="0 0 24 24" xmlns="http://www.w3.org/2000/svg">
  <path fill-rule="evenodd" d="M2.318 12.818c0-.452.366-.818.818-.818H4.5c.452 0 .818.366.818.818v1.364A.818.818 0 0 1 4.5 15H3.136a.818.818 0 0 1-.818-.818v-1.364Zm6.546 6.546c0-.452.366-.819.818-.819h1.363a.82.82 0 0 1 .819.819v1.363a.818.818 0 0 1-.819.819H9.682a.818.818 0 0 1-.818-.819v-1.363Zm-5.728-.819a.818.818 0 0 0-.818.819v1.363c0 .452.366.819.818.819H4.5a.818.818 0 0 0 .818-.819v-1.363a.818.818 0 0 0-.818-.819H3.136ZM2.59 3.273c0-.452.367-.818.819-.818h17.455c.451 0 .818.366.818.818v17.454a.818.818 0 0 1-.818.819h-5.819a.818.818 0 0 1-.818-.819v-5h-5a.818.818 0 0 1-.818-.818v-5h-5a.818.818 0 0 1-.818-.818V3.273ZM20.047 14.09h-4.182V9.909h4.181v4.182Zm-4.182 1.636v4.182h4.181v-4.182h-4.181ZM4.227 4.091H8.41v4.182H4.227V4.09Zm5.818 0v4.182h4.182V4.09h-4.182Zm5.819 4.182V4.09h4.181v4.182h-4.181Zm-5.819 1.636v4.182h4.182V9.909h-4.182Z"/>
</svg>
