<svg width="16" height="16" viewBox="0 0 16 16" xmlns="http://www.w3.org/2000/svg">
  <path fill-rule="evenodd"
    d="M8.633.2C3.833-.2-.2 3.833.2 8.633c.3 3.8 3.367 6.867 7.167 7.167 4.833.4 8.833-3.633 8.433-8.433C15.5 3.567 12.433.5 8.633.2Zm.9 1.133c.3.067.6.167.9.267.167.1.334.2.534.233.833.4 1.6.967 2.2 1.667.033.033.066.1.066.167.034.133 0 .3-.033.433-.033.1-.067.167-.067.267 0 .166.167.3.3.333.1.033.267.033.4.033.1 0 .2.067.234.167.066.167.166.433.233.5.3.733.467 1.5.5 2.3 0 .1-.033.233-.1.3a2.76 2.76 0 0 0-.367.5c-.233.467-.433 1-.766 1.4-.167.2-.367.367-.434.633-.066.167-.033.367-.066.534 0 .066-.134.066-.2.033a3.77 3.77 0 0 1-.567-1.3c-.067-.333-.133-.667-.233-1-.1-.333-.3-.633-.6-.8-.334-.167-.7-.133-1.067-.167-.367 0-.767-.066-1-.366A.796.796 0 0 1 9.233 7c-.166-.867.3-1.8 1.067-2.2.1-.067.2-.1.3-.167a.69.69 0 0 0 .233-.7c0-.066-.1-.1-.133-.066-.2.066-.4.133-.567.233-.1.033-.2-.033-.166-.1 0-.3.033-.667.133-1 .1-.367.2-.767.033-1.067-.033-.066-.133-.133-.2-.133H9c-.033 0-.033-.033-.033-.033.166-.1.3-.234.433-.367a.253.253 0 0 1 .133-.067Zm-3.366.1c.066-.033.133 0 .166.067.1.167.167.333.267.533.167.434.267.9.067 1.3-.234.467-.767.667-1.2.9a6.139 6.139 0 0 0-2.234 2c-.033.034-.066.1-.1.1-.066.034-.133 0-.166-.066a.898.898 0 0 1-.267-.234c-.033-.033-.133.034-.133.1-.134.467.1.967.5 1.2.066.034.133.067.2.134.133.166 0 .4.033.6.033.266.367.433.667.4.3-.034.533-.167.8-.267.6-.2 1.3-.133 1.8.233.266.167.5.434.766.6.234.167.534.3.8.267.067 0 .134.033.167.067.1.266 0 .6-.167.833-.2.267-.5.467-.733.7-.567.633-.7 1.6-1.167 2.3-.1.133-.2.267-.266.433-.1.234-.067.467-.067.7 0 .034-.033.1-.067.067-.1-.033-.233-.067-.333-.133-.067-.034-.133-.1-.133-.167-.167-.967-.5-1.9-.967-2.767-.2-.333-.4-.7-.733-.9-.1-.066-.2-.133-.234-.233-.033-.067 0-.167 0-.233.134-.9-.3-1.834-1.033-2.367-.133-.1-.267-.167-.333-.3C2 7.167 2 6.967 1.933 6.833c-.066-.133-.333-.3-.466-.4-.067-.033-.067-.1-.067-.166.567-2.3 2.433-4.2 4.767-4.834Z" />
</svg>