<svg width="14" height="14" viewBox="0 0 14 14" fill="none" xmlns="http://www.w3.org/2000/svg">
<g clip-path="url(#clip0_1936_443)">
<path d="M7.35509 7.33603C7.55268 7.13999 7.55215 6.82034 7.35391 6.62496L1.76279 1.11459C1.56611 0.920751 1.24953 0.923053 1.0557 1.11973L0.423947 1.76074C0.23011 1.95742 0.232413 2.27399 0.42909 2.46783L4.65169 6.62945C4.84993 6.82482 4.85046 7.14448 4.65287 7.34051L0.42568 11.5344C0.229647 11.7289 0.228395 12.0455 0.422883 12.2415L1.05676 12.8804C1.25125 13.0764 1.56783 13.0777 1.76386 12.8832L7.35509 7.33603Z"/>
<path d="M13.5883 6.62496C13.7865 6.82034 13.7871 7.13999 13.5895 7.33603L7.99823 12.8832C7.8022 13.0777 7.48562 13.0764 7.29113 12.8804L6.65726 12.2415C6.46277 12.0455 6.46402 11.7289 6.66006 11.5344L10.8872 7.34051C11.0848 7.14448 11.0843 6.82482 10.8861 6.62945L6.66347 2.46783C6.46679 2.27399 6.46449 1.95742 6.65832 1.76074L7.29007 1.11973C7.48391 0.923053 7.80048 0.920751 7.99716 1.11459L13.5883 6.62496Z"/>
</g>
<defs>
<clipPath id="clip0_1936_443">
<rect width="14" height="14" fill="white"/>
</clipPath>
</defs>
</svg>
