<svg width="16" height="16" viewBox="0 0 16 16">
  <path d="M8.006 11.976a.98.98 0 0 1-.713-.299 1.025 1.025 0 0 1-.288-.735v-6.1L5.892 6.139a.979.979 0 0 1-.942.334.998.998 0 0 1-.75-.674 1.034 1.034 0 0 1 .208-1.001l2.847-3.314a.98.98 0 0 1 .74-.34c.284 0 .554.124.742.341l2.844 3.31c.254.282.332.68.205 1.036a.98.98 0 0 1-1.685.31L8.986 4.844v6.094c.006.276-.096.538-.28.733a.983.983 0 0 1-.57.296l-.13.01Z"/>
  <path d="M12.526 11.253c0-.554.417-1.012.956-1.074l.126-.008c.597 0 1.082.485 1.082 1.082l-.002 2.484-.01.178c-.062.538-.52.956-1.074.956H2.396a1.083 1.083 0 0 1-1.081-1.09v-2.527a1.082 1.082 0 1 1 2.163 0l-.001 1.452h9.048v-1.453Z"/>
</svg>
