<svg width="16" height="16" viewBox="0 0 16 16">
  <path d="M8.23 10.418a.987.987 0 1 0 0-1.973H4.26a.987.987 0 1 0 0 1.973h3.97Zm4.118 0a.987.987 0 1 0 0-1.973h-1.685a.987.987 0 1 0 0 1.973h1.684ZM4.115 7.575a.987.987 0 0 0 0-1.974H2.43a.987.987 0 1 0 0 1.974h1.685Zm6.403-.007a.987.987 0 0 0 0-1.974h-3.97a.987.987 0 0 0 0 1.974h3.97Zm-4.72-2.836a.987.987 0 0 0 0-1.974H4.113a.987.987 0 0 0 0 1.974h1.685Zm6.399 0a.987.987 0 0 0 0-1.974h-3.97a.987.987 0 1 0 0 1.974h3.97Zm1.927 8.544a.987.987 0 0 0 0-1.974H2.111a.987.987 0 0 0 0 1.974h12.013Z"/>
</svg>
