<svg width="16" height="16" viewBox="0 0 16 16" xmlns="http://www.w3.org/2000/svg">
  <path fill-rule="evenodd" d="M6.43.81c.856 0 1.467.494 1.467 1.268 0 .342-.084.567-.316.908l-.156.22c-.31.428-.43.688-.43 1.089 0 1.074 1.03 1.312 2.673.987.397-.078.817-.187 1.249-.32l.316-.1.306-.104.384-.14-.01.037c-.069.248-.138.517-.203.797-.092.401-.167.792-.22 1.16-.21 1.493-.023 3.034.792 3.034a.922.922 0 0 0 .328-.064c.063-.024.127-.054.198-.092l.112-.063c.06-.035.271-.166.31-.19.419-.252.742-.367 1.168-.367.81 0 1.316.651 1.316 1.553 0 .852-.49 1.444-1.274 1.444-.344 0-.57-.084-.913-.314l-.221-.155c-.43-.307-.69-.427-1.092-.427-.792 0-1.1.652-1.061 1.678.012.324.058.668.127 1.014l.058.267.024.104-.153.01a9.379 9.379 0 0 0-.397.038l-1.2.139-.147.014c-1.648.16-2.449-.02-2.449-.725 0-.283.079-.48.29-.782l.551-.585c.36-.478.32-.835.32-1.303 0-.95-.958-1.554-1.961-1.554-1.035 0-2.016.598-2.016 1.588 0 .432.061.884.343 1.269l.438.515c.035.044.203.246.245.3.082.103.138.183.176.257a.48.48 0 0 1 .063.221c0 .667-.791.948-2.156.9a11.97 11.97 0 0 1-1.458-.148l-.338-.056-.37-.073V5.143l.305.06a11.919 11.919 0 0 0 1.792.209c1.478.053 2.394-.28 2.394-1.185a.896.896 0 0 0-.066-.328 1.95 1.95 0 0 0-.16-.31l-.195-.308c-.26-.417-.379-.738-.379-1.161 0-.803.676-1.31 1.597-1.31Z"/>
</svg>
