<svg width="16" height="16" viewBox="0 0 16 16" xmlns="http://www.w3.org/2000/svg">
  <path d="M12.0001 7.33332C12.3683 7.33333 12.6667 7.6318 12.6667 7.99999V12C12.6667 12.0436 12.6622 12.0872 12.6537 12.1302C12.6402 12.1984 12.6134 12.2613 12.5808 12.3203C12.5512 12.3738 12.5169 12.4259 12.4714 12.4713C12.426 12.5168 12.3739 12.5511 12.3204 12.5807C12.2614 12.6133 12.1985 12.6401 12.1303 12.6536C12.0873 12.6622 12.0437 12.6667 12.0001 12.6667H8.00008C7.63189 12.6667 7.33342 12.3682 7.33341 12C7.33342 11.6318 7.63189 11.3333 8.00008 11.3333H10.3907L7.52873 8.47134C7.26838 8.211 7.26838 7.78898 7.52873 7.52864C7.78908 7.26829 8.21109 7.26829 8.47144 7.52864L11.3334 10.3906V7.99999C11.3334 7.6318 11.6319 7.33332 12.0001 7.33332Z"/>
  <path fill-rule="evenodd" clip-rule="evenodd" d="M13.3334 4.66666C14.438 4.66666 15.3334 5.56209 15.3334 6.66666V13.3333C15.3334 14.4379 14.438 15.3333 13.3334 15.3333H6.66675C5.56218 15.3333 4.66675 14.4379 4.66675 13.3333V6.66666C4.66675 5.56209 5.56218 4.66666 6.66675 4.66666H13.3334ZM6.66675 5.99999C6.29856 5.99999 6.00008 6.29847 6.00008 6.66666V13.3333C6.00008 13.7015 6.29856 14 6.66675 14H13.3334C13.7016 14 14.0001 13.7015 14.0001 13.3333V6.66666C14.0001 6.29847 13.7016 6 13.3334 5.99999H6.66675Z"/>
  <path d="M9.33341 0.666656C10.4349 0.666662 11.3334 1.56514 11.3334 2.66666C11.3334 3.03484 11.0349 3.33332 10.6667 3.33332C10.2986 3.33332 10.0001 3.03485 10.0001 2.66666C10.0001 2.30152 9.69855 2 9.33341 1.99999H2.66675C2.30161 1.99999 2.00008 2.30151 2.00008 2.66666V9.33332C2.00008 9.65266 2.23053 9.92408 2.53263 9.98697L2.80086 10.013C3.10481 10.075 3.33341 10.3444 3.33341 10.6667C3.33341 11.0348 3.03493 11.3333 2.66675 11.3333C1.56522 11.3333 0.666748 10.4348 0.666748 9.33332V2.66666C0.666749 1.56513 1.56523 0.666656 2.66675 0.666656H9.33341Z"/>
</svg>
