<svg width="14" height="14" viewBox="0 0 14 14" xmlns="http://www.w3.org/2000/svg">
    <path fill-rule="evenodd" clip-rule="evenodd" d="M1.205 11.805C0.93163 12.0784 0.93163 12.5216 1.205 12.795C1.47836 13.0683 1.92158 13.0683 2.19495 12.795L3.96306 11.0269C4.87464 11.5545 5.90367 11.9229 7 11.9229C10.7796 11.9229 13.7592 7.54441 13.8842 7.35836C14.0386 7.12841 14.0386 6.79448 13.8842 6.56453C13.8127 6.45815 12.808 4.9812 11.2542 3.73575L12.7966 2.1933C13.07 1.91993 13.07 1.47671 12.7966 1.20335C12.5233 0.92998 12.08 0.92998 11.8067 1.20335L10.0856 2.92441C9.16205 2.38166 8.11589 2 7 2C3.22044 2 0.240785 6.37847 0.115799 6.56453C-0.0385997 6.79448 -0.0385997 7.12841 0.115799 7.35836C0.187917 7.46571 1.21046 8.96888 2.78869 10.2213L1.205 11.805ZM5.34814 9.64178C5.82832 9.93834 6.39418 10.1095 7 10.1095C8.73861 10.1095 10.148 8.70005 10.148 6.96144C10.148 6.35562 9.9769 5.78976 9.68034 5.30958L8.56453 6.42539C8.62212 6.5935 8.65337 6.77382 8.65337 6.96145C8.65337 7.87457 7.91314 8.6148 7.00003 8.6148C6.8124 8.6148 6.63207 8.58354 6.46397 8.52596L5.34814 9.64178ZM5.45603 7.55399L4.34944 8.66058C4.03459 8.17044 3.85197 7.58727 3.85197 6.96144C3.85197 5.22283 5.26139 3.81341 7 3.81341C7.62583 3.81341 8.209 3.99603 8.69914 4.31088L7.59257 5.41745C7.40862 5.34682 7.20884 5.3081 7.00003 5.3081C6.08691 5.3081 5.34668 6.04833 5.34668 6.96145C5.34668 7.17027 5.38539 7.37004 5.45603 7.55399Z" />
</svg>