<svg width="24" height="24" viewBox="0 0 24 24" xmlns="http://www.w3.org/2000/svg">
    <path fill-rule="evenodd"
        fill="#CCCCCC"
        d="M12.946 18.82v-.235H5.152a.489.489 0 0 1-.407-.768l1.109-1.81h7.84a5.62 5.62 0 0 1 2.806-2.47L13.837 9.12V4.673c.879-.2 1.493-1 1.463-1.908v-.1A1.909 1.909 0 0 0 13.4.75H8.502c-1.05 0-1.901.858-1.901 1.916v.099A1.89 1.89 0 0 0 8.065 4.65v4.447l-3.275 5.42a.692.692 0 0 0-.249.396L3.32 16.935a2.2 2.2 0 0 0 .686 2.988c.348.208.743.32 1.147.327h7.983a5.651 5.651 0 0 1-.189-1.43ZM9.611 9.805a.81.81 0 0 0 .129-.433V3.867a.84.84 0 0 0-.838-.836h-.4a.225.225 0 0 1-.226-.236v-.13c0-.126.1-.23.226-.235H13.4c.13 0 .234.106.234.236v.099c0 .13-.105.235-.234.235H13a.84.84 0 0 0-.83.837V9.34c-.002.15.04.299.12.425l2.755 4.524H6.857l2.754-4.486Z" />
    <path fill-rule="evenodd"
        d="M18.83 12.768a5.625 5.625 0 1 0-.91 11.214 5.625 5.625 0 0 0 .91-11.213Zm.644.818c.218.051.434.114.645.187.116.08.246.139.383.173a4.77 4.77 0 0 1 1.582 1.192c.03.034.048.076.053.12a.646.646 0 0 1 0 .315.567.567 0 0 0-.045.188.277.277 0 0 0 .217.24c.095.012.19.012.285 0a.18.18 0 0 1 .165.12c.043.127.1.247.173.36a4.83 4.83 0 0 1 .36 1.657.3.3 0 0 1-.075.21c-.1.11-.188.231-.263.36a5.484 5.484 0 0 1-.577 1.073 1.17 1.17 0 0 0-.315.45 2.246 2.246 0 0 0-.045.382c0 .053-.098.053-.15 0a2.895 2.895 0 0 1-.405-.937c-.045-.24-.098-.48-.165-.75a.975.975 0 0 0-.435-.578 2.176 2.176 0 0 0-.75-.112.885.885 0 0 1-.75-.27.57.57 0 0 1-.12-.33 1.5 1.5 0 0 1 .75-1.583c.067-.052.142-.075.21-.12a.51.51 0 0 0 .172-.502.068.068 0 0 0-.097-.053c-.14.044-.277.102-.405.173-.075 0-.15 0-.12-.075a2.746 2.746 0 0 1 .09-.75 1.042 1.042 0 0 0 0-.75.225.225 0 0 0-.15-.098h-.668c.116-.07.22-.159.308-.262a.188.188 0 0 1 .142-.03Zm-2.422.067a.083.083 0 0 1 .12.053c.075.12.12.24.195.382.148.29.165.629.045.93-.165.338-.548.48-.863.653a4.395 4.395 0 0 0-1.605 1.432s-.045.075-.067.075a.083.083 0 0 1-.12-.052.584.584 0 0 1-.195-.165s-.09 0-.09.075a.75.75 0 0 0 .352.862.534.534 0 0 1 .15.09c.09.12 0 .293 0 .435 0 .143.263.308.48.285a2.42 2.42 0 0 0 .57-.187 1.44 1.44 0 0 1 1.298.165c.187.12.36.315.547.435a.93.93 0 0 0 .578.187.195.195 0 0 1 .12.045.69.69 0 0 1-.12.6 4.796 4.796 0 0 1-.525.503c-.413.457-.503 1.155-.84 1.657a1.437 1.437 0 0 0-.195.308 1.29 1.29 0 0 0-.045.502s0 .075-.045.053a.95.95 0 0 1-.24-.098.158.158 0 0 1-.098-.12 6.47 6.47 0 0 0-.697-1.987 1.71 1.71 0 0 0-.525-.645c-.075-.053-.143-.098-.165-.173-.023-.075 0-.12 0-.165a1.845 1.845 0 0 0-.75-1.702.614.614 0 0 1-.24-.218c-.053-.09-.053-.24-.098-.33a1.438 1.438 0 0 0-.337-.292c-.045 0-.045-.068-.045-.12a4.875 4.875 0 0 1 3.45-3.473Z" />
</svg>
  