<svg width="16" height="16" viewBox="0 0 16 16">
    <path fill-rule="evenodd"
        d="M10.38 2.286H.893c-.237 0-.464.1-.632.279A.986.986 0 0 0 0 3.238v9.524c0 .252.094.495.261.673a.865.865 0 0 0 .632.28h9.487a.86.86 0 0 0 .58-.23l4.417-4.039c.195-.179.352-.4.46-.65a2.013 2.013 0 0 0 0-1.592 1.898 1.898 0 0 0-.46-.65L10.96 2.515a.86.86 0 0 0-.58-.23ZM9.278 6.184c-.054-.975-1.012-2.078-2.366-2.118-1.355-.04-2.266 1.013-2.423 1.904 0 0-.014.076-.02.15a.884.884 0 0 0 .02.267c.019.056.198.487.7.487.271 0 .448-.075.52-.219.052-.092.094-.241.125-.35l.014-.05.002-.004c.031-.11.083-.289.298-.496.184-.177.384-.283.633-.31l.087-.007.084-.002c.684 0 .823.49.823.83 0 .316-.335.642-.639.937a7.979 7.979 0 0 0-.184.183l-.05.051c-.316.323-.635.649-.794 1.038-.168.41-.028.67.052.75l.022.023c.086.09.247.258.58.258.365 0 .578-.1.71-.23.058-.059.11-.158.18-.294.089-.17.208-.398.408-.676a9.28 9.28 0 0 1 .358-.451c.37-.448.805-.974.85-1.382l.009-.1.003-.105-.002-.084ZM6.8 10.086a.844.844 0 0 1 .84.84.842.842 0 0 1-1.435.594.845.845 0 0 1 0-1.188.846.846 0 0 1 .595-.246Z" />
</svg>
  