<svg width="24" height="24" viewBox="0 0 24 24">
  <path fill-rule="evenodd" d="M7.875 19.875A7.838 7.838 0 0 0 12 18.709 7.875 7.875 0 1 0 12 5.29a7.875 7.875 0 1 0-4.125 14.585Zm0-1.582c.993 0 1.933-.23 2.768-.64A7.852 7.852 0 0 1 8.25 12a7.85 7.85 0 0 1 2.393-5.653 6.293 6.293 0 1 0-2.768 11.947Zm8.25-12.586c-.993 0-1.932.23-2.768.64A7.852 7.852 0 0 1 15.75 12a7.852 7.852 0 0 1-2.393 5.653 6.293 6.293 0 1 0 2.768-11.947Zm-3.722 1.922-1.298.575c-.257.34-.48.706-.666 1.095L12.9 8.21a6.343 6.343 0 0 0-.496-.58ZM13.69 9.59l-3.81 1.686-.005-.013a6.358 6.358 0 0 0-.042.833l4.098-1.814a6.251 6.251 0 0 0-.24-.692Zm.478 2.317-4.098 1.814c.068.239.15.472.243.698l3.813-1.688a6.356 6.356 0 0 0 .042-.824Zm-.614 2.807-2.447 1.084c.155.205.323.4.502.585l1.265-.56a6.28 6.28 0 0 0 .68-1.109Z"/>
</svg>
