<svg width="14" height="14" viewBox="0 0 14 14"  xmlns="http://www.w3.org/2000/svg">
    <path fill-rule="evenodd" clip-rule="evenodd" d="M11.7392 2.45583L11.711 3.72739C11.3352 3.16405 10.8767 2.66483 10.3496 2.25146C9.24876 1.38818 7.91211 0.949183 6.55343 1.00468C5.19475 1.06019 3.89252 1.60698 2.85498 2.55762C1.98649 3.35337 1.3718 4.40451 1.03368 5.5709C0.923066 5.95249 1.17596 6.33274 1.56375 6.41915C1.96899 6.50944 2.36381 6.24428 2.49361 5.84991C2.75782 5.04715 3.19596 4.32448 3.80286 3.76841C4.59001 3.04719 5.57798 2.63235 6.60877 2.59025C7.63957 2.54814 8.65365 2.88119 9.48883 3.53614C9.96764 3.91163 10.3718 4.38047 10.683 4.91439L9.03156 4.60953C8.63217 4.5358 8.24865 4.79987 8.17503 5.19928C8.10179 5.59663 8.36291 5.97864 8.75975 6.05466L11.8944 6.65522C12.5011 6.77146 13.0671 6.31524 13.0823 5.69767L13.1612 2.48907C13.1707 2.10081 12.867 1.77669 12.479 1.76097C12.0814 1.74487 11.748 2.05804 11.7392 2.45583ZM1.00022 11.9409C0.990671 12.3292 1.29436 12.6533 1.68243 12.669C2.07998 12.6851 2.41342 12.3719 2.42224 11.9741L2.45043 10.7026C2.82619 11.2659 3.28468 11.7651 3.8118 12.1785C4.91265 13.0418 6.24929 13.4808 7.60797 13.4253C8.96665 13.3698 10.2689 12.823 11.3064 11.8724C12.1749 11.0766 12.7896 10.0255 13.1277 8.85908C13.2383 8.47748 12.9854 8.09724 12.5977 8.01083C12.1924 7.92053 11.7976 8.1857 11.6678 8.58006C11.4036 9.38282 10.9654 10.1055 10.3586 10.6616C9.5714 11.3828 8.58343 11.7976 7.55263 11.8397C6.52184 11.8818 5.50776 11.5488 4.67257 10.8938C4.19376 10.5183 3.7896 10.0495 3.47842 9.51558L5.12984 9.82044C5.52923 9.89417 5.91276 9.63011 5.98638 9.23069C6.05962 8.83334 5.79849 8.45134 5.40166 8.37531L2.26698 7.77475C1.66026 7.65851 1.09431 8.11473 1.07912 8.73231L1.00022 11.9409Z" />
</svg>
    