<svg width="16" height="16" viewBox="0 0 16 16" xmlns="http://www.w3.org/2000/svg">
  <path fill-rule="evenodd" d="M2.2 11.229a1.486 1.486 0 1 1 0 2.971 1.486 1.486 0 0 1 0-2.971Zm12.242.428c.262 0 .49.169.579.423l.027.1.01.106v.857c0 .261-.158.49-.402.586l-.11.033-.104.01H6.13a.615.615 0 0 1-.58-.424l-.026-.1-.01-.105v-.857c0-.261.158-.49.402-.586l.11-.033.104-.01h8.312Zm-12.242-5a1.486 1.486 0 1 1 0 2.972 1.486 1.486 0 0 1 0-2.972Zm12.242.429c.262 0 .49.168.579.423l.027.1.01.105v.857a.627.627 0 0 1-.402.587l-.11.032-.104.01H6.13a.615.615 0 0 1-.58-.423l-.026-.1-.01-.106v-.857c0-.26.158-.49.402-.586l.11-.032.104-.01h8.312Zm-12.242-5a1.486 1.486 0 1 1 0 2.971 1.486 1.486 0 0 1 0-2.971Zm12.242.428c.262 0 .49.169.579.424l.027.099.01.106V4c0 .261-.158.49-.402.586l-.11.033-.104.01H6.13a.615.615 0 0 1-.58-.424l-.026-.1L5.514 4v-.857c0-.261.158-.49.402-.586l.11-.033.104-.01h8.312Z"/>
</svg>
