<svg width="22" height="22" viewBox="0 0 22 22" fill="none" xmlns="http://www.w3.org/2000/svg">
<path fill-rule="evenodd" clip-rule="evenodd" d="M10.6358 0.344382C10.8623 0.218539 11.1377 0.218539 11.3642 0.344382L20.3642 5.34438C20.6023 5.47666 20.75 5.72762 20.75 6C20.75 6.27238 20.6023 6.52334 20.3642 6.65562L11.3642 11.6556C11.1377 11.7815 10.8623 11.7815 10.6358 11.6556L1.63577 6.65562C1.39767 6.52334 1.25 6.27238 1.25 6C1.25 5.72762 1.39767 5.47666 1.63577 5.34438L10.6358 0.344382ZM3.54434 6L11 10.142L18.4557 6L11 1.85797L3.54434 6Z"/>
<path fill-rule="evenodd" clip-rule="evenodd" d="M20.3803 5.3536C20.6094 5.48836 20.75 5.73426 20.75 6V16C20.75 16.2724 20.6023 16.5233 20.3642 16.6556L11.3642 21.6556C11.1319 21.7847 10.8487 21.7812 10.6197 21.6464C10.3906 21.5116 10.25 21.2657 10.25 21V11C10.25 10.7276 10.3977 10.4767 10.6358 10.3444L19.6358 5.34438C19.8681 5.21533 20.1513 5.21883 20.3803 5.3536ZM11.75 11.4413V19.7254L19.25 15.5587V7.27464L11.75 11.4413Z"/>
<path fill-rule="evenodd" clip-rule="evenodd" d="M1.61965 5.3536C1.39062 5.48836 1.25 5.73426 1.25 6V16C1.25 16.2724 1.39767 16.5233 1.63577 16.6556L10.6358 21.6556C10.8681 21.7847 11.1513 21.7812 11.3803 21.6464C11.6094 21.5116 11.75 21.2657 11.75 21V11C11.75 10.7276 11.6023 10.4767 11.3642 10.3444L2.36423 5.34438C2.13193 5.21533 1.84869 5.21883 1.61965 5.3536ZM10.25 11.4413V19.7254L2.75 15.5587V7.27464L10.25 11.4413Z"/>
</svg>
