<svg width="24" height="24" viewBox="0 0 24 24">
  <path fill-rule="evenodd"
    fill="#CCCCCC"
    d="M12.852 18.98H10.76v-3.212h2.764a5.032 5.032 0 0 1 1.42-1.644v-2.54h3.211v1.27h.3c.373 0 .746.075 1.045.075V2.172a.67.67 0 0 0-.672-.672H1.348c-.374 0-.598.299-.598.672v17.406a.67.67 0 0 0 .672.672h11.654a3.49 3.49 0 0 1-.224-1.27Zm2.091-16.135h3.212v3.212h-3.212V2.845Zm0 4.631h3.212v2.764h-3.212V7.476ZM10.76 2.845h2.764v3.212H10.76V2.845Zm0 4.631h2.764v2.764H10.76V7.476Zm0 4.109h2.764v2.764H10.76v-2.764ZM5.232 18.98H2.02v-3.212h3.212v3.212Zm0-4.631H2.02v-2.764h3.212v2.764Zm0-4.109H2.02V7.476h3.212v2.764Zm0-4.183H2.02V2.845h3.212v3.212ZM9.415 18.98H6.651v-3.212h2.764v3.212Zm0-4.631H6.651v-2.764h2.764v2.764Zm0-4.109H6.651V7.476h2.764v2.764Zm0-4.183H6.651V2.845h2.764v3.212Z" />
  <path fill-rule="evenodd"
    d="M18.823 12.771c-3.437-.299-6.35 2.615-6.052 6.052.224 2.69 2.391 4.932 5.156 5.156 3.437.299 6.35-2.615 6.052-6.052-.224-2.765-2.391-5.006-5.156-5.156Zm.673.747.672.224c.15.075.224.15.374.15.598.299 1.12.672 1.569 1.195 0 0 .075.075.075.15v.299c0 .074-.075.15-.075.224 0 .15.15.224.224.224h.299a.16.16 0 0 1 .15.15c.074.149.149.298.149.373.224.523.299 1.046.373 1.644 0 .075 0 .15-.074.224a1.63 1.63 0 0 0-.3.374c-.149.299-.298.747-.522.97-.15.15-.3.3-.3.45-.074.149 0 .298-.074.373 0 .074-.075.074-.15 0-.223-.299-.298-.598-.373-.897-.075-.224-.075-.448-.15-.747a1.162 1.162 0 0 0-.448-.598c-.224-.15-.523-.074-.747-.15-.299 0-.523-.074-.747-.298-.075-.075-.15-.224-.15-.299-.149-.598.225-1.27.748-1.569.075-.075.15-.075.224-.15.15-.149.224-.298.15-.522 0-.075-.075-.075-.075-.075-.15.075-.3.075-.374.15-.075 0-.15 0-.15-.075 0-.225 0-.449.075-.748s.15-.523 0-.747c0-.075-.074-.075-.15-.075h-.672a.584.584 0 0 0 .3-.298c.074.149.149.074.149.074Zm-2.391.075c.075 0 .075 0 .15.075.074.15.149.224.223.373.15.3.224.673.075.897-.15.299-.523.448-.822.672-.672.3-1.195.822-1.569 1.42l-.075.075c-.074 0-.074 0-.149-.075s-.15-.075-.224-.15c0 0-.075 0-.075.075a.751.751 0 0 0 .374.822c.074 0 .074.075.15.075.074.15 0 .299 0 .448 0 .224.298.3.447.3.225 0 .374-.15.598-.225a1.5 1.5 0 0 1 1.27.15c.224.149.374.298.523.448.15.15.374.224.598.224.075 0 .075 0 .15.075a.581.581 0 0 1-.15.597c-.15.224-.373.3-.523.523-.373.449-.523 1.121-.822 1.644-.075.075-.15.224-.224.3-.075.149-.075.298-.075.522 0 0 0 .075-.074.075-.075 0-.15-.075-.224-.075-.075 0-.075-.075-.075-.15a10.657 10.657 0 0 0-.673-2.017c-.15-.224-.299-.523-.523-.672-.074-.075-.15-.075-.15-.15v-.15a1.875 1.875 0 0 0-.746-1.718c-.075-.074-.225-.149-.225-.224 0-.075-.074-.224-.074-.299l-.3-.299c-.074 0-.074-.074-.074-.149.3-1.569 1.57-2.989 3.288-3.437Z" />
</svg>