<svg width="16" height="16" viewBox="0 0 16 16" xmlns="http://www.w3.org/2000/svg">
  <path fill-rule="evenodd" clip-rule="evenodd" d="M15.99 0.990006C15.99 0.440005 15.54 -0.00999451 14.99 -0.00999451C14.71 -0.00999451 14.46 0.100005 14.28 0.280005L10.99 3.57001V1.99001C10.99 1.44001 10.54 0.990006 9.99 0.990006C9.44 0.990006 8.99 1.44001 8.99 1.99001V5.99001C8.99 6.54001 9.44 6.99001 9.99 6.99001H13.99C14.54 6.99001 14.99 6.54001 14.99 5.99001C14.99 5.44001 14.54 4.99001 13.99 4.99001H12.4L15.7 1.70001C15.88 1.52001 15.99 1.27001 15.99 0.990006ZM5.99 8.99001H1.99C1.44 8.99001 0.99 9.44001 0.99 9.99001C0.99 10.54 1.44 10.99 1.99 10.99H3.58L0.29 14.28C0.11 14.46 0 14.71 0 14.99C0 15.54 0.45 15.99 1 15.99C1.28 15.99 1.53 15.88 1.71 15.7L5 12.41V14C5 14.55 5.45 15 6 15C6.55 15 7 14.55 7 14V10C6.99 9.44001 6.54 8.99001 5.99 8.99001Z"/>
</svg>
