<svg width="16" height="16" viewBox="0 0 16 16" xmlns="http://www.w3.org/2000/svg">
	<path fill-rule="evenodd" clip-rule="evenodd" d="M6.00004 4.00002C7.10435 4.00019 7.99986 4.89571 8.00004 6.00002C7.99986 7.10433 7.10435 7.99984 6.00004 8.00002C4.89573 7.99984 4.00022 7.10433 4.00004 6.00002C4.00022 4.89571 4.89573 4.00019 6.00004 4.00002ZM6.00004 5.33335C5.63211 5.33353 5.33355 5.63209 5.33337 6.00002C5.33355 6.36795 5.63211 6.66651 6.00004 6.66668C6.36797 6.66651 6.66653 6.36795 6.66671 6.00002C6.66653 5.63209 6.36797 5.33353 6.00004 5.33335Z" />
	<path fill-rule="evenodd" clip-rule="evenodd" d="M12.6667 1.33335C13.771 1.33353 14.6665 2.22904 14.6667 3.33335V12.6667C14.6665 13.771 13.771 14.6665 12.6667 14.6667H3.33337C2.22906 14.6665 1.33355 13.771 1.33337 12.6667V3.33335C1.33355 2.22904 2.22906 1.33353 3.33337 1.33335H12.6667ZM11 8.21877C10.8235 8.21878 10.6537 8.28936 10.5287 8.41408L5.60942 13.3334H12.6667C13.0346 13.3332 13.3332 13.0346 13.3334 12.6667V10.2761L11.4714 8.41408L11.3698 8.33075C11.2611 8.25846 11.1324 8.21877 11 8.21877ZM3.33337 2.66668C2.96544 2.66686 2.66688 2.96542 2.66671 3.33335V12.6667C2.66688 13.0346 2.96544 13.3332 3.33337 13.3334H3.724L9.58598 7.47137C9.96103 7.09644 10.4697 6.88544 11 6.88543C11.4642 6.88543 11.9124 7.04697 12.2683 7.33856L12.4141 7.47137L13.3334 8.39064V3.33335C13.3332 2.96542 13.0346 2.66686 12.6667 2.66668H3.33337Z" />
</svg>
