<svg width="16" height="16" viewBox="0 0 16 16">
  <defs>
    <clipPath id="a">
      <path d="M0 0h16v16H0z"/>
    </clipPath>
  </defs>
  <g clip-path="url(#a)">
    <path fill-rule="evenodd" d="M8.001 0a5.544 5.544 0 0 1 4.172 9.192l-.17.202c-.569.712-1.177 1.769-1.404 2.534l-.002.001-.002 2.31a.635.635 0 0 1-.06.268l-.045.08-.753 1.131a.63.63 0 0 1-.526.282h-2.42a.632.632 0 0 1-.526-.282l-.753-1.13a.628.628 0 0 1-.106-.35v-2.282c-.26-.881-.966-2.068-1.577-2.765l-.182-.219a5.51 5.51 0 0 1-1.19-3.428A5.524 5.524 0 0 1 8.001 0Zm0 1.754a3.773 3.773 0 0 0-3.788 3.79c.003.923.331 1.801.936 2.49l.259.309a9.524 9.524 0 0 1 1.678 3.11l-.076-.226 1.98.002c.32-.93.837-1.935 1.606-2.888l.258-.306a3.78 3.78 0 0 0 .937-2.491c0-2.09-1.7-3.79-3.79-3.79Zm.283 1.586a.882.882 0 1 1 0 1.765l-.107.008a.724.724 0 0 0-.615.714l-.008.12a.882.882 0 0 1-1.756-.12A2.488 2.488 0 0 1 8.284 3.34Z"/>
  </g>
</svg>
