<svg width="16" height="16" viewBox="0 0 16 16" xmlns="http://www.w3.org/2000/svg">
  <path
    d="M7.766 7.265a1.484 1.484 0 1 0-.001-2.968 1.484 1.484 0 0 0 .001 2.968Zm-1.725 4.287a1.478 1.478 0 1 0-.001-2.955 1.478 1.478 0 0 0 .001 2.955Z" />
  <path fill-rule="evenodd"
    d="M2.446 4.326.382 2.37A1.222 1.222 0 0 1 .334.645 1.219 1.219 0 0 1 2.058.597L3.667 2.12a5.385 5.385 0 0 1 8.771 1.103l1.881-.767a1.22 1.22 0 1 1 .92 2.261l-2.182.89a5.377 5.377 0 0 1-.333 1.99l-1.575 4.267 1.905 1.76c.495.458.525 1.23.068 1.725a1.219 1.219 0 0 1-1.723.069l-1.582-1.462a5.384 5.384 0 0 1-5.62 1.188A5.392 5.392 0 0 1 1.009 8.22l1.437-3.895Zm8.477 2.605-1.61 4.361a3.465 3.465 0 0 1-4.452 2.05A3.47 3.47 0 0 1 2.81 8.887l1.61-4.361a3.465 3.465 0 0 1 4.452-2.05 3.47 3.47 0 0 1 2.051 4.455Z" />
</svg>