<svg width="22" height="22" viewBox="0 0 22 22" fill="none" xmlns="http://www.w3.org/2000/svg">
<path fill-rule="evenodd" clip-rule="evenodd" d="M19.1344 9.73333C19.1344 9.38355 19.4068 9 19.8643 9C20.3219 9 20.5914 9.38355 20.5914 9.73333L20.5914 12.2667C20.5914 12.6164 20.3258 12.9961 19.8643 12.9961C19.4029 12.9961 19.1344 12.6164 19.1344 12.2667L19.1344 11.7305L18.0484 11.7305C17.9065 13.1312 17.4071 14.3654 16.4972 15.4398L17.2587 16.2377L17.6369 15.8596C17.8882 15.6444 18.2873 15.541 18.6356 15.8894C18.9839 16.2377 18.8786 16.6348 18.6634 16.8861L17.7577 17.8171L16.8647 18.7101C16.6177 18.9556 16.168 19.0417 15.8256 18.6994C15.4832 18.357 15.5927 17.9306 15.8382 17.6836L16.2059 17.2905L15.4262 16.5108C14.348 17.4093 13.1256 17.9178 11.7284 18.0508L11.7284 19.1373L12.2643 19.1373C12.6141 19.1373 12.9992 19.3997 12.9992 19.8667C12.9992 20.3336 12.6141 20.594 12.2643 20.594L9.73099 20.594C9.38121 20.594 9.00601 20.3278 9.00601 19.8667C9.00601 19.4055 9.38121 19.1373 9.73099 19.1373L10.2672 19.1373L10.2672 18.0508C8.86647 17.9088 7.6388 17.3873 6.56442 16.4773L5.75594 17.2582L6.13755 17.6398C6.38311 17.8868 6.46222 18.3418 6.13629 18.6677C5.81037 18.9936 5.35073 18.9065 5.10371 18.661L4.20437 17.7743L3.32404 16.8813C3.01519 16.653 2.91063 16.1436 3.2775 15.7812C3.64437 15.4189 4.11659 15.5599 4.34522 15.8601L4.73396 16.2362L5.50929 15.4222C4.61077 14.3439 4.11107 13.1355 3.97813 11.7383L2.86094 11.7383L2.86094 12.2667C2.86094 12.6164 2.63152 12.9961 2.13099 12.9961C1.63047 12.9961 1.4 12.5862 1.4 12.2365L1.4 9.70312C1.4 9.35334 1.67839 9.00391 2.13099 9.00391C2.5836 9.00391 2.86094 9.38355 2.86094 9.73333L2.86094 10.2695L3.97813 10.2695C4.11107 8.87229 4.61845 7.6527 5.51697 6.57444L4.73321 5.76239L4.35046 6.14514C4.10344 6.39069 3.64314 6.454 3.3298 6.13878C3.01645 5.82356 3.08346 5.35804 3.32902 5.11102L4.21568 4.21169L5.10868 3.33135C5.33697 3.02251 5.86611 2.91698 6.20885 3.25972C6.55159 3.60246 6.43037 4.12416 6.13013 4.3528L5.75778 4.72514L6.58751 5.50391C7.66576 4.60539 8.86995 4.11341 10.2672 3.98047L10.2672 2.86328L9.73099 2.86328C9.38121 2.86328 8.99518 2.58594 8.99518 2.13672C8.99518 1.6875 9.38121 1.40234 9.73099 1.40234L12.2643 1.40234C12.6141 1.40234 12.9977 1.6875 12.9977 2.13672C12.9977 2.58594 12.6141 2.86328 12.2643 2.86328L11.7281 2.86328L11.7281 3.98047C13.1254 4.11341 14.3637 4.59654 15.4419 5.49506L16.2316 4.73945L15.8476 4.35543C15.5764 4.1232 15.4878 3.62951 15.8303 3.287C16.1728 2.9445 16.6553 3.05816 16.8811 3.3219L17.7804 4.20856L18.6734 5.10156C18.919 5.34859 19.0253 5.78969 18.6879 6.12711C18.3504 6.46452 17.8869 6.38065 17.6399 6.13509L17.2586 5.76642L16.5136 6.56676C17.4121 7.64502 17.9155 8.87229 18.0484 10.2695L19.1344 10.2695L19.1344 9.73333ZM5.3961 11C5.3961 14.0355 7.97329 16.5942 10.9942 16.5942C14.0151 16.5942 16.6026 14.1702 16.6026 11.0222C16.6026 7.87418 14.1457 5.39476 10.9977 5.39476C7.84964 5.39476 5.3961 7.9645 5.3961 11Z"/>
<path d="M7.95132 9.79297C8.70469 9.79297 9.15391 10.3872 9.15391 11C9.15391 11.6128 8.67735 12.2109 7.95132 12.2109C7.2253 12.2109 6.74766 11.6128 6.74766 11C6.74766 10.3872 7.19795 9.79297 7.95132 9.79297Z"/>
<path d="M11.2358 12.1817C12.1948 12.1817 12.8779 12.9742 12.8779 13.8291C12.8779 14.6839 12.1993 15.4797 11.2358 15.4797C10.2723 15.4797 9.59344 14.6839 9.59344 13.8291C9.59344 12.9742 10.2768 12.1817 11.2358 12.1817Z"/>
<path fill-rule="evenodd" clip-rule="evenodd" d="M12.676 11.1211C13.7887 11.0591 14.6813 10.157 14.6813 9.0082C14.6813 7.85938 13.7982 6.96095 12.676 6.89844C11.5539 6.83593 10.4508 7.7189 10.4508 9.0082C10.4508 10.2975 11.5634 11.1831 12.676 11.1211ZM12.676 8.15234C13.1499 8.16473 13.5133 8.53594 13.5133 9.0082C13.5133 9.48047 13.1344 9.86719 12.676 9.86719C12.2177 9.86719 11.7867 9.48438 11.7867 9.0082C11.7867 8.53203 12.2022 8.13996 12.676 8.15234Z"/>
</svg>
