<svg width="16" height="16" viewBox="0 0 16 16">
  <defs>
    <clipPath id="a">
      <path d="M0 0h16v16H0z"/>
    </clipPath>
  </defs>
  <g clip-path="url(#a)">
    <path fill-rule="evenodd" d="M8 0a8 8 0 1 1 0 16A8 8 0 0 1 8 0Zm0 1.951A6.056 6.056 0 0 0 1.951 8 6.056 6.056 0 0 0 8 14.049 6.056 6.056 0 0 0 14.049 8 6.056 6.056 0 0 0 8 1.951Zm0 2.732c.497 0 .908.372.968.853l.008.123-.002 1.365h1.367c.456 0 .84.313.946.736l.022.118.008.122a.976.976 0 0 1-.853.968l-.123.008H8.974l.002 1.365a.976.976 0 0 1-.736.946l-.118.022-.122.008a.976.976 0 0 1-.968-.853l-.008-.123V8.976H5.66a.976.976 0 0 1-.946-.736l-.022-.118L4.683 8c0-.497.372-.908.853-.968l.123-.008h1.365V5.66c0-.456.313-.84.736-.946l.118-.022L8 4.683Z"/>
  </g>
</svg>
