<svg width="24" height="24" viewBox="0 0 24 24">
  <path fill-rule="evenodd" d="M2.855 2.25a.66.66 0 0 0-.605.65v18.2c0 .359.302.65.675.65h18.9a.663.663 0 0 0 .675-.65V2.9a.663.663 0 0 0-.675-.65h-18.9a.705.705 0 0 0-.07 0Zm.745 1.3h3.6v3.467H3.6V3.551Zm4.95 0h3.15v3.467H8.55V3.551Zm4.5 0h3.15v3.467h-3.15V3.551Zm4.5 0h3.6v3.467h-3.6V3.551ZM3.6 8.318h3.6v3.034H3.6V8.317Zm4.95 0h3.15v3.034H8.55V8.317Zm4.5 0h3.15v3.034h-3.15V8.317Zm4.5 0h3.6v3.034h-3.6V8.317ZM3.6 12.65h3.6v3.034H3.6V12.65Zm4.95 0h3.15v3.034H8.55V12.65Zm4.5 0h3.15v3.034h-3.15V12.65Zm4.5 0h3.6v3.034h-3.6V12.65ZM3.6 16.984h3.6v3.466H3.6v-3.466Zm4.95 0h3.15v3.466H8.55v-3.466Zm4.5 0h3.15v3.466h-3.15v-3.466Zm4.5 0h3.6v3.466h-3.6v-3.466Z"/>
</svg>
