<svg width="16" height="16" viewBox="0 0 16 16" xmlns="http://www.w3.org/2000/svg">
  <path fill-rule="evenodd" d="M.893 2.286h9.487a.86.86 0 0 1 .58.229l4.417 4.039c.195.179.352.4.46.65a2.013 2.013 0 0 1 0 1.592c-.108.25-.265.471-.46.65l-4.416 4.039a.86.86 0 0 1-.58.23H.892a.865.865 0 0 1-.632-.28.986.986 0 0 1-.261-.673V3.238c0-.252.094-.495.261-.673a.865.865 0 0 1 .632-.28Zm7.594 3.458A.866.866 0 0 1 9.674 5.6a.798.798 0 0 1 .212 1.053l-.064.092-3.288 4.082a.866.866 0 0 1-1.243.096l-.084-.088L3.328 8.57a.797.797 0 0 1 .132-1.147.868.868 0 0 1 1.11.045l.078.082 1.209 1.46 2.63-3.265Z"/>
</svg>
