<svg width="16" height="16" viewBox="0 0 16 16" xmlns="http://www.w3.org/2000/svg">
	<path d="M9.08703 2.80729C9.12658 2.61979 9.54008 2.61979 9.57964 2.80729C9.86561 4.16292 10.4392 6.11949 11.4932 7.1735C12.5472 8.22751 14.5038 8.80106 15.8594 9.08703C16.0469 9.12658 16.0469 9.54008 15.8594 9.57964C14.5038 9.86561 12.5472 10.4392 11.4932 11.4932C10.4392 12.5472 9.86561 14.5038 9.57964 15.8594C9.54008 16.0469 9.12658 16.0469 9.08703 15.8594C8.80106 14.5038 8.22751 12.5472 7.1735 11.4932C6.11949 10.4392 4.16292 9.86561 2.80729 9.57964C2.61979 9.54008 2.61979 9.12658 2.80729 9.08703C4.16292 8.80106 6.11949 8.22751 7.1735 7.1735C8.22751 6.11949 8.80106 4.16292 9.08703 2.80729Z" />
	<path d="M2.88916 0.0632788C2.90696 -0.0210928 3.09304 -0.021093 3.11084 0.0632787C3.23952 0.673312 3.49762 1.55377 3.97193 2.02807C4.44623 2.50238 5.32669 2.76048 5.93672 2.88916C6.02109 2.90696 6.02109 3.09304 5.93672 3.11084C5.32669 3.23952 4.44623 3.49762 3.97193 3.97193C3.49762 4.44623 3.23952 5.32669 3.11084 5.93672C3.09304 6.02109 2.90696 6.02109 2.88916 5.93672C2.76048 5.32669 2.50238 4.44623 2.02807 3.97193C1.55377 3.49762 0.673312 3.23952 0.0632788 3.11084C-0.0210928 3.09304 -0.021093 2.90696 0.0632787 2.88916C0.673312 2.76048 1.55377 2.50238 2.02807 2.02807C2.50238 1.55377 2.76048 0.673312 2.88916 0.0632788Z" />
</svg>
