<svg width="22" height="22" viewBox="0 0 22 22" xmlns="http://www.w3.org/2000/svg">
<path fill-rule="evenodd" clip-rule="evenodd" d="M0 5.86666C0 4.6702 0.962092 3.66666 2.17708 3.66666H7.21875C8.43374 3.66666 9.39583 4.6702 9.39583 5.86666V11.6802C9.39583 12.2167 9.27612 12.74 9.03729 13.2264L7.24911 16.8678C6.81792 17.7618 5.90481 18.3333 4.91219 18.3333C2.95161 18.3333 1.71904 16.2539 2.5777 14.5213L2.57868 14.5193L3.22654 13.2H2.17708C0.962092 13.2 0 12.1964 0 11V5.86666ZM2.17708 5.49999C2.00562 5.49999 1.83333 5.65144 1.83333 5.86666V11C1.83333 11.2152 2.00562 11.3667 2.17708 11.3667H5.43361C5.77289 11.3667 5.99456 11.7225 5.84501 12.027L4.2225 15.331L4.2207 15.3347C3.9469 15.886 4.35268 16.5 4.91219 16.5C5.20371 16.5 5.47415 16.3289 5.59834 16.0702L5.60185 16.0629L7.39167 12.4183C7.50575 12.186 7.5625 11.9393 7.5625 11.6802V5.86666C7.5625 5.65144 7.39022 5.49999 7.21875 5.49999H2.17708ZM12.6042 5.86666C12.6042 4.6702 13.5663 3.66666 14.7813 3.66666H19.8229C21.0379 3.66666 22 4.6702 22 5.86666V11.6802C22 12.2166 21.8803 12.74 21.6415 13.2264L19.8533 16.8677C19.4222 17.7618 18.509 18.3333 17.5164 18.3333C15.5558 18.3333 14.3232 16.2539 15.1818 14.5213L15.1828 14.5193L15.8307 13.2H14.7813C13.5663 13.2 12.6042 12.1964 12.6042 11V5.86666ZM14.7813 5.49999C14.6098 5.49999 14.4375 5.65144 14.4375 5.86666V11C14.4375 11.2152 14.6098 11.3667 14.7813 11.3667H18.0378C18.3771 11.3667 18.5987 11.7225 18.4492 12.027L16.8267 15.331L16.8249 15.3347C16.5511 15.886 16.9568 16.5 17.5164 16.5C17.8079 16.5 18.0783 16.3289 18.2025 16.0702L18.206 16.0629L19.9958 12.4183C20.1099 12.186 20.1667 11.9393 20.1667 11.6802V5.86666C20.1667 5.65144 19.9944 5.49999 19.8229 5.49999H14.7813Z" fill="#0073FF"/>
</svg>
