<svg xmlns="http://www.w3.org/2000/svg" width="24" height="24" viewBox="0 0 24 24">
  <path d="M12 1.00195C12.5249 1.00195 13.0401 1.14066 13.4951 1.40234L13.4961 1.40137L20.4961 5.40137L20.5 5.4043L20.667 5.50781C21.0483 5.76266 21.3673 6.10239 21.5977 6.50098C21.8608 6.95635 21.9995 7.4731 22 7.99902V16.001C21.9995 16.5269 21.8608 17.0436 21.5977 17.499C21.3344 17.9545 20.9556 18.3327 20.5 18.5957L20.4961 18.5986L13.4961 22.5986L13.4951 22.5977C13.0401 22.8593 12.5249 22.998 12 22.998C11.4748 22.998 10.9591 22.8596 10.5039 22.5977L3.50391 18.5986L3.5 18.5957C3.04444 18.3327 2.6656 17.9545 2.40234 17.499C2.13918 17.0436 2.00055 16.5269 2 16.001V7.99902L2.00684 7.80176C2.03742 7.34449 2.17219 6.89929 2.40234 6.50098C2.66559 6.04557 3.04448 5.66734 3.5 5.4043L3.50391 5.40137L10.5039 1.40137C10.9591 1.13941 11.4748 1.00195 12 1.00195ZM12 3.00195C11.8245 3.00195 11.652 3.048 11.5 3.13574L11.4961 3.1377L4.49902 7.13477L4.5 7.13574C4.34813 7.22342 4.22155 7.35013 4.13379 7.50195C4.04623 7.65365 4.00018 7.82582 4 8.00098V15.999L4.00879 16.1299C4.02601 16.2592 4.06815 16.3844 4.13379 16.498C4.22077 16.6485 4.34602 16.7738 4.49609 16.8613L11.4961 20.8613L11.5 20.8643C11.652 20.952 11.8245 20.998 12 20.998C12.1755 20.998 12.348 20.952 12.5 20.8643L12.5039 20.8613L19.5039 16.8613C19.654 16.7738 19.7792 16.6485 19.8662 16.498C19.9536 16.3466 19.9996 16.1748 20 16V8.00098L19.9912 7.87012C19.974 7.74083 19.9318 7.61564 19.8662 7.50195C19.7785 7.35013 19.6519 7.22342 19.5 7.13574L12.5039 3.1377L12.5 3.13574C12.348 3.048 12.1755 3.00195 12 3.00195Z"/>
  <path d="M11 21.9999V11.9999C11 11.4476 11.4477 10.9999 12 10.9999C12.5523 10.9999 13 11.4476 13 11.9999V21.9999C13 22.5522 12.5523 22.9999 12 22.9999C11.4477 22.9999 11 22.5522 11 21.9999Z" />
  <path d="M20.2119 6.13271C20.6908 5.8578 21.3021 6.02304 21.5771 6.50186C21.852 6.98079 21.6869 7.5921 21.208 7.86709L12.498 12.8671C12.1897 13.0441 11.8102 13.0441 11.5019 12.8671L2.79195 7.86709C2.31311 7.59208 2.14789 6.98077 2.42281 6.50186C2.69782 6.02302 3.30913 5.85779 3.78805 6.13271L12 10.8466L20.2119 6.13271Z" />
  <path d="M6.63184 3.77283C6.90619 3.29364 7.51779 3.12748 7.99707 3.40174L16.9971 8.55213C17.4761 8.82649 17.6422 9.43719 17.3682 9.91639C17.0939 10.3957 16.4823 10.5618 16.0029 10.2875L7.00293 5.13807C6.52374 4.86371 6.35758 4.25211 6.63184 3.77283Z" />
</svg>