<svg width="24" height="24" viewBox="0 0 24 24" xmlns="http://www.w3.org/2000/svg">
  <path fill-rule="evenodd" d="M11.393 12.325a.797.797 0 0 1 .739-.264 5.062 5.062 0 0 1 3.349 2.163c.479.38 1.168.64 1.821.69.154.023.207.034.368.034.162-.008.132-.006.362-.033.835-.066 1.735-.469 2.17-1.034a.807.807 0 0 1 .844-.29C22.76 14.039 24 15.7 24 17.547v1.582a2.364 2.364 0 0 1-2.374 2.374H2.374A2.364 2.364 0 0 1 0 19.129V17.1a5.07 5.07 0 0 1 4.22-5.012.775.775 0 0 1 .738.264 4.201 4.201 0 0 0 3.218 1.503c1.24 0 2.426-.553 3.217-1.53Zm9.653 2.98c-.863.79-2.16 1.249-3.379 1.209a4.878 4.878 0 0 1-1.37-.16c.033.236.055.474.055.718v2.057c0 .279-.05.544-.136.791h5.41a.777.777 0 0 0 .792-.79v-1.583c0-.95-.58-1.847-1.372-2.242ZM4.088 13.723a3.481 3.481 0 0 0-2.506 3.349v2.057c0 .448.343.791.792.791h11.604a.777.777 0 0 0 .791-.79v-2.032a3.481 3.481 0 0 0-2.505-3.35 5.744 5.744 0 0 1-4.088 1.689 5.661 5.661 0 0 1-4.088-1.714ZM17.67 6.654a3.422 3.422 0 0 1 3.429 3.429v.185a3.422 3.422 0 0 1-3.429 3.428 3.439 3.439 0 0 1-3.428-3.428v-.185a3.422 3.422 0 0 1 3.428-3.429Zm0 1.556a1.835 1.835 0 0 0-1.846 1.847v.184c0 1.029.818 1.846 1.846 1.846a1.835 1.835 0 0 0 1.846-1.846v-.184A1.835 1.835 0 0 0 17.67 8.21ZM8.176 2.25a4.761 4.761 0 0 1 4.747 4.747 4.761 4.761 0 0 1-4.747 4.748 4.761 4.761 0 0 1-4.747-4.748A4.761 4.761 0 0 1 8.176 2.25Zm0 1.582A3.174 3.174 0 0 0 5.01 6.997a3.174 3.174 0 0 0 3.165 3.165 3.174 3.174 0 0 0 3.165-3.165 3.174 3.174 0 0 0-3.165-3.165Z"/>
</svg>
