<svg xmlns="http://www.w3.org/2000/svg" width="16" height="16" viewBox="0 0 16 16">
  <path fill-rule="evenodd" d="m8.127 13.287 1.453.033a.813.813 0 1 1-.038 1.625l-3.667-.09a1.143 1.143 0 0 1-1.094-1.358l.686-3.582a.84.84 0 0 1 1.652.31l-.349 1.888a5.547 5.547 0 0 0 1.575-1.365 4.995 4.995 0 0 0 1.081-3.292A5.05 5.05 0 0 0 8.08 4.25c-.636-.694-1.461-1.195-2.379-1.497-.45-.148-.754-.6-.65-1.062.098-.444.533-.733.969-.606 1.333.386 2.534 1.089 3.444 2.081 1.086 1.186 1.711 2.674 1.774 4.227.064 1.553-.438 3.08-1.424 4.339a7.26 7.26 0 0 1-1.687 1.556Z"/>
</svg>
