<svg width="24" height="24" viewBox="0 0 24 24" xmlns="http://www.w3.org/2000/svg">
  <path d="M20.62 10.487c0-.382.308-.803.807-.803.498 0 .785.421.785.803v2.764c0 .28-.15.536-.36.672a6.742 6.742 0 0 0-1.231-.852v-.405h-1.047a5.633 5.633 0 0 0-1.454-.19c-.06 0-.23-.002-.289 0 .014-.167.02-.441.02-.61a6.095 6.095 0 0 0-6.106-6.112c-3.336 0-6.115 2.777-6.115 6.115a6.104 6.104 0 0 0 6.115 6.115c.253 0 .604-.025.852-.055l.001.203c0 .413.068 1.011.153 1.399-.064.008-.15.023-.213.029v1.185h.66c.178.34.445.755.686 1.049-.136.345-.447.57-.749.545h-2.763c-.382 0-.809-.307-.809-.801 0-.494.417-.793.799-.793h.586V19.56a7.172 7.172 0 0 1-4.025-1.708l-.89.854.414.415c.268.27.35.765 0 1.117s-.861.268-1.13 0l-1.942-1.942a.8.8 0 0 1-.072-1.202c.382-.382.94-.242 1.189.085l.41.41.862-.896a7.179 7.179 0 0 1-1.677-4.027H2.864v.585c0 .381-.288.797-.793.797a.79.79 0 0 1-.796-.797v-2.764c0-.382.306-.802.796-.802.49 0 .793.42.793.802v.585h1.223A7.202 7.202 0 0 1 5.768 7.04l-.852-.889-.416.416a.793.793 0 0 1-1.12 0c-.35-.35-.27-.867-.003-1.137L5.32 3.49c.249-.338.832-.43 1.2-.062s.25.936-.077 1.185l-.415.415.894.86a7.18 7.18 0 0 1 4.027-1.676v-1.22h-.586a.801.801 0 0 1-.795-.796c0-.486.413-.797.795-.797h2.763c.382 0 .797.31.797.797 0 .487-.415.796-.797.796h-.588v1.22a7.2 7.2 0 0 1 4.032 1.682l.89-.852-.415-.415c-.305-.261-.393-.82-.038-1.175.356-.355.906-.249 1.162.05l1.956 1.942c.267.27.348.777.001 1.127-.347.349-.856.265-1.126-.002l-.412-.413-.828.893a7.181 7.181 0 0 1 1.678 4.027h1.184v-.589Z"/>
  <path fill-rule="evenodd" d="M22.726 17.988c0 2.486-2.014 4.62-4.598 4.62a4.598 4.598 0 0 1-4.61-4.624 4.584 4.584 0 0 1 4.602-4.59c2.55 0 4.606 2.109 4.606 4.594Zm-3.396 2.284c.293-.264.426-.6.426-1.014 0-.413-.072-.528-.24-.808-.185-.242-.528-.482-1.029-.722a7.49 7.49 0 0 1-.721-.373.804.804 0 0 1-.22-.216.932.932 0 0 1-.112-.361.64.64 0 0 1 .265-.49c.114-.1.31-.145.525-.145.18 0 .364.023.55.07.187.046.355.105.64.222l.283-.695a4.251 4.251 0 0 0-.705-.243 3.187 3.187 0 0 0-.8-.092c-.573.027-.965.179-1.288.45-.285.326-.358.603-.358 1.016 0 .251.025.364.122.552.098.188.229.353.392.495.164.141.405.285.736.443.35.166.565.278.678.353.114.076.295.216.318.31.058.081.06.193.06.298 0 .226-.127.452-.303.523-.131.095-.322.142-.571.142-.208 0-.437-.033-.688-.099a4.794 4.794 0 0 1-.815-.293v.814c.44.215.844.292 1.415.292.62 0 1.147-.164 1.44-.429Z"/>
  <path d="M12.789 16.578a5.895 5.895 0 0 1 .967-1.97c-.085-.68-.797-1.448-1.753-1.448a1.79 1.79 0 0 0-1.792 1.803c0 1.04.86 1.79 1.792 1.79.248 0 .574-.08.786-.175Zm-3.055-4.709a1.31 1.31 0 0 0-1.314-1.313c-.746 0-1.311.567-1.311 1.313s.583 1.312 1.333 1.312 1.292-.605 1.292-1.312Z"/>
  <path fill-rule="evenodd" d="M13.575 11.997a2.299 2.299 0 0 1-2.427-2.304c.002-1.35 1.117-2.345 2.427-2.299 1.31.047 2.18 1.13 2.18 2.299a2.296 2.296 0 0 1-2.18 2.304Zm0-3.23c-.515 0-.962.387-.965.926-.003.538.477.955.965.948.487-.008.91-.436.91-.948a.91.91 0 0 0-.91-.927Z"/>
</svg>
