<svg width="22" height="22" viewBox="0 0 22 22" fill="none" xmlns="http://www.w3.org/2000/svg">
    <path
        d="M 18.998 9.613 C 18.998 9.263 19.282 8.98 19.632 8.98 C 19.981 8.98 20.265 9.263 20.265 9.613 L 20.265 12.146 C 20.265 12.345 20.174 12.522 20.031 12.638 C 19.719 12.36 19.372 12.12 18.998 11.924 L 18.998 11.513 L 17.943 11.513 C 17.518 11.4 17.071 11.339 16.61 11.339 C 16.555 11.339 16.501 11.34 16.446 11.342 C 16.459 11.189 16.465 11.035 16.465 10.88 C 16.465 7.732 13.913 5.18 10.765 5.18 C 7.617 5.18 5.065 7.732 5.065 10.88 C 5.065 14.028 7.617 16.58 10.765 16.58 C 10.996 16.58 11.227 16.566 11.454 16.538 C 11.454 16.572 11.455 16.606 11.456 16.639 C 11.455 16.668 11.455 16.696 11.455 16.725 C 11.455 17.103 11.496 17.472 11.573 17.828 C 11.515 17.835 11.457 17.841 11.398 17.846 L 11.398 19.113 L 12.041 19.113 C 12.204 19.424 12.397 19.717 12.618 19.986 C 12.523 20.217 12.296 20.38 12.032 20.38 L 9.498 20.38 C 9.148 20.38 8.865 20.096 8.865 19.746 C 8.865 19.397 9.148 19.113 9.498 19.113 L 10.132 19.113 L 10.132 17.846 C 8.731 17.704 7.406 17.141 6.332 16.231 L 5.388 17.137 L 5.838 17.587 C 6.083 17.834 6.083 18.233 5.838 18.48 C 5.591 18.725 5.192 18.725 4.945 18.48 L 4.045 17.593 L 3.165 16.7 C 2.966 16.553 2.871 16.303 2.922 16.06 C 2.973 15.818 3.16 15.627 3.402 15.573 C 3.644 15.519 3.895 15.61 4.045 15.807 L 4.495 16.257 L 5.413 15.313 C 4.515 14.235 3.963 12.91 3.83 11.513 L 2.532 11.513 L 2.532 12.146 C 2.532 12.496 2.248 12.78 1.898 12.78 C 1.548 12.78 1.265 12.496 1.265 12.146 L 1.265 9.613 C 1.265 9.263 1.548 8.98 1.898 8.98 C 2.248 8.98 2.532 9.263 2.532 9.613 L 2.532 10.246 L 3.83 10.246 C 3.963 8.849 4.515 7.525 5.413 6.446 L 4.508 5.503 L 4.058 5.952 C 3.811 6.198 3.412 6.198 3.165 5.952 C 2.919 5.705 2.919 5.306 3.165 5.059 L 4.052 4.16 L 4.945 3.28 C 5.092 3.081 5.342 2.985 5.584 3.036 C 5.827 3.087 6.017 3.275 6.072 3.517 C 6.126 3.759 6.035 4.01 5.838 4.16 L 5.388 4.61 L 6.332 5.528 C 7.41 4.63 8.734 4.078 10.132 3.945 L 10.132 2.646 L 9.498 2.646 C 9.148 2.646 8.865 2.363 8.865 2.013 C 8.865 1.663 9.148 1.38 9.498 1.38 L 12.032 1.38 C 12.381 1.38 12.665 1.663 12.665 2.013 C 12.665 2.363 12.381 2.646 12.032 2.646 L 11.398 2.646 L 11.398 3.945 C 12.796 4.078 14.12 4.63 15.198 5.528 L 16.142 4.622 L 15.692 4.173 C 15.512 4.018 15.433 3.775 15.488 3.544 C 15.544 3.312 15.725 3.132 15.956 3.076 C 16.187 3.02 16.43 3.099 16.585 3.28 L 17.485 4.166 L 18.378 5.059 C 18.623 5.306 18.623 5.705 18.378 5.952 C 18.131 6.198 17.732 6.198 17.485 5.952 L 17.035 5.503 L 16.148 6.446 C 17.047 7.525 17.599 8.849 17.732 10.246 L 18.998 10.246 Z M 20.735 16.495 C 20.735 18.773 18.888 20.62 16.61 20.62 C 14.332 20.62 12.485 18.773 12.485 16.495 C 12.485 14.217 14.332 12.37 16.61 12.37 C 18.888 12.37 20.735 14.217 20.735 16.495 Z M 17.729 18.696 C 18.049 18.44 18.209 18.091 18.209 17.648 C 18.209 17.328 18.124 17.058 17.954 16.839 C 17.784 16.618 17.469 16.397 17.01 16.178 C 16.663 16.012 16.443 15.898 16.349 15.835 C 16.257 15.771 16.19 15.705 16.148 15.637 C 16.105 15.568 16.084 15.487 16.084 15.396 C 16.084 15.248 16.136 15.128 16.241 15.036 C 16.347 14.945 16.498 14.899 16.695 14.899 C 16.86 14.899 17.028 14.92 17.198 14.963 C 17.371 15.005 17.588 15.08 17.85 15.188 L 18.185 14.379 C 17.932 14.269 17.69 14.184 17.457 14.123 C 17.226 14.063 16.983 14.033 16.728 14.033 C 16.209 14.033 15.802 14.157 15.506 14.405 C 15.213 14.654 15.067 14.995 15.067 15.429 C 15.067 15.66 15.111 15.861 15.201 16.033 C 15.29 16.206 15.41 16.357 15.56 16.487 C 15.71 16.616 15.935 16.752 16.235 16.893 C 16.555 17.045 16.766 17.156 16.869 17.225 C 16.974 17.295 17.054 17.367 17.108 17.443 C 17.161 17.517 17.188 17.602 17.188 17.699 C 17.188 17.871 17.127 18.001 17.004 18.088 C 16.883 18.175 16.708 18.219 16.48 18.219 C 16.29 18.219 16.079 18.189 15.849 18.128 C 15.621 18.068 15.341 17.964 15.01 17.816 L 15.01 18.783 C 15.412 18.98 15.876 19.078 16.399 19.078 C 16.968 19.078 17.411 18.951 17.729 18.696 Z M 11.003 15.257 C 10.148 15.257 9.455 14.564 9.455 13.709 C 9.455 12.854 10.148 12.161 11.003 12.161 C 11.74 12.161 12.356 12.676 12.513 13.365 C 12.117 13.882 11.817 14.476 11.639 15.12 C 11.445 15.208 11.23 15.257 11.003 15.257 Z M 7.719 11.989 C 7.106 11.989 6.609 11.493 6.609 10.88 C 6.609 10.267 7.106 9.77 7.719 9.77 C 8.331 9.77 8.828 10.267 8.828 10.88 C 8.828 11.493 8.331 11.989 7.719 11.989 Z M 12.443 10.902 C 11.697 10.944 10.989 10.569 10.603 9.929 C 10.218 9.288 10.218 8.487 10.603 7.847 C 10.989 7.207 11.697 6.832 12.443 6.874 C 13.512 6.934 14.348 7.818 14.348 8.888 C 14.348 9.958 13.512 10.842 12.443 10.902 Z M 12.443 7.936 C 12.054 7.925 11.698 8.152 11.542 8.509 C 11.387 8.866 11.464 9.282 11.736 9.56 C 12.009 9.838 12.422 9.922 12.782 9.774 C 13.142 9.626 13.376 9.274 13.374 8.885 C 13.377 8.366 12.962 7.942 12.443 7.936 Z"
    ></path>
</svg>