<svg width="16" height="16" viewBox="0 0 16 16" xmlns="http://www.w3.org/2000/svg">
  <path fill-rule="evenodd" d="m7.999 8.817.089.01.03.005.026.01-.096-.02a3.401 3.401 0 0 1 2.813 3.363v1.353c0 .816-.604 1.48-1.393 1.572l-.15.01H1.583a1.574 1.574 0 0 1-1.575-1.428L0 13.538v-1.353a3.38 3.38 0 0 1 2.813-3.341l.095-.009a.52.52 0 0 1 .397.185l.079.09-.079-.09a2.753 2.753 0 0 0 1.114.804 2.808 2.808 0 0 0 .511.149l.091.016.02.003a2.76 2.76 0 0 0 2.554-.99.532.532 0 0 1 .493-.176l-.09-.009Zm5.927 1.013.105.016c1.143.299 1.969 1.407 1.969 2.637v1.055c0 .88-.703 1.583-1.582 1.583H12.17c.26-.47.405-1.01.405-1.583v-1.353l-.006-.248a5.135 5.135 0 0 0-.22-1.26c.45-.101.885-.334 1.118-.637a.538.538 0 0 1 .563-.194l-.105-.016ZM5.45 7.758a3.174 3.174 0 0 0 3.164-3.165A3.174 3.174 0 0 0 5.451 1.43a3.174 3.174 0 0 0-3.165 3.164A3.174 3.174 0 0 0 5.45 7.758Zm6.33 1.016a2.281 2.281 0 0 0 2.285-2.286v-.123a2.281 2.281 0 0 0-2.286-2.286 2.281 2.281 0 0 0-2.285 2.286v.123a2.292 2.292 0 0 0 2.285 2.286Z"/>
</svg>
