<svg width="14" height="14" viewBox="0 0 14 14" version="1.1" xmlns="http://www.w3.org/2000/svg">
    <path style="opacity: 0.01;" d="M 7.973 11.26 C 7.973 11.537 7.747 11.759 7.47 11.759 C 7.193 11.759 6.969 11.537 6.969 11.26 C 6.969 10.983 7.193 10.757 7.47 10.757 C 7.747 10.757 7.973 10.983 7.973 11.26 Z">
        <animateTransform attributeType="xml" attributeName="transform" type="rotate" from="0 7 7" to="360 7 7" dur="2s" repeatCount="indefinite" />
        <animate attributeName="opacity" dur="1.8s" values="1;1;1;1;0;0;0;0;0;" repeatCount="indefinite" begin="0" />
    </path>
    <path style="opacity: 0.01;" d="M 5.958 10.874 C 5.958 11.232 5.669 11.519 5.313 11.519 C 4.956 11.519 4.665 11.232 4.665 10.874 C 4.665 10.517 4.956 10.226 5.313 10.226 C 5.669 10.226 5.958 10.517 5.958 10.874 Z">
        <animateTransform attributeType="xml" attributeName="transform" type="rotate" from="0 7 7" to="360 7 7" dur="2s" repeatCount="indefinite" />
        <animate attributeName="opacity" dur="1.8s" values="1;1;1;1;0;0;0;0;0;" repeatCount="indefinite" begin="0.1" />
    </path>
    <path style="opacity: 0.01;" d="M 4.237 9.421 C 4.237 9.815 3.919 10.132 3.529 10.132 C 3.135 10.132 2.818 9.815 2.818 9.421 C 2.818 9.029 3.135 8.711 3.529 8.711 C 3.919 8.711 4.237 9.029 4.237 9.421 Z">
        <animateTransform attributeType="xml" attributeName="transform" type="rotate" from="0 7 7" to="360 7 7" dur="2s" repeatCount="indefinite" />
        <animate attributeName="opacity" dur="1.8s" values="1;1;1;1;0;0;0;0;0;" repeatCount="indefinite" begin="0.2" />
    </path>
    <path style="opacity: 0.01;" d="M 3.639 7.029 C 3.639 7.468 3.284 7.823 2.846 7.823 C 2.406 7.823 2.051 7.468 2.051 7.029 C 2.051 6.591 2.406 6.236 2.846 6.236 C 3.284 6.236 3.639 6.591 3.639 7.029 Z">
        <animateTransform attributeType="xml" attributeName="transform" type="rotate" from="0 7 7" to="360 7 7" dur="2s" repeatCount="indefinite" />
        <animate attributeName="opacity" dur="1.8s" values="1;1;1;1;0;0;0;0;0;" repeatCount="indefinite" begin="0.3" />
    </path>
    <path style="opacity: 0.01;" d="M 4.816 4.373 C 4.816 4.858 4.422 5.248 3.937 5.248 C 3.454 5.248 3.062 4.858 3.062 4.373 C 3.062 3.889 3.454 3.494 3.937 3.494 C 4.422 3.494 4.816 3.889 4.816 4.373 Z">
        <animateTransform attributeType="xml" attributeName="transform" type="rotate" from="0 7 7" to="360 7 7" dur="2s" repeatCount="indefinite" />
        <animate attributeName="opacity" dur="1.8s" values="1;1;1;1;0;0;0;0;0;" repeatCount="indefinite" begin="0.4" />
    </path>
    <path style="opacity: 0.01;" d="M 7.601 3.158 C 7.601 3.667 7.192 4.077 6.683 4.077 C 6.174 4.077 5.766 3.667 5.766 3.158 C 5.766 2.652 6.174 2.241 6.683 2.241 C 7.192 2.241 7.601 2.652 7.601 3.158 Z">
        <animateTransform attributeType="xml" attributeName="transform" type="rotate" from="0 7 7" to="360 7 7" dur="2s" repeatCount="indefinite" />
        <animate attributeName="opacity" dur="1.8s" values="1;1;1;1;0;0;0;0;0;" repeatCount="indefinite" begin="0.5" />
    </path>
    <path style="opacity: 0.01;" d="M 10.688 4.313 C 10.688 4.841 10.26 5.273 9.727 5.273 C 9.199 5.273 8.767 4.841 8.767 4.313 C 8.767 3.78 9.199 3.353 9.727 3.353 C 10.26 3.353 10.688 3.78 10.688 4.313 Z">
        <animateTransform attributeType="xml" attributeName="transform" type="rotate" from="0 7 7" to="360 7 7" dur="2s" repeatCount="indefinite" />
        <animate attributeName="opacity" dur="1.8s" values="1;1;1;1;0;0;0;0;0;" repeatCount="indefinite" begin="0.6" />
    </path>
    <path style="opacity: 0.01;" d="M 11.949 7.146 C 11.949 7.699 11.498 8.15 10.946 8.15 C 10.392 8.15 9.944 7.699 9.944 7.146 C 9.944 6.593 10.392 6.145 10.946 6.145 C 11.498 6.145 11.949 6.593 11.949 7.146 Z">
        <animateTransform attributeType="xml" attributeName="transform" type="rotate" from="0 7 7" to="360 7 7" dur="2s" repeatCount="indefinite" />
        <animate attributeName="opacity" dur="1.8s" values="1;1;1;1;0;0;0;0;0;" repeatCount="indefinite" begin="0.7" />
    </path>
    <path style="opacity: 0.01;" d="M 10.696 10.031 C 10.696 10.629 10.211 11.115 9.609 11.115 C 9.011 11.115 8.525 10.629 8.525 10.031 C 8.525 9.431 9.011 8.946 9.609 8.946 C 10.211 8.946 10.696 9.431 10.696 10.031 Z">
        <animateTransform attributeType="xml" attributeName="transform" type="rotate" from="0 7 7" to="360 7 7" dur="2s" repeatCount="indefinite" />
        <animate attributeName="opacity" dur="1.8s" values="1;1;1;1;0;0;0;0;0;" repeatCount="indefinite" begin="0.8" />
    </path>
</svg>