<svg width="16" height="16" viewBox="0 0 16 16">
  <path fill-rule="evenodd" d="M.893 2.286h9.487a.86.86 0 0 1 .58.229l4.417 4.039c.195.179.352.4.46.65a2.013 2.013 0 0 1 0 1.592c-.108.25-.265.471-.46.65l-4.416 4.039a.86.86 0 0 1-.58.23H.892a.865.865 0 0 1-.632-.28.986.986 0 0 1-.261-.673V3.238c0-.252.094-.495.261-.673a.865.865 0 0 1 .632-.28Zm3.74 3.063a.705.705 0 1 0-.998.998l1.796 1.796-1.796 1.796a.705.705 0 1 0 .998.997L6.429 9.14l1.795 1.796a.705.705 0 1 0 .998-.997L7.426 8.143l1.796-1.796a.705.705 0 1 0-.998-.998L6.43 7.145 4.633 5.35Z"/>
</svg>
