<svg width="22" height="22" viewBox="0 0 22 22" xmlns="http://www.w3.org/2000/svg">
    <path d="M10.02 8.65001C10.02 9.17468 10.4453 9.60001 10.97 9.60001C11.4946 9.60001 11.92 9.17468 11.92 8.65001V2.55001C11.92 2.02534 11.4946 1.60001 10.97 1.60001C10.4453 1.60001 10.02 2.02534 10.02 2.55001L10.02 8.65001Z" />
    <path d="M9.78926 16.866L6.60299 19.769V16.866H3.69173V5.08267H6.89997C7.3094 5.08267 7.63997 4.75077 7.63997 4.34134C7.63997 3.93191 7.3094 3.60001 6.89997 3.60001H3.26997C2.69007 3.60001 2.21997 4.07011 2.21997 4.65001V17.2749C2.21997 17.8548 2.69007 18.3249 3.26997 18.3249H5.13123V20.7293C5.13123 21.6434 6.21833 22.121 6.89154 21.5026L10.3509 18.3249L18.7257 18.3264C19.3058 18.3266 19.776 17.8563 19.7759 17.2762L19.7741 4.65001C19.7741 4.07011 19.304 3.60001 18.7241 3.60001H15.3113C14.9019 3.60001 14.57 3.93191 14.57 4.34134C14.57 4.75077 14.9019 5.08267 15.3113 5.08267H18.3023V16.866H9.78926Z" />
    <path d="M11.8447 13.7613L11.8407 13.7653C11.6328 13.9775 11.3146 14.1005 10.9692 14.1C10.6242 14.0995 10.3002 13.9757 10.0841 13.7579C9.85513 13.5274 9.71991 13.1999 9.71991 12.8615C9.71991 12.5355 9.85891 12.1984 10.084 11.9713C10.3193 11.7349 10.6438 11.6 10.9699 11.6C11.2891 11.6 11.6119 11.7333 11.8536 11.9762L11.855 11.9776C12.0857 12.2077 12.2199 12.5313 12.2199 12.8615C12.2199 13.195 12.086 13.5205 11.8447 13.7613Z" />
</svg>