<svg width="16" height="16" viewBox="0 0 16 16">
  <path fill-rule="evenodd" d="M1.377 13.492a.8.8 0 1 0 1.132 1.13l2.02-2.02c1.042.603 2.218 1.024 3.471 1.024 4.32 0 7.725-5.004 7.868-5.216a.844.844 0 0 0 0-.908 16.067 16.067 0 0 0-3.006-3.233l1.763-1.762a.8.8 0 0 0-1.132-1.132l-1.967 1.967C10.471 2.722 9.276 2.286 8 2.286 3.68 2.286.275 7.29.132 7.502a.844.844 0 0 0 0 .908 16.05 16.05 0 0 0 3.055 3.271l-1.81 1.81Zm4.735-2.473a3.598 3.598 0 0 0 4.951-4.951L9.788 7.343a1.89 1.89 0 0 1-2.4 2.4L6.111 11.02Zm.123-2.386L4.971 9.898a3.598 3.598 0 0 1 4.971-4.971L8.677 6.19a1.89 1.89 0 0 0-2.442 2.442Z"/>
</svg>
