<svg width="16" height="16" viewBox="0 0 16 16" xmlns="http://www.w3.org/2000/svg">
	<path d="M7.75378 1.47561C7.79332 1.28816 8.20672 1.28816 8.24626 1.47561C8.53216 2.8309 9.10557 4.78698 10.1593 5.84073C11.2131 6.89447 13.1691 7.46788 14.5244 7.75378C14.7119 7.79332 14.7119 8.20672 14.5244 8.24626C13.1691 8.53216 11.2131 9.10557 10.1593 10.1593C9.10557 11.2131 8.53216 13.1691 8.24626 14.5244C8.20672 14.7119 7.79332 14.7119 7.75378 14.5244C7.46788 13.1691 6.89447 11.2131 5.84073 10.1593C4.78698 9.10557 2.8309 8.53216 1.47561 8.24626C1.28816 8.20672 1.28816 7.79332 1.47561 7.75378C2.8309 7.46788 4.78698 6.89447 5.84073 5.84073C6.89447 4.78698 7.46788 2.8309 7.75378 1.47561Z" />
</svg>
