<svg width="24" height="24" viewBox="0 0 24 24" xmlns="http://www.w3.org/2000/svg">
  <path d="M20.175 17.1c0-2.475-1.8-4.575-4.2-5.025-.3-.075-.525.075-.75.3a4.128 4.128 0 0 1-3.225 1.5c-1.275 0-2.4-.525-3.225-1.5-.15-.225-.45-.3-.75-.3a5.07 5.07 0 0 0-4.2 5.025v2.175c0 .182.035.396.075.525.3.975 1.2 1.725 2.25 1.725h11.625c1.05 0 2.1-.525 2.325-1.725.056-.3.075-.345.075-.525 0-.826-.03-1.35 0-2.175ZM18.6 19.125c0 .45-.375.825-.825.825H6.225a.832.832 0 0 1-.825-.825V17.1a3.558 3.558 0 0 1 2.475-3.375c.9.9 2.025 1.425 3.225 1.65.3.075.6.075.9.075.3 0 .6 0 .9-.075 1.2-.15 2.325-.75 3.225-1.65 1.5.45 2.475 1.8 2.475 3.375v2.025Zm-6.6-7.35c2.625 0 4.725-2.1 4.725-4.725 0-2.625-2.1-4.8-4.725-4.8a4.705 4.705 0 0 0-4.725 4.725c0 2.625 2.1 4.8 4.725 4.8Zm0-7.95a3.169 3.169 0 0 1 3.15 3.15 3.169 3.169 0 0 1-3.15 3.15 3.169 3.169 0 0 1-3.15-3.15A3.169 3.169 0 0 1 12 3.825Z"/>
</svg>
