<svg width="24" height="24" viewBox="0 0 24 24">
  <path fill-rule="evenodd" d="M20.874 10.618c0-.381.297-.8.796-.8.5 0 .793.419.793.8v2.764c0 .381-.29.796-.793.796a.79.79 0 0 1-.796-.796v-.585h-1.185c-.155 1.528-.7 2.874-1.692 4.046l.83.87.413-.412c.274-.234.71-.347 1.09.033.38.38.265.813.03 1.087l-.988 1.016-.974.974a.787.787 0 0 1-1.134-.012c-.373-.373-.254-.838.014-1.108l.401-.429-.85-.85a7.205 7.205 0 0 1-4.034 1.68v1.185h.584c.382 0 .802.286.802.796s-.42.793-.802.793h-2.763a.785.785 0 0 1-.791-.793c0-.503.409-.796.79-.796h.586v-1.185a7.225 7.225 0 0 1-4.04-1.717l-.882.852.417.416a.788.788 0 0 1-.002 1.122c-.355.355-.857.26-1.126-.008l-.981-.967-.96-.974a.785.785 0 0 1-.052-1.2c.4-.395.916-.242 1.165.086l.424.41.846-.888a7.148 7.148 0 0 1-1.67-4.019H3.12v.577c0 .381-.25.796-.796.796s-.798-.448-.798-.83v-2.763c0-.381.304-.763.798-.763.493 0 .796.415.796.796v.585h1.22a7.194 7.194 0 0 1 1.679-4.03l-.856-.887-.417.418a.79.79 0 0 1-1.114-.007.8.8 0 0 1 0-1.121l.967-.981.974-.96c.25-.338.826-.453 1.2-.079s.242.943-.086 1.193l-.406.406.905.85c1.177-.98 2.49-1.518 4.015-1.663V3.124h-.585c-.382 0-.803-.303-.803-.793 0-.49.421-.801.803-.801h2.763c.382 0 .8.31.8.801 0 .49-.418.793-.8.793h-.585v1.218c1.525.145 2.875.672 4.052 1.653l.861-.825-.419-.419a.798.798 0 0 1-.019-1.165.782.782 0 0 1 1.147.038l.98.967.975.974c.268.27.384.751.016 1.12a.803.803 0 0 1-1.143.008l-.416-.402-.813.873a7.206 7.206 0 0 1 1.674 4.04h1.185v-.586ZM5.887 12c0 3.312 2.811 6.103 6.107 6.103 3.295 0 6.118-2.645 6.118-6.079 0-3.434-2.68-6.139-6.115-6.139-3.434 0-6.11 2.804-6.11 6.115Z"/>
  <path d="M8.674 10.683c.822 0 1.312.649 1.312 1.317 0 .668-.52 1.321-1.312 1.321S7.361 12.669 7.361 12c0-.668.491-1.317 1.313-1.317Zm3.583 2.607c1.046 0 1.792.864 1.792 1.796 0 .933-.74 1.801-1.792 1.801-1.05 0-1.791-.868-1.791-1.8 0-.933.745-1.798 1.791-1.798Z"/>
  <path fill-rule="evenodd" d="M13.828 12.132a2.302 2.302 0 0 0 2.188-2.305 2.292 2.292 0 0 0-2.188-2.301c-1.224-.069-2.427.895-2.427 2.301 0 1.407 1.214 2.373 2.427 2.305Zm0-3.239a.925.925 0 0 1 .914.934.93.93 0 0 1-.914.937c-.5 0-.97-.417-.97-.937s.454-.947.97-.934Z"/>
</svg>
