<svg width="24" height="24" viewBox="0 0 24 24" xmlns="http://www.w3.org/2000/svg">
	<path d="M11.6305 2.21093C11.6899 1.92969 12.3101 1.92969 12.3695 2.21093C12.7984 4.24437 13.6587 7.17923 15.2398 8.76025C16.8208 10.3413 19.7556 11.2016 21.7891 11.6305C22.0703 11.6899 22.0703 12.3101 21.7891 12.3695C19.7556 12.7984 16.8208 13.6587 15.2398 15.2398C13.6587 16.8208 12.7984 19.7556 12.3695 21.7891C12.3101 22.0703 11.6899 22.0703 11.6305 21.7891C11.2016 19.7556 10.3413 16.8208 8.76025 15.2398C7.17923 13.6587 4.24437 12.7984 2.21093 12.3695C1.92969 12.3101 1.92969 11.6899 2.21093 11.6305C4.24437 11.2016 7.17923 10.3413 8.76025 8.76025C10.3413 7.17923 11.2016 4.24437 11.6305 2.21093Z" />
</svg>
