<svg width="24" height="24" viewBox="0 0 24 24">
  <path fill-rule="evenodd" d="M19.649 4.803a10.481 10.481 0 0 1-.03 14.404l-.185.19a10.505 10.505 0 0 1-7.408 3.103 10.53 10.53 0 0 1-4.917-1.223 6.16 6.16 0 0 1-4.345.984 1.122 1.122 0 0 1-.92-.969 1.063 1.063 0 0 1 .616-1.121 3.495 3.495 0 0 0 1.448-1.498 10.481 10.481 0 0 1 1.146-14.55C9.305.377 15.765.678 19.65 4.803Zm-13.691.534a9.036 9.036 0 0 0-.724 12.62l.5.376-.247.528a6.09 6.09 0 0 1-1.448 2.019 5.07 5.07 0 0 0 2.607-1.028l.5-.376.412.384a9.066 9.066 0 0 0 10.723-1.277l.175-.17a9.036 9.036 0 0 0 .149-12.64 9.058 9.058 0 0 0-12.647-.436Zm4.64 5.05.153.01h2.014a1.628 1.628 0 0 1 1.643 1.607v.021c-.005.313-.03.624-.072.934l-.058.369c-.116.766-.232 1.57-.355 2.293.34.055.648.236.862.506.282.352.383.814.275 1.252v.057a1.91 1.91 0 0 1-.391.767 3.056 3.056 0 0 1-2.317 1.215h-.044c-.354.01-.709-.02-1.057-.086a2.611 2.611 0 0 1-1.86-2.742c.05-.5.108-.991.187-1.447.08-.622.174-1.244.268-1.873a1.517 1.517 0 0 1-.803-1.527 1.484 1.484 0 0 1 1.245-1.345c.154-.015.31-.015.463 0l-.154-.01Zm.074 1.24a.957.957 0 0 0-.246 0 .246.246 0 0 0-.24.254.305.305 0 0 0 .182.333c.114.032.23.056.347.072.275.036.362.16.362.492v.144c-.123.81-.239 1.614-.347 2.417a22.82 22.82 0 0 0-.181 1.388c-.042.634.334 1.22.927 1.447.253.042.51.06.767.05a1.847 1.847 0 0 0 1.448-.766.782.782 0 0 0 .152-.311c.037-.16-.043-.275-.159-.275h-.08c-.108.05-.202.123-.304.181a1.84 1.84 0 0 1-.398.13h-.036c-.13 0-.239-.094-.282-.275a1.445 1.445 0 0 1 0-.441c.029-.311.08-.608.123-.919.152-.911.29-1.844.427-2.756.033-.24.052-.481.058-.723-.015-.297-.167-.441-.413-.441h-2.107Zm1.81-6.698a2.338 2.338 0 1 1-2.133 3.539 2.334 2.334 0 0 1 2.133-3.539Zm0 1.23a1.108 1.108 0 0 0-.82 1.881 1.109 1.109 0 0 0 1.9-.782 1.093 1.093 0 0 0-1.08-1.1Z"/>
</svg>
