<svg width="16" height="16" viewBox="0 0 16 16" xmlns="http://www.w3.org/2000/svg">
  <path d="M8 3.733c-1.067 0-1.92.854-1.92 1.92v.96h3.733v-.96C9.92 4.587 9.067 3.733 8 3.733Zm0 4.374c-.427 0-.64.32-.64.64 0 .213.107.426.32.64v.96c0 .213.107.32.32.32.213 0 .32-.107.32-.32v-.96c.213-.107.32-.32.32-.64.107-.32-.213-.64-.64-.64Z"/>
  <path fill-rule="evenodd" d="M8 0C3.627 0 0 3.627 0 8s3.627 8 8 8 8-3.627 8-8-3.52-8-8-8Zm3.733 11.2c0 .533-.426.96-.96.96H5.227a.956.956 0 0 1-.96-.96V7.467c0-.534.426-.96.96-.96v-.96c0-1.494 1.28-2.774 2.773-2.774s2.773 1.28 2.773 2.774v.96c.534 0 .96.426.96.96V11.2Z"/>
</svg>
