<svg width="16" height="16" viewBox="0 0 16 16" xmlns="http://www.w3.org/2000/svg">
	<path d="M7.35781 2.61909C7.58851 1.90306 7.70386 1.54505 7.7258 1.51034C7.87491 1.27435 8.12511 1.27435 8.27422 1.51034C8.29616 1.54505 8.41151 1.90306 8.64221 2.61909C9.00336 3.74001 9.53724 4.95002 10.2936 5.7064C11.05 6.46278 12.26 6.99666 13.3809 7.35781C14.097 7.58851 14.455 7.70386 14.4897 7.7258C14.7257 7.87491 14.7257 8.12511 14.4897 8.27422C14.455 8.29616 14.097 8.41151 13.3809 8.64221C12.26 9.00336 11.05 9.53724 10.2936 10.2936C9.53724 11.05 9.00336 12.26 8.64221 13.3809C8.41151 14.097 8.29616 14.455 8.27422 14.4897C8.12511 14.7257 7.87491 14.7257 7.7258 14.4897C7.70386 14.455 7.58851 14.097 7.35781 13.3809C6.99666 12.26 6.46278 11.05 5.7064 10.2936C4.95002 9.53724 3.74001 9.00336 2.61909 8.64221C1.90306 8.41151 1.54505 8.29616 1.51034 8.27422C1.27435 8.12511 1.27435 7.87491 1.51034 7.7258C1.54505 7.70386 1.90306 7.58851 2.61909 7.35781C3.74001 6.99666 4.95002 6.46278 5.7064 5.7064C6.46278 4.95002 6.99666 3.74001 7.35781 2.61909Z" />
</svg>
