<svg width="24" height="24" viewBox="0 0 24 24">
  <path fill-rule="evenodd" d="M13.365 8.185c-.36.36-.857.566-1.364.566a1.935 1.935 0 0 1-1.926-1.926A1.923 1.923 0 0 1 12 4.899c.51 0 1.006.205 1.364.563.357.357.563.854.563 1.363 0 .507-.206 1.003-.563 1.36Zm-.852-1.88c-.267-.27-.757-.27-1.019-.003a.726.726 0 0 0 .507 1.245.728.728 0 0 0 .512-1.243Zm-.512 3.169c.663 0 1.635.425 1.685 1.375v6.571a1.687 1.687 0 0 1-3.371-.001v-6.564c.043-.898 1.036-1.381 1.686-1.381Zm-.452 7.603a.45.45 0 0 0 .9 0v-5.565c-.01-.19-.201-.45-.45-.45-.248 0-.44.248-.45.452v5.563Z"/>
  <path fill-rule="evenodd" d="M22.364 12c0 5.724-4.64 10.364-10.364 10.364-5.724 0-10.364-4.64-10.364-10.364C1.636 6.276 6.276 1.636 12 1.636c5.724 0 10.364 4.64 10.364 10.364Zm-1.582 0a8.782 8.782 0 1 1-17.564 0 8.782 8.782 0 0 1 17.564 0Z"/>
</svg>
