<svg width="24" height="24" viewBox="0 0 24 24">
  <path d="M18.897 1.55H5.867a3.04 3.04 0 0 0-3.042 3.04v14.948a.822.822 0 0 0 .025.122 3.042 3.042 0 0 0 3.016 2.798h13.03a2.281 2.281 0 0 0 2.281-2.28V3.83a2.28 2.28 0 0 0-2.28-2.28Zm.76 2.28v12.668H8.238V3.07h10.659a.76.76 0 0 1 .76.76Zm-13.79-.76h.85v13.428h-.85a3.007 3.007 0 0 0-1.521.423V4.591a1.52 1.52 0 0 1 1.52-1.521Zm13.03 17.868H5.867a1.462 1.462 0 1 1 0-2.92h13.79v2.16c0 .42-.34.76-.76.76ZM10.896 6.226c0-.42.34-.76.76-.76h4.583a.76.76 0 1 1 0 1.52h-4.583a.76.76 0 0 1-.76-.76Z"/>
</svg>
