<svg width="16" height="16" viewBox="0 0 16 16" xmlns="http://www.w3.org/2000/svg">
  <path d="M10.687 7.273h-.16a.16.16 0 0 1-.158-.14l-.353-2.741a.29.29 0 0 1 .29-.335c.285.003.567 0 .748-.233a1.82 1.82 0 0 0 .368-1.179c-.016-.432-.027-.681-.302-.98-.274-.3-.55-.466-.93-.465H5.77c-.38-.001-.59.165-.864.465-.274.299-.352.548-.368.98a1.82 1.82 0 0 0 .368 1.179c.181.232.463.236.748.233a.29.29 0 0 1 .29.335L5.59 7.133a.16.16 0 0 1-.159.14h-.159c-.39 0-.965.377-1.241.692-.277.314-.472.621-.472 1.066v.559c0 .176.143.32.32.32h2.963a.08.08 0 0 1 .08.08v3.673a.32.32 0 0 0 .1.232l.737.697a.32.32 0 0 0 .44 0l.737-.697a.32.32 0 0 0 .1-.232V9.99a.08.08 0 0 1 .08-.08h2.963a.32.32 0 0 0 .32-.32v-.56c0-.445-.195-.752-.472-1.066-.276-.315-.85-.692-1.241-.692Z"/>
</svg>
