<svg width="24" height="24" viewBox="0 0 24 24">
  <path d="M13.283 3.635a.487.487 0 0 1 .597-.345l.856.23c.26.07.414.337.345.597l-4.354 16.25a.487.487 0 0 1-.597.345l-.857-.23a.487.487 0 0 1-.345-.596l4.355-16.25Z"/>
  <path fill-rule="evenodd" d="M.145 12.358a.487.487 0 0 1 0-.693L5.592 6.26c.191-.19.5-.188.69.003l.617.622c.19.191.189.5-.002.69l-4.12 4.087a.487.487 0 0 0 0 .693l4.116 4.056a.487.487 0 0 1 .005.689l-.615.625a.487.487 0 0 1-.69.005L.144 12.36Zm23.71-.73a.486.486 0 0 1 0 .693l-5.448 5.407a.487.487 0 0 1-.69-.003l-.617-.623a.487.487 0 0 1 .002-.689l4.12-4.087a.487.487 0 0 0 0-.693l-4.116-4.056a.487.487 0 0 1-.005-.69l.615-.624a.487.487 0 0 1 .69-.005l5.449 5.37Z"/>
</svg>
