<svg width="16" height="16" viewBox="0 0 16 16" xmlns="http://www.w3.org/2000/svg">
	<path d="M8.69114 3.95241C8.92184 3.23639 9.03719 2.87837 9.05912 2.84366C9.20823 2.60767 9.45843 2.60767 9.60755 2.84366C9.62948 2.87837 9.74483 3.23639 9.97553 3.95241C10.3367 5.07333 10.8706 6.28334 11.6269 7.03972C12.3833 7.7961 13.5933 8.32999 14.7143 8.69114C15.4303 8.92184 15.7883 9.03719 15.823 9.05912C16.059 9.20823 16.059 9.45843 15.823 9.60755C15.7883 9.62948 15.4303 9.74483 14.7143 9.97553C13.5933 10.3367 12.3833 10.8706 11.6269 11.6269C10.8706 12.3833 10.3367 13.5933 9.97553 14.7143C9.74483 15.4303 9.62948 15.7883 9.60755 15.823C9.45843 16.059 9.20823 16.059 9.05912 15.823C9.03719 15.7883 8.92184 15.4303 8.69114 14.7143C8.32999 13.5933 7.7961 12.3833 7.03972 11.6269C6.28334 10.8706 5.07333 10.3367 3.95241 9.97553C3.23639 9.74483 2.87837 9.62948 2.84366 9.60755C2.60767 9.45843 2.60767 9.20823 2.84366 9.05912C2.87837 9.03719 3.23639 8.92184 3.95241 8.69114C5.07333 8.32999 6.28334 7.7961 7.03972 7.03972C7.7961 6.28334 8.32999 5.07333 8.69114 3.95241Z" />
	<path d="M2.71101 0.578587C2.81483 0.256373 2.86673 0.0952668 2.8766 0.0796473C2.9437 -0.0265491 3.0563 -0.0265491 3.1234 0.0796473C3.13327 0.0952668 3.18517 0.256373 3.28899 0.578586C3.45151 1.083 3.69175 1.6275 4.03213 1.96787C4.3725 2.30825 4.917 2.54849 5.42141 2.71101C5.74363 2.81483 5.90473 2.86673 5.92035 2.8766C6.02655 2.9437 6.02655 3.0563 5.92035 3.1234C5.90473 3.13327 5.74363 3.18517 5.42141 3.28899C4.917 3.45151 4.3725 3.69175 4.03213 4.03213C3.69175 4.3725 3.45151 4.917 3.28899 5.42141C3.18517 5.74363 3.13327 5.90473 3.1234 5.92035C3.0563 6.02655 2.9437 6.02655 2.8766 5.92035C2.86673 5.90473 2.81483 5.74363 2.71101 5.42141C2.54849 4.917 2.30825 4.3725 1.96787 4.03213C1.6275 3.69175 1.083 3.45151 0.578587 3.28899C0.256373 3.18517 0.0952668 3.13327 0.0796473 3.1234C-0.0265491 3.0563 -0.0265491 2.9437 0.0796473 2.8766C0.0952668 2.86673 0.256373 2.81483 0.578586 2.71101C1.083 2.54849 1.6275 2.30825 1.96787 1.96787C2.30825 1.6275 2.54849 1.083 2.71101 0.578587Z" />
</svg>
