<svg width="14" height="14" viewBox="0 0 14 14" fill="none" xmlns="http://www.w3.org/2000/svg">
<g clip-path="url(#clip0_1936_440)">
<path d="M0.41152 7.34384C0.213929 7.14781 0.214458 6.82815 0.412699 6.63278L6.00382 1.1224C6.2005 0.928563 6.51707 0.930866 6.71091 1.12754L7.34266 1.76855C7.5365 1.96523 7.53419 2.2818 7.33752 2.47564L3.11492 6.63726C2.91667 6.83264 2.91614 7.15229 3.11373 7.34832L7.34093 11.5422C7.53696 11.7367 7.53821 12.0533 7.34372 12.2493L6.70985 12.8882C6.51536 13.0842 6.19878 13.0855 6.00275 12.891L0.41152 7.34384Z"/>
<path d="M6.6459 7.34384C6.4483 7.14781 6.44883 6.82815 6.64707 6.63278L12.2382 1.1224C12.4349 0.928563 12.7514 0.930866 12.9453 1.12754L13.577 1.76855C13.7709 1.96523 13.7686 2.2818 13.5719 2.47564L9.34929 6.63726C9.15105 6.83264 9.15052 7.15229 9.34811 7.34832L13.5753 11.5422C13.7713 11.7367 13.7726 12.0533 13.5781 12.2493L12.9442 12.8882C12.7497 13.0842 12.4332 13.0855 12.2371 12.891L6.6459 7.34384Z"/>
</g>
<defs>
<clipPath id="clip0_1936_440">
<rect width="14" height="14" fill="white"/>
</clipPath>
</defs>
</svg>
