<svg width="16" height="16" viewBox="0 0 16 16" xmlns="http://www.w3.org/2000/svg">
  <path fill-rule="evenodd" clip-rule="evenodd" d="M6.24249 8.86374C5.99784 8.86374 5.77941 8.95985 5.62213 9.11713L2.7475 11.9918V10.6025C2.7475 10.1219 2.35431 9.72875 1.87375 9.72875C1.39319 9.72875 1 10.1219 1 10.6025V14.0975C1 14.5781 1.39319 14.9712 1.87375 14.9712H5.36874C5.84931 14.9712 6.24249 14.5781 6.24249 14.0975C6.24249 13.6169 5.84931 13.2237 5.36874 13.2237H3.98822L6.86285 10.3578C7.02013 10.2006 7.11624 9.98214 7.11624 9.73749C7.11624 9.25693 6.72305 8.86374 6.24249 8.86374ZM14.1062 1H10.6112C10.1307 1 9.73749 1.39319 9.73749 1.87375C9.73749 2.35431 10.1307 2.7475 10.6112 2.7475H12.0005L9.11713 5.63087C8.95985 5.78814 8.86374 6.00658 8.86374 6.24249C8.86374 6.72305 9.25693 7.11624 9.73749 7.11624C9.98214 7.11624 10.2006 7.02013 10.3578 6.86285L13.2325 3.98822V5.37748C13.2325 5.85804 13.6257 6.25123 14.1062 6.25123C14.5868 6.25123 14.98 5.85804 14.98 5.37748V1.88249C14.98 1.39319 14.5868 1 14.1062 1Z"/>
</svg>
