<svg width="14" height="14" viewBox="0 0 14 14" xmlns="http://www.w3.org/2000/svg">
<path d="M3.5 7.05C3.5 8.0165 2.7165 8.8 1.75 8.8C0.783502 8.8 0 8.0165 0 7.05C0 6.0835 0.783502 5.3 1.75 5.3C2.7165 5.3 3.5 6.0835 3.5 7.05Z" />
<path d="M8.75 7.05C8.75 8.0165 7.9665 8.8 7 8.8C6.0335 8.8 5.25 8.0165 5.25 7.05C5.25 6.0835 6.0335 5.3 7 5.3C7.9665 5.3 8.75 6.0835 8.75 7.05Z" />
<path d="M12.25 8.8C13.2165 8.8 14 8.0165 14 7.05C14 6.0835 13.2165 5.3 12.25 5.3C11.2835 5.3 10.5 6.0835 10.5 7.05C10.5 8.0165 11.2835 8.8 12.25 8.8Z" />
</svg>
