<svg width="24" height="24" viewBox="0 0 24 24">
  <path fill-rule="evenodd" d="M15.98 14.544a3.98 3.98 0 1 1-7.96 0 3.98 3.98 0 0 1 7.96 0Zm-1.713 0a2.267 2.267 0 1 1-4.534 0 2.267 2.267 0 0 1 4.534 0Z"/>
  <path fill-rule="evenodd" d="M3.182 2.182a1 1 0 0 0-1 1v17.636a1 1 0 0 0 1 1h17.636a1 1 0 0 0 1-1V7.024a1 1 0 0 0-.293-.707l-3.842-3.842a1 1 0 0 0-.707-.293H3.182Zm13.92 2.134 3.003 3.003v12.787H3.895V3.895h3v3.854a1 1 0 0 0 1 1h8.207a1 1 0 0 0 1-1V4.316Zm-8.495 2.72V3.895h6.782v3.14H8.607Z"/>
</svg>
