<svg xmlns="http://www.w3.org/2000/svg" width="24" height="24" viewBox="0 0 24 24">
	<path d="M17.5996 20V22H6.40039V20H17.5996ZM22 15.5996V8.40039C22 7.24728 21.9984 6.50222 21.9521 5.93555C21.9078 5.39231 21.8326 5.19068 21.7822 5.0918C21.5905 4.71554 21.2845 4.40951 20.9082 4.21777C20.8093 4.16739 20.6077 4.09224 20.0645 4.04785C19.4978 4.00155 18.7527 4 17.5996 4H6.40039C5.24728 4 4.50222 4.00155 3.93555 4.04785C3.39231 4.09224 3.19068 4.16739 3.0918 4.21777C2.71554 4.40951 2.40951 4.71554 2.21777 5.0918C2.16739 5.19068 2.09224 5.39231 2.04785 5.93555C2.00155 6.50222 2 7.24728 2 8.40039V15.5996C2 16.7527 2.00155 17.4978 2.04785 18.0645C2.09224 18.6077 2.16739 18.8093 2.21777 18.9082C2.40951 19.2845 2.71554 19.5905 3.0918 19.7822C3.19068 19.8326 3.39231 19.9078 3.93555 19.9521C4.50222 19.9984 5.24728 20 6.40039 20V22L4.91602 21.9932C3.72431 21.9744 2.96088 21.9041 2.34766 21.6406L2.18359 21.5645C1.52512 21.2289 0.974134 20.7183 0.589844 20.0918L0.435547 19.8164C-0.000427067 18.9608 1.6328e-09 17.8398 1.6328e-09 15.5996V8.40039C1.6328e-09 6.16018 -0.000427067 5.03924 0.435547 4.18359C0.819016 3.43109 1.43109 2.81902 2.18359 2.43555C2.82525 2.10861 3.61607 2.02728 4.91602 2.00684L6.40039 2H17.5996C19.8398 2 20.9608 1.99957 21.8164 2.43555C22.5689 2.81902 23.181 3.43109 23.5645 4.18359C24.0004 5.03924 24 6.16018 24 8.40039V15.5996C24 17.8398 24.0004 18.9608 23.5645 19.8164L23.4102 20.0918C23.0259 20.7183 22.4749 21.2289 21.8164 21.5645L21.6523 21.6406C20.816 21.9999 19.6999 22 17.5996 22V20C18.7527 20 19.4978 19.9984 20.0645 19.9521C20.6077 19.9078 20.8093 19.8326 20.9082 19.7822C21.2845 19.5905 21.5905 19.2845 21.7822 18.9082C21.8326 18.8093 21.9078 18.6077 21.9521 18.0645C21.9984 17.4978 22 16.7527 22 15.5996Z" />
	<path d="M4.29297 6.29297C4.68349 5.90244 5.31651 5.90244 5.70703 6.29297L7.70703 8.29297C8.09756 8.68349 8.09756 9.31651 7.70703 9.70703L5.70703 11.707C5.31651 12.0976 4.68349 12.0976 4.29297 11.707C3.90244 11.3165 3.90244 10.6835 4.29297 10.293L5.58594 9L4.29297 7.70703C3.90244 7.31651 3.90244 6.68349 4.29297 6.29297Z" />
	<path d="M13.5 10C14.0523 10 14.5 10.4477 14.5 11C14.5 11.5523 14.0523 12 13.5 12H9.5C8.94771 12 8.5 11.5523 8.5 11C8.5 10.4477 8.94771 10 9.5 10H13.5Z" />
</svg>
