<svg width="24" height="24" viewBox="0 0 24 24" fill="black" xmlns="http://www.w3.org/2000/svg">
  <path fill-rule="evenodd" clip-rule="evenodd"
    d="M18.8953 1.54547H5.86495C5.05846 1.54547 4.28509 1.86577 3.7147 2.43613C3.14453 3.00631 2.82404 3.77989 2.82404 4.58639V19.5353C2.82913 19.5763 2.83719 19.617 2.84843 19.6569C2.90931 20.4162 3.25315 21.1251 3.81164 21.6434C4.37035 22.1613 5.103 22.4509 5.86491 22.4545H18.8952C19.5 22.4545 20.0801 22.2142 20.508 21.7865C20.7043 21.5902 20.8612 21.3617 20.9734 21.1134C21.0539 20.9354 20.9524 20.7394 20.7928 20.6268C20.7503 20.5969 20.7093 20.5649 20.67 20.5309C20.3527 20.2562 20.1733 19.8758 20.1733 19.4783C20.1733 19.0805 20.3527 18.7003 20.67 18.4256C20.9378 18.1939 21.1759 17.894 21.1759 17.5399V3.82619C21.1759 3.22121 20.9356 2.6411 20.508 2.21347C20.0801 1.78584 19.5 1.54547 18.8953 1.54547ZM19.6555 16.4948V3.82616C19.6555 3.62444 19.5753 3.4312 19.4328 3.28866C19.2902 3.1459 19.0968 3.06593 18.8953 3.06593H8.23687V16.4948H19.6555ZM6.71641 3.06593H5.86495C5.46171 3.06593 5.07503 3.22613 4.78994 3.51122C4.50464 3.79652 4.34449 4.18322 4.34449 4.58645V16.9174C4.8046 16.6437 5.32957 16.4978 5.86495 16.4948H6.71641V3.06593ZM4.7889 20.531C5.07757 20.8065 5.46639 20.9523 5.86495 20.934L19.408 20.934C19.2743 20.8645 19.1499 20.776 19.0389 20.6701C18.7216 20.3668 18.5421 19.9468 18.5421 19.5079C18.5421 19.0687 18.7216 18.649 19.0389 18.3457C19.1894 18.2019 19.3646 18.0903 19.554 18.0149H5.86495C5.46643 17.9966 5.07759 18.1421 4.7889 18.4179C4.50042 18.6936 4.3373 19.0752 4.3373 19.4745C4.3373 19.8735 4.50042 20.2553 4.7889 20.531Z"
  />
  <path
    d="M10.8944 6.22197C10.8944 5.80197 11.2346 5.46174 11.6546 5.46174H16.2372C16.6572 5.46174 16.9975 5.80197 16.9975 6.22197C16.9975 6.64175 16.6572 6.9822 16.2372 6.9822H11.6546C11.2346 6.9822 10.8944 6.64175 10.8944 6.22197Z"
  />
</svg>