<svg width="22" height="22" viewBox="0 0 22 22" xmlns="http://www.w3.org/2000/svg">
    <path fill-rule="evenodd" clip-rule="evenodd" d="M11 0C17.0751 0 22 4.92487 22 11C22 17.0751 17.0751 22 11 22C4.92487 22 0 17.0751 0 11C0 4.92487 4.92487 0 11 0ZM10.25 12.21V20.6535C9.43827 20.3614 8.57663 19.5866 7.81961 18.1988C6.98694 16.6722 6.39906 14.5857 6.24815 12.21H10.25ZM11.46 12.21V20.7381C12.3533 20.5386 13.3325 19.7533 14.1804 18.1988C15.0131 16.6722 15.6009 14.5857 15.7518 12.21H11.46ZM15.79 11L11.46 11V1.26188C12.3533 1.46136 13.3325 2.24671 14.1804 3.80124C15.1518 5.5821 15.79 8.12499 15.79 11ZM16.9641 12.21C16.7634 15.5726 15.736 18.4796 14.2625 20.2332C17.6999 19.0186 20.2563 15.9389 20.716 12.21H16.9641ZM20.79 11C20.79 6.73708 18.0654 3.11053 14.2626 1.76679C15.9102 3.72761 17 7.13047 17 11H20.79ZM10.25 11L6.21 11C6.21 8.12499 6.84823 5.5821 7.81961 3.80124C8.57663 2.41337 9.43827 1.63859 10.25 1.34647V11ZM5 11C5 7.13047 6.08983 3.72761 7.73745 1.76679C3.93463 3.11053 1.21 6.73708 1.21 11H5ZM1.28404 12.21C1.74367 15.9389 4.30011 19.0186 7.73745 20.2332C6.26395 18.4796 5.23657 15.5726 5.03589 12.21H1.28404Z" />

</svg>