<svg width="22" height="22" viewBox="0 0 22 22" xmlns="http://www.w3.org/2000/svg">
    <path fill-rule="evenodd" clip-rule="evenodd" d="M14.6485 13.3322C14.6485 15.3471 13.0151 16.9805 11.0001 16.9805C8.98522 16.9805 7.35181 15.3471 7.35181 13.3322C7.35181 11.3173 8.98522 9.68384 11.0001 9.68384C13.0151 9.68384 14.6485 11.3173 14.6485 13.3322ZM13.0785 13.3322C13.0785 14.48 12.148 15.4105 11.0001 15.4105C9.85231 15.4105 8.92181 14.48 8.92181 13.3322C8.92181 12.1843 9.85231 11.2538 11.0001 11.2538C12.148 11.2538 13.0785 12.1843 13.0785 13.3322Z" />
    <path fill-rule="evenodd" clip-rule="evenodd" d="M3 2C2.44772 2 2 2.44772 2 3V19C2 19.5523 2.44772 20 3 20H19C19.5523 20 20 19.5523 20 19V6.4733C20 6.20808 19.8946 5.95372 19.7071 5.76619L16.2338 2.29289C16.0463 2.10536 15.7919 2 15.5267 2H3ZM15.6766 3.95603L18.43 6.7094V18.43H3.57V3.57H6.32007V7.01953C6.32007 7.57182 6.76778 8.01953 7.32007 8.01953H14.6766C15.2289 8.01953 15.6766 7.57182 15.6766 7.01953V3.95603ZM7.89007 6.44953V3.57H14.1066V6.44953H7.89007Z" />
</svg>
    