<svg width="14" height="14" viewBox="0 0 14 14" xmlns="http://www.w3.org/2000/svg">
    <path fill-rule="evenodd" clip-rule="evenodd"
        d="M9.8702 0.75C9.99947 0.75 10.1269 0.781417 10.2575 0.851589L10.3561 0.9116L10.4524 0.992982L12.6476 3.20646C12.7718 3.32956 12.8532 3.48902 12.8809 3.65894L12.8913 3.78795L12.9042 9.52561C12.9042 10.1286 12.4721 10.6538 11.8755 10.7905L11.7453 10.8137L11.6087 10.8217L9.6197 10.8209L9.61977 11.9574C9.61977 12.5216 9.25682 13.0086 8.72845 13.1859L8.59303 13.2236L8.46171 13.2464L8.32434 13.2542H2.39406C1.78363 13.2542 1.2644 12.8274 1.13045 12.2262L1.10775 12.0948L1.09998 11.9574V4.47857C1.09998 3.86746 1.52534 3.34731 2.12563 3.21301L2.25685 3.19025L2.39406 3.18246L4.38377 3.18225L4.38437 2.04611C4.38437 1.48922 4.75195 0.999014 5.27739 0.819471L5.41191 0.781198L5.54209 0.75799L5.67846 0.75H9.8702ZM6.15092 4.58135H2.50053V11.8537H8.21912L8.21796 6.61288L7.05664 6.61345C6.66772 6.61345 6.3298 6.37101 6.19884 5.99227L6.16307 5.86112L6.15132 5.72545L6.15092 4.58135ZM9.42744 2.1505H5.78567L5.78567 3.37588H6.74942C6.89136 3.37588 7.03131 3.40972 7.1747 3.48531L7.28299 3.54996L7.38874 3.63762L9.35257 5.61574C9.45388 5.71429 9.52998 5.83515 9.57825 5.98862L9.60919 6.10999L9.62089 6.24294L9.62081 9.42289H11.4899L11.4934 4.18172L10.3328 4.18269C9.94434 4.18269 9.60679 3.94028 9.47598 3.5616L9.44024 3.43047L9.4285 3.29482L9.42744 2.1505Z" />
</svg>
    