<svg width="24" height="24" viewBox="0 0 24 24">
    <path fill-rule="evenodd"
        fill="#CCCCCC"
        d="M13.71 15.9H9.652v-4.8h2.987a2.683 2.683 0 0 0 2.605 2.025c1.531 0 2.757-1.2 2.757-2.7 0-1.5-1.226-2.7-2.757-2.7a2.683 2.683 0 0 0-2.605 2.025H9.651v-4.8h2.987c.307 1.2 1.379 1.95 2.605 1.95C16.774 6.9 18 5.7 18 4.2c0-1.5-1.226-2.7-2.757-2.7-1.226 0-2.375.9-2.605 2.1h-3.6c-.153 0-.306.075-.46.225-.152.15-.23.3-.23.45V9.75H5.363a2.683 2.683 0 0 0-2.605-2.025c-1.531 0-2.757 1.2-2.757 2.7v.075c.077 1.425 1.302 2.625 2.757 2.625A2.683 2.683 0 0 0 5.362 11.1h2.987v5.475a.68.68 0 0 0 .69.675h4.059c.076-.525.306-.9.613-1.35Zm1.533-6.825c.766 0 1.378.6 1.378 1.35 0 .75-.612 1.425-1.378 1.425-.766 0-1.38-.6-1.38-1.425-.076-.75.537-1.35 1.38-1.35Zm0-6.225c.766 0 1.378.6 1.378 1.425 0 .75-.612 1.35-1.378 1.35-.766 0-1.38-.6-1.38-1.35-.076-.75.614-1.425 1.38-1.425Zm-12.562 9c-.766 0-1.379-.6-1.379-1.425 0-.75.613-1.35 1.379-1.35s1.455.6 1.455 1.35c0 .75-.69 1.425-1.455 1.425Z" />
    <path fill-rule="evenodd"
        d="M18.375 12.75c3.15 0 5.625 2.55 5.625 5.625S21.45 24 18.375 24s-5.625-2.55-5.625-5.625 2.55-5.625 5.625-5.625Zm0 1.95c-1.05 0-1.95.9-1.95 1.95v.675c-.375 0-.675.3-.675.675v2.625c0 .375.3.675.675.675h3.9c.375 0 .675-.3.675-.675V18c0-.375-.3-.675-.675-.675v-.675c0-1.05-.9-1.95-1.95-1.95Zm0 3.75c.3 0 .525.225.45.45 0 .225-.075.375-.225.45v.675c0 .15-.075.225-.225.225-.15 0-.225-.075-.225-.225v-.675c-.15-.15-.225-.3-.225-.45 0-.225.15-.45.45-.45Zm0-3.075c.75 0 1.35.6 1.275 1.35v.675h-2.625v-.675c0-.75.6-1.35 1.35-1.35Z" />
</svg>
  