<svg width="24" height="24" viewBox="0 0 24 24" xmlns="http://www.w3.org/2000/svg">
  <path fill-rule="evenodd" d="M15.624 8.43V6.643a3.624 3.624 0 0 0-7.248 0v1.785H6.643V6.644a5.357 5.357 0 1 1 10.714 0v1.785h-1.733Zm2.188 1.733H6.188a.788.788 0 0 0-.788.787v9.244c0 .435.353.788.788.788h11.624a.788.788 0 0 0 .788-.788v-9.243a.788.788 0 0 0-.788-.788ZM6.188 8.429a2.521 2.521 0 0 0-2.521 2.521v9.244a2.521 2.521 0 0 0 2.52 2.521h11.625a2.521 2.521 0 0 0 2.521-2.52V10.95a2.521 2.521 0 0 0-2.52-2.52H6.187Zm6.685 7.04c.432-.304.742-.806.742-1.32 0-.821-.793-1.614-1.615-1.614s-1.615.793-1.615 1.615c0 .513.31 1.015.742 1.32v2.4c0 .41.462.74.873.74.41 0 .873-.33.873-.74v-2.4Z"/>
</svg>
