<svg width="14" height="14" viewBox="0 0 14 14" xmlns="http://www.w3.org/2000/svg">
    <path
        d="M7.32996 13.5892C7.13392 13.7868 6.81427 13.7862 6.61889 13.588L1.10852 7.99689C0.914678 7.80021 0.916981 7.48363 1.11366 7.2898L1.75467 6.65805C1.95134 6.46421 2.26792 6.46651 2.46175 6.66319L6.62337 10.8858C6.81875 11.084 7.1384 11.0846 7.33444 10.887L11.5283 6.65978C11.7228 6.46375 12.0394 6.46249 12.2354 6.65698L12.8743 7.29086C13.0704 7.48535 13.0716 7.80192 12.8771 7.99796L7.32996 13.5892Z"
    />
    <path
        d="M7.32996 7.35481C7.13392 7.5524 6.81427 7.55187 6.61889 7.35363L1.10851 1.76251C0.914678 1.56583 0.91698 1.24926 1.11366 1.05542L1.75467 0.423673C1.95134 0.229836 2.26792 0.232139 2.46175 0.428816L6.62337 4.65142C6.81875 4.84966 7.1384 4.85019 7.33444 4.6526L11.5283 0.425406C11.7228 0.229372 12.0394 0.22812 12.2354 0.422608L12.8743 1.05648C13.0704 1.25097 13.0716 1.56755 12.8771 1.76358L7.32996 7.35481Z"
    />
</svg>