<svg width="24" height="24" viewBox="0 0 24 24" xmlns="http://www.w3.org/2000/svg">
  <path fill-rule="evenodd" d="M15.926 8.494a.49.49 0 0 1 .71.609l-.034.066-2.773 5.505a.46.46 0 0 1-.148.176l-.067.04-5.544 2.772a.491.491 0 0 1-.216.054.49.49 0 0 1-.348-.147.49.49 0 0 1-.121-.491l.028-.072 2.772-5.525a.46.46 0 0 1 .149-.176l.067-.04 5.525-2.771Zm-1.254 1.929-2.826 1.415 1.411 1.412 1.415-2.827Z"/>
  <path fill-rule="evenodd" d="M8.954 2.956s-.009.222-.008.358c-4.163 1.3-7.184 5.186-7.184 9.778 0 5.656 4.586 10.242 10.243 10.242s10.243-4.586 10.243-10.242c0-4.596-3.027-8.484-7.195-9.782v-.472a2.291 2.291 0 0 0-2.285-2.17h-1.526l-.118.003a2.291 2.291 0 0 0-2.17 2.285Zm4.577 0c0-.395-.3-.72-.685-.759l-.078-.004h-1.526c-.395 0-.72.3-.759.685v.083a10.324 10.324 0 0 1 3.048 0v-.005ZM3.439 12.232a8.611 8.611 0 0 1 7.706-7.706.938.938 0 0 0-.013.158v.907c0 .5.39.907.873.907.482 0 .873-.406.873-.907v-.907a.948.948 0 0 0-.013-.158 8.611 8.611 0 0 1 7.706 7.706.949.949 0 0 0-.16-.014h-.909c-.502 0-.909.391-.909.874 0 .482.407.873.91.873h.908a.948.948 0 0 0 .16-.014 8.611 8.611 0 0 1-7.706 7.707.948.948 0 0 0 .013-.159v-.907c0-.5-.39-.907-.873-.907-.482 0-.873.406-.873.907v.907a.93.93 0 0 0 .013.159A8.611 8.611 0 0 1 3.44 13.95a.948.948 0 0 0 .16.014h.909c.502 0 .909-.391.909-.873 0-.483-.407-.874-.91-.874H3.6a.948.948 0 0 0-.16.014Z"/>
</svg>
