<svg width="24" height="24" viewBox="0 0 24 24" xmlns="http://www.w3.org/2000/svg" version="1.1">
  <path style="opacity: 0.01;" d="M 13.867 20.178 C 13.867 20.71 13.436 21.136 12.904 21.136 C 12.372 21.136 11.94 20.71 11.94 20.178 C 11.94 19.647 12.372 19.213 12.904 19.213 C 13.436 19.213 13.867 19.647 13.867 20.178 Z">
    <animateTransform attributeName="transform" type="rotate" from="0 12 12" to="360 12 12" dur="2s" repeatCount="indefinite"></animateTransform>
    <animate attributeName="opacity" dur="1.8s" values="1;1;1;1;0;0;0;0;0;" repeatCount="indefinite" begin="0"></animate>
  </path>
  <path style="opacity: 0.01;" d="M 10 19.438 C 10 20.125 9.446 20.675 8.762 20.675 C 8.075 20.675 7.518 20.125 7.518 19.438 C 7.518 18.752 8.075 18.193 8.762 18.193 C 9.446 18.193 10 18.752 10 19.438 Z">
    <animateTransform attributeName="transform" type="rotate" from="0 12 12" to="360 12 12" dur="2s" repeatCount="indefinite"></animateTransform>
    <animate attributeName="opacity" dur="1.8s" values="1;1;1;1;0;0;0;0;0;" repeatCount="indefinite" begin="0.1"></animate>
  </path>
  <path style="opacity: 0.01;" d="M 6.697 16.648 C 6.697 17.404 6.086 18.013 5.336 18.013 C 4.582 18.013 3.974 17.404 3.974 16.648 C 3.974 15.895 4.582 15.284 5.336 15.284 C 6.086 15.284 6.697 15.895 6.697 16.648 Z">
    <animateTransform attributeName="transform" type="rotate" from="0 12 12" to="360 12 12" dur="2s" repeatCount="indefinite"></animateTransform>
    <animate attributeName="opacity" dur="1.8s" values="1;1;1;1;0;0;0;0;0;" repeatCount="indefinite" begin="0.2"></animate>
  </path>
  <path style="opacity: 0.01;" d="M 5.548 12.057 C 5.548 12.899 4.867 13.581 4.025 13.581 C 3.181 13.581 2.5 12.899 2.5 12.057 C 2.5 11.214 3.181 10.534 4.025 10.534 C 4.867 10.534 5.548 11.214 5.548 12.057 Z">
    <animateTransform attributeName="transform" type="rotate" from="0 12 12" to="360 12 12" dur="2s" repeatCount="indefinite"></animateTransform>
    <animate attributeName="opacity" dur="1.8s" values="1;1;1;1;0;0;0;0;0;" repeatCount="indefinite" begin="0.3"></animate>
  </path>
  <path style="opacity: 0.01;" d="M 7.808 6.957 C 7.808 7.887 7.052 8.638 6.121 8.638 C 5.192 8.638 4.439 7.887 4.439 6.957 C 4.439 6.03 5.192 5.27 6.121 5.27 C 7.052 5.27 7.808 6.03 7.808 6.957 Z">
    <animateTransform attributeName="transform" type="rotate" from="0 12 12" to="360 12 12" dur="2s" repeatCount="indefinite"></animateTransform>
    <animate attributeName="opacity" dur="1.8s" values="1;1;1;1;0;0;0;0;0;" repeatCount="indefinite" begin="0.4"></animate>
  </path>
  <path style="opacity: 0.01;" d="M 13.154 4.626 C 13.154 5.603 12.368 6.388 11.391 6.388 C 10.415 6.388 9.63 5.603 9.63 4.626 C 9.63 3.652 10.415 2.865 11.391 2.865 C 12.368 2.865 13.154 3.652 13.154 4.626 Z">
    <animateTransform attributeName="transform" type="rotate" from="0 12 12" to="360 12 12" dur="2s" repeatCount="indefinite"></animateTransform>
    <animate attributeName="opacity" dur="1.8s" values="1;1;1;1;0;0;0;0;0;" repeatCount="indefinite" begin="0.5"></animate>
  </path>
  <path style="opacity: 0.01;" d="M 19.08 6.842 C 19.08 7.856 18.258 8.684 17.236 8.684 C 16.222 8.684 15.393 7.856 15.393 6.842 C 15.393 5.818 16.222 4.998 17.236 4.998 C 18.258 4.998 19.08 5.818 19.08 6.842 Z">
    <animateTransform attributeName="transform" type="rotate" from="0 12 12" to="360 12 12" dur="2s" repeatCount="indefinite"></animateTransform>
    <animate attributeName="opacity" dur="1.8s" values="1;1;1;1;0;0;0;0;0;" repeatCount="indefinite" begin="0.6"></animate>
  </path>
  <path style="opacity: 0.01;" d="M 21.5 12.282 C 21.5 13.342 20.637 14.207 19.575 14.207 C 18.511 14.207 17.654 13.342 17.654 12.282 C 17.654 11.218 18.511 10.359 19.575 10.359 C 20.637 10.359 21.5 11.218 21.5 12.282 Z">
    <animateTransform attributeName="transform" type="rotate" from="0 12 12" to="360 12 12" dur="2s" repeatCount="indefinite"></animateTransform>
    <animate attributeName="opacity" dur="1.8s" values="1;1;1;1;0;0;0;0;0;" repeatCount="indefinite" begin="0.7"></animate>
  </path>
  <path style="opacity: 0.01;" d="M 19.098 17.819 C 19.098 18.966 18.163 19.901 17.009 19.901 C 15.86 19.901 14.927 18.966 14.927 17.819 C 14.927 16.667 15.86 15.735 17.009 15.735 C 18.163 15.735 19.098 16.667 19.098 17.819 Z">
    <animateTransform attributeName="transform" type="rotate" from="0 12 12" to="360 12 12" dur="2s" repeatCount="indefinite"></animateTransform>
    <animate attributeName="opacity" dur="1.8s" values="1;1;1;1;0;0;0;0;0;" repeatCount="indefinite" begin="0.8"></animate>
  </path>
</svg>