<svg width="24" height="24" viewBox="0 0 24 24" xmlns="http://www.w3.org/2000/svg">
  <path fill-rule="evenodd"
    d="M12 0c6.627 0 12 5.373 12 12s-5.373 12-12 12S0 18.627 0 12 5.373 0 12 0Zm-.818 13.32v9.211c-.886-.319-1.826-1.164-2.652-2.678-.908-1.665-1.55-3.941-1.714-6.533h4.366Zm1.32 0v9.303c.974-.217 2.042-1.074 2.967-2.77.909-1.665 1.55-3.941 1.715-6.533h-4.682ZM17.225 12h-4.723V1.377c.974.217 2.042 1.074 2.967 2.77C16.53 6.09 17.227 8.864 17.227 12Zm1.281 1.32c-.219 3.668-1.34 6.84-2.947 8.753a10.691 10.691 0 0 0 7.04-8.753h-4.093ZM22.68 12c0-4.65-2.972-8.607-7.12-10.073C17.356 4.067 18.545 7.78 18.545 12h4.134Zm-11.498 0H6.775c0-3.136.696-5.91 1.755-7.853.826-1.514 1.766-2.36 2.652-2.678V12Zm-5.727 0c0-4.221 1.188-7.934 2.986-10.073C4.292 3.393 1.32 7.35 1.32 12h4.135ZM1.4 13.32a10.692 10.692 0 0 0 7.04 8.753c-1.608-1.913-2.728-5.085-2.947-8.753H1.4Z" />
</svg>