<svg width="16" height="16" viewBox="0 0 16 16" xmlns="http://www.w3.org/2000/svg">
  <path
    d="M 0 2 C 0.022 1.484 0.251 0.92 0.586 0.586 C 0.92 0.251 1.484 0.022 2 0 L 14 0 C 14.516 0.022 15.08 0.251 15.414 0.586 C 15.749 0.92 15.978 1.484 16 2 L 16 14 C 15.978 14.516 15.749 15.08 15.414 15.414 C 15.08 15.749 14.516 15.978 14 16 L 2 16 C 1.484 15.978 0.92 15.749 0.586 15.414 C 0.251 15.08 0.022 14.516 0 14 Z M 1 14 C 0.978 14.312 1.084 14.499 1.293 14.707 C 1.501 14.916 1.688 15.022 2 15 L 14 15 C 14.312 15.022 14.499 14.916 14.707 14.707 C 14.916 14.499 15.022 14.312 15 14 L 15 2 C 15.022 1.688 14.916 1.501 14.707 1.293 C 14.499 1.084 14.312 0.978 14 1 L 2 1 C 1.688 0.978 1.501 1.084 1.293 1.293 C 1.084 1.501 0.978 1.688 1 2 Z"
  ></path>
</svg>