<svg width="22" height="22" viewBox="0 0 22 22" fill="black" xmlns="http://www.w3.org/2000/svg">
    <path fill-rule="evenodd" clip-rule="evenodd"
        d="M 12.572 5.246 C 13.664 4.155 15.21 3.759 16.582 3.681 C 17.26 3.642 17.868 3.683 18.312 3.742 C 18.457 3.761 18.582 3.782 18.683 3.803 C 18.703 3.904 18.724 4.028 18.744 4.174 C 18.803 4.618 18.843 5.226 18.805 5.903 C 18.726 7.275 18.331 8.821 17.239 9.913 C 16.676 10.477 15.223 11.673 13.873 12.755 C 13.206 13.29 12.576 13.788 12.112 14.152 L 11.84 14.366 L 11.394 13.92 L 11.388 13.915 L 10.475 13.001 L 12.33 11.145 C 12.604 10.872 12.604 10.429 12.33 10.155 C 12.057 9.882 11.614 9.882 11.34 10.155 L 9.485 12.011 L 8.119 10.646 L 8.333 10.373 C 8.698 9.91 9.196 9.279 9.731 8.612 C 10.814 7.262 12.009 5.809 12.572 5.246 Z M 9.485 13.991 L 11.471 15.977 C 11.771 16.283 11.868 16.812 11.821 17.426 C 11.798 17.714 11.747 17.979 11.7 18.172 C 11.677 18.268 11.656 18.344 11.64 18.395 C 11.633 18.42 11.627 18.439 11.623 18.451 L 11.619 18.463 C 11.519 18.757 11.625 19.083 11.88 19.262 C 12.135 19.441 12.478 19.429 12.721 19.234 L 12.722 19.233 L 12.725 19.231 L 12.736 19.222 L 12.771 19.193 C 12.801 19.168 12.843 19.132 12.895 19.087 C 13.001 18.995 13.148 18.862 13.321 18.695 C 13.666 18.361 14.122 17.882 14.558 17.305 C 15.38 16.216 16.26 14.605 15.914 12.904 C 16.876 12.117 17.78 11.353 18.229 10.903 C 19.667 9.465 20.115 7.517 20.202 5.983 C 20.247 5.207 20.201 4.51 20.131 3.988 C 20.096 3.728 20.055 3.505 20.013 3.332 C 19.992 3.247 19.968 3.163 19.942 3.09 C 19.929 3.054 19.912 3.01 19.89 2.964 C 19.875 2.934 19.828 2.838 19.738 2.748 C 19.648 2.658 19.552 2.61 19.522 2.596 C 19.476 2.573 19.432 2.556 19.395 2.543 C 19.322 2.517 19.239 2.494 19.154 2.473 C 18.981 2.431 18.757 2.389 18.497 2.354 C 17.976 2.285 17.278 2.239 16.503 2.283 C 14.969 2.371 13.021 2.818 11.582 4.256 C 11.13 4.708 10.358 5.621 9.565 6.592 C 7.881 6.27 6.289 7.142 5.21 7.956 C 4.632 8.392 4.153 8.848 3.819 9.193 C 3.652 9.367 3.519 9.514 3.428 9.619 C 3.382 9.672 3.346 9.714 3.321 9.743 L 3.292 9.779 L 3.284 9.789 L 3.281 9.792 L 3.28 9.793 C 3.085 10.036 3.073 10.38 3.252 10.635 C 3.431 10.89 3.757 10.996 4.052 10.895 L 4.064 10.891 C 4.075 10.887 4.094 10.881 4.119 10.874 C 4.17 10.859 4.246 10.837 4.342 10.814 C 4.536 10.768 4.8 10.716 5.088 10.694 C 5.707 10.646 6.239 10.745 6.544 11.05 L 7.604 12.11 C 7.605 12.111 7.606 12.113 7.608 12.114 L 8.495 13.001 L 7.365 14.131 C 7.091 14.404 7.091 14.847 7.365 15.121 C 7.638 15.394 8.081 15.394 8.355 15.121 L 9.485 13.991 Z M 7.079 9.704 C 7.127 9.643 7.178 9.577 7.233 9.508 C 7.56 9.091 7.995 8.541 8.468 7.949 C 7.646 8.056 6.806 8.505 6.053 9.074 C 5.954 9.148 5.858 9.224 5.765 9.3 C 6.197 9.339 6.661 9.451 7.079 9.704 Z M 13.441 16.461 C 14.023 15.69 14.479 14.83 14.573 13.988 C 13.967 14.473 13.402 14.919 12.977 15.253 L 12.789 15.401 C 13.057 15.827 13.174 16.305 13.215 16.749 C 13.29 16.656 13.366 16.56 13.441 16.461 Z M 15.692 7.642 C 15.419 7.915 15.026 7.888 14.812 7.674 C 14.598 7.46 14.571 7.066 14.843 6.794 C 15.115 6.522 15.509 6.549 15.723 6.763 C 15.937 6.976 15.964 7.37 15.692 7.642 Z M 16.682 8.632 C 15.883 9.431 14.603 9.445 13.822 8.664 C 13.041 7.883 13.055 6.602 13.853 5.804 C 14.651 5.006 15.932 4.992 16.713 5.773 C 17.494 6.554 17.48 7.834 16.682 8.632 Z M 6.366 17.11 C 6.639 16.837 6.639 16.393 6.366 16.12 C 6.092 15.847 5.649 15.847 5.376 16.12 L 2.484 19.011 C 2.211 19.285 2.211 19.728 2.484 20.001 C 2.758 20.275 3.201 20.275 3.474 20.001 L 6.366 17.11 Z M 9.993 16.499 C 10.231 16.804 10.177 17.244 9.873 17.482 L 6.628 20.02 C 6.324 20.258 5.884 20.204 5.645 19.899 C 5.407 19.595 5.461 19.155 5.766 18.917 L 9.01 16.379 C 9.315 16.141 9.755 16.195 9.993 16.499 Z M 5.001 12.61 C 5.239 12.306 5.679 12.252 5.984 12.49 C 6.288 12.728 6.342 13.168 6.104 13.473 L 3.566 16.717 C 3.328 17.022 2.888 17.076 2.584 16.838 C 2.279 16.599 2.225 16.16 2.463 15.855 L 5.001 12.61 Z"></path>
</svg>