<svg width="24" height="24" viewBox="0 0 24 24" xmlns="http://www.w3.org/2000/svg">
  <path fill-rule="evenodd" d="M9.188 2.202a2.182 2.182 0 0 0-2.181 2.181v.648H4.102a.49.49 0 0 0-.49.491v.557c0 .27.219.49.49.49h15.796a.49.49 0 0 0 .491-.49v-.557a.49.49 0 0 0-.49-.49h-2.903v-.649a2.182 2.182 0 0 0-2.182-2.181H9.188Zm-.64 2.201c0-.361.293-.654.655-.654h5.594c.362 0 .655.293.655.654v.62H8.548v-.62Z"/>
  <path d="M17.714 7.828a.218.218 0 0 1 .218-.209h1.103c.124 0 .223.103.218.227l-.492 12.336c-.023.411-.213 1.007-.528 1.29-.315.283-.732.44-1.166.44H6.929c-.434 0-.852-.157-1.167-.44-.315-.283-.501-.88-.524-1.29L4.733 7.845a.218.218 0 0 1 .218-.227h1.117c.117 0 .213.093.218.21l.506 12.296s.047.293.363.292l9.698.008c.308 0 .353-.316.353-.316l.508-12.28Z"/>
  <path d="M8.496 9.62a.438.438 0 0 1 .418-.454l.436-.02a.436.436 0 0 1 .454.418l.369 9.175a.438.438 0 0 1-.418.454l-.436.02a.435.435 0 0 1-.454-.418l-.37-9.175Zm3.286-.469a.436.436 0 0 0-.436.437v9.15c0 .241.195.437.436.437h.437c.24 0 .436-.196.436-.437v-9.15a.436.436 0 0 0-.436-.437h-.437Zm2.424.413a.435.435 0 0 1 .454-.417l.436.019c.24.01.428.214.418.455l-.378 9.174a.435.435 0 0 1-.454.417l-.436-.02a.438.438 0 0 1-.418-.454l.378-9.174Z"/>
</svg>
