<svg width="16" height="16" viewBox="0 0 16 16" xmlns="http://www.w3.org/2000/svg">
  <path fill-rule="evenodd" d="M11.28.857a.92.92 0 0 1 .443.116l.113.069.11.093 2.508 2.53a.94.94 0 0 1 .267.517l.012.147.015 6.557a1.5 1.5 0 0 1-1.176 1.446l-.149.026-.156.01-2.273-.001v1.299a1.48 1.48 0 0 1-1.019 1.404l-.154.043-.15.026-.157.009H2.736a1.482 1.482 0 0 1-1.444-1.175l-.026-.15-.009-.157V5.118c0-.698.486-1.293 1.172-1.446l.15-.026.157-.009H5.01V2.338c0-.636.42-1.196 1.021-1.401l.154-.044.149-.027.156-.009h4.79ZM7.03 5.236H2.858v8.311h6.535l-.001-5.99-1.327.001a1.03 1.03 0 0 1-.98-.71l-.041-.15-.014-.155V5.236Zm3.744-2.778H6.612v1.4h1.102c.162 0 .322.039.486.125l.123.074.121.1 2.245 2.261a1 1 0 0 1 .258.426l.035.139.013.152v3.634h2.136l.004-5.99-1.326.001a1.03 1.03 0 0 1-.98-.71l-.04-.15-.014-.154V2.458Z"/>
</svg>
