<svg width="22" height="22" viewBox="0 0 22 22" fill="none" xmlns="http://www.w3.org/2000/svg">
<mask id="path-1-outside-1_1810_444" maskUnits="userSpaceOnUse" x="0.264908" y="0.379761" width="21" height="21" fill="black">
<rect fill="white" x="0.264908" y="0.379761" width="21" height="21"/>
<path d="M18.9982 9.61308C18.9982 9.2633 19.2818 8.97975 19.6315 8.97975C19.9813 8.97975 20.2649 9.2633 20.2649 9.61308V12.1464C20.2649 12.3446 20.1739 12.5215 20.0314 12.6376C19.7186 12.36 19.3719 12.1199 18.9982 11.9243V11.5131H17.9431C17.5179 11.3996 17.0711 11.3391 16.6101 11.3391C16.5552 11.3391 16.5006 11.34 16.4461 11.3417C16.4586 11.1886 16.4649 11.0345 16.4649 10.8797C16.4649 7.73173 13.9129 5.17975 10.7649 5.17975C7.61687 5.17975 5.0649 7.73173 5.0649 10.8797C5.0649 14.0278 7.61687 16.5797 10.7649 16.5797C10.9964 16.5797 11.2265 16.5656 11.454 16.5379C11.4543 16.5718 11.4549 16.6057 11.4558 16.6394C11.4554 16.6678 11.4551 16.6962 11.4551 16.7247C11.4551 17.1032 11.4959 17.4722 11.5734 17.8275C11.5151 17.8345 11.4567 17.8408 11.3982 17.8464V19.1131H12.0316L12.0406 19.1131C12.2036 19.4242 12.3973 19.7166 12.6179 19.9863C12.5233 20.2171 12.2964 20.3797 12.0316 20.3797H9.49823C9.14845 20.3797 8.8649 20.0962 8.8649 19.7464C8.8649 19.3966 9.14845 19.1131 9.49823 19.1131H10.1316V17.8464C8.7308 17.7044 7.40594 17.1413 6.33157 16.2314L5.3879 17.1371L5.83757 17.5867C6.08312 17.8338 6.08312 18.2327 5.83757 18.4797C5.59054 18.7253 5.19159 18.7253 4.94457 18.4797L4.04524 17.5931L3.1649 16.7001C2.96565 16.5528 2.87058 16.3028 2.92161 16.0603C2.97264 15.8179 3.16038 15.6274 3.4021 15.5729C3.64382 15.5185 3.89512 15.6099 4.04524 15.8071L4.4949 16.2567L5.41323 15.3131C4.51472 14.2348 3.96284 12.9103 3.8299 11.5131H2.53157V12.1464C2.53157 12.4962 2.24802 12.7797 1.89824 12.7797C1.54846 12.7797 1.26491 12.4962 1.26491 12.1464V9.61308C1.26491 9.2633 1.54846 8.97975 1.89824 8.97975C2.24802 8.97975 2.53157 9.2633 2.53157 9.61308V10.2464H3.8299C3.96284 8.84917 4.51472 7.52467 5.41323 6.44642L4.50757 5.50275L4.0579 5.95242C3.81088 6.19798 3.41193 6.19798 3.1649 5.95242C2.91935 5.7054 2.91935 5.30644 3.1649 5.05942L4.05157 4.16009L4.94457 3.27976C5.09186 3.0805 5.34182 2.98543 5.58429 3.03646C5.82677 3.08749 6.01721 3.27523 6.0717 3.51696C6.12618 3.75868 6.0347 4.00997 5.83757 4.16009L5.3879 4.60976L6.33157 5.52809C7.40982 4.62957 8.73432 4.0777 10.1316 3.94476V2.64643H9.49823C9.14845 2.64643 8.8649 2.36287 8.8649 2.01309C8.8649 1.66331 9.14845 1.37976 9.49823 1.37976H12.0316C12.3813 1.37976 12.6649 1.66331 12.6649 2.01309C12.6649 2.36287 12.3813 2.64643 12.0316 2.64643H11.3982V3.94476C12.7955 4.0777 14.12 4.62957 15.1982 5.52809L16.1419 4.62242L15.6922 4.17276C15.5115 4.01798 15.4328 3.77495 15.4884 3.54359C15.5441 3.31224 15.7247 3.1316 15.9561 3.07595C16.1874 3.02029 16.4304 3.09902 16.5852 3.27976L17.4845 4.16642L18.3775 5.05942C18.6231 5.30644 18.6231 5.7054 18.3775 5.95242C18.1305 6.19798 17.7316 6.19798 17.4845 5.95242L17.0349 5.50275L16.1482 6.44642C17.0467 7.52467 17.5986 8.84917 17.7315 10.2464H18.9982V9.61308Z"/>
<path fill-rule="evenodd" clip-rule="evenodd" d="M20.7351 16.4951C20.7351 18.7733 18.8883 20.6202 16.6101 20.6202C14.3319 20.6202 12.4851 18.7733 12.4851 16.4951C12.4851 14.2169 14.3319 12.37 16.6101 12.37C18.8883 12.37 20.7351 14.2169 20.7351 16.4951ZM17.7286 18.6955C18.0487 18.4404 18.2087 18.0912 18.2087 17.6481C18.2087 17.3281 18.1236 17.0584 17.9536 16.8391C17.7835 16.6175 17.469 16.3971 17.0103 16.1778C16.6634 16.0122 16.4429 15.898 16.3489 15.8354C16.2572 15.7705 16.19 15.7045 16.1475 15.6373C16.105 15.5679 16.0837 15.4874 16.0837 15.3956C16.0837 15.2479 16.1363 15.1282 16.2415 15.0364C16.3467 14.9447 16.4978 14.8988 16.6947 14.8988C16.8603 14.8988 17.0282 14.9201 17.1982 14.9626C17.3706 15.0051 17.5876 15.0801 17.8495 15.1875L18.1852 14.3785C17.9323 14.2688 17.6895 14.1838 17.4567 14.1233C17.2262 14.0629 16.9834 14.0327 16.7283 14.0327C16.2091 14.0327 15.8018 14.1569 15.5063 14.4053C15.2132 14.6537 15.0666 14.995 15.0666 15.4292C15.0666 15.6597 15.1113 15.8611 15.2009 16.0334C15.2904 16.2058 15.4101 16.3568 15.5601 16.4866C15.71 16.6164 15.9349 16.7518 16.2348 16.8928C16.5548 17.045 16.7663 17.1558 16.8693 17.2251C16.9744 17.2945 17.0539 17.3673 17.1076 17.4433C17.1613 17.5172 17.1882 17.6022 17.1882 17.6985C17.1882 17.8708 17.1266 18.0006 17.0035 18.0879C16.8827 18.1752 16.7081 18.2188 16.4799 18.2188C16.2896 18.2188 16.0793 18.1886 15.8488 18.1282C15.6205 18.0677 15.3407 17.9637 15.0095 17.816V18.7828C15.4124 18.9797 15.8756 19.0782 16.3993 19.0782C16.9677 19.0782 17.4108 18.9506 17.7286 18.6955Z"/>
<path d="M11.6392 15.1203C11.8171 14.4757 12.117 13.8818 12.5126 13.3649C12.3562 12.6756 11.7397 12.1609 11.003 12.1609C10.1482 12.1609 9.45516 12.8539 9.45516 13.7088C9.45516 14.5637 10.1482 15.2567 11.003 15.2567C11.2298 15.2567 11.4452 15.2079 11.6392 15.1203Z"/>
<path d="M8.82816 10.8797C8.82816 10.2669 8.33138 9.77015 7.71856 9.77015C7.10575 9.77015 6.60896 10.2669 6.60896 10.8797C6.60896 11.4926 7.10575 11.9893 7.71856 11.9893C8.33138 11.9893 8.82816 11.4926 8.82816 10.8797Z"/>
<path fill-rule="evenodd" clip-rule="evenodd" d="M12.4433 10.9019C11.697 10.9435 10.9889 10.569 10.6032 9.92874C10.2175 9.28847 10.2175 8.48743 10.6032 7.84717C10.9889 7.2069 11.697 6.83239 12.4433 6.87396C13.5121 6.9335 14.3482 7.81752 14.3482 8.88795C14.3482 9.95839 13.5121 10.8424 12.4433 10.9019ZM12.4433 7.9356C12.0541 7.92543 11.6977 8.15235 11.5423 8.50923C11.3869 8.86612 11.4635 9.28162 11.736 9.5596C12.0085 9.83759 12.4224 9.92247 12.7823 9.77418C13.1422 9.62589 13.3762 9.27409 13.3738 8.88483C13.3773 8.36644 12.9616 7.94245 12.4433 7.9356Z"/>
</mask>
<path d="M18.9982 9.61308C18.9982 9.2633 19.2818 8.97975 19.6315 8.97975C19.9813 8.97975 20.2649 9.2633 20.2649 9.61308V12.1464C20.2649 12.3446 20.1739 12.5215 20.0314 12.6376C19.7186 12.36 19.3719 12.1199 18.9982 11.9243V11.5131H17.9431C17.5179 11.3996 17.0711 11.3391 16.6101 11.3391C16.5552 11.3391 16.5006 11.34 16.4461 11.3417C16.4586 11.1886 16.4649 11.0345 16.4649 10.8797C16.4649 7.73173 13.9129 5.17975 10.7649 5.17975C7.61687 5.17975 5.0649 7.73173 5.0649 10.8797C5.0649 14.0278 7.61687 16.5797 10.7649 16.5797C10.9964 16.5797 11.2265 16.5656 11.454 16.5379C11.4543 16.5718 11.4549 16.6057 11.4558 16.6394C11.4554 16.6678 11.4551 16.6962 11.4551 16.7247C11.4551 17.1032 11.4959 17.4722 11.5734 17.8275C11.5151 17.8345 11.4567 17.8408 11.3982 17.8464V19.1131H12.0316L12.0406 19.1131C12.2036 19.4242 12.3973 19.7166 12.6179 19.9863C12.5233 20.2171 12.2964 20.3797 12.0316 20.3797H9.49823C9.14845 20.3797 8.8649 20.0962 8.8649 19.7464C8.8649 19.3966 9.14845 19.1131 9.49823 19.1131H10.1316V17.8464C8.7308 17.7044 7.40594 17.1413 6.33157 16.2314L5.3879 17.1371L5.83757 17.5867C6.08312 17.8338 6.08312 18.2327 5.83757 18.4797C5.59054 18.7253 5.19159 18.7253 4.94457 18.4797L4.04524 17.5931L3.1649 16.7001C2.96565 16.5528 2.87058 16.3028 2.92161 16.0603C2.97264 15.8179 3.16038 15.6274 3.4021 15.5729C3.64382 15.5185 3.89512 15.6099 4.04524 15.8071L4.4949 16.2567L5.41323 15.3131C4.51472 14.2348 3.96284 12.9103 3.8299 11.5131H2.53157V12.1464C2.53157 12.4962 2.24802 12.7797 1.89824 12.7797C1.54846 12.7797 1.26491 12.4962 1.26491 12.1464V9.61308C1.26491 9.2633 1.54846 8.97975 1.89824 8.97975C2.24802 8.97975 2.53157 9.2633 2.53157 9.61308V10.2464H3.8299C3.96284 8.84917 4.51472 7.52467 5.41323 6.44642L4.50757 5.50275L4.0579 5.95242C3.81088 6.19798 3.41193 6.19798 3.1649 5.95242C2.91935 5.7054 2.91935 5.30644 3.1649 5.05942L4.05157 4.16009L4.94457 3.27976C5.09186 3.0805 5.34182 2.98543 5.58429 3.03646C5.82677 3.08749 6.01721 3.27523 6.0717 3.51696C6.12618 3.75868 6.0347 4.00997 5.83757 4.16009L5.3879 4.60976L6.33157 5.52809C7.40982 4.62957 8.73432 4.0777 10.1316 3.94476V2.64643H9.49823C9.14845 2.64643 8.8649 2.36287 8.8649 2.01309C8.8649 1.66331 9.14845 1.37976 9.49823 1.37976H12.0316C12.3813 1.37976 12.6649 1.66331 12.6649 2.01309C12.6649 2.36287 12.3813 2.64643 12.0316 2.64643H11.3982V3.94476C12.7955 4.0777 14.12 4.62957 15.1982 5.52809L16.1419 4.62242L15.6922 4.17276C15.5115 4.01798 15.4328 3.77495 15.4884 3.54359C15.5441 3.31224 15.7247 3.1316 15.9561 3.07595C16.1874 3.02029 16.4304 3.09902 16.5852 3.27976L17.4845 4.16642L18.3775 5.05942C18.6231 5.30644 18.6231 5.7054 18.3775 5.95242C18.1305 6.19798 17.7316 6.19798 17.4845 5.95242L17.0349 5.50275L16.1482 6.44642C17.0467 7.52467 17.5986 8.84917 17.7315 10.2464H18.9982V9.61308Z" />
<path fill-rule="evenodd" clip-rule="evenodd" d="M20.7351 16.4951C20.7351 18.7733 18.8883 20.6202 16.6101 20.6202C14.3319 20.6202 12.4851 18.7733 12.4851 16.4951C12.4851 14.2169 14.3319 12.37 16.6101 12.37C18.8883 12.37 20.7351 14.2169 20.7351 16.4951ZM17.7286 18.6955C18.0487 18.4404 18.2087 18.0912 18.2087 17.6481C18.2087 17.3281 18.1236 17.0584 17.9536 16.8391C17.7835 16.6175 17.469 16.3971 17.0103 16.1778C16.6634 16.0122 16.4429 15.898 16.3489 15.8354C16.2572 15.7705 16.19 15.7045 16.1475 15.6373C16.105 15.5679 16.0837 15.4874 16.0837 15.3956C16.0837 15.2479 16.1363 15.1282 16.2415 15.0364C16.3467 14.9447 16.4978 14.8988 16.6947 14.8988C16.8603 14.8988 17.0282 14.9201 17.1982 14.9626C17.3706 15.0051 17.5876 15.0801 17.8495 15.1875L18.1852 14.3785C17.9323 14.2688 17.6895 14.1838 17.4567 14.1233C17.2262 14.0629 16.9834 14.0327 16.7283 14.0327C16.2091 14.0327 15.8018 14.1569 15.5063 14.4053C15.2132 14.6537 15.0666 14.995 15.0666 15.4292C15.0666 15.6597 15.1113 15.8611 15.2009 16.0334C15.2904 16.2058 15.4101 16.3568 15.5601 16.4866C15.71 16.6164 15.9349 16.7518 16.2348 16.8928C16.5548 17.045 16.7663 17.1558 16.8693 17.2251C16.9744 17.2945 17.0539 17.3673 17.1076 17.4433C17.1613 17.5172 17.1882 17.6022 17.1882 17.6985C17.1882 17.8708 17.1266 18.0006 17.0035 18.0879C16.8827 18.1752 16.7081 18.2188 16.4799 18.2188C16.2896 18.2188 16.0793 18.1886 15.8488 18.1282C15.6205 18.0677 15.3407 17.9637 15.0095 17.816V18.7828C15.4124 18.9797 15.8756 19.0782 16.3993 19.0782C16.9677 19.0782 17.4108 18.9506 17.7286 18.6955Z"/>
<path d="M11.6392 15.1203C11.8171 14.4757 12.117 13.8818 12.5126 13.3649C12.3562 12.6756 11.7397 12.1609 11.003 12.1609C10.1482 12.1609 9.45516 12.8539 9.45516 13.7088C9.45516 14.5637 10.1482 15.2567 11.003 15.2567C11.2298 15.2567 11.4452 15.2079 11.6392 15.1203Z"/>
<path d="M8.82816 10.8797C8.82816 10.2669 8.33138 9.77015 7.71856 9.77015C7.10575 9.77015 6.60896 10.2669 6.60896 10.8797C6.60896 11.4926 7.10575 11.9893 7.71856 11.9893C8.33138 11.9893 8.82816 11.4926 8.82816 10.8797Z"/>
<path fill-rule="evenodd" clip-rule="evenodd" d="M12.4433 10.9019C11.697 10.9435 10.9889 10.569 10.6032 9.92874C10.2175 9.28847 10.2175 8.48743 10.6032 7.84717C10.9889 7.2069 11.697 6.83239 12.4433 6.87396C13.5121 6.9335 14.3482 7.81752 14.3482 8.88795C14.3482 9.95839 13.5121 10.8424 12.4433 10.9019ZM12.4433 7.9356C12.0541 7.92543 11.6977 8.15235 11.5423 8.50923C11.3869 8.86612 11.4635 9.28162 11.736 9.5596C12.0085 9.83759 12.4224 9.92247 12.7823 9.77418C13.1422 9.62589 13.3762 9.27409 13.3738 8.88483C13.3773 8.36644 12.9616 7.94245 12.4433 7.9356Z"/>
<path d="M18.9982 9.61308C18.9982 9.2633 19.2818 8.97975 19.6315 8.97975C19.9813 8.97975 20.2649 9.2633 20.2649 9.61308V12.1464C20.2649 12.3446 20.1739 12.5215 20.0314 12.6376C19.7186 12.36 19.3719 12.1199 18.9982 11.9243V11.5131H17.9431C17.5179 11.3996 17.0711 11.3391 16.6101 11.3391C16.5552 11.3391 16.5006 11.34 16.4461 11.3417C16.4586 11.1886 16.4649 11.0345 16.4649 10.8797C16.4649 7.73173 13.9129 5.17975 10.7649 5.17975C7.61687 5.17975 5.0649 7.73173 5.0649 10.8797C5.0649 14.0278 7.61687 16.5797 10.7649 16.5797C10.9964 16.5797 11.2265 16.5656 11.454 16.5379C11.4543 16.5718 11.4549 16.6057 11.4558 16.6394C11.4554 16.6678 11.4551 16.6962 11.4551 16.7247C11.4551 17.1032 11.4959 17.4722 11.5734 17.8275C11.5151 17.8345 11.4567 17.8408 11.3982 17.8464V19.1131H12.0316L12.0406 19.1131C12.2036 19.4242 12.3973 19.7166 12.6179 19.9863C12.5233 20.2171 12.2964 20.3797 12.0316 20.3797H9.49823C9.14845 20.3797 8.8649 20.0962 8.8649 19.7464C8.8649 19.3966 9.14845 19.1131 9.49823 19.1131H10.1316V17.8464C8.7308 17.7044 7.40594 17.1413 6.33157 16.2314L5.3879 17.1371L5.83757 17.5867C6.08312 17.8338 6.08312 18.2327 5.83757 18.4797C5.59054 18.7253 5.19159 18.7253 4.94457 18.4797L4.04524 17.5931L3.1649 16.7001C2.96565 16.5528 2.87058 16.3028 2.92161 16.0603C2.97264 15.8179 3.16038 15.6274 3.4021 15.5729C3.64382 15.5185 3.89512 15.6099 4.04524 15.8071L4.4949 16.2567L5.41323 15.3131C4.51472 14.2348 3.96284 12.9103 3.8299 11.5131H2.53157V12.1464C2.53157 12.4962 2.24802 12.7797 1.89824 12.7797C1.54846 12.7797 1.26491 12.4962 1.26491 12.1464V9.61308C1.26491 9.2633 1.54846 8.97975 1.89824 8.97975C2.24802 8.97975 2.53157 9.2633 2.53157 9.61308V10.2464H3.8299C3.96284 8.84917 4.51472 7.52467 5.41323 6.44642L4.50757 5.50275L4.0579 5.95242C3.81088 6.19798 3.41193 6.19798 3.1649 5.95242C2.91935 5.7054 2.91935 5.30644 3.1649 5.05942L4.05157 4.16009L4.94457 3.27976C5.09186 3.0805 5.34182 2.98543 5.58429 3.03646C5.82677 3.08749 6.01721 3.27523 6.0717 3.51696C6.12618 3.75868 6.0347 4.00997 5.83757 4.16009L5.3879 4.60976L6.33157 5.52809C7.40982 4.62957 8.73432 4.0777 10.1316 3.94476V2.64643H9.49823C9.14845 2.64643 8.8649 2.36287 8.8649 2.01309C8.8649 1.66331 9.14845 1.37976 9.49823 1.37976H12.0316C12.3813 1.37976 12.6649 1.66331 12.6649 2.01309C12.6649 2.36287 12.3813 2.64643 12.0316 2.64643H11.3982V3.94476C12.7955 4.0777 14.12 4.62957 15.1982 5.52809L16.1419 4.62242L15.6922 4.17276C15.5115 4.01798 15.4328 3.77495 15.4884 3.54359C15.5441 3.31224 15.7247 3.1316 15.9561 3.07595C16.1874 3.02029 16.4304 3.09902 16.5852 3.27976L17.4845 4.16642L18.3775 5.05942C18.6231 5.30644 18.6231 5.7054 18.3775 5.95242C18.1305 6.19798 17.7316 6.19798 17.4845 5.95242L17.0349 5.50275L16.1482 6.44642C17.0467 7.52467 17.5986 8.84917 17.7315 10.2464H18.9982V9.61308Z" stroke-width="0.1925" mask="url(#path-1-outside-1_1810_444)"/>
<path fill-rule="evenodd" clip-rule="evenodd" d="M20.7351 16.4951C20.7351 18.7733 18.8883 20.6202 16.6101 20.6202C14.3319 20.6202 12.4851 18.7733 12.4851 16.4951C12.4851 14.2169 14.3319 12.37 16.6101 12.37C18.8883 12.37 20.7351 14.2169 20.7351 16.4951ZM17.7286 18.6955C18.0487 18.4404 18.2087 18.0912 18.2087 17.6481C18.2087 17.3281 18.1236 17.0584 17.9536 16.8391C17.7835 16.6175 17.469 16.3971 17.0103 16.1778C16.6634 16.0122 16.4429 15.898 16.3489 15.8354C16.2572 15.7705 16.19 15.7045 16.1475 15.6373C16.105 15.5679 16.0837 15.4874 16.0837 15.3956C16.0837 15.2479 16.1363 15.1282 16.2415 15.0364C16.3467 14.9447 16.4978 14.8988 16.6947 14.8988C16.8603 14.8988 17.0282 14.9201 17.1982 14.9626C17.3706 15.0051 17.5876 15.0801 17.8495 15.1875L18.1852 14.3785C17.9323 14.2688 17.6895 14.1838 17.4567 14.1233C17.2262 14.0629 16.9834 14.0327 16.7283 14.0327C16.2091 14.0327 15.8018 14.1569 15.5063 14.4053C15.2132 14.6537 15.0666 14.995 15.0666 15.4292C15.0666 15.6597 15.1113 15.8611 15.2009 16.0334C15.2904 16.2058 15.4101 16.3568 15.5601 16.4866C15.71 16.6164 15.9349 16.7518 16.2348 16.8928C16.5548 17.045 16.7663 17.1558 16.8693 17.2251C16.9744 17.2945 17.0539 17.3673 17.1076 17.4433C17.1613 17.5172 17.1882 17.6022 17.1882 17.6985C17.1882 17.8708 17.1266 18.0006 17.0035 18.0879C16.8827 18.1752 16.7081 18.2188 16.4799 18.2188C16.2896 18.2188 16.0793 18.1886 15.8488 18.1282C15.6205 18.0677 15.3407 17.9637 15.0095 17.816V18.7828C15.4124 18.9797 15.8756 19.0782 16.3993 19.0782C16.9677 19.0782 17.4108 18.9506 17.7286 18.6955Z" stroke-width="0.1925" mask="url(#path-1-outside-1_1810_444)"/>
<path d="M11.6392 15.1203C11.8171 14.4757 12.117 13.8818 12.5126 13.3649C12.3562 12.6756 11.7397 12.1609 11.003 12.1609C10.1482 12.1609 9.45516 12.8539 9.45516 13.7088C9.45516 14.5637 10.1482 15.2567 11.003 15.2567C11.2298 15.2567 11.4452 15.2079 11.6392 15.1203Z" stroke-width="0.1925" mask="url(#path-1-outside-1_1810_444)"/>
<path d="M8.82816 10.8797C8.82816 10.2669 8.33138 9.77015 7.71856 9.77015C7.10575 9.77015 6.60896 10.2669 6.60896 10.8797C6.60896 11.4926 7.10575 11.9893 7.71856 11.9893C8.33138 11.9893 8.82816 11.4926 8.82816 10.8797Z" stroke-width="0.1925" mask="url(#path-1-outside-1_1810_444)"/>
<path fill-rule="evenodd" clip-rule="evenodd" d="M12.4433 10.9019C11.697 10.9435 10.9889 10.569 10.6032 9.92874C10.2175 9.28847 10.2175 8.48743 10.6032 7.84717C10.9889 7.2069 11.697 6.83239 12.4433 6.87396C13.5121 6.9335 14.3482 7.81752 14.3482 8.88795C14.3482 9.95839 13.5121 10.8424 12.4433 10.9019ZM12.4433 7.9356C12.0541 7.92543 11.6977 8.15235 11.5423 8.50923C11.3869 8.86612 11.4635 9.28162 11.736 9.5596C12.0085 9.83759 12.4224 9.92247 12.7823 9.77418C13.1422 9.62589 13.3762 9.27409 13.3738 8.88483C13.3773 8.36644 12.9616 7.94245 12.4433 7.9356Z" stroke-width="0.1925" mask="url(#path-1-outside-1_1810_444)"/>
</svg>
