<svg width="24" height="24" viewBox="0 0 24 24" xmlns="http://www.w3.org/2000/svg">
  <path fill-rule="evenodd" d="M18.772 7.79a.873.873 0 0 1 1.21.239c.233.347.443.71.63 1.087a.873.873 0 1 1-1.565.773A7.874 7.874 0 0 0 18.532 9a.873.873 0 0 1 .24-1.21Zm1.88 4.131a.873.873 0 0 1 .928.815 9.672 9.672 0 0 1 0 1.255.873.873 0 0 1-1.742-.112 7.982 7.982 0 0 0 0-1.03.873.873 0 0 1 .815-.928Zm-.436 4.52c.432.215.61.738.396 1.17a9.59 9.59 0 0 1-.63 1.087.873.873 0 0 1-1.45-.97c.19-.285.362-.582.515-.89a.873.873 0 0 1 1.169-.396Zm-16.431 0a.873.873 0 0 1 1.169.397c.152.308.324.605.514.89a.873.873 0 0 1-1.45.97 9.598 9.598 0 0 1-.63-1.087.873.873 0 0 1 .397-1.17Zm13.79 3.694c.268.4.16.943-.24 1.211-.347.232-.71.443-1.087.629a.873.873 0 0 1-.774-1.565c.309-.152.606-.324.89-.514a.873.873 0 0 1 1.21.24Zm-11.149 0a.873.873 0 0 1 1.21-.24c.285.19.582.363.89.515a.873.873 0 1 1-.773 1.565 9.598 9.598 0 0 1-1.087-.629.873.873 0 0 1-.24-1.21Zm4.132 1.881a.873.873 0 0 1 .927-.814 7.981 7.981 0 0 0 1.03 0 .873.873 0 1 1 .113 1.741 9.741 9.741 0 0 1-1.255 0 .873.873 0 0 1-.815-.927Zm5.332-10.36c.34.34.34.893 0 1.234l-3.273 3.273a.873.873 0 0 1-1.234 0L9.201 13.98a.873.873 0 0 1 1.234-1.234L12 14.31l2.656-2.655a.873.873 0 0 1 1.234 0Zm1.091-6.402a.873.873 0 0 0 0-1.235l-2.717-2.716a.873.873 0 1 0-1.234 1.234l1.227 1.227H12a9.6 9.6 0 0 0-9.6 9.6.873.873 0 0 0 1.746 0A7.855 7.855 0 0 1 12 5.509h2.257L13.03 6.736a.873.873 0 0 0 1.235 1.234l2.716-2.716Z"/>
</svg>
