<svg width="24" height="24" viewBox="0 0 24 24">
  <path fill-rule="evenodd" d="M12.296 2.194c3.341.144 6.067 2.783 6.242 6.037a6.09 6.09 0 0 1-1.402 4.172c-.748.9-1.257 1.77-1.58 2.678l-.008.024v3.132c0 .39-.24.703-.57.835-.08.655-.676 2.695-1.294 2.695-.073.046-3.28.046-3.375 0-.672 0-1.213-2.028-1.293-2.673a.919.919 0 0 1-.571-.834v-3.155l-.008-.023c-.323-.908-.831-1.78-1.581-2.704a6.097 6.097 0 0 1-1.401-3.902c0-1.737.728-3.351 2.025-4.552 1.3-1.203 3.025-1.802 4.816-1.73Zm3.365 9.053a4.508 4.508 0 0 0 1.037-2.992c-.114-2.266-2.05-4.161-4.45-4.27a4.736 4.736 0 0 0-3.462 1.24c-.928.87-1.443 2.02-1.443 3.25 0 1.02.337 1.97.99 2.774.689.839 1.207 1.68 1.593 2.523h4.14c.387-.863.907-1.686 1.595-2.524Zm-1.977 6.094v-1.754H10.31v1.754h3.375Zm-2.489 2.748c.047.081 1.524.067 1.609 0 .11-.188.229-.717.275-.956h-2.164c.047.233.17.767.28.957Z"/>
  <path d="M12.99 6.472c0-.547-.443-.794-.99-.794a2.793 2.793 0 0 0-2.79 2.79c0 .547.315.99.862.99a.99.99 0 0 0 .981-.855l.01-.135c0-.405.428-.939.817-.997l.12-.009a.99.99 0 0 0 .99-.99Z"/>
</svg>
