<svg width="14" height="14" viewBox="0 0 14 14" xmlns="http://www.w3.org/2000/svg">
<g clip-path="url(#clip0_406_28)">
<path fill-rule="evenodd" clip-rule="evenodd" d="M3.23353 8.75622L6.4237 13.4267C6.62134 13.7807 6.99501 14 7.4004 14C7.8058 14 8.17946 13.7807 8.37711 13.4267L11.5673 8.75615C11.7692 8.39456 12.0216 7.88282 12.2268 7.3439C12.4215 6.83275 12.6208 6.17829 12.6208 5.57392C12.6208 2.73369 10.2447 0.5 7.40035 0.5C4.55595 0.5 2.17999 2.7337 2.17999 5.57392C2.17999 6.17827 2.37926 6.83267 2.57393 7.34385C2.77915 7.88275 3.03153 8.39453 3.23353 8.75622ZM7.4004 8.28401C8.81624 8.28401 9.964 7.13625 9.964 5.72041C9.964 4.30458 8.81624 3.15682 7.4004 3.15682C5.98457 3.15682 4.83681 4.30458 4.83681 5.72041C4.83681 7.13625 5.98457 8.28401 7.4004 8.28401Z" />
</g>
<defs>
<clipPath id="clip0_406_28">
<rect width="14" height="14" fill="white"/>
</clipPath>
</defs>
</svg>
