<svg width="16" height="16" viewBox="0 0 16 16">
  <path fill-rule="evenodd" d="M9.968 1.977c0-.58.47-1.051 1.052-1.051h3.014c.582 0 1.052.471 1.052 1.051v3.014a1.051 1.051 0 1 1-2.103 0V4.39L7.717 9.28a1.051 1.051 0 0 1-1.433-1.54l5.072-4.71h-.336a1.051 1.051 0 0 1-1.052-1.052Zm-8.308.41a2.174 2.174 0 0 1 1.322-.457h3.466a1.051 1.051 0 1 1 0 2.103h-3.42v8.95h8.95V9.062a1.051 1.051 0 1 1 2.104 0v3.967c0 .723-.304 1.258-.735 1.6a2.175 2.175 0 0 1-1.322.457H2.982c-.723 0-1.257-.304-1.599-.735a2.174 2.174 0 0 1-.457-1.322V3.986c0-.722.303-1.257.734-1.598Z"/>
</svg>
