<svg width="24" height="24" viewBox="0 0 24 24">
  <path fill-rule="evenodd" d="M9.103 9.226v4.845c0 .232.087.45.244.62.114.122.26.213.409.257l.089.021.074.01 4.94.003v4.844a1.18 1.18 0 0 1-.953 1.16l-.118.017-.111.005H4.259a1.18 1.18 0 0 1-1.159-.953l-.017-.118-.006-.11v-9.419A1.18 1.18 0 0 1 4.03 9.25l.118-.017.111-.006h4.844Zm-1.396 1.4h-3.23v8.98h8.988v-3.23H9.879a2.222 2.222 0 0 1-1.168-.418l-.125-.097-.195-.187-.09-.09a2.222 2.222 0 0 1-.573-1.213l-.016-.153-.005-.15v-3.441Zm9.372 4.343c.371 0 .677.292.677.65a.66.66 0 0 1-.524.633l-.078.013-.075.004h-.66a.661.661 0 0 1-.672-.65c0-.3.213-.558.513-.63l.076-.015.082-.005h.66Zm2.405-.431c.175-.29.501-.413.813-.272a.613.613 0 0 1 .318.842c-.258.566-.78.93-1.401.99-.37.036-.66-.156-.696-.525a.672.672 0 0 1 .448-.698l.075-.022.127-.02a.406.406 0 0 0 .213-.123l.036-.048.067-.125Zm.789-4.29c.3 0 .558.212.63.512l.015.077.005.082v1.58c0 .37-.291.671-.65.671a.655.655 0 0 1-.63-.513l-.015-.076-.005-.082v-1.58a.66.66 0 0 1 .65-.672Zm0-4.07c.3 0 .558.212.63.512l.015.077.005.082v1.58c0 .37-.291.671-.65.671a.655.655 0 0 1-.63-.513l-.015-.076-.005-.082v-1.58a.66.66 0 0 1 .65-.672ZM8.54 5.927c.312 0 .58.212.655.512l.014.077.006.082V7.67a.675.675 0 0 1-1.33.159l-.015-.077-.005-.082V6.599c0-.371.302-.672.675-.672Zm1.084-2.73a.672.672 0 0 1 .202 1.317l-.076.017-.129.012a.404.404 0 0 0-.22.11l-.039.045-.074.12a.672.672 0 0 1-1.144-.7 1.743 1.743 0 0 1 1.48-.921Zm9.585-.065a1.748 1.748 0 0 1 1.48.922.671.671 0 0 1-1.096.76l-.053-.067-.036-.06a.404.404 0 0 0-.228-.193l-.057-.014-.055-.005a.672.672 0 0 1 .044-1.343Zm-5.915-.141c.371 0 .672.291.672.65a.655.655 0 0 1-.513.63l-.077.015-.082.005h-1.58a.661.661 0 0 1-.67-.65c0-.301.212-.558.512-.63l.077-.015.082-.005h1.58Zm3.793 0c.371 0 .672.291.672.65a.655.655 0 0 1-.513.63l-.077.015-.082.005h-1.58a.661.661 0 0 1-.671-.65c0-.301.212-.558.513-.63l.076-.015.082-.005h1.58Z"/>
</svg>
