<svg width="22" height="22" viewBox="0 0 22 22" fill="none" xmlns="http://www.w3.org/2000/svg">
<path d="M12.1759 3.33213C12.2397 3.09383 12.4847 2.95241 12.723 3.01626L13.5083 3.22668C13.7466 3.29053 13.888 3.53547 13.8241 3.77377L9.83268 18.67C9.76883 18.9083 9.52389 19.0498 9.28559 18.9859L8.5003 18.7755C8.262 18.7116 8.12058 18.4667 8.18444 18.2284L12.1759 3.33213Z"/>
<path fill-rule="evenodd" clip-rule="evenodd" d="M0.133141 11.3284C-0.0439668 11.1538 -0.0444406 10.8682 0.132087 10.6931L5.12727 5.73728C5.30241 5.56352 5.58524 5.56464 5.75899 5.73978L6.32529 6.31058C6.49905 6.48571 6.49793 6.76854 6.32279 6.9423L2.54624 10.6891C2.36971 10.8642 2.37018 11.1498 2.54729 11.3244L6.31975 15.0423C6.49546 15.2155 6.49752 15.4983 6.32434 15.6741L5.75994 16.2467C5.58677 16.4224 5.30394 16.4245 5.12823 16.2513L0.133141 11.3284Z"/>
<path fill-rule="evenodd" clip-rule="evenodd" d="M21.8669 10.6592C22.044 10.8337 22.0444 11.1193 21.8679 11.2945L16.8727 16.2503C16.6976 16.424 16.4148 16.4229 16.241 16.2478L15.6747 15.677C15.501 15.5018 15.5021 15.219 15.6772 15.0453L19.4538 11.2985C19.6303 11.1233 19.6298 10.8377 19.4527 10.6632L15.6803 6.94522C15.5045 6.77204 15.5025 6.48922 15.6757 6.31351L16.2401 5.74083C16.4132 5.56512 16.6961 5.56306 16.8718 5.73624L21.8669 10.6592Z"/>
</svg>
