<svg width="16" height="16" viewBox="0 0 16 16">
  <path fill-rule="evenodd" d="M1.291 13.714V6.4c0-.631.512-1.143 1.143-1.143h.857c.632 0 1.143.512 1.143 1.143v7.314c0 .631-.511 1.143-1.143 1.143h-.857a1.143 1.143 0 0 1-1.143-1.143Zm5.143 0V2.286c0-.631.512-1.143 1.143-1.143h.857c.632 0 1.143.512 1.143 1.143v11.428c0 .631-.511 1.143-1.143 1.143h-.857a1.143 1.143 0 0 1-1.143-1.143Zm5.143 0v-3.2c0-.63.512-1.142 1.143-1.142h.857c.632 0 1.143.511 1.143 1.143v3.2c0 .63-.511 1.142-1.143 1.142h-.857a1.143 1.143 0 0 1-1.143-1.143Z"/>
</svg>
