<svg width="16" height="16" viewBox="0 0 16 16">
  <path fill-rule="evenodd" d="M1.143 2.434c0-.63.512-1.143 1.143-1.143H9.6c.631 0 1.143.512 1.143 1.143v.857c0 .632-.512 1.143-1.143 1.143H2.286a1.143 1.143 0 0 1-1.143-1.143v-.857Zm0 5.143c0-.63.512-1.143 1.143-1.143h11.428c.631 0 1.143.512 1.143 1.143v.857c0 .632-.511 1.143-1.143 1.143H2.286a1.143 1.143 0 0 1-1.143-1.143v-.857Zm0 5.143c0-.63.512-1.143 1.143-1.143h3.2c.63 0 1.142.512 1.142 1.143v.857c0 .632-.511 1.143-1.143 1.143h-3.2a1.143 1.143 0 0 1-1.142-1.143v-.857Z"/>
</svg>
