<svg width="24" height="24" viewBox="0 0 24 24" xmlns="http://www.w3.org/2000/svg">
  <path d="M10.931 9.436a1.036 1.036 0 0 0 2.073 0V2.782a1.036 1.036 0 0 0-2.073 0v6.654Z"/>
  <path d="m10.68 18.4-3.477 3.166V18.4H4.027V5.545h3.5a.807.807 0 0 0 .808-.809.807.807 0 0 0-.808-.809h-3.96c-.632 0-1.145.513-1.145 1.146v13.772c0 .633.513 1.146 1.145 1.146h2.03v2.623c0 .997 1.187 1.518 1.921.843l3.774-3.466 9.136.002c.633 0 1.146-.513 1.146-1.146l-.002-13.774c0-.633-.513-1.146-1.146-1.146h-3.723a.809.809 0 0 0 0 1.618h3.263v12.854H10.68Z"/>
  <path d="m12.922 15.012-.005.005c-.226.231-.574.365-.95.365-.377 0-.73-.136-.966-.373a1.399 1.399 0 0 1-.397-.978c0-.356.151-.724.397-.971.257-.258.61-.405.966-.405.348 0 .7.145.964.41l.002.002a1.374 1.374 0 0 1-.011 1.945Z"/>
</svg>
