<svg width="16" height="16" viewBox="0 0 16 16">
  <path fill-rule="evenodd" d="M8 12.473a5.25 5.25 0 1 1 0-8.946 5.25 5.25 0 1 1 0 8.946Zm-1.256-1.08a3.707 3.707 0 1 1 0-6.787A5.23 5.23 0 0 0 5.5 8a5.23 5.23 0 0 0 1.244 3.394Zm2.512-6.787a3.707 3.707 0 1 1 0 6.787A5.23 5.23 0 0 0 10.5 8a5.23 5.23 0 0 0-1.244-3.394ZM8 5.514c.595.658.957 1.53.957 2.486 0 .957-.362 1.828-.957 2.486A3.694 3.694 0 0 1 7.043 8c0-.957.362-1.828.957-2.486Z"/>
  <path d="M8.957 8c0-.957-.362-1.828-.957-2.486A3.694 3.694 0 0 0 7.043 8c0 .957.362 1.828.957 2.486.595-.658.957-1.53.957-2.486Z"/>
</svg>
