<svg width="24" height="24" viewBox="0 0 24 24" xmlns="http://www.w3.org/2000/svg">
	<path d="M13.6305 4.21093C13.6899 3.92969 14.3101 3.92969 14.3695 4.21093C14.7984 6.24437 15.6587 9.17923 17.2398 10.7602C18.8208 12.3413 21.7556 13.2016 23.7891 13.6305C24.0703 13.6899 24.0703 14.3101 23.7891 14.3695C21.7556 14.7984 18.8208 15.6587 17.2398 17.2398C15.6587 18.8208 14.7984 21.7556 14.3695 23.7891C14.3101 24.0703 13.6899 24.0703 13.6305 23.7891C13.2016 21.7556 12.3413 18.8208 10.7602 17.2398C9.17923 15.6587 6.24437 14.7984 4.21093 14.3695C3.92969 14.3101 3.92969 13.6899 4.21093 13.6305C6.24437 13.2016 9.17923 12.3413 10.7602 10.7602C12.3413 9.17923 13.2016 6.24437 13.6305 4.21093Z" />
	<path d="M4.33375 0.0949183C4.36044 -0.0316392 4.63956 -0.0316395 4.66625 0.094918C4.85929 1.00997 5.24643 2.33066 5.95789 3.04211C6.66934 3.75357 7.99003 4.14071 8.90508 4.33375C9.03164 4.36044 9.03164 4.63956 8.90508 4.66625C7.99003 4.85929 6.66934 5.24643 5.95789 5.95789C5.24643 6.66934 4.85929 7.99003 4.66625 8.90508C4.63956 9.03164 4.36044 9.03164 4.33375 8.90508C4.14071 7.99003 3.75357 6.66934 3.04211 5.95789C2.33066 5.24643 1.00997 4.85929 0.0949183 4.66625C-0.0316392 4.63956 -0.0316395 4.36044 0.094918 4.33375C1.00997 4.14071 2.33066 3.75357 3.04211 3.04211C3.75357 2.33066 4.14071 1.00997 4.33375 0.0949183Z" />
</svg>
