<svg width="16" height="16" viewBox="0 0 16 16">
  <path d="M8.406 8.384a.571.571 0 0 0-.002-.813l-6.39-6.297a.571.571 0 0 0-.807.006l-.722.732a.571.571 0 0 0 .005.808l4.826 4.757a.571.571 0 0 1 .002.812L.486 13.182a.571.571 0 0 0-.003.808l.725.73a.572.572 0 0 0 .808.004l6.39-6.34Z"/>
  <path d="M15.53 7.571a.571.571 0 0 1 0 .813l-6.39 6.34a.572.572 0 0 1-.807-.004l-.725-.73a.571.571 0 0 1 .003-.808l4.832-4.793a.571.571 0 0 0-.002-.812L7.615 2.82a.571.571 0 0 1-.005-.808l.722-.732a.571.571 0 0 1 .808-.006l6.39 6.297Z"/>
</svg>
