<svg width="22" height="22" viewBox="0 0 22 22" xmlns="http://www.w3.org/2000/svg">

    <path fill-rule="evenodd" clip-rule="evenodd" d="M11.8674 17.2524C11.8674 17.1827 11.8674 17.113 11.8674 17.0363H4.72293C4.60251 17.0382 4.48638 16.9913 4.40057 16.9061C4.31476 16.821 4.26644 16.7047 4.26646 16.5834C4.26742 16.493 4.29645 16.4053 4.34945 16.3325L5.36615 14.6739H12.5521C13.1283 13.6454 14.0361 12.8462 15.125 12.409L12.6836 8.36016V4.28341C13.4892 4.10001 14.0523 3.36606 14.0253 2.53423V2.44364C14.0253 1.47375 13.245 0.6875 12.2824 0.6875H7.79376C6.83118 0.6875 6.05086 1.47375 6.05086 2.44364V2.53423C6.03398 3.3583 6.59475 4.08061 7.39261 4.2625V8.33925L4.39095 13.308C4.27538 13.3984 4.19468 13.5265 4.16271 13.6704L3.04228 15.5241C2.47654 16.4573 2.7564 17.6751 3.67166 18.2628C3.99014 18.4534 4.35257 18.5567 4.72293 18.5625H12.0403C11.927 18.1351 11.8689 17.6948 11.8674 17.2524ZM8.81045 8.98735C8.88646 8.86897 8.92726 8.73113 8.92802 8.59013V3.54471C8.92423 3.12022 8.58162 2.77813 8.16032 2.77814H7.79376C7.73751 2.77817 7.68366 2.75519 7.64454 2.71447C7.60542 2.67374 7.58439 2.61875 7.58627 2.56211V2.44364C7.58621 2.327 7.67805 2.23137 7.79376 2.22761H12.2824C12.4008 2.22761 12.4968 2.32433 12.4968 2.44364V2.53423C12.4968 2.65355 12.4008 2.75027 12.2824 2.75027H11.9159C11.4972 2.75405 11.1588 3.09505 11.1551 3.51684V8.56226C11.1527 8.70052 11.1912 8.83637 11.2657 8.95251L13.7902 13.099H6.28601L8.81045 8.98735Z" fill="#CCCCCC" />
    <path fill-rule="evenodd" clip-rule="evenodd" d="M17.2601 11.7044C15.1056 11.5299 13.0709 12.7178 12.1637 14.6797C11.2565 16.6417 11.6694 18.9612 13.1978 20.4897C14.7263 22.0181 17.0458 22.431 19.0078 21.5238C20.9697 20.6166 22.1576 18.5819 21.9831 16.4274C21.779 13.9083 19.7792 11.9085 17.2601 11.7044ZM17.8513 12.4538C18.0513 12.5006 18.2486 12.558 18.4425 12.6257C18.549 12.6989 18.6678 12.7525 18.7932 12.7838C19.3479 13.0426 19.8421 13.415 20.2437 13.8769C20.2707 13.9077 20.2875 13.9461 20.2919 13.9869C20.3157 14.0816 20.3157 14.1808 20.2919 14.2756C20.2685 14.3301 20.2545 14.3883 20.2506 14.4475C20.2629 14.556 20.3432 14.6446 20.45 14.6675C20.5367 14.6789 20.6245 14.6789 20.7112 14.6675C20.7796 14.6693 20.8397 14.713 20.8625 14.7775C20.9014 14.8936 20.9545 15.0044 21.0206 15.1075C21.2194 15.5905 21.3311 16.1049 21.3506 16.6268C21.3533 16.6974 21.3286 16.7664 21.2818 16.8193C21.1902 16.9205 21.1095 17.0311 21.0412 17.1493C20.9018 17.4956 20.7243 17.8254 20.5119 18.1324C20.3842 18.245 20.2853 18.3864 20.2231 18.5449C20.1994 18.6604 20.1856 18.7777 20.1819 18.8955C20.1819 18.9436 20.0925 18.9436 20.0444 18.8955C19.8707 18.6333 19.745 18.3423 19.6731 18.0362C19.6319 17.8162 19.5838 17.5962 19.5219 17.3487C19.4617 17.1276 19.319 16.9381 19.1231 16.8193C18.9018 16.7449 18.6691 16.71 18.4357 16.7162C18.1802 16.7474 17.9251 16.6556 17.7482 16.4687C17.6806 16.3819 17.6421 16.2761 17.6382 16.1662C17.532 15.5852 17.8087 15.0013 18.3257 14.7156C18.3875 14.6675 18.4563 14.6469 18.5182 14.6056C18.653 14.4938 18.714 14.316 18.6763 14.145C18.674 14.1249 18.662 14.1072 18.6441 14.0976C18.6263 14.088 18.605 14.0877 18.5869 14.0969C18.4582 14.137 18.3338 14.1899 18.2157 14.255C18.1469 14.255 18.0782 14.255 18.1057 14.1862C18.1014 13.9544 18.1291 13.723 18.1882 13.4988C18.2735 13.2775 18.2735 13.0325 18.1882 12.8113C18.1567 12.7638 18.1069 12.7314 18.0507 12.7219H17.4388C17.5448 12.6569 17.6399 12.5757 17.7207 12.4813C17.7587 12.4549 17.8058 12.445 17.8513 12.4538ZM15.6307 12.5157C15.6513 12.5043 15.676 12.5031 15.6976 12.5126C15.7192 12.522 15.7351 12.5409 15.7407 12.5638C15.8095 12.6738 15.8507 12.7838 15.9195 12.9144C16.0557 13.1793 16.0707 13.4901 15.9607 13.7669C15.8095 14.0762 15.4589 14.2069 15.1701 14.365C14.5785 14.674 14.0729 15.1253 13.6989 15.6781C13.6989 15.6781 13.6576 15.7468 13.637 15.7468C13.6164 15.7582 13.5917 15.7593 13.5701 15.7499C13.5486 15.7405 13.5326 15.7216 13.527 15.6987C13.457 15.6621 13.396 15.6104 13.3483 15.5475C13.3483 15.5475 13.2658 15.5475 13.2658 15.6162C13.1769 15.9228 13.3107 16.2503 13.5889 16.4068C13.639 16.4265 13.6854 16.4544 13.7264 16.4893C13.8089 16.5993 13.7264 16.7574 13.7264 16.8881C13.7264 17.0187 13.967 17.1699 14.1664 17.1493C14.347 17.1139 14.5225 17.0561 14.6889 16.9774C15.0867 16.8345 15.5289 16.8907 15.8782 17.1287C16.0501 17.2387 16.2082 17.4174 16.3801 17.5274C16.5323 17.6423 16.7187 17.7028 16.9094 17.6993C16.9497 17.7002 16.9885 17.7148 17.0194 17.7405C17.0705 17.931 17.0298 18.1344 16.9094 18.2905C16.7611 18.4562 16.6002 18.6102 16.4282 18.7511C16.0501 19.1705 15.9676 19.8099 15.6582 20.2705C15.5869 20.3564 15.5268 20.4512 15.4795 20.5523C15.4355 20.7017 15.4215 20.8582 15.4382 21.013C15.4382 21.013 15.4382 21.0817 15.397 21.0611C15.3199 21.0414 15.2459 21.0114 15.177 20.9717C15.13 20.9532 15.0961 20.9115 15.0876 20.8617C14.9754 20.2236 14.7594 19.6082 14.4483 19.0399C14.3389 18.8062 14.1736 18.6031 13.967 18.4486C13.8983 18.4005 13.8364 18.3593 13.8158 18.2905C13.7951 18.2218 13.8158 18.1805 13.8158 18.1393C13.8848 17.5332 13.6221 16.9368 13.1283 16.5787C13.0385 16.5331 12.9625 16.4642 12.9083 16.3793C12.8602 16.2968 12.8602 16.1593 12.8189 16.0768C12.7304 15.9719 12.626 15.8814 12.5095 15.8087C12.4683 15.8087 12.4683 15.7468 12.4683 15.6987C12.8747 14.147 14.0817 12.9322 15.6307 12.5157Z" />

</svg>
    