<svg width="16" height="16" viewBox="0 0 16 16" xmlns="http://www.w3.org/2000/svg">
	<path fill-rule="evenodd" clip-rule="evenodd" d="M 8.007 0 C 3.579 0 0 3.667 0 8.203 C 0 11.829 2.294 14.898 5.475 15.985 C 5.873 16.066 6.018 15.808 6.018 15.59 C 6.018 15.4 6.005 14.748 6.005 14.07 C 3.778 14.558 3.314 13.092 3.314 13.092 C 2.956 12.141 2.425 11.896 2.425 11.896 C 1.697 11.394 2.479 11.394 2.479 11.394 C 3.288 11.448 3.712 12.236 3.712 12.236 C 4.427 13.486 5.581 13.132 6.045 12.915 C 6.111 12.385 6.323 12.019 6.549 11.815 C 4.772 11.624 2.904 10.918 2.904 7.768 C 2.904 6.871 3.221 6.138 3.725 5.568 C 3.645 5.365 3.367 4.522 3.804 3.395 C 3.804 3.395 4.481 3.177 6.005 4.237 C 6.658 4.057 7.331 3.967 8.007 3.966 C 8.682 3.966 9.372 4.06 10.008 4.237 C 11.532 3.177 12.209 3.395 12.209 3.395 C 12.647 4.522 12.368 5.365 12.288 5.568 C 12.806 6.138 13.11 6.871 13.11 7.768 C 13.11 10.918 11.241 11.611 9.451 11.815 C 9.743 12.072 9.995 12.562 9.995 13.335 C 9.995 14.436 9.982 15.318 9.982 15.59 C 9.982 15.808 10.128 16.066 10.525 15.985 C 13.706 14.898 16 11.829 16 8.203 C 16.013 3.667 12.421 0 8.007 0 Z">
	</path>
</svg>
