<svg width="14" height="14" viewBox="0 0 14 14" fill="black" xmlns="http://www.w3.org/2000/svg">
    <defs></defs>
    <path fill-rule="evenodd" clip-rule="evenodd" d="M9.08255 2H0.780954C0.573832 2 0.375194 2.0878 0.228736 2.24408C0.082279 2.40036 0 2.61232 0 2.83333V11.1667C0 11.3877 0.082279 11.5996 0.228736 11.7559C0.375194 11.9122 0.573832 12 0.780954 12H9.08255C9.26897 12 9.44925 11.9288 9.5908 11.7994L13.4546 8.26543C13.6256 8.10896 13.763 7.91485 13.8571 7.69643C13.9513 7.478 14 7.24043 14 7.00001C14 6.75959 13.9513 6.52201 13.8571 6.30359C13.763 6.08516 13.6256 5.89106 13.4546 5.73459L9.5908 2.20062C9.44925 2.07116 9.26897 2.00001 9.08255 2ZM8.118 5.41125C8.07058 4.55785 7.23298 3.5925 6.04787 3.5575C4.86276 3.5225 4.06534 4.44405 3.92765 5.22409C3.92765 5.22409 3.91585 5.29028 3.90977 5.35529C3.9037 5.42031 3.91144 5.53987 3.92793 5.58883C3.94442 5.63778 4.1009 6.0144 4.54041 6.0144C4.7775 6.0144 4.93274 5.9491 4.99477 5.82335C5.04121 5.74271 5.07804 5.61212 5.10508 5.51624L5.11727 5.47335L5.11831 5.46975C5.14612 5.37356 5.19145 5.21674 5.37946 5.03584C5.54051 4.8809 5.7158 4.7882 5.93341 4.76435L6.00922 4.75819L6.08287 4.75624C6.68115 4.75624 6.80275 5.18501 6.80275 5.48251C6.80275 5.75941 6.50993 6.04434 6.24439 6.30273C6.18833 6.35728 6.13349 6.41065 6.08287 6.46251L6.03862 6.50779C5.76235 6.79027 5.48397 7.07491 5.34446 7.41585C5.1975 7.77501 5.32 8.00251 5.39 8.07251C5.39592 8.07843 5.40232 8.0851 5.40929 8.09234C5.48475 8.17084 5.62573 8.31752 5.91733 8.31752C6.23585 8.31752 6.4225 8.23002 6.53755 8.11586C6.58864 8.06516 6.63378 7.97848 6.69576 7.85947C6.77337 7.71045 6.87737 7.51075 7.0525 7.26751C7.13674 7.15051 7.24765 7.01627 7.36598 6.87307C7.6901 6.4808 8.06987 6.02118 8.10977 5.66364L8.11722 5.57566L8.12 5.48445L8.118 5.41125ZM5.95004 8.825C6.14278 8.825 6.33203 8.90359 6.469 9.04091C6.60606 9.17658 6.685 9.366 6.685 9.56004C6.685 9.75478 6.60606 9.94473 6.4683 10.081C6.33447 10.2164 6.14496 10.295 5.95004 10.295C5.75574 10.295 5.56614 10.2166 5.42969 10.08C5.29324 9.9436 5.215 9.75408 5.215 9.55996C5.215 9.36661 5.29333 9.17736 5.42969 9.04091C5.56693 8.90359 5.75652 8.825 5.95004 8.825Z"></path>
  </svg>