<svg width="16" height="16" viewBox="0 0 16 16" xmlns="http://www.w3.org/2000/svg">
  <path fill-rule="evenodd" d="M8.011.914a.98.98 0 0 1 .713.3c.19.194.294.46.288.734v6.1l1.113-1.296a.98.98 0 0 1 .943-.334c.35.07.636.328.749.674a1.035 1.035 0 0 1-.207 1.002l-2.847 3.313a.98.98 0 0 1-.741.34.981.981 0 0 1-.742-.34l-2.844-3.31a1.032 1.032 0 0 1-.205-1.036.98.98 0 0 1 1.685-.31L7.03 8.047V1.953a1.028 1.028 0 0 1 .28-.732.983.983 0 0 1 .57-.296l.13-.01Zm5.47 9.265c-.538.062-.955.52-.955 1.074l-.001 1.453H3.477l.001-1.453a1.082 1.082 0 1 0-2.164 0v2.529c0 .604.485 1.089 1.082 1.089h11.208c.555 0 1.012-.418 1.074-.956l.01-.178.002-2.484c0-.597-.485-1.082-1.082-1.082l-.127.008Z"/>
</svg>
