<svg width="24" height="24" viewBox="0 0 24 24">
  <path d="M6.51 5.694a.818.818 0 1 0 0 1.636h4.362a.818.818 0 0 0 0-1.636H6.51ZM5.692 9.24c0-.453.366-.819.818-.819h6.543a.818.818 0 0 1 0 1.636H6.51a.818.818 0 0 1-.818-.818Zm.818 1.908a.818.818 0 1 0 0 1.637h2.726a.818.818 0 1 0 0-1.637H6.51Z"/>
  <path fill-rule="evenodd" d="M14.81 3.679a7.867 7.867 0 0 1 .681 10.352c.027.022.054.046.08.071l6.75 6.751a1.036 1.036 0 0 1-1.465 1.466l-6.751-6.75a1.04 1.04 0 0 1-.072-.08 7.876 7.876 0 0 1-10.355-.683 7.865 7.865 0 0 1 0-11.127 7.874 7.874 0 0 1 11.132 0Zm-1.503 9.628a5.8 5.8 0 1 0-8.203-8.203 5.8 5.8 0 0 0 8.203 8.203Z"/>
</svg>
