<svg xmlns="http://www.w3.org/2000/svg" width="24" height="24" viewBox="0 0 24 24">
	<path fill-rule="evenodd" clip-rule="evenodd" d="M1.93713 20.5715V9.60032C1.93713 8.65354 2.70465 7.88603 3.65142 7.88603H4.93713C5.88391 7.88603 6.65142 8.65354 6.65142 9.60032V20.5715C6.65142 21.5183 5.88391 22.2858 4.93713 22.2858H3.65142C2.70465 22.2858 1.93713 21.5183 1.93713 20.5715ZM9.65165 20.5715V3.42864C9.65165 2.48187 10.4192 1.71436 11.3659 1.71436H12.6517C13.5984 1.71436 14.3659 2.48187 14.3659 3.42864V20.5715C14.3659 21.5183 13.5984 22.2858 12.6517 22.2858H11.3659C10.4192 22.2858 9.65165 21.5183 9.65165 20.5715ZM17.3662 20.5715V15.772C17.3662 14.8252 18.1337 14.0577 19.0805 14.0577H20.3662C21.3129 14.0577 22.0805 14.8252 22.0805 15.772V20.5715C22.0805 21.5183 21.3129 22.2858 20.3662 22.2858H19.0805C18.1337 22.2858 17.3662 21.5183 17.3662 20.5715Z" />
</svg>
