<svg width="16" height="16" viewBox="0 0 16 16">
  <defs>
    <clipPath id="a">
      <path d="M0 0h16v16H0z"/>
    </clipPath>
  </defs>
  <g clip-path="url(#a)">
    <path fill-rule="evenodd" d="m.91 6.341 1.513-.908a.8.8 0 0 0 .388-.672l.03-1.764a.8.8 0 0 1 .926-.777l1.743.277a.8.8 0 0 0 .729-.266L7.396.9a.8.8 0 0 1 1.208 0L9.76 2.231a.8.8 0 0 0 .73.266l1.742-.277a.8.8 0 0 1 .925.777l.03 1.764a.8.8 0 0 0 .388.672l1.513.908a.8.8 0 0 1 .21 1.19l-1.11 1.37a.8.8 0 0 0-.136.765l.575 1.668a.8.8 0 0 1-.604 1.046l-1.732.336a.8.8 0 0 0-.594.499c-.441-.186-1.4-.537-1.4-.537a2.3 2.3 0 0 1 1.708-1.435l.942-.182-.313-.907a2.3 2.3 0 0 1 .388-2.197l.603-.745-.822-.493a2.3 2.3 0 0 1-1.115-1.933l-.017-.958-.947.15a2.3 2.3 0 0 1-2.096-.763L8 2.491l-.629.724a2.3 2.3 0 0 1-2.096.763l-.947-.15-.017.959a2.3 2.3 0 0 1-1.115 1.932l-.822.493.603.745a2.3 2.3 0 0 1 .388 2.197l-.313.907.942.182a2.3 2.3 0 0 1 1.709 1.435l.343.895.838-.465.728 1.311-1.543.856a.8.8 0 0 1-1.135-.413l-.632-1.647a.8.8 0 0 0-.594-.499l-1.732-.336a.8.8 0 0 1-.604-1.046l.575-1.668a.8.8 0 0 0-.135-.765l-1.11-1.37A.8.8 0 0 1 .91 6.34Zm9.044 7.232.343-.895s.96.35 1.4.537l-.631 1.647a.8.8 0 0 1-1.135.413l-1.543-.856a.8.8 0 0 0-.776 0l-.728-1.311a2.3 2.3 0 0 1 2.232 0l.838.465Z"/>
  </g>
</svg>
