<svg xmlns="http://www.w3.org/2000/svg" width="16" height="16" viewBox="0 0 16 16">
  <path fill-rule="evenodd" d="M5.63 1.835a.813.813 0 0 1 .832-.78l3.667.09a1.143 1.143 0 0 1 1.094 1.358l-.686 3.582a.84.84 0 0 1-1.652-.31l.349-1.888a5.547 5.547 0 0 0-1.576 1.365 4.995 4.995 0 0 0-1.08 3.292 5.05 5.05 0 0 0 1.346 3.207c.635.693 1.461 1.194 2.379 1.496.45.148.753.6.65 1.063-.098.443-.533.732-.97.605-1.332-.386-2.533-1.089-3.443-2.081-1.086-1.186-1.711-2.674-1.775-4.227-.063-1.553.439-3.08 1.425-4.339a7.258 7.258 0 0 1 1.687-1.555L6.424 2.68a.813.813 0 0 1-.794-.845Z"/>
</svg>
