<svg width="24" height="24" viewBox="0 0 24 24" xmlns="http://www.w3.org/2000/svg">
    <path fill-rule="evenodd"
        fill="#CCCCCC"
        d="M13.123 19.05v-.45c0-.225 0-.525.075-.75H3.61c-.6 0-1.049-.45-1.049-.975L1.662 7.5c0-.225.075-.45.225-.6.15-.15.374-.3.6-.3h17.602c.225 0 .45.075.6.3.149.15.224.375.224.6l-.524 5.7c.3.075.524.15.748.3 0 0 .075 0 .075.075.225.15.45.225.675.375l.599-6.3a2.472 2.472 0 0 0-.6-1.875c-.15-.225-.374-.375-.599-.525l.075-.525c.15-1.35-.824-2.55-2.172-2.625H9.602c-.225 0-.45-.075-.6-.3L8.255.9C7.729.375 7.055 0 6.306 0H3.685C3.01 0 2.336.3 1.887.825c-.525.525-.75 1.2-.674 1.95l.3 2.4c-.3.15-.6.3-.9.6A2.477 2.477 0 0 0 .014 7.65l.824 9.375A2.767 2.767 0 0 0 3.61 19.5h9.662c-.075-.15-.075-.3-.15-.45ZM3.085 1.95c.15-.15.375-.3.6-.3h2.621c.225 0 .45.075.6.3l.749.9c.449.6 1.123.9 1.872.9h9.288a.85.85 0 0 1 .6.225.85.85 0 0 1 .224.6l-.075.375H3.085l-.224-2.4c0-.225.075-.45.224-.6Z" />
    <path fill-rule="evenodd"
        d="M18.823 12.771c-3.437-.299-6.35 2.615-6.052 6.052.224 2.69 2.391 4.932 5.156 5.156 3.437.299 6.35-2.615 6.052-6.052a5.606 5.606 0 0 0-5.156-5.156Zm.673.822.672.224c.15.075.224.15.374.15.598.298 1.12.672 1.569 1.195 0 0 .075.075.075.15v.298c0 .075-.075.15-.075.225 0 .149.15.224.224.224h.299a.16.16 0 0 1 .15.15c.074.149.149.298.149.373.224.523.299 1.046.373 1.644 0 .074 0 .149-.074.224a1.63 1.63 0 0 0-.3.373c-.149.3-.298.747-.522.972-.15.15-.3.298-.3.448-.074.15 0 .299-.074.373 0 .075-.075.075-.15 0-.223-.298-.298-.597-.373-.896-.075-.224-.075-.448-.15-.747a1.162 1.162 0 0 0-.448-.598c-.224-.15-.523-.075-.747-.15-.299 0-.523-.074-.747-.298-.075-.075-.15-.224-.15-.3-.149-.597.225-1.27.748-1.568.075-.075.15-.075.224-.15.15-.15.224-.299.15-.523 0-.074-.075-.074-.075-.074-.15.074-.3.074-.374.149-.075 0-.15 0-.15-.075 0-.224 0-.448.075-.747s.15-.523 0-.747c0-.075-.074-.075-.15-.075h-.672a.583.583 0 0 0 .3-.299c.074.075.074.075.149.075Zm-2.391.075c.075 0 .075 0 .15.075.074.149.149.224.223.373.15.299.224.673.075.897-.15.299-.523.448-.822.672-.672.299-1.195.822-1.569 1.42l-.075.075c-.074 0-.074 0-.149-.075s-.15-.075-.224-.15c0 0-.075 0-.075.075a.751.751 0 0 0 .374.822c.074 0 .074.075.15.075.074.15 0 .299 0 .448 0 .224.298.299.447.299.15 0 .374-.15.598-.224a1.5 1.5 0 0 1 1.27.15c.224.149.374.298.523.447.15.15.374.225.598.225.075 0 .075 0 .15.074a.581.581 0 0 1-.15.598c-.15.224-.373.299-.523.523-.373.448-.523 1.12-.822 1.644-.075.075-.15.224-.224.299-.15.15-.15.299-.15.523 0 0 0 .075-.074.075-.075 0-.15-.075-.224-.075-.075 0-.075-.075-.075-.15a10.65 10.65 0 0 0-.672-2.017c-.15-.224-.3-.523-.523-.672-.075-.075-.15-.075-.15-.15v-.15a1.878 1.878 0 0 0-.747-1.718c-.075-.075-.224-.15-.224-.224-.075-.075-.075-.224-.075-.299l-.299-.299c-.075 0-.075-.075-.075-.15.3-1.643 1.644-2.988 3.363-3.436Z" />
</svg>
  