<svg width="22" height="22" viewBox="0 0 22 22" xmlns="http://www.w3.org/2000/svg">
  <path fill-rule="evenodd" clip-rule="evenodd" d="M 19.136 9.733 C 19.14 9.539 19.223 9.344 19.35 9.217 C 19.477 9.09 19.672 9.003 19.867 9.003 C 20.061 9.003 20.256 9.09 20.383 9.217 C 20.51 9.344 20.593 9.539 20.598 9.733 L 20.598 12.267 C 20.593 12.461 20.51 12.656 20.383 12.783 C 20.256 12.91 20.061 12.998 19.867 12.998 C 19.672 12.998 19.477 12.91 19.35 12.783 C 19.223 12.656 19.14 12.461 19.136 12.267 L 19.136 11.731 L 18.054 11.731 C 17.894 13.114 17.367 14.356 16.483 15.428 L 17.258 16.238 L 17.644 15.853 C 17.786 15.736 17.976 15.671 18.147 15.678 C 18.318 15.685 18.506 15.762 18.636 15.892 C 18.766 16.022 18.843 16.21 18.849 16.38 C 18.856 16.551 18.787 16.746 18.67 16.888 L 17.763 17.82 L 16.87 18.713 C 16.729 18.847 16.533 18.926 16.355 18.926 C 16.176 18.926 15.979 18.847 15.839 18.713 C 15.705 18.572 15.627 18.376 15.627 18.198 C 15.627 18.019 15.706 17.823 15.839 17.682 L 16.22 17.302 L 15.427 16.514 C 14.349 17.388 13.108 17.905 11.731 18.055 L 11.731 19.136 L 12.267 19.136 C 12.461 19.14 12.656 19.223 12.783 19.35 C 12.91 19.477 12.998 19.672 12.998 19.867 C 12.998 20.061 12.91 20.256 12.783 20.383 C 12.656 20.51 12.461 20.593 12.267 20.598 L 9.733 20.598 C 9.539 20.593 9.344 20.51 9.217 20.383 C 9.09 20.256 9.003 20.061 9.003 19.867 C 9.003 19.672 9.09 19.477 9.217 19.35 C 9.344 19.223 9.539 19.14 9.733 19.136 L 10.27 19.136 L 10.27 18.054 C 8.886 17.894 7.644 17.367 6.572 16.483 L 5.762 17.258 L 6.142 17.638 C 6.276 17.779 6.354 17.975 6.354 18.154 C 6.354 18.332 6.275 18.529 6.142 18.669 C 6.001 18.803 5.805 18.882 5.627 18.882 C 5.448 18.882 5.252 18.803 5.112 18.669 L 4.211 17.781 L 3.334 16.892 C 3.124 16.722 3.013 16.43 3.062 16.161 C 3.126 15.894 3.35 15.666 3.616 15.598 C 3.885 15.546 4.179 15.652 4.352 15.861 L 4.729 16.238 L 5.517 15.427 C 4.644 14.349 4.127 13.108 3.977 11.731 L 2.865 11.731 L 2.865 12.267 C 2.86 12.461 2.777 12.656 2.65 12.783 C 2.523 12.91 2.328 12.998 2.133 12.998 C 1.939 12.998 1.744 12.91 1.617 12.783 C 1.49 12.656 1.407 12.461 1.403 12.267 L 1.403 9.733 C 1.407 9.539 1.49 9.344 1.617 9.217 C 1.744 9.09 1.939 9.003 2.133 9.003 C 2.328 9.003 2.523 9.09 2.65 9.217 C 2.777 9.344 2.86 9.539 2.865 9.733 L 2.865 10.27 L 3.977 10.27 C 4.128 8.889 4.646 7.648 5.518 6.572 L 4.742 5.762 L 4.362 6.142 C 4.221 6.276 4.025 6.354 3.847 6.354 C 3.668 6.354 3.471 6.275 3.331 6.142 C 3.197 6.001 3.118 5.805 3.118 5.627 C 3.118 5.448 3.197 5.252 3.331 5.112 L 4.219 4.211 L 5.108 3.334 C 5.278 3.124 5.57 3.013 5.839 3.062 C 6.106 3.126 6.334 3.35 6.402 3.616 C 6.454 3.885 6.348 4.179 6.139 4.352 L 5.762 4.729 L 6.573 5.517 C 7.651 4.644 8.892 4.127 10.27 3.977 L 10.27 2.865 L 9.733 2.865 C 9.539 2.86 9.344 2.777 9.217 2.65 C 9.09 2.523 9.003 2.328 9.003 2.133 C 9.003 1.939 9.09 1.744 9.217 1.617 C 9.344 1.49 9.539 1.407 9.733 1.403 L 12.267 1.403 C 12.461 1.407 12.656 1.49 12.783 1.617 C 12.91 1.744 12.998 1.939 12.998 2.133 C 12.998 2.328 12.91 2.523 12.783 2.65 C 12.656 2.777 12.461 2.86 12.267 2.865 L 11.731 2.865 L 11.731 3.977 C 13.111 4.128 14.352 4.646 15.428 5.518 L 16.238 4.742 L 15.859 4.363 C 15.667 4.185 15.574 3.899 15.629 3.641 C 15.697 3.386 15.915 3.17 16.169 3.101 C 16.427 3.047 16.713 3.139 16.89 3.332 L 17.789 4.218 L 18.682 5.111 C 18.816 5.252 18.894 5.448 18.894 5.627 C 18.894 5.805 18.815 6.002 18.682 6.142 C 18.541 6.276 18.345 6.354 18.167 6.354 C 17.988 6.354 17.792 6.275 17.651 6.142 L 17.272 5.763 L 16.513 6.571 C 17.387 7.65 17.905 8.892 18.055 10.27 L 19.136 10.27 Z M 7.038 7.038 C 6.019 8.058 5.397 9.446 5.397 11 C 5.397 12.554 6.019 13.942 7.038 14.962 C 8.058 15.981 9.446 16.603 11 16.603 C 12.493 16.603 13.909 16.019 14.962 14.962 C 16.02 13.909 16.603 12.493 16.603 11 C 16.603 9.446 15.981 8.058 14.962 7.038 C 13.942 6.019 12.554 5.397 11 5.397 C 9.446 5.397 8.058 6.019 7.038 7.038 Z M 7.954 9.793 C 8.28 9.793 8.594 9.933 8.807 10.146 C 9.02 10.359 9.161 10.674 9.161 11 C 9.161 11.326 9.02 11.641 8.807 11.854 C 8.594 12.067 8.28 12.208 7.954 12.208 C 7.628 12.208 7.313 12.067 7.1 11.854 C 6.887 11.641 6.747 11.326 6.747 11 C 6.747 10.674 6.887 10.359 7.1 10.146 C 7.313 9.933 7.628 9.792 7.954 9.792 Z M 11.238 12.184 C 11.685 12.184 12.109 12.373 12.402 12.665 C 12.694 12.958 12.884 13.382 12.884 13.829 C 12.884 14.276 12.694 14.7 12.402 14.993 C 12.109 15.285 11.685 15.475 11.238 15.475 C 10.791 15.475 10.367 15.285 10.074 14.993 C 9.782 14.7 9.593 14.276 9.593 13.829 C 9.593 13.382 9.782 12.958 10.074 12.665 C 10.367 12.373 10.791 12.184 11.238 12.184 Z M 10.755 7.917 C 11.159 7.259 11.912 6.861 12.683 6.897 C 13.237 6.932 13.748 7.181 14.102 7.555 C 14.456 7.93 14.681 8.454 14.681 9.008 C 14.681 9.563 14.456 10.087 14.102 10.462 C 13.748 10.836 13.237 11.085 12.683 11.119 C 11.912 11.156 11.159 10.757 10.754 10.099 C 10.362 9.434 10.363 8.583 10.755 7.917 Z M 11.81 9.166 C 11.841 9.336 11.913 9.485 12.041 9.612 C 12.165 9.742 12.312 9.817 12.481 9.852 C 12.65 9.886 12.815 9.875 12.98 9.804 C 13.147 9.738 13.272 9.63 13.368 9.486 C 13.463 9.342 13.515 9.185 13.511 9.006 C 13.517 8.766 13.426 8.566 13.27 8.407 C 13.113 8.248 12.916 8.153 12.677 8.153 C 12.497 8.147 12.338 8.195 12.192 8.288 C 12.047 8.38 11.936 8.503 11.866 8.668 C 11.793 8.832 11.778 8.996 11.81 9.166 Z"></path>
</svg>