<svg width="16" height="16" viewBox="0 0 16 16">
  <defs>
    <clipPath id="a">
      <path d="M0 0h16v16H0z"/>
    </clipPath>
  </defs>
  <g clip-path="url(#a)">
    <path fill-rule="evenodd" d="M15.19 6.4h-1.848c-.11-.37-.27-.71-.45-1.04L14.252 4a.805.805 0 0 0 0-1.13l-1.13-1.13a.802.802 0 0 0-1.13 0L10.633 3.1c-.33-.17-.67-.33-1.039-.44V.8c0-.44-.36-.8-.8-.8H7.195c-.44 0-.799.36-.799.8v1.86c-.39.12-.75.28-1.1.47l-1.299-1.3c-.3-.3-.789-.3-1.089 0l-1.08 1.09a.774.774 0 0 0 0 1.09l1.3 1.3c-.2.34-.36.7-.48 1.09H.8c-.44 0-.8.36-.8.8v1.6c0 .44.36.8.8.8h1.848c.11.37.27.71.45 1.04L1.738 12a.805.805 0 0 0 0 1.13l1.13 1.13c.31.31.82.31 1.13 0l1.359-1.36c.33.18.67.33 1.039.44v1.86c0 .44.36.8.8.8h1.598c.44 0 .8-.36.8-.8v-1.86c.39-.12.75-.28 1.1-.47l1.298 1.3c.3.3.79.3 1.09 0l1.09-1.09a.774.774 0 0 0 0-1.09l-1.3-1.3c.19-.35.36-.71.48-1.1H15.2c.44 0 .8-.36.8-.8v-1.6a.816.816 0 0 0-.81-.79ZM7.995 11a2.995 2.995 0 0 1-2.998-3c0-1.66 1.339-3 2.998-3a2.995 2.995 0 0 1 2.998 3c0 1.66-1.339 3-2.998 3Z"/>
  </g>
</svg>
