<svg width="25" height="24" viewBox="0 0 25 24" fill="none" xmlns="http://www.w3.org/2000/svg">
<g id="Icon" clip-path="url(#clip0_6136_220475)">
<path id="Vector" fill-rule="evenodd" clip-rule="evenodd" d="M0.5 6.4C0.5 5.09478 1.54955 4 2.875 4H8.375C9.70045 4 10.75 5.09478 10.75 6.4V12.742C10.75 13.3273 10.6194 13.8982 10.3589 14.4288L8.40811 18.4012C7.93773 19.3765 6.94161 20 5.85875 20C3.71993 20 2.37531 17.7315 3.31203 15.8414L3.3131 15.8392L4.01986 14.4H2.875C1.54955 14.4 0.5 13.3052 0.5 12V6.4ZM2.875 6C2.68794 6 2.5 6.16522 2.5 6.4V12C2.5 12.2348 2.68794 12.4 2.875 12.4H6.42757C6.7977 12.4 7.03952 12.7882 6.87638 13.1204L5.10636 16.7248L5.1044 16.7288C4.80571 17.3302 5.24838 18 5.85875 18C6.17677 18 6.4718 17.8133 6.60728 17.5312L6.6111 17.5232L8.56364 13.5472C8.6881 13.2938 8.75 13.0247 8.75 12.742V6.4C8.75 6.16522 8.56206 6 8.375 6H2.875ZM14.25 6.4C14.25 5.09478 15.2996 4 16.625 4H22.125C23.4504 4 24.5 5.09478 24.5 6.4V12.742C24.5 13.3273 24.3694 13.8982 24.1089 14.4288L22.1582 18.4011C21.6878 19.3765 20.6916 20 19.6087 20C17.47 20 16.1254 17.7316 17.062 15.8415L17.0631 15.8392L17.7699 14.4H16.625C15.2996 14.4 14.25 13.3052 14.25 12V6.4ZM16.625 6C16.4379 6 16.25 6.16522 16.25 6.4V12C16.25 12.2348 16.4379 12.4 16.625 12.4H20.1776C20.5477 12.4 20.7895 12.7882 20.6264 13.1204L18.8564 16.7248L18.8544 16.7288C18.5557 17.3302 18.9984 18 19.6087 18C19.9268 18 20.2218 17.8133 20.3573 17.5312L20.3611 17.5232L22.3136 13.5472C22.4381 13.2938 22.5 13.0247 22.5 12.742V6.4C22.5 6.16522 22.3121 6 22.125 6H16.625Z" fill="#0073FF"/>
</g>
<defs>
<clipPath id="clip0_6136_220475">
<rect width="24" height="24" fill="white" transform="translate(0.5)"/>
</clipPath>
</defs>
</svg>
