<svg width="24" height="24" viewBox="0 0 24 24" xmlns="http://www.w3.org/2000/svg">
  <path fill-rule="evenodd" d="M10.667 3.75c-2.942 0-5.408 2.128-6 4.956C2.042 9.044 0 11.306 0 14.069c0 2.995 2.393 5.43 5.333 5.43h.8a.797.797 0 0 0 .703-.403.828.828 0 0 0 0-.821.797.797 0 0 0-.703-.404h-.8c-2.082 0-3.733-1.682-3.733-3.802s1.651-3.802 3.733-3.802a.806.806 0 0 0 .8-.738c.229-2.328 2.176-4.15 4.534-4.15 1.286 0 2.319.496 3.158 1.375a.79.79 0 0 0 .858.195c.343-.132.872-.212 1.317-.212a3.503 3.503 0 0 1 3.475 3.08.812.812 0 0 0 .517.67c1.42.531 2.408 1.92 2.408 3.582 0 2.12-1.651 3.802-3.733 3.802h-.8a.797.797 0 0 0-.703.404.827.827 0 0 0 0 .821.797.797 0 0 0 .703.404h.8c2.94 0 5.333-2.436 5.333-5.431a5.408 5.408 0 0 0-3.033-4.88c-.488-2.342-2.54-4.081-4.967-4.081-.46 0-.936.074-1.4.195-1.057-.95-2.397-1.553-3.933-1.553Zm1.338 13.03a.793.793 0 0 0 .566-.248.823.823 0 0 0 .226-.584v-4.344l.467.543a.793.793 0 0 0 1.362-.25.826.826 0 0 0-.162-.828l-1.867-2.172a.794.794 0 0 0-1.2 0L9.53 11.069a.826.826 0 0 0-.166.803.792.792 0 0 0 1.366.275l.467-.543v4.345a.823.823 0 0 0 .231.59c.152.156.36.243.577.241Zm-3.213-.556a.793.793 0 0 0-.567.248.823.823 0 0 0-.225.584v1.63c0 .45.358.814.8.814h6.4c.442 0 .8-.365.8-.815v-1.629a.818.818 0 0 0-.397-.715.788.788 0 0 0-.806 0 .818.818 0 0 0-.397.715v.815H9.6v-.815a.823.823 0 0 0-.231-.59.793.793 0 0 0-.577-.242Z"/>
</svg>
