<svg xmlns="http://www.w3.org/2000/svg" width="16" height="16" viewBox="0 0 16 16">
  <defs>
    <clipPath id="a">
      <path d="M0 0h16v16H0z"/>
    </clipPath>
  </defs>
  <g clip-path="url(#a)">
    <path fill-rule="evenodd" d="M13.6 2.337a.707.707 0 0 0-.472-.17h-.961v5.666h.961a.707.707 0 0 0 .705-.567V2.734a.707.707 0 0 0-.232-.397ZM10.5 8.49V2.167H3.804a.5.5 0 0 0-.5.425v.001l-.92 5.999a.502.502 0 0 0 .5.575h3.783c.46 0 .833.373.833.833v2.667a1.167 1.167 0 0 0 .674 1.057L10.5 8.49Zm1.375 1.01-2.447 5.505a.833.833 0 0 1-.761.495 2.833 2.833 0 0 1-2.834-2.833v-1.834H2.897a2.167 2.167 0 0 1-2.16-2.491l.92-6s-.001 0 0 0A2.169 2.169 0 0 1 3.816.5h9.29a2.374 2.374 0 0 1 2.386 2.055.835.835 0 0 1 .007.112v4.666a.835.835 0 0 1-.008.112A2.374 2.374 0 0 1 13.107 9.5h-1.232Z"/>
  </g>
</svg>
