<svg width="16" height="16" viewBox="0 0 16 16">
  <path fill-rule="evenodd" d="M5.571 1.143a2.142 2.142 0 0 1 .807 4.128l.008.012v3.595l.177-.064c.39-.129.838-.2 1.538-.271l.744-.073c1.008-.113 1.43-.248 1.696-.579.154-.19.242-.486.256-.887A2.155 2.155 0 0 1 9.43 5a2.142 2.142 0 1 1 4.285 0 2.15 2.15 0 0 1-1.457 2.033l.161-.063.01.02c-.012.701-.173 1.282-.49 1.752l-.126.17c-.665.826-1.473 1.059-3.284 1.226l-.667.07c-.515.063-.797.131-1.041.255a.786.786 0 0 0-.318.27l-.028.039a2.142 2.142 0 1 1-3.046 1.943c0-.96.63-1.771 1.5-2.047l-.13.046-.04-.093V5.283l.004-.013a2.141 2.141 0 0 1 .81-4.127Z"/>
</svg>
