<svg width="16" height="16" viewBox="0 0 16 16" xmlns="http://www.w3.org/2000/svg">
  <path fill-rule="evenodd" clip-rule="evenodd" d="M2.75 11.5C1.7875 11.5 1 12.2875 1 13.25C1 14.2125 1.7875 15 2.75 15C3.7125 15 4.5 14.2125 4.5 13.25C4.5 12.2875 3.7125 11.5 2.75 11.5ZM2.75 6.25C1.7875 6.25 1 7.0375 1 8C1 8.9625 1.7875 9.75 2.75 9.75C3.7125 9.75 4.5 8.9625 4.5 8C4.5 7.0375 3.7125 6.25 2.75 6.25ZM2.75 1C1.7875 1 1 1.7875 1 2.75C1 3.7125 1.7875 4.5 2.75 4.5C3.7125 4.5 4.5 3.7125 4.5 2.75C4.5 1.7875 3.7125 1 2.75 1ZM13.25 4.5C14.2125 4.5 15 3.7125 15 2.75C15 1.7875 14.2125 1 13.25 1C12.2875 1 11.5 1.7875 11.5 2.75C11.5 3.7125 12.2875 4.5 13.25 4.5ZM13.25 6.25C12.2875 6.25 11.5 7.0375 11.5 8C11.5 8.9625 12.2875 9.75 13.25 9.75C14.2125 9.75 15 8.9625 15 8C15 7.0375 14.2125 6.25 13.25 6.25ZM8 1C7.0375 1 6.25 1.7875 6.25 2.75C6.25 3.7125 7.0375 4.5 8 4.5C8.9625 4.5 9.75 3.7125 9.75 2.75C9.75 1.7875 8.9625 1 8 1ZM13.25 11.5C12.2875 11.5 11.5 12.2875 11.5 13.25C11.5 14.2125 12.2875 15 13.25 15C14.2125 15 15 14.2125 15 13.25C15 12.2875 14.2125 11.5 13.25 11.5ZM8 6.25C7.0375 6.25 6.25 7.0375 6.25 8C6.25 8.9625 7.0375 9.75 8 9.75C8.9625 9.75 9.75 8.9625 9.75 8C9.75 7.0375 8.9625 6.25 8 6.25ZM8 11.5C7.0375 11.5 6.25 12.2875 6.25 13.25C6.25 14.2125 7.0375 15 8 15C8.9625 15 9.75 14.2125 9.75 13.25C9.75 12.2875 8.9625 11.5 8 11.5Z"/>
</svg>
