<svg width="16" height="16" viewBox="0 0 16 16">
  <defs>
    <clipPath id="a">
      <path d="M0 0h16v16H0z"/>
    </clipPath>
  </defs>
  <g clip-path="url(#a)">
    <path fill-rule="evenodd" d="M10.633 1.6v.525h3.756a1.058 1.058 0 1 1 0 2.115h-.503l-.856 10.293A1.6 1.6 0 0 1 11.436 16H4.36a1.6 1.6 0 0 1-1.595-1.467L1.91 4.24h-.315a1.058 1.058 0 0 1 0-2.115h3.53V1.6a1.6 1.6 0 0 1 1.6-1.6h2.308a1.6 1.6 0 0 1 1.6 1.6Zm-1.44-.32H6.585v.826h2.608V1.28ZM5.037 13.434a.574.574 0 0 0 1.147-.062l-.39-7.183a.574.574 0 1 0-1.146.062l.39 7.183Zm2.71.514a.573.573 0 0 0 .574-.574V6.211a.573.573 0 1 0-1.147 0v7.163c0 .317.257.574.574.574Zm2.11.01a.574.574 0 0 0 .6-.543l.39-7.182A.574.574 0 1 0 9.7 6.17l-.389 7.183a.574.574 0 0 0 .545.604Z"/>
  </g>
</svg>
