<svg width="22" height="22" viewBox="0 0 22 22" xmlns="http://www.w3.org/2000/svg">
    <path
        d="M17.322 1.41998H5.3775C4.63822 1.41998 3.92929 1.71359 3.40644 2.23642C2.88378 2.75908 2.59 3.4682 2.59 4.20749V17.7991V17.8549V17.9107C2.59466 17.9482 2.60205 17.9855 2.61236 18.0221C2.66816 18.7182 2.98335 19.368 3.4953 19.843C4.00745 20.3179 4.67905 20.5833 5.37747 20.5866H17.3219C17.8763 20.5866 18.4081 20.3663 18.8003 19.9743C19.1923 19.5823 19.4126 19.0505 19.4126 18.496V3.51064C19.4126 2.95607 19.1923 2.42431 18.8003 2.03231C18.4081 1.64032 17.8763 1.41998 17.322 1.41998ZM18.0189 3.51061V15.1236H7.55176V2.81374H17.322C17.5067 2.81374 17.684 2.88704 17.8147 3.0179C17.9453 3.14857 18.0189 3.3257 18.0189 3.51061ZM5.3775 2.81374H6.15801V15.1236H5.3775C4.88673 15.1263 4.40551 15.2601 3.98375 15.5109V4.20755C3.98375 3.83792 4.13055 3.48345 4.39207 3.22192C4.6534 2.96059 5.00786 2.81374 5.3775 2.81374ZM17.322 19.1928H5.3775C5.01215 19.2096 4.65574 19.076 4.39112 18.8234C4.12668 18.5706 3.97716 18.2206 3.97716 17.8549C3.97716 17.4889 4.12668 17.1391 4.39112 16.8864C4.65576 16.6336 5.01219 16.5002 5.3775 16.5169H18.0189V18.4962C18.0189 18.8812 17.7068 19.1928 17.322 19.1928ZM9.98784 5.70677C9.98784 5.32178 10.2997 5.00989 10.6847 5.00989H14.8854C15.2704 5.00989 15.5823 5.32178 15.5823 5.70677C15.5823 6.09157 15.2704 6.40365 14.8854 6.40365H10.6847C10.2997 6.40365 9.98784 6.09157 9.98784 5.70677Z" />
</svg>