<svg width="16" height="16" viewBox="0 0 16 16" xmlns="http://www.w3.org/2000/svg">
  <path
    d="M4.378 3.799a.516.516 0 1 0 0 1.033h3.099a.516.516 0 1 0 0-1.033H4.378Zm-.516 2.324c0-.285.23-.517.516-.517H8.51a.516.516 0 1 1 0 1.033H4.378a.516.516 0 0 1-.516-.516Zm.516 1.291a.516.516 0 1 0 0 1.033h2.066a.516.516 0 0 0 0-1.033H4.378Z" />
  <path fill-rule="evenodd"
    d="M9.843 2.508a5.187 5.187 0 0 1 .501 6.753.734.734 0 0 1 .079.07l4.36 4.36a.773.773 0 1 1-1.093 1.094l-4.36-4.361a.78.78 0 0 1-.07-.08 5.187 5.187 0 1 1 .583-7.836Zm-1.144 6.19a3.602 3.602 0 1 0-5.095-5.095A3.602 3.602 0 0 0 8.7 8.698Z" />
</svg>