<svg width="16" height="16" viewBox="0 0 16 16">
  <path d="M8.377 15.53a.571.571 0 0 1-.813 0L1.267 9.14a.571.571 0 0 1 .006-.809l.732-.722a.571.571 0 0 1 .808.006l4.757 4.826a.571.571 0 0 0 .812.001l4.793-4.83a.572.572 0 0 1 .808-.004l.73.724a.571.571 0 0 1 .004.809l-6.34 6.39Z"/>
  <path d="M8.377 8.405a.571.571 0 0 1-.813 0l-6.297-6.39a.571.571 0 0 1 .006-.809l.732-.722a.571.571 0 0 1 .808.006L7.57 5.316a.571.571 0 0 0 .812.001l4.793-4.83a.572.572 0 0 1 .808-.004l.73.724a.571.571 0 0 1 .004.809l-6.34 6.39Z"/>
</svg>
