<svg width="24" height="24" viewBox="0 0 24 24" xmlns="http://www.w3.org/2000/svg">
  <path d="M16.925 1.639a.746.746 0 0 1 .8.687c.172 2.302.008 3.88-.252 4.966-.245 1.02-.57 1.583-.727 1.855a8.14 8.14 0 0 0-.035.061c-.185.327-.695.971-1.428 1.634-.428.386-.95.795-1.551 1.16.602.366 1.123.774 1.55 1.161.734.662 1.244 1.307 1.43 1.634l.034.06c.157.272.482.836.727 1.856.26 1.086.424 2.663.251 4.965h.002a.746.746 0 0 1-.801.688l-.035-.002a.746.746 0 0 1-.688-.797h-.001c.069-.917.08-1.698.055-2.363h-5.717a.764.764 0 0 1 0-1.527h5.57a8.571 8.571 0 0 0-.122-.608 5.195 5.195 0 0 0-.443-1.23h-3.146a.764.764 0 0 1 0-1.528h1.877l-.016-.014c-.59-.534-1.361-1.092-2.26-1.473-.897.38-1.668.938-2.258 1.472-.66.597-1.046 1.116-1.124 1.253-.01.02-.022.04-.035.062-.135.233-.376.649-.57 1.457-.216.901-.377 2.317-.213 4.499a.747.747 0 0 1-.688.795l-.034.003a.746.746 0 0 1-.802-.686c-.173-2.303-.008-3.88.252-4.967.245-1.02.57-1.583.727-1.855l.035-.06c.185-.328.695-.972 1.428-1.634a10.34 10.34 0 0 1 1.55-1.16 10.34 10.34 0 0 1-1.55-1.16c-.733-.663-1.243-1.307-1.428-1.634l-.035-.061c-.157-.272-.482-.835-.727-1.855-.26-1.087-.424-2.664-.251-4.967a.746.746 0 0 1 .8-.686l.035.002a.746.746 0 0 1 .687.796c-.068.901-.08 1.672-.055 2.33h5.718a.764.764 0 0 1 0 1.527H7.885c.039.238.082.451.127.642.137.57.297.944.426 1.197h3.164a.764.764 0 0 1 0 1.527H9.688l.053.048c.59.533 1.36 1.09 2.258 1.472.899-.381 1.67-.939 2.26-1.473.66-.596 1.046-1.116 1.124-1.253l.035-.061c.135-.234.376-.65.57-1.458.215-.901.377-2.316.213-4.499h.001a.746.746 0 0 1 .688-.796l.035-.002Z"/>
</svg>
