<svg width="16" height="16" viewBox="0 0 16 16" xmlns="http://www.w3.org/2000/svg">
  <path d="M10.6667 13.3333C11.403 13.3333 12 13.9303 12 14.6667C12 15.403 11.403 16 10.6667 16C9.93029 16 9.33333 15.403 9.33333 14.6667C9.33333 13.9303 9.93029 13.3333 10.6667 13.3333Z"/>
  <path d="M5.33333 12C6.06971 12 6.66667 12.597 6.66667 13.3333C6.66667 14.0697 6.06971 14.6667 5.33333 14.6667C4.59695 14.6667 4 14.0697 4 13.3333C4 12.597 4.59695 12 5.33333 12Z"/>
  <path d="M14.6667 8C15.403 8 16 8.59695 16 9.33333C16 10.0697 15.403 10.6667 14.6667 10.6667C14.6667 11.2456 14.2969 11.7364 13.7813 11.9206C14.1154 12.1629 14.3333 12.5557 14.3333 13C14.3333 13.7364 13.7364 14.3333 13 14.3333C12.2636 14.3333 11.6667 13.7364 11.6667 13C11.6667 12.4213 12.0355 11.9292 12.5508 11.7448C12.2174 11.5024 12 11.1103 12 10.6667C12 11.403 11.403 12 10.6667 12C10.6667 12.7364 10.0697 13.3333 9.33333 13.3333C8.59695 13.3333 8 12.7364 8 12C8 11.2636 8.59695 10.6667 9.33333 10.6667C9.33333 9.93029 9.93029 9.33333 10.6667 9.33333C10.6667 8.59695 11.2636 8 12 8C12.7364 8 13.3333 8.59695 13.3333 9.33333C13.3333 8.59695 13.9303 8 14.6667 8Z"/>
  <path d="M4 9.33333C4.73638 9.33333 5.33333 9.93029 5.33333 10.6667C5.33333 11.403 4.73638 12 4 12C4 12.7364 3.40305 13.3333 2.66667 13.3333C1.93029 13.3333 1.33333 12.7364 1.33333 12C1.33333 11.2636 1.93029 10.6667 2.66667 10.6667C2.66667 9.93029 3.26362 9.33333 4 9.33333Z"/>
  <path d="M6.66667 8C7.40305 8 8 8.59695 8 9.33333C8 9.57666 7.93286 9.80363 7.81901 10C7.93286 10.1964 8 10.4233 8 10.6667C8 11.403 7.40305 12 6.66667 12C5.93029 12 5.33333 11.403 5.33333 10.6667C5.33333 10.4236 5.39937 10.1962 5.51302 10C5.39937 9.80376 5.33333 9.57643 5.33333 9.33333C5.33333 8.59695 5.93029 8 6.66667 8Z"/>
  <path d="M2.33333 5.66667C3.06971 5.66667 3.66667 6.26362 3.66667 7C3.66667 7.63374 3.22416 8.16261 2.63151 8.29818C2.49595 8.89082 1.96708 9.33333 1.33333 9.33333C0.596954 9.33333 0 8.73638 0 8C0 7.3666 0.441689 6.83644 1.03385 6.70052C1.16977 6.10836 1.69993 5.66667 2.33333 5.66667Z"/>
  <path d="M12 5.33333C12.7364 5.33333 13.3333 5.93029 13.3333 6.66667C13.3333 7.40305 12.7364 8 12 8C11.7567 8 11.5297 7.93286 11.3333 7.81901C11.137 7.93286 10.91 8 10.6667 8C10.6667 8.73638 10.0697 9.33333 9.33333 9.33333C8.59695 9.33333 8 8.73638 8 8C7.26362 8 6.66667 7.40305 6.66667 6.66667C6.66667 5.93029 7.26362 5.33333 8 5.33333C8.73421 5.33333 9.32983 5.92677 9.33333 6.66016C9.33684 5.92677 9.93246 5.33333 10.6667 5.33333C10.9098 5.33333 11.1371 5.39937 11.3333 5.51302C11.5296 5.39937 11.7569 5.33333 12 5.33333Z"/>
  <path d="M4 0C4.73638 0 5.33333 0.596954 5.33333 1.33333C6.06971 1.33333 6.66667 1.93029 6.66667 2.66667C7.40305 2.66667 8 3.26362 8 4C8 4.73638 7.40305 5.33333 6.66667 5.33333C6.66667 6.06971 6.06971 6.66667 5.33333 6.66667C4.59695 6.66667 4 6.06971 4 5.33333C4 4.59695 4.59695 4 5.33333 4C4.59695 4 4 3.40305 4 2.66667C3.26362 2.66667 2.66667 2.06971 2.66667 1.33333C2.66667 0.596954 3.26362 0 4 0Z"/>
  <path d="M10.6667 1.33333C11.403 1.33333 12 1.93029 12 2.66667C12 3.40305 11.403 4 10.6667 4C10.6667 4.73638 10.0697 5.33333 9.33333 5.33333C8.59695 5.33333 8 4.73638 8 4C8 3.75691 8.06604 3.52958 8.17969 3.33333C8.06604 3.13709 8 2.90976 8 2.66667C8 1.93029 8.59695 1.33333 9.33333 1.33333C9.57643 1.33333 9.80376 1.39937 10 1.51302C10.1962 1.39937 10.4236 1.33333 10.6667 1.33333Z"/>
  <path d="M13.3333 2.66667C14.0697 2.66667 14.6667 3.26362 14.6667 4C14.6667 4.73638 14.0697 5.33333 13.3333 5.33333C12.597 5.33333 12 4.73638 12 4C12 3.26362 12.597 2.66667 13.3333 2.66667Z"/>
</svg>
