<svg width="14" height="14" viewBox="0 0 14 14" xmlns="http://www.w3.org/2000/svg">
    <path
        d="M7.34412 6.65197C7.14808 6.45438 6.82843 6.45491 6.63305 6.65315L1.12268 12.2443C0.928838 12.4409 0.931141 12.7575 1.12782 12.9514L1.76883 13.5831C1.9655 13.7769 2.28208 13.7746 2.47591 13.578L6.63753 9.35536C6.83291 9.15712 7.15256 9.15659 7.3486 9.35418L11.5425 13.5814C11.737 13.7774 12.0535 13.7787 12.2496 13.5842L12.8885 12.9503C13.0845 12.7558 13.0858 12.4392 12.8913 12.2432L7.34412 6.65197Z"
    />
    <path
        d="M6.63305 0.418772C6.82843 0.220531 7.14808 0.220002 7.34411 0.417594L12.8913 6.00882C13.0858 6.20485 13.0845 6.52143 12.8885 6.71592L12.2496 7.3498C12.0535 7.54429 11.737 7.54303 11.5425 7.347L7.3486 3.11981C7.15256 2.92222 6.83291 2.92275 6.63753 3.12099L2.47591 7.34359C2.28208 7.54027 1.9655 7.54257 1.76883 7.34873L1.12782 6.71698C0.931141 6.52315 0.928838 6.20657 1.12267 6.00989L6.63305 0.418772Z"
    />
</svg>