<svg width="24" height="24" viewBox="0 0 24 24">
  <path fill-rule="evenodd" d="M18.784 17.275c.85 0 1.517.663 1.517 1.51 0 .854-.667 1.524-1.517 1.524a1.53 1.53 0 0 1-1.531-1.525c0-.846.673-1.509 1.531-1.509ZM5.232 13.527c-.85 0-1.517-.67-1.517-1.524 0-.847.667-1.51 1.517-1.51.859 0 1.532.663 1.532 1.51a1.53 1.53 0 0 1-1.532 1.524ZM18.784 3.69c.85 0 1.517.67 1.517 1.525 0 .846-.667 1.509-1.517 1.509-.858 0-1.531-.663-1.531-1.51 0-.84.686-1.524 1.531-1.524Zm0 6.803c.85 0 1.517.663 1.517 1.51 0 .854-.667 1.524-1.517 1.524a1.529 1.529 0 0 1-1.531-1.524c0-.847.673-1.51 1.531-1.51ZM15.84 12.84c.345 1.323 1.608 2.345 2.944 2.345 1.636 0 3.078-1.547 3.078-3.182 0-1.636-1.442-3.189-3.078-3.189-1.343 0-2.605 1.036-2.944 2.368h-2.978V6.109h3c.365 1.286 1.617 2.182 2.922 2.182 1.636 0 3.078-1.44 3.078-3.076 0-1.635-1.442-3.077-3.078-3.077-1.353 0-2.64.967-2.955 2.313h-3.805c-.192 0-.486.117-.622.25-.14.135-.218.385-.22.59v5.89H8.17C7.832 9.85 6.574 8.815 5.23 8.815c-1.642 0-3.093 1.55-3.093 3.189 0 1.595 1.492 3.182 3.094 3.182 1.337 0 2.595-1.022 2.939-2.345h3.01v5.892c.007.393.449.817.842.817h3.806c.316 1.343 1.604 2.313 2.955 2.313 1.636 0 3.078-1.443 3.078-3.078 0-1.635-1.442-3.075-3.078-3.075-1.305 0-2.557.895-2.922 2.182h-3V12.84h2.978Z"/>
</svg>
