<svg width="16" height="16" viewBox="0 0 16 16" xmlns="http://www.w3.org/2000/svg">
  <path fill-rule="evenodd" d="M13.162 1.143c1.121 0 2 .874 2 1.99 0 1.127-.879 2.01-2 2.01A2.022 2.022 0 0 1 11.341 4H8.286v3.143h3.042A2 2 0 0 1 13.162 6c1.121 0 2 .874 2 1.99 0 1.127-.879 2.01-2 2.01a2.022 2.022 0 0 1-1.821-1.142H8.286V12h3.042a2 2 0 0 1 1.834-1.143c1.121 0 2 .875 2 1.99 0 1.127-.879 2.01-2 2.01a2.022 2.022 0 0 1-1.821-1.142H7.429a.857.857 0 0 1-.85-.742l-.008-.116v-4l-2.17.001c-.317.681-1 1.142-1.81 1.142A2.016 2.016 0 0 1 .57 7.99C.571 6.875 1.46 6 2.591 6c.815 0 1.502.462 1.816 1.143H6.57v-4c0-.434.323-.793.741-.85l.117-.007h3.9a2 2 0 0 1 1.833-1.143Z"/>
</svg>
