<svg width="24" height="24" viewBox="0 0 24 24">
  <path fill-rule="evenodd" d="m18.098 6.612.037-1.674a.936.936 0 1 1 1.872.044l-.11 4.49a1.09 1.09 0 0 1-1.296 1.045l-4.388-.84a.968.968 0 0 1 .358-1.903l2.174.401a6.39 6.39 0 0 0-1.572-1.814 5.754 5.754 0 0 0-3.792-1.246c-1.357.056-2.657.602-3.694 1.551-.798.732-1.375 1.684-1.723 2.74-.171.52-.69.869-1.224.75-.51-.114-.844-.614-.698-1.117.445-1.535 1.254-2.919 2.398-3.967 1.366-1.251 3.08-1.97 4.869-2.044 1.788-.073 3.548.505 4.997 1.641a8.36 8.36 0 0 1 1.792 1.943ZM7.26 15.822a6.39 6.39 0 0 0 1.572 1.815c1.1.862 2.435 1.3 3.792 1.245 1.357-.056 2.657-.602 3.694-1.551.799-.732 1.375-1.684 1.723-2.74.171-.52.69-.869 1.224-.75.51.114.844.615.698 1.117-.445 1.535-1.254 2.92-2.397 3.967-1.366 1.251-3.08 1.971-4.87 2.044-1.788.073-3.548-.505-4.997-1.641a8.362 8.362 0 0 1-1.792-1.943l-.037 1.674a.936.936 0 1 1-1.872-.044l.11-4.49a1.09 1.09 0 0 1 1.296-1.045l4.388.841a.968.968 0 0 1-.358 1.902l-2.174-.4Z"/>
</svg>
