<svg width="22" height="22" viewBox="0 0 22 22" xmlns="http://www.w3.org/2000/svg">
    <path fill-rule="evenodd" clip-rule="evenodd" d="M11.1883 13.4734C11.1883 14.4635 10.3857 15.2662 9.39555 15.2662C8.40543 15.2662 7.60278 14.4635 7.60278 13.4734C7.60278 12.4833 8.40543 11.6806 9.39555 11.6806C10.3857 11.6806 11.1883 12.4833 11.1883 13.4734ZM9.39555 14.1662C9.77816 14.1662 10.0883 13.856 10.0883 13.4734C10.0883 13.0908 9.77816 12.7806 9.39555 12.7806C9.01295 12.7806 8.70278 13.0908 8.70278 13.4734C8.70278 13.856 9.01295 14.1662 9.39555 14.1662Z" />
    <path d="M13.0605 7.3316C13.5786 7.3316 13.9986 6.91161 13.9986 6.39351C13.9986 5.87542 13.5786 5.45542 13.0605 5.45542C12.5424 5.45542 12.1224 5.87542 12.1224 6.39351C12.1224 6.91161 12.5424 7.3316 13.0605 7.3316Z" />
    <path d="M11.7197 11.1284C11.5174 10.8036 11.6167 10.3764 11.9414 10.1741L12.8882 9.58425C13.2129 9.38194 13.6402 9.48119 13.8425 9.80594C14.0448 10.1307 13.9456 10.5579 13.6208 10.7603L12.674 11.3501C12.3493 11.5524 11.922 11.4531 11.7197 11.1284Z" />
    <path d="M9.31182 8.53432C9.37484 8.9117 9.73185 9.16655 10.1092 9.10353C10.4866 9.04051 10.7415 8.68349 10.6784 8.30611L10.4501 6.9389C10.3871 6.56152 10.0301 6.30668 9.65272 6.3697C9.27534 6.43271 9.0205 6.78973 9.08352 7.16711L9.31182 8.53432Z" />
    <path fill-rule="evenodd" clip-rule="evenodd" d="M13.9317 2.23249C13.1173 1.93163 12.2757 1.84776 11.4704 1.95166L10.9439 0.80818C10.7839 0.460647 10.3724 0.308645 10.0249 0.468674C9.67735 0.628703 9.52535 1.04016 9.68537 1.3877L10.1138 2.31816C9.9366 2.39287 9.76355 2.47734 9.59556 2.57116L9.01366 1.87867C8.76752 1.58575 8.33052 1.54783 8.0376 1.79397C7.74468 2.04012 7.70676 2.47711 7.9529 2.77003L8.4849 3.40314C8.29821 3.58671 8.12443 3.78548 7.96565 3.99849L7.14259 3.72912C6.77896 3.61012 6.38771 3.80842 6.2687 4.17205C6.1497 4.53568 6.34801 4.92694 6.71164 5.04594L7.28466 5.23347C7.27538 5.25749 7.26627 5.28161 7.25732 5.30585L5.25774 10.7186L4.87739 10.399C4.58445 10.1529 4.14746 10.1908 3.90133 10.4838C3.65521 10.7767 3.69316 11.2137 3.98609 11.4598L4.85583 12.1906C4.80542 12.5854 4.8015 12.9796 4.84086 13.3664L3.90718 13.5246C3.52995 13.5885 3.27595 13.9461 3.33986 14.3234C3.40377 14.7006 3.76139 14.9546 4.13862 14.8907L5.16486 14.7168C5.5749 15.7768 6.32919 16.6991 7.3455 17.3049C7.26671 17.4655 7.17708 17.6324 7.08042 17.8114L7.06671 17.8368C6.90882 18.1292 6.72741 18.4651 6.60231 18.7992C6.4729 19.1448 6.37292 19.5647 6.45765 20.0089C6.54697 20.4771 6.82067 20.8692 7.24261 21.1835C7.69287 21.519 8.16711 21.6337 8.63965 21.5759C9.07383 21.5227 9.45757 21.3284 9.7576 21.1572C9.89748 21.0774 10.0141 21.0064 10.1219 20.9408C10.2839 20.8423 10.4262 20.7557 10.5978 20.6692C10.8516 20.5412 11.0487 20.483 11.2242 20.483C11.7009 20.483 11.9055 20.6425 11.9934 20.7346C12.0456 20.7892 12.0768 20.8424 12.0937 20.8774C12.1009 20.8922 12.105 20.9028 12.1066 20.9074C12.2077 21.2707 12.5801 21.49 12.9487 21.3991C13.324 21.3064 13.5532 20.9271 13.4606 20.5518L12.7865 20.7181C13.4606 20.5518 13.4607 20.5522 13.4606 20.5518L13.4601 20.5499L13.4596 20.548L13.4586 20.5439L13.4561 20.5346L13.4496 20.5115C13.4446 20.4943 13.438 20.4734 13.4296 20.4492C13.4128 20.4011 13.3886 20.3394 13.3545 20.2688C13.2867 20.1283 13.1773 19.9473 13.0061 19.7679C12.647 19.3917 12.0732 19.083 11.2242 19.083C10.7369 19.083 10.3123 19.2453 9.96754 19.4191C9.75656 19.5254 9.51902 19.6688 9.31922 19.7894C9.22286 19.8476 9.13527 19.9004 9.06368 19.9413C8.79363 20.0954 8.61262 20.1687 8.46949 20.1862C8.36471 20.1991 8.24909 20.1876 8.07907 20.0609C7.88073 19.9131 7.84429 19.8065 7.83286 19.7466C7.81684 19.6626 7.82551 19.5249 7.91339 19.2902C8.00195 19.0537 8.13953 18.7966 8.31237 18.4765L8.31927 18.4637C8.41976 18.2776 8.53105 18.0714 8.63477 17.8545C9.96176 18.2208 11.3309 18.0345 12.4754 17.4187L13.1831 18.2627C13.429 18.5558 13.866 18.5942 14.1591 18.3483C14.4523 18.1025 14.4906 17.6655 14.2448 17.3723L13.5999 16.6034C13.966 16.2544 14.2847 15.8483 14.5407 15.3919L15.6671 15.4879C16.0483 15.5204 16.3837 15.2377 16.4162 14.8565C16.4487 14.4752 16.166 14.1399 15.7847 14.1074L15.1053 14.0494L17.005 8.90685C17.0285 8.84338 17.0506 8.77974 17.0714 8.71597L17.6756 8.93916C18.0345 9.07174 18.4329 8.88828 18.5655 8.52938C18.6981 8.17048 18.5146 7.77205 18.1557 7.63946L17.3235 7.33201C17.3377 7.00597 17.3208 6.68203 17.2747 6.36411L18.0806 6.24121C18.4589 6.18353 18.7187 5.83015 18.661 5.45192C18.6034 5.07368 18.25 4.81382 17.8718 4.8715L16.8902 5.02118C16.7498 4.70088 16.5774 4.39478 16.3752 4.10807L17.0588 3.52985C17.3509 3.28275 17.3874 2.84564 17.1403 2.55352C16.8932 2.2614 16.4561 2.2249 16.164 2.47199L15.4315 3.09154C14.9949 2.73263 14.4918 2.4394 13.9317 2.23249ZM13.5721 14.1595L15.6918 8.42171C16.4182 6.45524 15.413 4.2722 13.4465 3.54574C11.4801 2.81929 9.29703 3.82452 8.57057 5.79099L6.45091 11.5288C5.72446 13.4953 6.72969 15.6783 8.69615 16.4048C10.6626 17.1312 12.8457 16.126 13.5721 14.1595Z" />
</svg>
    