<svg width="16" height="16" viewBox="0 0 16 16" xmlns="http://www.w3.org/2000/svg">
  <path d="M8.81296 16C9.95286 16 10.9346 15.7726 11.7581 15.3178C12.5816 14.8676 13.2144 14.2176 13.6564 13.3678C14.103 12.5225 14.3263 11.505 14.3263 10.3152V8.41344C14.3263 7.559 14.1193 2.98823 13.7052 2.48751C13.2958 1.98679 12.7282 1.72495 12.0023 1.70198C11.8907 1.43554 11.7116 1.22653 11.465 1.07494C11.223 0.923343 10.9415 0.847545 10.6205 0.847545C10.4437 0.847545 10.2716 0.872811 10.1041 0.923343C9.9831 0.629343 9.80164 0.401952 9.55971 0.241171C9.32242 0.0803903 9.04326 0 8.72223 0C8.22601 0 7.8079 0.201282 7.51326 0.601313C7.2759 0.48525 7.00425 0.427218 6.69833 0.427218C6.16792 0.427218 5.73523 0.592593 5.40024 0.923342C5.06524 1.2495 4.89775 1.68131 4.89775 2.21878V7.1938C4.89775 7.23974 4.88146 7.2627 4.8489 7.2627C4.83029 7.2627 4.814 7.25122 4.80004 7.22825L4.53484 6.62877C4.39061 6.38989 4.20916 6.20844 3.99048 6.08441C3.77181 5.96038 3.52987 5.89836 3.26467 5.89836C2.81801 5.89836 2.44115 6.03618 2.13407 6.3118C1.827 6.58283 1.67346 6.95033 1.67346 7.4143C1.67346 7.55211 1.68509 7.69681 1.70836 7.84841C1.73627 7.99541 1.77582 8.13781 1.827 8.27563L3.11113 11.7829C3.61827 13.1703 4.35339 14.2199 5.31649 14.932C6.28424 15.644 7.44973 16 8.81296 16ZM8.86181 14.4427C7.85218 14.4427 6.98912 14.1855 6.27261 13.671C5.56075 13.1611 4.98848 12.3526 4.55578 11.2455L3.19488 7.80706C3.16696 7.72897 3.15301 7.65547 3.15301 7.58656C3.15301 7.50388 3.18092 7.43267 3.23675 7.37296C3.29724 7.31324 3.37633 7.28338 3.47404 7.28338C3.61827 7.28338 3.72528 7.36377 3.79507 7.52455L4.86285 9.66753C4.95125 9.85128 5.06059 9.9822 5.19087 10.0603C5.32579 10.1338 5.4677 10.1705 5.61658 10.1705C5.80734 10.1705 5.97251 10.1039 6.11209 9.97071C6.25167 9.8329 6.32146 9.64915 6.32146 9.41947L6.32844 2.13609C6.32844 2.03043 6.35868 1.94545 6.41917 1.88114C6.4843 1.81682 6.56805 1.78467 6.67041 1.78467C6.77277 1.78467 6.85652 1.81682 6.92165 1.88114C6.98679 1.94545 7.01936 2.03043 7.01936 2.13609V7.13178C7.01936 7.29716 7.07984 7.43956 7.20081 7.559C7.32643 7.67844 7.47532 7.73816 7.64747 7.73816C7.81496 7.73816 7.95919 7.67844 8.08016 7.559C8.20578 7.43956 8.2686 7.29716 8.2686 7.13178V1.50904C8.37095 1.47689 8.47331 1.46081 8.57567 1.46081C8.69199 1.46081 8.78504 1.49756 8.85483 1.57106C8.92927 1.63997 8.96649 1.73643 8.96649 1.86047V7.42808C8.96649 7.59805 9.02698 7.74045 9.14795 7.8553C9.26892 7.96555 9.41315 8.02067 9.58064 8.02067C9.74349 8.02067 9.88539 7.96555 10.0064 7.8553C10.1273 7.74045 10.1878 7.59805 10.1878 7.42808V2.35659C10.2902 2.32443 10.3925 2.30835 10.4949 2.30835C10.6112 2.30835 10.7043 2.3451 10.774 2.4186C10.8485 2.48751 10.8857 2.58398 10.8857 2.70801V7.7037C10.8857 7.87367 10.9462 8.01838 11.0672 8.13781C11.1928 8.25266 11.3417 8.31008 11.5138 8.31008C11.6813 8.31008 11.8255 8.25266 11.9465 8.13781C12.0721 8.01838 12.1349 7.87367 12.1349 7.7037V3.27304C12.3676 3.27304 12.5444 3.37181 12.6654 3.56934C12.791 3.76227 12.8538 4.05168 12.8538 4.43755V10.1843C12.8538 11.0847 12.6933 11.8519 12.3722 12.4858C12.0559 13.1197 11.5999 13.6044 11.0044 13.9397C10.4088 14.2751 9.69463 14.4427 8.86181 14.4427Z"/>
</svg>
