<svg xmlns="http://www.w3.org/2000/svg" width="16" height="16" viewBox="0 0 16 16">
  <path fill-rule="evenodd" d="m9.286 1.87.548.147c.337.09.537.437.447.774l-2.787 10.4a.632.632 0 0 1-.774.447l-.548-.146a.632.632 0 0 1-.447-.774l2.787-10.4a.632.632 0 0 1 .774-.447ZM4.568 3.857l.395.398a.632.632 0 0 1-.003.894l-2.631 2.61 2.628 2.59a.632.632 0 0 1 .006.894l-.394.4a.632.632 0 0 1-.893.006L.188 8.211a.632.632 0 0 1-.001-.899l3.487-3.46a.632.632 0 0 1 .894.004Zm6.864 7.787-.395-.399a.632.632 0 0 1 .003-.893l2.631-2.61-2.628-2.59a.632.632 0 0 1-.006-.894l.394-.4a.632.632 0 0 1 .893-.006l3.488 3.437c.25.247.25.65.001.899l-3.487 3.46a.632.632 0 0 1-.894-.004Z"/>
</svg>
