<svg width="24" height="24" viewBox="0 0 24 24" xmlns="http://www.w3.org/2000/svg">
  <path fill-rule="evenodd" d="M6.231 21.75a2.218 2.218 0 0 1-1.122-.327c-.977-.641-1.276-1.97-.672-2.988l1.196-2.022a.694.694 0 0 1 .244-.395l3.204-5.42V6.15c-.852-.198-1.45-.986-1.433-1.885v-.1c0-1.057.833-1.915 1.861-1.915h4.958c1.027 0 1.86.858 1.86 1.916v.099c.018.899-.58 1.687-1.432 1.885v4.447l3.204 5.42c.123.1.21.24.244.396l1.196 2.022c.604 1.018.305 2.347-.672 2.988-.34.208-.727.32-1.122.327H6.23Zm11.514-1.665a.473.473 0 0 0 .344-.142.502.502 0 0 0 .143-.352.48.48 0 0 0-.088-.274l-1.086-1.81H6.918l-1.086 1.81a.48.48 0 0 0-.088.274c0 .132.051.26.143.352a.473.473 0 0 0 .344.142h11.514ZM14.3 3.93H9.675a.232.232 0 0 0-.228.236v.099c0 .13.102.235.228.235h.392a.832.832 0 0 1 .812.837v5.504a.784.784 0 0 1-.118.425L8.066 15.79h7.844l-2.695-4.524a.777.777 0 0 1-.118-.425V5.337a.832.832 0 0 1 .812-.837h.391a.232.232 0 0 0 .23-.235v-.1a.232.232 0 0 0-.23-.235Z"/>
</svg>
