<svg width="24" height="24" viewBox="0 0 24 24">
    <path fill-rule="evenodd"
        fill="#CCCCCC"
        d="M13.94 15.9H9.651v-4.8h2.987a2.683 2.683 0 0 0 2.605 2.025c1.531 0 2.757-1.2 2.757-2.7 0-1.5-1.226-2.7-2.757-2.7a2.683 2.683 0 0 0-2.605 2.025H9.651v-4.8h2.987c.307 1.2 1.379 1.95 2.605 1.95C16.774 6.9 18 5.7 18 4.2c0-1.5-1.226-2.7-2.757-2.7-1.226 0-2.375.9-2.605 2.1h-3.6c-.153 0-.306.075-.46.225-.152.15-.23.3-.23.45V9.75H5.363a2.683 2.683 0 0 0-2.605-2.025c-1.531 0-2.757 1.2-2.757 2.7v.075c.077 1.425 1.302 2.625 2.757 2.625A2.683 2.683 0 0 0 5.362 11.1h2.987v5.475a.68.68 0 0 0 .69.675h4.289a2.75 2.75 0 0 1 .612-1.35Zm1.303-6.825c.766 0 1.378.6 1.378 1.35 0 .75-.612 1.425-1.378 1.425-.766 0-1.38-.6-1.38-1.425-.076-.75.537-1.35 1.38-1.35Zm0-6.225c.766 0 1.378.6 1.378 1.425 0 .75-.612 1.35-1.378 1.35-.766 0-1.38-.6-1.38-1.35-.076-.75.614-1.425 1.38-1.425Zm-12.562 9c-.766 0-1.379-.6-1.379-1.425 0-.75.613-1.35 1.379-1.35s1.455.6 1.455 1.35c0 .75-.69 1.425-1.455 1.425Z" />
    <path fill-rule="evenodd"
        d="M18.823 12.771c-3.437-.299-6.35 2.615-6.052 6.052.224 2.69 2.391 4.932 5.156 5.156 3.437.299 6.35-2.615 6.052-6.052-.224-2.765-2.391-5.006-5.156-5.156Zm.673.747.672.224c.15.075.224.15.374.15.598.299 1.12.672 1.569 1.195 0 0 .075.075.075.15v.299c0 .074-.075.15-.075.224 0 .15.15.224.224.224h.299a.16.16 0 0 1 .15.15c.074.149.149.298.149.373.224.523.299 1.046.373 1.644 0 .075 0 .15-.074.224a1.63 1.63 0 0 0-.3.374c-.149.299-.298.747-.522.97-.15.15-.3.3-.3.45-.074.149 0 .298-.074.373 0 .074-.075.074-.15 0-.223-.299-.298-.598-.373-.897-.075-.224-.075-.448-.15-.747a1.162 1.162 0 0 0-.448-.598c-.224-.15-.523-.074-.747-.15-.299 0-.523-.074-.747-.298-.075-.075-.15-.224-.15-.299-.149-.598.225-1.27.748-1.569.075-.075.15-.075.224-.15.15-.149.224-.298.15-.522 0-.075-.075-.075-.075-.075-.15.075-.3.075-.374.15-.075 0-.15 0-.15-.075 0-.225 0-.449.075-.748s.15-.523 0-.747c0-.075-.074-.075-.15-.075h-.672a.584.584 0 0 0 .3-.298c.074.149.149.074.149.074Zm-2.391.075c.075 0 .075 0 .15.075.074.15.149.224.223.373.15.3.224.673.075.897-.15.299-.523.448-.822.672-.672.3-1.195.822-1.569 1.42l-.075.075c-.074 0-.074 0-.149-.075s-.15-.075-.224-.15c0 0-.075 0-.075.075a.751.751 0 0 0 .374.822c.074 0 .074.075.15.075.074.15 0 .299 0 .448 0 .224.298.3.447.3.225 0 .374-.15.598-.225a1.5 1.5 0 0 1 1.27.15c.224.149.374.298.523.448.15.15.374.224.598.224.075 0 .075 0 .15.075a.581.581 0 0 1-.15.597c-.15.224-.373.3-.523.523-.373.449-.523 1.121-.822 1.644-.075.075-.15.224-.224.3-.075.149-.075.298-.075.522 0 0 0 .075-.074.075-.075 0-.15-.075-.224-.075-.075 0-.075-.075-.075-.15a10.657 10.657 0 0 0-.673-2.017c-.15-.224-.299-.523-.523-.672-.074-.075-.15-.075-.15-.15v-.15a1.875 1.875 0 0 0-.746-1.718c-.075-.074-.225-.149-.225-.224 0-.075-.074-.224-.074-.299l-.3-.299c-.074 0-.074-.074-.074-.149.3-1.569 1.57-2.989 3.288-3.437Z" />
</svg>
  