<svg width="252" height="38" viewBox="0 0 252 38" fill="none" xmlns="http://www.w3.org/2000/svg">
<path d="M5.11 2.74V11H3.29V2.74H0.35V1.228H8.05V2.74H5.11ZM9.44453 0.64H11.2365V5.05H11.3065C11.4652 4.658 11.7079 4.322 12.0345 4.042C12.3705 3.75267 12.8325 3.608 13.4205 3.608C14.1299 3.608 14.7039 3.846 15.1425 4.322C15.5905 4.78867 15.8145 5.46067 15.8145 6.338V11H14.0225V6.59C14.0225 5.54467 13.5699 5.022 12.6645 5.022C12.4779 5.022 12.3005 5.04533 12.1325 5.092C11.9645 5.13867 11.8105 5.21333 11.6705 5.316C11.5399 5.40933 11.4325 5.526 11.3485 5.666C11.2739 5.806 11.2365 5.974 11.2365 6.17V11H9.44453V0.64ZM21.1571 11.168C20.5784 11.168 20.0651 11.0793 19.6171 10.902C19.1691 10.7247 18.7911 10.4727 18.4831 10.146C18.1844 9.81933 17.9557 9.42733 17.7971 8.97C17.6384 8.50333 17.5591 7.98067 17.5591 7.402C17.5591 6.814 17.6384 6.28667 17.7971 5.82C17.9651 5.35333 18.1984 4.95667 18.4971 4.63C18.7957 4.30333 19.1551 4.05133 19.5751 3.874C20.0044 3.69667 20.4851 3.608 21.0171 3.608C21.5397 3.608 22.0111 3.69667 22.4311 3.874C22.8511 4.042 23.2057 4.28467 23.4951 4.602C23.7937 4.91933 24.0224 5.302 24.1811 5.75C24.3397 6.198 24.4191 6.69267 24.4191 7.234V7.822H19.3511V8.004C19.3511 8.52667 19.5144 8.95133 19.8411 9.278C20.1677 9.59533 20.6251 9.754 21.2131 9.754C21.6611 9.754 22.0437 9.66533 22.3611 9.488C22.6877 9.30133 22.9584 9.05867 23.1731 8.76L24.1951 9.782C23.9337 10.1647 23.5511 10.4913 23.0471 10.762C22.5524 11.0327 21.9224 11.168 21.1571 11.168ZM21.0311 4.924C20.5271 4.924 20.1211 5.08267 19.8131 5.4C19.5051 5.71733 19.3511 6.13733 19.3511 6.66V6.758H22.6271V6.632C22.6271 6.10933 22.4824 5.694 22.1931 5.386C21.9131 5.078 21.5257 4.924 21.0311 4.924ZM39.2201 9.726H39.1221C38.9261 10.1647 38.6555 10.5147 38.3101 10.776C37.9741 11.0373 37.5261 11.168 36.9661 11.168C36.5555 11.168 36.1775 11.0933 35.8321 10.944C35.4961 10.7853 35.2068 10.552 34.9641 10.244C34.7215 9.92667 34.5348 9.53 34.4041 9.054C34.2735 8.578 34.2081 8.02267 34.2081 7.388C34.2081 6.11867 34.4601 5.17133 34.9641 4.546C35.4681 3.92067 36.1355 3.608 36.9661 3.608C37.5261 3.608 37.9741 3.73867 38.3101 4C38.6555 4.26133 38.9261 4.61133 39.1221 5.05H39.2201V3.776H41.0121V13.8H39.2201V9.726ZM37.7221 9.74C37.9275 9.74 38.1188 9.71667 38.2961 9.67C38.4828 9.614 38.6415 9.53933 38.7721 9.446C38.9121 9.34333 39.0195 9.21733 39.0941 9.068C39.1781 8.90933 39.2201 8.72733 39.2201 8.522V6.254C39.2201 6.04867 39.1781 5.87133 39.0941 5.722C39.0195 5.56333 38.9121 5.43733 38.7721 5.344C38.6415 5.24133 38.4828 5.16667 38.2961 5.12C38.1188 5.064 37.9275 5.036 37.7221 5.036C37.1995 5.036 36.7935 5.19467 36.5041 5.512C36.2241 5.82933 36.0841 6.26333 36.0841 6.814V7.962C36.0841 8.51267 36.2241 8.94667 36.5041 9.264C36.7935 9.58133 37.1995 9.74 37.7221 9.74ZM47.5307 9.726H47.4607C47.302 10.118 47.0547 10.4587 46.7187 10.748C46.392 11.028 45.9347 11.168 45.3467 11.168C44.6373 11.168 44.0587 10.9347 43.6107 10.468C43.172 9.992 42.9527 9.31533 42.9527 8.438V3.776H44.7447V8.186C44.7447 9.23133 45.1973 9.754 46.1027 9.754C46.28 9.754 46.4527 9.73067 46.6207 9.684C46.798 9.63733 46.952 9.56733 47.0827 9.474C47.2227 9.37133 47.33 9.25 47.4047 9.11C47.4887 8.97 47.5307 8.802 47.5307 8.606V3.776H49.3227V11H47.5307V9.726ZM55.0152 2.656C54.5952 2.656 54.2965 2.56733 54.1192 2.39C53.9512 2.21267 53.8672 1.998 53.8672 1.746V1.41C53.8672 1.158 53.9512 0.943333 54.1192 0.766C54.2965 0.588666 54.5952 0.499999 55.0152 0.499999C55.4352 0.499999 55.7292 0.588666 55.8972 0.766C56.0745 0.943333 56.1632 1.158 56.1632 1.41V1.746C56.1632 1.998 56.0745 2.21267 55.8972 2.39C55.7292 2.56733 55.4352 2.656 55.0152 2.656ZM51.7392 9.586H54.1192V5.19H51.7392V3.776H55.9112V9.586H58.1232V11H51.7392V9.586ZM63.2417 11.168C62.6911 11.168 62.1964 11.0793 61.7577 10.902C61.3191 10.7247 60.9457 10.4727 60.6377 10.146C60.3391 9.81933 60.1057 9.42267 59.9377 8.956C59.7791 8.48933 59.6997 7.96667 59.6997 7.388C59.6997 6.80933 59.7791 6.28667 59.9377 5.82C60.1057 5.35333 60.3391 4.95667 60.6377 4.63C60.9457 4.30333 61.3144 4.05133 61.7437 3.874C62.1824 3.69667 62.6771 3.608 63.2277 3.608C63.9931 3.608 64.6091 3.76667 65.0757 4.084C65.5424 4.40133 65.8971 4.82133 66.1397 5.344L64.7537 6.1C64.6231 5.792 64.4364 5.54467 64.1937 5.358C63.9604 5.162 63.6384 5.064 63.2277 5.064C62.6957 5.064 62.2851 5.218 61.9957 5.526C61.7157 5.834 61.5757 6.254 61.5757 6.786V7.99C61.5757 8.51267 61.7157 8.93267 61.9957 9.25C62.2851 9.558 62.7051 9.712 63.2557 9.712C63.6851 9.712 64.0257 9.614 64.2777 9.418C64.5391 9.222 64.7491 8.96067 64.9077 8.634L66.2517 9.432C66.0091 9.94533 65.6404 10.3653 65.1457 10.692C64.6604 11.0093 64.0257 11.168 63.2417 11.168ZM68.2343 0.64H70.0263V6.716H70.1103L71.1603 5.568L72.9383 3.776H75.0243L72.1543 6.618L75.3323 11H73.1903L70.8803 7.64L70.0263 8.452V11H68.2343V0.64ZM84.9113 0.64H86.7033V5.05H86.8013C86.9973 4.61133 87.2633 4.26133 87.5993 4C87.9446 3.73867 88.3973 3.608 88.9573 3.608C89.368 3.608 89.7413 3.68733 90.0773 3.846C90.4226 3.99533 90.7166 4.22867 90.9593 4.546C91.202 4.854 91.3886 5.246 91.5193 5.722C91.65 6.198 91.7153 6.75333 91.7153 7.388C91.7153 8.02267 91.65 8.578 91.5193 9.054C91.3886 9.53 91.202 9.92667 90.9593 10.244C90.7166 10.552 90.4226 10.7853 90.0773 10.944C89.7413 11.0933 89.368 11.168 88.9573 11.168C88.3973 11.168 87.9446 11.0373 87.5993 10.776C87.2633 10.5147 86.9973 10.1647 86.8013 9.726H86.7033V11H84.9113V0.64ZM88.2013 9.74C88.724 9.74 89.1253 9.58133 89.4053 9.264C89.6946 8.94667 89.8393 8.51267 89.8393 7.962V6.814C89.8393 6.26333 89.6946 5.82933 89.4053 5.512C89.1253 5.19467 88.724 5.036 88.2013 5.036C87.7906 5.036 87.436 5.13867 87.1373 5.344C86.848 5.54 86.7033 5.84333 86.7033 6.254V8.522C86.7033 8.93267 86.848 9.24067 87.1373 9.446C87.436 9.642 87.7906 9.74 88.2013 9.74ZM93.3898 9.586H95.1818V5.19H93.3898V3.776H96.9738V5.75H97.0858C97.1512 5.498 97.2398 5.25533 97.3518 5.022C97.4732 4.77933 97.6225 4.56933 97.7998 4.392C97.9865 4.20533 98.2105 4.056 98.4718 3.944C98.7332 3.832 99.0458 3.776 99.4098 3.776H100.194V5.456H98.7098C98.1685 5.456 97.7438 5.61467 97.4358 5.932C97.1278 6.24933 96.9738 6.65533 96.9738 7.15V9.586H99.4798V11H93.3898V9.586ZM104.934 11.168C104.384 11.168 103.889 11.0793 103.45 10.902C103.021 10.7247 102.652 10.4727 102.344 10.146C102.046 9.81933 101.812 9.42267 101.644 8.956C101.486 8.48933 101.406 7.96667 101.406 7.388C101.406 6.80933 101.486 6.28667 101.644 5.82C101.812 5.35333 102.046 4.95667 102.344 4.63C102.652 4.30333 103.021 4.05133 103.45 3.874C103.889 3.69667 104.384 3.608 104.934 3.608C105.476 3.608 105.966 3.69667 106.404 3.874C106.843 4.05133 107.212 4.30333 107.51 4.63C107.818 4.95667 108.052 5.35333 108.21 5.82C108.378 6.28667 108.462 6.80933 108.462 7.388C108.462 7.96667 108.378 8.48933 108.21 8.956C108.052 9.42267 107.818 9.81933 107.51 10.146C107.212 10.4727 106.843 10.7247 106.404 10.902C105.966 11.0793 105.476 11.168 104.934 11.168ZM104.934 9.796C105.448 9.796 105.854 9.642 106.152 9.334C106.451 9.01667 106.6 8.55467 106.6 7.948V6.828C106.6 6.22133 106.451 5.764 106.152 5.456C105.854 5.13867 105.448 4.98 104.934 4.98C104.421 4.98 104.015 5.13867 103.716 5.456C103.418 5.764 103.268 6.22133 103.268 6.828V7.948C103.268 8.55467 103.418 9.01667 103.716 9.334C104.015 9.642 104.421 9.796 104.934 9.796ZM109.325 3.776H110.823L111.439 9.74H111.565L112.545 3.776H114.183L115.149 9.74H115.275L115.905 3.776H117.333L116.409 11H114.239L113.399 5.694H113.273L112.419 11H110.249L109.325 3.776ZM118.573 11V3.776H120.365V5.05H120.435C120.594 4.658 120.837 4.322 121.163 4.042C121.499 3.75267 121.961 3.608 122.549 3.608C123.259 3.608 123.833 3.846 124.271 4.322C124.719 4.78867 124.943 5.46067 124.943 6.338V11H123.151V6.59C123.151 5.54467 122.699 5.022 121.793 5.022C121.607 5.022 121.429 5.04533 121.261 5.092C121.093 5.13867 120.939 5.21333 120.799 5.316C120.669 5.40933 120.561 5.526 120.477 5.666C120.403 5.806 120.365 5.974 120.365 6.17V11H118.573ZM135.363 9.586H137.575V5.19H135.223V3.776H137.575V2.6C137.575 2.31067 137.612 2.04933 137.687 1.816C137.771 1.57333 137.897 1.368 138.065 1.2C138.233 1.02267 138.443 0.887333 138.695 0.794C138.956 0.691333 139.259 0.64 139.605 0.64H142.041V2.054H139.367V3.776H142.041V5.19H139.367V9.586H141.719V11H135.363V9.586ZM146.907 11.168C146.356 11.168 145.862 11.0793 145.423 10.902C144.994 10.7247 144.625 10.4727 144.317 10.146C144.018 9.81933 143.785 9.42267 143.617 8.956C143.458 8.48933 143.379 7.96667 143.379 7.388C143.379 6.80933 143.458 6.28667 143.617 5.82C143.785 5.35333 144.018 4.95667 144.317 4.63C144.625 4.30333 144.994 4.05133 145.423 3.874C145.862 3.69667 146.356 3.608 146.907 3.608C147.448 3.608 147.938 3.69667 148.377 3.874C148.816 4.05133 149.184 4.30333 149.483 4.63C149.791 4.95667 150.024 5.35333 150.183 5.82C150.351 6.28667 150.435 6.80933 150.435 7.388C150.435 7.96667 150.351 8.48933 150.183 8.956C150.024 9.42267 149.791 9.81933 149.483 10.146C149.184 10.4727 148.816 10.7247 148.377 10.902C147.938 11.0793 147.448 11.168 146.907 11.168ZM146.907 9.796C147.42 9.796 147.826 9.642 148.125 9.334C148.424 9.01667 148.573 8.55467 148.573 7.948V6.828C148.573 6.22133 148.424 5.764 148.125 5.456C147.826 5.13867 147.42 4.98 146.907 4.98C146.394 4.98 145.988 5.13867 145.689 5.456C145.39 5.764 145.241 6.22133 145.241 6.828V7.948C145.241 8.55467 145.39 9.01667 145.689 9.334C145.988 9.642 146.394 9.796 146.907 9.796ZM151.578 11L154.28 7.332L151.732 3.776H153.79L154.658 5.05L155.33 6.058H155.428L156.1 5.05L156.968 3.776H158.872L156.324 7.248L159.026 11H156.954L155.96 9.544L155.274 8.522H155.176L154.49 9.544L153.496 11H151.578ZM169.221 12.386H172.203V5.19H169.165V3.776H173.995V11.84C173.995 12.4187 173.831 12.89 173.505 13.254C173.178 13.618 172.669 13.8 171.979 13.8H169.221V12.386ZM173.113 2.656C172.693 2.656 172.394 2.56733 172.217 2.39C172.049 2.21267 171.965 1.998 171.965 1.746V1.41C171.965 1.158 172.049 0.943333 172.217 0.766C172.394 0.588666 172.693 0.499999 173.113 0.499999C173.533 0.499999 173.827 0.588666 173.995 0.766C174.172 0.943333 174.261 1.158 174.261 1.41V1.746C174.261 1.998 174.172 2.21267 173.995 2.39C173.827 2.56733 173.533 2.656 173.113 2.656ZM181.843 9.726H181.773C181.614 10.118 181.367 10.4587 181.031 10.748C180.704 11.028 180.247 11.168 179.659 11.168C178.95 11.168 178.371 10.9347 177.923 10.468C177.484 9.992 177.265 9.31533 177.265 8.438V3.776H179.057V8.186C179.057 9.23133 179.51 9.754 180.415 9.754C180.592 9.754 180.765 9.73067 180.933 9.684C181.11 9.63733 181.264 9.56733 181.395 9.474C181.535 9.37133 181.642 9.25 181.717 9.11C181.801 8.97 181.843 8.802 181.843 8.606V3.776H183.635V11H181.843V9.726ZM185.198 11V3.776H186.682V4.77H186.766C186.878 4.45267 187.036 4.182 187.242 3.958C187.456 3.72467 187.755 3.608 188.138 3.608C188.502 3.608 188.791 3.71533 189.006 3.93C189.22 4.13533 189.36 4.42933 189.426 4.812H189.496C189.617 4.48533 189.794 4.20533 190.028 3.972C190.27 3.72933 190.611 3.608 191.05 3.608C191.582 3.608 191.964 3.79933 192.198 4.182C192.431 4.56467 192.548 5.12933 192.548 5.876V11H191.078V6.086C191.078 5.666 191.017 5.372 190.896 5.204C190.784 5.036 190.611 4.952 190.378 4.952C190.163 4.952 189.981 5.022 189.832 5.162C189.692 5.302 189.622 5.51667 189.622 5.806V11H188.138V6.086C188.138 5.666 188.082 5.372 187.97 5.204C187.858 5.036 187.685 4.952 187.452 4.952C187.228 4.952 187.041 5.022 186.892 5.162C186.752 5.302 186.682 5.51667 186.682 5.806V11H185.198ZM194.04 3.776H195.832V5.05H195.93C196.126 4.61133 196.392 4.26133 196.728 4C197.074 3.73867 197.526 3.608 198.086 3.608C198.497 3.608 198.87 3.68733 199.206 3.846C199.552 3.99533 199.846 4.22867 200.088 4.546C200.331 4.854 200.518 5.246 200.648 5.722C200.779 6.198 200.844 6.75333 200.844 7.388C200.844 8.02267 200.779 8.578 200.648 9.054C200.518 9.53 200.331 9.92667 200.088 10.244C199.846 10.552 199.552 10.7853 199.206 10.944C198.87 11.0933 198.497 11.168 198.086 11.168C197.526 11.168 197.074 11.0373 196.728 10.776C196.392 10.5147 196.126 10.1647 195.93 9.726H195.832V13.8H194.04V3.776ZM197.33 9.74C197.853 9.74 198.254 9.58133 198.534 9.264C198.824 8.94667 198.968 8.51267 198.968 7.962V6.814C198.968 6.26333 198.824 5.82933 198.534 5.512C198.254 5.19467 197.853 5.036 197.33 5.036C196.92 5.036 196.565 5.13867 196.266 5.344C195.977 5.54 195.832 5.84333 195.832 6.254V8.522C195.832 8.93267 195.977 9.24067 196.266 9.446C196.565 9.642 196.92 9.74 197.33 9.74ZM205.641 11.168C204.847 11.168 204.161 11.0467 203.583 10.804C203.004 10.552 202.551 10.216 202.225 9.796L203.275 8.844C203.573 9.17067 203.914 9.42267 204.297 9.6C204.689 9.77733 205.141 9.866 205.655 9.866C206.103 9.866 206.462 9.79133 206.733 9.642C207.003 9.49267 207.139 9.264 207.139 8.956C207.139 8.69467 207.045 8.51733 206.859 8.424C206.681 8.33067 206.443 8.26067 206.145 8.214L204.983 8.032C204.684 7.98533 204.39 7.92 204.101 7.836C203.821 7.74267 203.569 7.61667 203.345 7.458C203.13 7.29933 202.957 7.09867 202.827 6.856C202.696 6.604 202.631 6.30067 202.631 5.946C202.631 5.19 202.911 4.61133 203.471 4.21C204.04 3.80867 204.819 3.608 205.809 3.608C206.509 3.608 207.101 3.706 207.587 3.902C208.081 4.098 208.487 4.37333 208.805 4.728L207.867 5.764C207.661 5.54 207.386 5.344 207.041 5.176C206.705 4.99867 206.275 4.91 205.753 4.91C204.838 4.91 204.381 5.19467 204.381 5.764C204.381 6.02533 204.474 6.20733 204.661 6.31C204.847 6.40333 205.09 6.47333 205.389 6.52L206.537 6.702C206.845 6.74867 207.139 6.81867 207.419 6.912C207.708 6.996 207.96 7.11733 208.175 7.276C208.399 7.43467 208.576 7.63533 208.707 7.878C208.837 8.12067 208.903 8.41933 208.903 8.774C208.903 9.52067 208.613 10.1087 208.035 10.538C207.465 10.958 206.667 11.168 205.641 11.168ZM222.458 11.168C221.907 11.168 221.412 11.0793 220.974 10.902C220.544 10.7247 220.176 10.4727 219.868 10.146C219.569 9.81933 219.336 9.42267 219.168 8.956C219.009 8.48933 218.93 7.96667 218.93 7.388C218.93 6.80933 219.009 6.28667 219.168 5.82C219.336 5.35333 219.569 4.95667 219.868 4.63C220.176 4.30333 220.544 4.05133 220.974 3.874C221.412 3.69667 221.907 3.608 222.458 3.608C222.999 3.608 223.489 3.69667 223.928 3.874C224.366 4.05133 224.735 4.30333 225.034 4.63C225.342 4.95667 225.575 5.35333 225.734 5.82C225.902 6.28667 225.986 6.80933 225.986 7.388C225.986 7.96667 225.902 8.48933 225.734 8.956C225.575 9.42267 225.342 9.81933 225.034 10.146C224.735 10.4727 224.366 10.7247 223.928 10.902C223.489 11.0793 222.999 11.168 222.458 11.168ZM222.458 9.796C222.971 9.796 223.377 9.642 223.676 9.334C223.974 9.01667 224.124 8.55467 224.124 7.948V6.828C224.124 6.22133 223.974 5.764 223.676 5.456C223.377 5.13867 222.971 4.98 222.458 4.98C221.944 4.98 221.538 5.13867 221.24 5.456C220.941 5.764 220.792 6.22133 220.792 6.828V7.948C220.792 8.55467 220.941 9.01667 221.24 9.334C221.538 9.642 221.944 9.796 222.458 9.796ZM229.774 11L227.184 3.776H229.06L230.026 6.842L230.838 9.502H230.936L231.748 6.842L232.714 3.776H234.52L231.93 11H229.774ZM239.415 11.168C238.836 11.168 238.323 11.0793 237.875 10.902C237.427 10.7247 237.049 10.4727 236.741 10.146C236.442 9.81933 236.214 9.42733 236.055 8.97C235.896 8.50333 235.817 7.98067 235.817 7.402C235.817 6.814 235.896 6.28667 236.055 5.82C236.223 5.35333 236.456 4.95667 236.755 4.63C237.054 4.30333 237.413 4.05133 237.833 3.874C238.262 3.69667 238.743 3.608 239.275 3.608C239.798 3.608 240.269 3.69667 240.689 3.874C241.109 4.042 241.464 4.28467 241.753 4.602C242.052 4.91933 242.28 5.302 242.439 5.75C242.598 6.198 242.677 6.69267 242.677 7.234V7.822H237.609V8.004C237.609 8.52667 237.772 8.95133 238.099 9.278C238.426 9.59533 238.883 9.754 239.471 9.754C239.919 9.754 240.302 9.66533 240.619 9.488C240.946 9.30133 241.216 9.05867 241.431 8.76L242.453 9.782C242.192 10.1647 241.809 10.4913 241.305 10.762C240.81 11.0327 240.18 11.168 239.415 11.168ZM239.289 4.924C238.785 4.924 238.379 5.08267 238.071 5.4C237.763 5.71733 237.609 6.13733 237.609 6.66V6.758H240.885V6.632C240.885 6.10933 240.74 5.694 240.451 5.386C240.171 5.078 239.784 4.924 239.289 4.924ZM244.491 9.586H246.283V5.19H244.491V3.776H248.075V5.75H248.187C248.253 5.498 248.341 5.25533 248.453 5.022C248.575 4.77933 248.724 4.56933 248.901 4.392C249.088 4.20533 249.312 4.056 249.573 3.944C249.835 3.832 250.147 3.776 250.511 3.776H251.295V5.456H249.811C249.27 5.456 248.845 5.61467 248.537 5.932C248.229 6.24933 248.075 6.65533 248.075 7.15V9.586H250.581V11H244.491V9.586ZM4.69 35C3.99933 35 3.49067 34.818 3.164 34.454C2.83733 34.09 2.674 33.6187 2.674 33.04V29.19H0.574V27.776H2.002C2.29133 27.776 2.49667 27.72 2.618 27.608C2.73933 27.4867 2.8 27.2767 2.8 26.978V25.228H4.466V27.776H7.406V29.19H4.466V33.586H7.406V35H4.69ZM9.44453 24.64H11.2365V29.05H11.3065C11.4652 28.658 11.7079 28.322 12.0345 28.042C12.3705 27.7527 12.8325 27.608 13.4205 27.608C14.1299 27.608 14.7039 27.846 15.1425 28.322C15.5905 28.7887 15.8145 29.4607 15.8145 30.338V35H14.0225V30.59C14.0225 29.5447 13.5699 29.022 12.6645 29.022C12.4779 29.022 12.3005 29.0453 12.1325 29.092C11.9645 29.1387 11.8105 29.2133 11.6705 29.316C11.5399 29.4093 11.4325 29.526 11.3485 29.666C11.2739 29.806 11.2365 29.974 11.2365 30.17V35H9.44453V24.64ZM21.1571 35.168C20.5784 35.168 20.0651 35.0793 19.6171 34.902C19.1691 34.7247 18.7911 34.4727 18.4831 34.146C18.1844 33.8193 17.9557 33.4273 17.7971 32.97C17.6384 32.5033 17.5591 31.9807 17.5591 31.402C17.5591 30.814 17.6384 30.2867 17.7971 29.82C17.9651 29.3533 18.1984 28.9567 18.4971 28.63C18.7957 28.3033 19.1551 28.0513 19.5751 27.874C20.0044 27.6967 20.4851 27.608 21.0171 27.608C21.5397 27.608 22.0111 27.6967 22.4311 27.874C22.8511 28.042 23.2057 28.2847 23.4951 28.602C23.7937 28.9193 24.0224 29.302 24.1811 29.75C24.3397 30.198 24.4191 30.6927 24.4191 31.234V31.822H19.3511V32.004C19.3511 32.5267 19.5144 32.9513 19.8411 33.278C20.1677 33.5953 20.6251 33.754 21.2131 33.754C21.6611 33.754 22.0437 33.6653 22.3611 33.488C22.6877 33.3013 22.9584 33.0587 23.1731 32.76L24.1951 33.782C23.9337 34.1647 23.5511 34.4913 23.0471 34.762C22.5524 35.0327 21.9224 35.168 21.1571 35.168ZM21.0311 28.924C20.5271 28.924 20.1211 29.0827 19.8131 29.4C19.5051 29.7173 19.3511 30.1373 19.3511 30.66V30.758H22.6271V30.632C22.6271 30.1093 22.4824 29.694 22.1931 29.386C21.9131 29.078 21.5257 28.924 21.0311 28.924ZM34.5861 33.586H36.8821V26.054H34.5861V24.64H38.6741V33.586H40.9841V35H34.5861V33.586ZM48.8327 35C48.394 35 48.0533 34.8927 47.8107 34.678C47.5773 34.454 47.4373 34.146 47.3907 33.754H47.3207C47.19 34.202 46.9333 34.552 46.5507 34.804C46.168 35.0467 45.6967 35.168 45.1367 35.168C44.4087 35.168 43.83 34.9767 43.4007 34.594C42.9713 34.2113 42.7567 33.6793 42.7567 32.998C42.7567 31.542 43.8253 30.814 45.9627 30.814H47.2367V30.338C47.2367 29.8807 47.1247 29.5353 46.9007 29.302C46.6767 29.0687 46.3127 28.952 45.8087 28.952C45.3513 28.952 44.9827 29.0407 44.7027 29.218C44.4227 29.3953 44.1847 29.624 43.9887 29.904L42.9667 29.036C43.1907 28.6347 43.55 28.2987 44.0447 28.028C44.5487 27.748 45.1973 27.608 45.9907 27.608C46.9427 27.608 47.6847 27.832 48.2167 28.28C48.758 28.7187 49.0287 29.3767 49.0287 30.254V33.656H49.8827V35H48.8327ZM45.7387 33.936C46.168 33.936 46.5227 33.838 46.8027 33.642C47.092 33.4367 47.2367 33.1613 47.2367 32.816V31.85H46.0047C45.0247 31.85 44.5347 32.158 44.5347 32.774V33.054C44.5347 33.3433 44.642 33.5627 44.8567 33.712C45.0713 33.8613 45.3653 33.936 45.7387 33.936ZM51.3752 35V33.474L55.5752 29.19H51.5152V27.776H57.6192V29.302L53.4192 33.586H57.7592V35H51.3752ZM64.9357 27.776H66.7557L63.2977 36.288C63.1017 36.7827 62.8404 37.156 62.5137 37.408C62.1871 37.6693 61.7251 37.8 61.1277 37.8H59.8117V36.386H61.5337L62.0797 34.93L59.1677 27.776H61.0717L62.1777 30.8L62.9477 33.096H63.0457L63.8157 30.8L64.9357 27.776ZM81.1928 33.726H81.0948C80.8988 34.1647 80.6281 34.5147 80.2828 34.776C79.9468 35.0373 79.4988 35.168 78.9388 35.168C78.5281 35.168 78.1501 35.0933 77.8048 34.944C77.4688 34.7853 77.1794 34.552 76.9368 34.244C76.6941 33.9267 76.5074 33.53 76.3768 33.054C76.2461 32.578 76.1808 32.0227 76.1808 31.388C76.1808 30.1187 76.4328 29.1713 76.9368 28.546C77.4408 27.9207 78.1081 27.608 78.9388 27.608C79.4988 27.608 79.9468 27.7387 80.2828 28C80.6281 28.2613 80.8988 28.6113 81.0948 29.05H81.1928V24.64H82.9848V35H81.1928V33.726ZM79.6948 33.74C79.9001 33.74 80.0914 33.7167 80.2688 33.67C80.4554 33.614 80.6141 33.5393 80.7448 33.446C80.8848 33.3433 80.9921 33.2173 81.0668 33.068C81.1508 32.9093 81.1928 32.7273 81.1928 32.522V30.254C81.1928 30.0487 81.1508 29.8713 81.0668 29.722C80.9921 29.5633 80.8848 29.4373 80.7448 29.344C80.6141 29.2413 80.4554 29.1667 80.2688 29.12C80.0914 29.064 79.9001 29.036 79.6948 29.036C79.1721 29.036 78.7661 29.1947 78.4768 29.512C78.1968 29.8293 78.0568 30.2633 78.0568 30.814V31.962C78.0568 32.5127 78.1968 32.9467 78.4768 33.264C78.7661 33.5813 79.1721 33.74 79.6948 33.74ZM88.1453 35.168C87.5946 35.168 87.1 35.0793 86.6613 34.902C86.232 34.7247 85.8633 34.4727 85.5553 34.146C85.2566 33.8193 85.0233 33.4227 84.8553 32.956C84.6966 32.4893 84.6173 31.9667 84.6173 31.388C84.6173 30.8093 84.6966 30.2867 84.8553 29.82C85.0233 29.3533 85.2566 28.9567 85.5553 28.63C85.8633 28.3033 86.232 28.0513 86.6613 27.874C87.1 27.6967 87.5946 27.608 88.1453 27.608C88.6866 27.608 89.1766 27.6967 89.6153 27.874C90.054 28.0513 90.4226 28.3033 90.7213 28.63C91.0293 28.9567 91.2626 29.3533 91.4213 29.82C91.5893 30.2867 91.6733 30.8093 91.6733 31.388C91.6733 31.9667 91.5893 32.4893 91.4213 32.956C91.2626 33.4227 91.0293 33.8193 90.7213 34.146C90.4226 34.4727 90.054 34.7247 89.6153 34.902C89.1766 35.0793 88.6866 35.168 88.1453 35.168ZM88.1453 33.796C88.6586 33.796 89.0646 33.642 89.3633 33.334C89.662 33.0167 89.8113 32.5547 89.8113 31.948V30.828C89.8113 30.2213 89.662 29.764 89.3633 29.456C89.0646 29.1387 88.6586 28.98 88.1453 28.98C87.632 28.98 87.226 29.1387 86.9273 29.456C86.6286 29.764 86.4793 30.2213 86.4793 30.828V31.948C86.4793 32.5547 86.6286 33.0167 86.9273 33.334C87.226 33.642 87.632 33.796 88.1453 33.796ZM100.404 35.756C100.404 36.512 100.087 37.0673 99.4518 37.422C98.8265 37.786 97.8465 37.968 96.5118 37.968C95.8585 37.968 95.3125 37.926 94.8738 37.842C94.4352 37.7673 94.0805 37.6553 93.8098 37.506C93.5485 37.3567 93.3618 37.1747 93.2498 36.96C93.1378 36.7547 93.0818 36.5213 93.0818 36.26C93.0818 35.8587 93.1985 35.5507 93.4318 35.336C93.6652 35.1213 93.9918 34.9627 94.4118 34.86V34.748C94.1318 34.6547 93.9078 34.524 93.7398 34.356C93.5812 34.188 93.5018 33.9547 93.5018 33.656C93.5018 33.3013 93.6185 33.0353 93.8518 32.858C94.0945 32.6807 94.4118 32.5453 94.8038 32.452V32.382C94.3745 32.1767 94.0385 31.8873 93.7958 31.514C93.5532 31.1407 93.4318 30.688 93.4318 30.156C93.4318 29.7547 93.5018 29.4 93.6418 29.092C93.7912 28.7747 93.9965 28.5087 94.2578 28.294C94.5285 28.07 94.8505 27.902 95.2238 27.79C95.5972 27.6687 96.0125 27.608 96.4698 27.608C96.9552 27.608 97.3938 27.6733 97.7858 27.804V27.496C97.7858 27.216 97.8745 26.9827 98.0518 26.796C98.2385 26.6093 98.4952 26.516 98.8218 26.516H100.124V27.86H98.4158V28.098C98.7705 28.3127 99.0412 28.5927 99.2278 28.938C99.4238 29.274 99.5218 29.68 99.5218 30.156C99.5218 30.5573 99.4472 30.9167 99.2978 31.234C99.1578 31.5513 98.9525 31.8173 98.6818 32.032C98.4205 32.2467 98.0985 32.4147 97.7158 32.536C97.3425 32.648 96.9272 32.704 96.4698 32.704C96.2832 32.704 96.1012 32.6993 95.9238 32.69C95.7558 32.6713 95.5925 32.6387 95.4338 32.592C95.3032 32.6387 95.1772 32.7133 95.0558 32.816C94.9345 32.9187 94.8738 33.054 94.8738 33.222C94.8738 33.446 94.9812 33.586 95.1958 33.642C95.4105 33.6887 95.6672 33.712 95.9658 33.712H97.6038C98.1078 33.712 98.5372 33.7633 98.8918 33.866C99.2465 33.9593 99.5358 34.0993 99.7598 34.286C99.9838 34.4633 100.147 34.678 100.25 34.93C100.353 35.182 100.404 35.4573 100.404 35.756ZM98.7238 35.882C98.7238 35.6673 98.6352 35.4947 98.4578 35.364C98.2898 35.2427 97.9725 35.182 97.5058 35.182H95.0138C94.7338 35.3407 94.5938 35.574 94.5938 35.882C94.5938 36.134 94.6965 36.344 94.9018 36.512C95.1165 36.68 95.4758 36.764 95.9798 36.764H97.1418C98.1965 36.764 98.7238 36.47 98.7238 35.882ZM96.4698 31.528C96.9272 31.528 97.2632 31.4207 97.4778 31.206C97.6925 30.982 97.7998 30.6927 97.7998 30.338V29.974C97.7998 29.6193 97.6925 29.3347 97.4778 29.12C97.2632 28.896 96.9272 28.784 96.4698 28.784C96.0218 28.784 95.6905 28.896 95.4758 29.12C95.2612 29.3347 95.1538 29.6193 95.1538 29.974V30.338C95.1538 30.6927 95.2612 30.982 95.4758 31.206C95.6905 31.4207 96.0218 31.528 96.4698 31.528ZM104.934 35.154C104.449 35.154 104.104 35.0513 103.898 34.846C103.693 34.6407 103.59 34.3887 103.59 34.09V33.67C103.59 33.3713 103.693 33.1193 103.898 32.914C104.104 32.7087 104.449 32.606 104.934 32.606C105.42 32.606 105.765 32.7087 105.97 32.914C106.176 33.1193 106.278 33.3713 106.278 33.67V34.09C106.278 34.3887 106.176 34.6407 105.97 34.846C105.765 35.0513 105.42 35.154 104.934 35.154Z" fill="black"></path>
</svg>
