<svg width="10" height="105" viewBox="0 0 10 105" fill="none" xmlns="http://www.w3.org/2000/svg">
<rect width="10" height="105" fill="#FACC9E" fill-opacity="0.5"/>
<path d="M7.8418 57H6.92773V52.9922C6.92773 52.0234 6.74805 51.5391 6.38867 51.5391C6.20508 51.5391 6.00195 51.707 5.7793 52.043C5.56055 52.375 5.45117 52.5586 5.45117 52.5938V57H4.54297V52.9922C4.54297 52.0234 4.36133 51.5391 3.99805 51.5391C3.81836 51.5391 3.61719 51.707 3.39453 52.043C3.17578 52.375 3.06641 52.5586 3.06641 52.5938V57H2.15234V50.8945H3.03125V51.8145C3.20312 51.4902 3.40625 51.2324 3.64062 51.041C3.87891 50.8457 4.11523 50.748 4.34961 50.748C4.5957 50.748 4.81641 50.8457 5.01172 51.041C5.20703 51.2324 5.3418 51.4902 5.41602 51.8145C5.58789 51.4902 5.79297 51.2324 6.03125 51.041C6.26953 50.8457 6.50391 50.748 6.73438 50.748C7.47266 50.748 7.8418 51.4082 7.8418 52.7285V57Z" fill="#A96522"/>
</svg>
