<svg width="272" height="43" viewBox="0 0 272 43" fill="none" xmlns="http://www.w3.org/2000/svg">
<path d="M0.704545 2.875V1.36364H9.71023V2.875H6.07955V13H4.32955V2.875H0.704545ZM13.2628 7.81818V13H11.5639V1.36364H13.2401V5.69318H13.348C13.5526 5.22348 13.8651 4.85038 14.2855 4.57386C14.706 4.29735 15.2552 4.15909 15.9332 4.15909C16.5317 4.15909 17.0545 4.2822 17.5014 4.52841C17.9522 4.77462 18.3007 5.14205 18.5469 5.63068C18.7969 6.11553 18.9219 6.72159 18.9219 7.44886V13H17.223V7.65341C17.223 7.01326 17.0582 6.51705 16.7287 6.16477C16.3991 5.80871 15.9408 5.63068 15.3537 5.63068C14.9522 5.63068 14.5923 5.71591 14.2741 5.88636C13.9598 6.05682 13.7116 6.30682 13.5298 6.63636C13.3518 6.96212 13.2628 7.35606 13.2628 7.81818ZM24.9503 13.1761C24.0904 13.1761 23.3499 12.9924 22.7287 12.625C22.1113 12.2538 21.634 11.733 21.2969 11.0625C20.9635 10.3883 20.7969 9.59848 20.7969 8.69318C20.7969 7.79924 20.9635 7.01136 21.2969 6.32955C21.634 5.64773 22.1037 5.11553 22.706 4.73295C23.312 4.35038 24.0204 4.15909 24.831 4.15909C25.3234 4.15909 25.8007 4.24053 26.2628 4.40341C26.7249 4.56629 27.1397 4.82197 27.5071 5.17045C27.8745 5.51894 28.1643 5.97159 28.3764 6.52841C28.5885 7.08144 28.6946 7.75379 28.6946 8.54545V9.14773H21.7571V7.875H27.0298C27.0298 7.42803 26.9389 7.0322 26.7571 6.6875C26.5753 6.33902 26.3196 6.06439 25.9901 5.86364C25.6643 5.66288 25.2817 5.5625 24.8423 5.5625C24.3651 5.5625 23.9484 5.67992 23.5923 5.91477C23.2401 6.14583 22.9673 6.44886 22.7741 6.82386C22.5848 7.19508 22.4901 7.59848 22.4901 8.03409V9.02841C22.4901 9.61174 22.5923 10.108 22.7969 10.517C23.0052 10.9261 23.295 11.2386 23.6662 11.4545C24.0374 11.6667 24.4711 11.7727 24.9673 11.7727C25.2893 11.7727 25.5829 11.7273 25.848 11.6364C26.1132 11.5417 26.3423 11.4015 26.5355 11.2159C26.7287 11.0303 26.8764 10.8011 26.9787 10.5284L28.5866 10.8182C28.4579 11.2917 28.2268 11.7064 27.8935 12.0625C27.5639 12.4148 27.1491 12.6894 26.6491 12.8864C26.1529 13.0795 25.5866 13.1761 24.9503 13.1761ZM40.706 16.2727V11.642H40.6037C40.5014 11.8277 40.3537 12.0398 40.1605 12.2784C39.9711 12.517 39.7098 12.7254 39.3764 12.9034C39.0431 13.0814 38.6113 13.1705 38.081 13.1705C37.3764 13.1705 36.7476 12.9905 36.1946 12.6307C35.6454 12.267 35.2135 11.75 34.8991 11.0795C34.5885 10.4053 34.4332 9.59659 34.4332 8.65341C34.4332 7.71023 34.5904 6.90341 34.9048 6.23295C35.223 5.5625 35.6586 5.04924 36.2116 4.69318C36.7647 4.33712 37.3916 4.15909 38.0923 4.15909C38.634 4.15909 39.0696 4.25 39.3991 4.43182C39.7325 4.60985 39.9901 4.81818 40.1719 5.05682C40.3575 5.29545 40.5014 5.50568 40.6037 5.6875H40.7457V4.27273H42.4048V16.2727H40.706ZM38.456 11.7216C38.9446 11.7216 39.3575 11.5928 39.6946 11.3352C40.0355 11.0739 40.2931 10.7121 40.4673 10.25C40.6454 9.78788 40.7344 9.25 40.7344 8.63636C40.7344 8.0303 40.6473 7.5 40.473 7.04545C40.2988 6.59091 40.0431 6.23674 39.706 5.98295C39.3688 5.72917 38.9522 5.60227 38.456 5.60227C37.9446 5.60227 37.5185 5.73485 37.1776 6C36.8366 6.26515 36.5791 6.62689 36.4048 7.08523C36.2344 7.54356 36.1491 8.06061 36.1491 8.63636C36.1491 9.2197 36.2363 9.74432 36.4105 10.2102C36.5848 10.6761 36.8423 11.0455 37.1832 11.3182C37.5279 11.5871 37.9522 11.7216 38.456 11.7216ZM50.2173 9.38068V4.27273H51.9219V13H50.2514V11.4886H50.1605C49.9598 11.9545 49.6378 12.3428 49.1946 12.6534C48.7552 12.9602 48.2079 13.1136 47.5526 13.1136C46.992 13.1136 46.4957 12.9905 46.0639 12.7443C45.6359 12.4943 45.2988 12.125 45.0526 11.6364C44.8101 11.1477 44.6889 10.5436 44.6889 9.82386V4.27273H46.3878V9.61932C46.3878 10.214 46.5526 10.6875 46.8821 11.0398C47.2116 11.392 47.6397 11.5682 48.1662 11.5682C48.4844 11.5682 48.8007 11.4886 49.1151 11.3295C49.4332 11.1705 49.6965 10.9299 49.9048 10.608C50.117 10.286 50.2211 9.87689 50.2173 9.38068ZM54.2045 13V4.27273H55.9034V13H54.2045ZM55.0625 2.92614C54.767 2.92614 54.5133 2.82765 54.3011 2.63068C54.0928 2.42992 53.9886 2.19129 53.9886 1.91477C53.9886 1.63447 54.0928 1.39583 54.3011 1.19886C54.5133 0.998106 54.767 0.897727 55.0625 0.897727C55.358 0.897727 55.6098 0.998106 55.8182 1.19886C56.0303 1.39583 56.1364 1.63447 56.1364 1.91477C56.1364 2.19129 56.0303 2.42992 55.8182 2.63068C55.6098 2.82765 55.358 2.92614 55.0625 2.92614ZM61.8651 13.1761C61.0204 13.1761 60.2931 12.9848 59.6832 12.6023C59.0772 12.2159 58.6113 11.6837 58.2855 11.0057C57.9598 10.3277 57.7969 9.55114 57.7969 8.67614C57.7969 7.78977 57.9635 7.00758 58.2969 6.32955C58.6302 5.64773 59.0999 5.11553 59.706 4.73295C60.312 4.35038 61.026 4.15909 61.848 4.15909C62.5109 4.15909 63.1018 4.2822 63.6207 4.52841C64.1397 4.77083 64.5582 5.11174 64.8764 5.55114C65.1984 5.99053 65.3897 6.50379 65.4503 7.09091H63.7969C63.706 6.68182 63.4976 6.32955 63.1719 6.03409C62.8499 5.73864 62.4181 5.59091 61.8764 5.59091C61.4029 5.59091 60.9882 5.71591 60.6321 5.96591C60.2798 6.21212 60.0052 6.56439 59.8082 7.02273C59.6113 7.47727 59.5128 8.01515 59.5128 8.63636C59.5128 9.27273 59.6094 9.82197 59.8026 10.2841C59.9957 10.7462 60.2685 11.1042 60.6207 11.358C60.9768 11.6117 61.3954 11.7386 61.8764 11.7386C62.1984 11.7386 62.4901 11.6799 62.7514 11.5625C63.0166 11.4413 63.2382 11.2689 63.4162 11.0455C63.598 10.822 63.7249 10.553 63.7969 10.2386H65.4503C65.3897 10.803 65.206 11.3068 64.8991 11.75C64.5923 12.1932 64.1813 12.5417 63.6662 12.7955C63.1548 13.0492 62.5545 13.1761 61.8651 13.1761ZM68.8295 10.0398L68.8182 7.96591H69.1136L72.5909 4.27273H74.625L70.6591 8.47727H70.392L68.8295 10.0398ZM67.267 13V1.36364H68.9659V13H67.267ZM72.7784 13L69.6534 8.85227L70.8239 7.66477L74.8636 13H72.7784ZM80.544 13V1.36364H82.2429V5.6875H82.3452C82.4437 5.50568 82.5857 5.29545 82.7713 5.05682C82.9569 4.81818 83.2145 4.60985 83.544 4.43182C83.8736 4.25 84.3092 4.15909 84.8509 4.15909C85.5554 4.15909 86.1842 4.33712 86.7372 4.69318C87.2902 5.04924 87.724 5.5625 88.0384 6.23295C88.3565 6.90341 88.5156 7.71023 88.5156 8.65341C88.5156 9.59659 88.3584 10.4053 88.044 11.0795C87.7296 11.75 87.2978 12.267 86.7486 12.6307C86.1993 12.9905 85.5724 13.1705 84.8679 13.1705C84.3376 13.1705 83.9039 13.0814 83.5668 12.9034C83.2334 12.7254 82.9721 12.517 82.7827 12.2784C82.5933 12.0398 82.4474 11.8277 82.3452 11.642H82.2031V13H80.544ZM82.2088 8.63636C82.2088 9.25 82.2978 9.78788 82.4759 10.25C82.6539 10.7121 82.9115 11.0739 83.2486 11.3352C83.5857 11.5928 83.9986 11.7216 84.4872 11.7216C84.9948 11.7216 85.419 11.5871 85.7599 11.3182C86.1009 11.0455 86.3584 10.6761 86.5327 10.2102C86.7107 9.74432 86.7997 9.2197 86.7997 8.63636C86.7997 8.06061 86.7126 7.54356 86.5384 7.08523C86.3679 6.62689 86.1103 6.26515 85.7656 6C85.4247 5.73485 84.9986 5.60227 84.4872 5.60227C83.9948 5.60227 83.5781 5.72917 83.2372 5.98295C82.9001 6.23674 82.6444 6.59091 82.4702 7.04545C82.2959 7.5 82.2088 8.0303 82.2088 8.63636ZM90.4233 13V4.27273H92.0653V5.65909H92.1562C92.3153 5.18939 92.5956 4.82008 92.9972 4.55114C93.4025 4.27841 93.8608 4.14205 94.3722 4.14205C94.4782 4.14205 94.6032 4.14583 94.7472 4.15341C94.8949 4.16098 95.0104 4.17045 95.0938 4.18182V5.80682C95.0256 5.78788 94.9044 5.76705 94.7301 5.74432C94.5559 5.7178 94.3816 5.70455 94.2074 5.70455C93.8059 5.70455 93.4479 5.78977 93.1335 5.96023C92.8229 6.12689 92.5767 6.35985 92.3949 6.65909C92.2131 6.95455 92.1222 7.29167 92.1222 7.67045V13H90.4233ZM99.9276 13.1761C99.1094 13.1761 98.3954 12.9886 97.7855 12.6136C97.1757 12.2386 96.7022 11.714 96.3651 11.0398C96.0279 10.3655 95.8594 9.57765 95.8594 8.67614C95.8594 7.77083 96.0279 6.97917 96.3651 6.30114C96.7022 5.62311 97.1757 5.09659 97.7855 4.72159C98.3954 4.34659 99.1094 4.15909 99.9276 4.15909C100.746 4.15909 101.46 4.34659 102.07 4.72159C102.679 5.09659 103.153 5.62311 103.49 6.30114C103.827 6.97917 103.996 7.77083 103.996 8.67614C103.996 9.57765 103.827 10.3655 103.49 11.0398C103.153 11.714 102.679 12.2386 102.07 12.6136C101.46 12.9886 100.746 13.1761 99.9276 13.1761ZM99.9332 11.75C100.464 11.75 100.903 11.6098 101.251 11.3295C101.6 11.0492 101.857 10.6761 102.024 10.2102C102.195 9.74432 102.28 9.23106 102.28 8.67045C102.28 8.11364 102.195 7.60227 102.024 7.13636C101.857 6.66667 101.6 6.28977 101.251 6.00568C100.903 5.72159 100.464 5.57955 99.9332 5.57955C99.3991 5.57955 98.956 5.72159 98.6037 6.00568C98.2552 6.28977 97.9957 6.66667 97.8253 7.13636C97.6586 7.60227 97.5753 8.11364 97.5753 8.67045C97.5753 9.23106 97.6586 9.74432 97.8253 10.2102C97.9957 10.6761 98.2552 11.0492 98.6037 11.3295C98.956 11.6098 99.3991 11.75 99.9332 11.75ZM107.518 13L104.95 4.27273H106.706L108.416 10.6818H108.501L110.217 4.27273H111.973L113.678 10.6534H113.763L115.462 4.27273H117.217L114.655 13H112.922L111.149 6.69886H111.018L109.246 13H107.518ZM120.528 7.81818V13H118.83V4.27273H120.46V5.69318H120.568C120.769 5.23106 121.083 4.85985 121.511 4.57955C121.943 4.29924 122.487 4.15909 123.142 4.15909C123.737 4.15909 124.258 4.28409 124.705 4.53409C125.152 4.7803 125.498 5.14773 125.744 5.63636C125.991 6.125 126.114 6.72917 126.114 7.44886V13H124.415V7.65341C124.415 7.02083 124.25 6.52652 123.92 6.17045C123.591 5.81061 123.138 5.63068 122.562 5.63068C122.169 5.63068 121.818 5.71591 121.511 5.88636C121.208 6.05682 120.968 6.30682 120.79 6.63636C120.616 6.96212 120.528 7.35606 120.528 7.81818ZM136.78 4.27273V5.63636H131.848V4.27273H136.78ZM133.2 13V3.26136C133.2 2.71591 133.32 2.26326 133.558 1.90341C133.797 1.53977 134.113 1.26894 134.507 1.09091C134.901 0.90909 135.329 0.818181 135.791 0.818181C136.132 0.818181 136.424 0.84659 136.666 0.903409C136.909 0.956439 137.089 1.00568 137.206 1.05114L136.808 2.42614C136.729 2.40341 136.626 2.37689 136.501 2.34659C136.376 2.3125 136.225 2.29545 136.047 2.29545C135.634 2.29545 135.339 2.39773 135.161 2.60227C134.986 2.80682 134.899 3.10227 134.899 3.48864V13H133.2ZM141.865 13.1761C141.047 13.1761 140.333 12.9886 139.723 12.6136C139.113 12.2386 138.64 11.714 138.303 11.0398C137.965 10.3655 137.797 9.57765 137.797 8.67614C137.797 7.77083 137.965 6.97917 138.303 6.30114C138.64 5.62311 139.113 5.09659 139.723 4.72159C140.333 4.34659 141.047 4.15909 141.865 4.15909C142.683 4.15909 143.397 4.34659 144.007 4.72159C144.617 5.09659 145.09 5.62311 145.428 6.30114C145.765 6.97917 145.933 7.77083 145.933 8.67614C145.933 9.57765 145.765 10.3655 145.428 11.0398C145.09 11.714 144.617 12.2386 144.007 12.6136C143.397 12.9886 142.683 13.1761 141.865 13.1761ZM141.871 11.75C142.401 11.75 142.84 11.6098 143.189 11.3295C143.537 11.0492 143.795 10.6761 143.962 10.2102C144.132 9.74432 144.217 9.23106 144.217 8.67045C144.217 8.11364 144.132 7.60227 143.962 7.13636C143.795 6.66667 143.537 6.28977 143.189 6.00568C142.84 5.72159 142.401 5.57955 141.871 5.57955C141.337 5.57955 140.893 5.72159 140.541 6.00568C140.193 6.28977 139.933 6.66667 139.763 7.13636C139.596 7.60227 139.513 8.11364 139.513 8.67045C139.513 9.23106 139.596 9.74432 139.763 10.2102C139.933 10.6761 140.193 11.0492 140.541 11.3295C140.893 11.6098 141.337 11.75 141.871 11.75ZM148.827 4.27273L150.753 7.67045L152.696 4.27273H154.554L151.832 8.63636L154.577 13H152.719L150.753 9.73864L148.793 13H146.929L149.645 8.63636L146.963 4.27273H148.827ZM160.533 4.27273H162.232V13.5682C162.232 14.1515 162.125 14.6439 161.913 15.0455C161.705 15.447 161.394 15.7519 160.982 15.9602C160.572 16.1686 160.067 16.2727 159.464 16.2727C159.404 16.2727 159.347 16.2727 159.294 16.2727C159.237 16.2727 159.179 16.2708 159.118 16.267V14.8068C159.171 14.8068 159.218 14.8068 159.26 14.8068C159.298 14.8068 159.341 14.8068 159.391 14.8068C159.792 14.8068 160.082 14.6989 160.26 14.483C160.442 14.2708 160.533 13.9621 160.533 13.5568V4.27273ZM161.374 2.92614C161.078 2.92614 160.824 2.82765 160.612 2.63068C160.404 2.42992 160.3 2.19129 160.3 1.91477C160.3 1.63447 160.404 1.39583 160.612 1.19886C160.824 0.998106 161.078 0.897727 161.374 0.897727C161.669 0.897727 161.921 0.998106 162.129 1.19886C162.341 1.39583 162.447 1.63447 162.447 1.91477C162.447 2.19129 162.341 2.42992 162.129 2.63068C161.921 2.82765 161.669 2.92614 161.374 2.92614ZM170.045 9.38068V4.27273H171.75V13H170.08V11.4886H169.989C169.788 11.9545 169.466 12.3428 169.023 12.6534C168.583 12.9602 168.036 13.1136 167.381 13.1136C166.82 13.1136 166.324 12.9905 165.892 12.7443C165.464 12.4943 165.127 12.125 164.881 11.6364C164.638 11.1477 164.517 10.5436 164.517 9.82386V4.27273H166.216V9.61932C166.216 10.214 166.381 10.6875 166.71 11.0398C167.04 11.392 167.468 11.5682 167.994 11.5682C168.313 11.5682 168.629 11.4886 168.943 11.3295C169.261 11.1705 169.525 10.9299 169.733 10.608C169.945 10.286 170.049 9.87689 170.045 9.38068ZM174.033 13V4.27273H175.663V5.69318H175.771C175.953 5.21212 176.25 4.83712 176.663 4.56818C177.076 4.29545 177.571 4.15909 178.146 4.15909C178.73 4.15909 179.218 4.29545 179.612 4.56818C180.01 4.84091 180.304 5.21591 180.493 5.69318H180.584C180.792 5.22727 181.124 4.85606 181.578 4.57955C182.033 4.29924 182.574 4.15909 183.203 4.15909C183.995 4.15909 184.641 4.4072 185.141 4.90341C185.644 5.39962 185.896 6.14773 185.896 7.14773V13H184.197V7.30682C184.197 6.71591 184.036 6.28788 183.714 6.02273C183.393 5.75758 183.008 5.625 182.561 5.625C182.008 5.625 181.578 5.79545 181.271 6.13636C180.964 6.47348 180.811 6.9072 180.811 7.4375V13H179.118V7.19886C179.118 6.72538 178.97 6.3447 178.675 6.05682C178.379 5.76894 177.995 5.625 177.521 5.625C177.199 5.625 176.902 5.71023 176.629 5.88068C176.36 6.04735 176.143 6.2803 175.976 6.57955C175.813 6.87879 175.732 7.22538 175.732 7.61932V13H174.033ZM188.173 16.2727V4.27273H189.832V5.6875H189.974C190.073 5.50568 190.215 5.29545 190.401 5.05682C190.586 4.81818 190.844 4.60985 191.173 4.43182C191.503 4.25 191.938 4.15909 192.48 4.15909C193.185 4.15909 193.813 4.33712 194.366 4.69318C194.92 5.04924 195.353 5.5625 195.668 6.23295C195.986 6.90341 196.145 7.71023 196.145 8.65341C196.145 9.59659 195.988 10.4053 195.673 11.0795C195.359 11.75 194.927 12.267 194.378 12.6307C193.829 12.9905 193.202 13.1705 192.497 13.1705C191.967 13.1705 191.533 13.0814 191.196 12.9034C190.863 12.7254 190.601 12.517 190.412 12.2784C190.223 12.0398 190.077 11.8277 189.974 11.642H189.872V16.2727H188.173ZM189.838 8.63636C189.838 9.25 189.927 9.78788 190.105 10.25C190.283 10.7121 190.541 11.0739 190.878 11.3352C191.215 11.5928 191.628 11.7216 192.116 11.7216C192.624 11.7216 193.048 11.5871 193.389 11.3182C193.73 11.0455 193.988 10.6761 194.162 10.2102C194.34 9.74432 194.429 9.2197 194.429 8.63636C194.429 8.06061 194.342 7.54356 194.168 7.08523C193.997 6.62689 193.74 6.26515 193.395 6C193.054 5.73485 192.628 5.60227 192.116 5.60227C191.624 5.60227 191.207 5.72917 190.866 5.98295C190.529 6.23674 190.274 6.59091 190.099 7.04545C189.925 7.5 189.838 8.0303 189.838 8.63636ZM204.588 6.40341L203.048 6.67614C202.984 6.47917 202.882 6.29167 202.741 6.11364C202.605 5.93561 202.42 5.78977 202.185 5.67614C201.95 5.5625 201.656 5.50568 201.304 5.50568C200.823 5.50568 200.421 5.61364 200.099 5.82955C199.777 6.04167 199.616 6.31629 199.616 6.65341C199.616 6.94508 199.724 7.17992 199.94 7.35795C200.156 7.53598 200.505 7.68182 200.986 7.79545L202.372 8.11364C203.175 8.29924 203.774 8.58523 204.168 8.97159C204.562 9.35795 204.759 9.85985 204.759 10.4773C204.759 11 204.607 11.4659 204.304 11.875C204.005 12.2803 203.586 12.5985 203.048 12.8295C202.514 13.0606 201.895 13.1761 201.19 13.1761C200.213 13.1761 199.416 12.9678 198.798 12.5511C198.181 12.1307 197.802 11.5341 197.662 10.7614L199.304 10.5114C199.406 10.9394 199.616 11.2633 199.935 11.483C200.253 11.6989 200.668 11.8068 201.179 11.8068C201.736 11.8068 202.181 11.6913 202.514 11.4602C202.848 11.2254 203.014 10.9394 203.014 10.6023C203.014 10.3295 202.912 10.1004 202.707 9.91477C202.507 9.72917 202.198 9.58902 201.781 9.49432L200.304 9.17045C199.49 8.98485 198.887 8.68939 198.497 8.28409C198.111 7.87879 197.918 7.36553 197.918 6.74432C197.918 6.22917 198.062 5.77841 198.349 5.39205C198.637 5.00568 199.035 4.70455 199.543 4.48864C200.05 4.26894 200.632 4.15909 201.287 4.15909C202.23 4.15909 202.973 4.36364 203.514 4.77273C204.056 5.17803 204.414 5.72159 204.588 6.40341ZM214.537 13.1761C213.719 13.1761 213.005 12.9886 212.395 12.6136C211.785 12.2386 211.312 11.714 210.974 11.0398C210.637 10.3655 210.469 9.57765 210.469 8.67614C210.469 7.77083 210.637 6.97917 210.974 6.30114C211.312 5.62311 211.785 5.09659 212.395 4.72159C213.005 4.34659 213.719 4.15909 214.537 4.15909C215.355 4.15909 216.069 4.34659 216.679 4.72159C217.289 5.09659 217.762 5.62311 218.099 6.30114C218.437 6.97917 218.605 7.77083 218.605 8.67614C218.605 9.57765 218.437 10.3655 218.099 11.0398C217.762 11.714 217.289 12.2386 216.679 12.6136C216.069 12.9886 215.355 13.1761 214.537 13.1761ZM214.543 11.75C215.073 11.75 215.512 11.6098 215.861 11.3295C216.209 11.0492 216.467 10.6761 216.634 10.2102C216.804 9.74432 216.889 9.23106 216.889 8.67045C216.889 8.11364 216.804 7.60227 216.634 7.13636C216.467 6.66667 216.209 6.28977 215.861 6.00568C215.512 5.72159 215.073 5.57955 214.543 5.57955C214.009 5.57955 213.565 5.72159 213.213 6.00568C212.865 6.28977 212.605 6.66667 212.435 7.13636C212.268 7.60227 212.185 8.11364 212.185 8.67045C212.185 9.23106 212.268 9.74432 212.435 10.2102C212.605 10.6761 212.865 11.0492 213.213 11.3295C213.565 11.6098 214.009 11.75 214.543 11.75ZM227.67 4.27273L224.506 13H222.688L219.517 4.27273H221.341L223.551 10.9886H223.642L225.847 4.27273H227.67ZM232.732 13.1761C231.872 13.1761 231.131 12.9924 230.51 12.625C229.893 12.2538 229.415 11.733 229.078 11.0625C228.745 10.3883 228.578 9.59848 228.578 8.69318C228.578 7.79924 228.745 7.01136 229.078 6.32955C229.415 5.64773 229.885 5.11553 230.487 4.73295C231.093 4.35038 231.802 4.15909 232.612 4.15909C233.105 4.15909 233.582 4.24053 234.044 4.40341C234.506 4.56629 234.921 4.82197 235.288 5.17045C235.656 5.51894 235.946 5.97159 236.158 6.52841C236.37 7.08144 236.476 7.75379 236.476 8.54545V9.14773H229.538V7.875H234.811C234.811 7.42803 234.72 7.0322 234.538 6.6875C234.357 6.33902 234.101 6.06439 233.771 5.86364C233.446 5.66288 233.063 5.5625 232.624 5.5625C232.146 5.5625 231.73 5.67992 231.374 5.91477C231.021 6.14583 230.749 6.44886 230.555 6.82386C230.366 7.19508 230.271 7.59848 230.271 8.03409V9.02841C230.271 9.61174 230.374 10.108 230.578 10.517C230.786 10.9261 231.076 11.2386 231.447 11.4545C231.819 11.6667 232.252 11.7727 232.749 11.7727C233.071 11.7727 233.364 11.7273 233.629 11.6364C233.894 11.5417 234.124 11.4015 234.317 11.2159C234.51 11.0303 234.658 10.8011 234.76 10.5284L236.368 10.8182C236.239 11.2917 236.008 11.7064 235.675 12.0625C235.345 12.4148 234.93 12.6894 234.43 12.8864C233.934 13.0795 233.368 13.1761 232.732 13.1761ZM238.361 13V4.27273H240.003V5.65909H240.094C240.253 5.18939 240.533 4.82008 240.935 4.55114C241.34 4.27841 241.798 4.14205 242.31 4.14205C242.416 4.14205 242.541 4.14583 242.685 4.15341C242.832 4.16098 242.948 4.17045 243.031 4.18182V5.80682C242.963 5.78788 242.842 5.76705 242.668 5.74432C242.493 5.7178 242.319 5.70455 242.145 5.70455C241.743 5.70455 241.385 5.78977 241.071 5.96023C240.76 6.12689 240.514 6.35985 240.332 6.65909C240.151 6.95455 240.06 7.29167 240.06 7.67045V13H238.361ZM252.81 4.27273V5.63636H248.043V4.27273H252.81ZM249.321 2.18182H251.02V10.4375C251.02 10.767 251.069 11.0152 251.168 11.1818C251.266 11.3447 251.393 11.4564 251.548 11.517C251.707 11.5739 251.88 11.6023 252.065 11.6023C252.202 11.6023 252.321 11.5928 252.423 11.5739C252.526 11.5549 252.605 11.5398 252.662 11.5284L252.969 12.9318C252.87 12.9697 252.73 13.0076 252.548 13.0455C252.366 13.0871 252.139 13.1098 251.866 13.1136C251.42 13.1212 251.003 13.0417 250.616 12.875C250.23 12.7083 249.918 12.4508 249.679 12.1023C249.44 11.7538 249.321 11.3163 249.321 10.7898V2.18182ZM256.575 7.81818V13H254.876V1.36364H256.553V5.69318H256.661C256.865 5.22348 257.178 4.85038 257.598 4.57386C258.018 4.29735 258.568 4.15909 259.246 4.15909C259.844 4.15909 260.367 4.2822 260.814 4.52841C261.265 4.77462 261.613 5.14205 261.859 5.63068C262.109 6.11553 262.234 6.72159 262.234 7.44886V13H260.536V7.65341C260.536 7.01326 260.371 6.51705 260.041 6.16477C259.712 5.80871 259.253 5.63068 258.666 5.63068C258.265 5.63068 257.905 5.71591 257.587 5.88636C257.272 6.05682 257.024 6.30682 256.842 6.63636C256.664 6.96212 256.575 7.35606 256.575 7.81818ZM268.263 13.1761C267.403 13.1761 266.662 12.9924 266.041 12.625C265.424 12.2538 264.946 11.733 264.609 11.0625C264.276 10.3883 264.109 9.59848 264.109 8.69318C264.109 7.79924 264.276 7.01136 264.609 6.32955C264.946 5.64773 265.416 5.11553 266.018 4.73295C266.625 4.35038 267.333 4.15909 268.143 4.15909C268.636 4.15909 269.113 4.24053 269.575 4.40341C270.037 4.56629 270.452 4.82197 270.82 5.17045C271.187 5.51894 271.477 5.97159 271.689 6.52841C271.901 7.08144 272.007 7.75379 272.007 8.54545V9.14773H265.07V7.875H270.342C270.342 7.42803 270.251 7.0322 270.07 6.6875C269.888 6.33902 269.632 6.06439 269.303 5.86364C268.977 5.66288 268.594 5.5625 268.155 5.5625C267.678 5.5625 267.261 5.67992 266.905 5.91477C266.553 6.14583 266.28 6.44886 266.087 6.82386C265.897 7.19508 265.803 7.59848 265.803 8.03409V9.02841C265.803 9.61174 265.905 10.108 266.109 10.517C266.318 10.9261 266.607 11.2386 266.979 11.4545C267.35 11.6667 267.784 11.7727 268.28 11.7727C268.602 11.7727 268.895 11.7273 269.161 11.6364C269.426 11.5417 269.655 11.4015 269.848 11.2159C270.041 11.0303 270.189 10.8011 270.291 10.5284L271.899 10.8182C271.77 11.2917 271.539 11.7064 271.206 12.0625C270.876 12.4148 270.462 12.6894 269.962 12.8864C269.465 13.0795 268.899 13.1761 268.263 13.1761ZM2.84091 27.3636V39H1.14205V27.3636H2.84091ZM7.66619 39.1932C7.11316 39.1932 6.61316 39.0909 6.16619 38.8864C5.71922 38.678 5.36506 38.3769 5.10369 37.983C4.84612 37.589 4.71733 37.1061 4.71733 36.5341C4.71733 36.0417 4.81203 35.6364 5.00142 35.3182C5.19081 35 5.4465 34.7481 5.76847 34.5625C6.09044 34.3769 6.45028 34.2367 6.84801 34.142C7.24574 34.0473 7.65104 33.9754 8.06392 33.9261C8.58665 33.8655 9.01089 33.8163 9.33665 33.7784C9.66241 33.7367 9.89915 33.6705 10.0469 33.5795C10.1946 33.4886 10.2685 33.3409 10.2685 33.1364V33.0966C10.2685 32.6004 10.1283 32.2159 9.84801 31.9432C9.5715 31.6705 9.15862 31.5341 8.60938 31.5341C8.03741 31.5341 7.58665 31.661 7.2571 31.9148C6.93134 32.1648 6.70597 32.4432 6.58097 32.75L4.98438 32.3864C5.17377 31.8561 5.45028 31.428 5.81392 31.1023C6.18134 30.7727 6.60369 30.5341 7.08097 30.3864C7.55824 30.2348 8.06013 30.1591 8.58665 30.1591C8.93513 30.1591 9.30445 30.2008 9.6946 30.2841C10.0885 30.3636 10.456 30.5114 10.7969 30.7273C11.1416 30.9432 11.4238 31.2519 11.6435 31.6534C11.8632 32.0511 11.973 32.5682 11.973 33.2045V39H10.3139V37.8068H10.2457C10.1359 38.0265 9.97112 38.2424 9.75142 38.4545C9.53172 38.6667 9.24953 38.8428 8.90483 38.983C8.56013 39.1231 8.14725 39.1932 7.66619 39.1932ZM8.03551 37.8295C8.50521 37.8295 8.90672 37.7367 9.24006 37.5511C9.57718 37.3655 9.83286 37.1231 10.0071 36.8239C10.1851 36.5208 10.2741 36.197 10.2741 35.8523V34.7273C10.2135 34.7879 10.0961 34.8447 9.92188 34.8977C9.75142 34.947 9.55634 34.9905 9.33665 35.0284C9.11695 35.0625 8.90294 35.0947 8.6946 35.125C8.48627 35.1515 8.31203 35.1742 8.17188 35.1932C7.84233 35.2348 7.54119 35.3049 7.26847 35.4034C6.99953 35.5019 6.78362 35.6439 6.62074 35.8295C6.46165 36.0114 6.3821 36.2538 6.3821 36.5568C6.3821 36.9773 6.53741 37.2955 6.84801 37.5114C7.15862 37.7235 7.55445 37.8295 8.03551 37.8295ZM14.054 39V37.8352L18.7812 31.8295V31.75H14.2074V30.2727H20.9006V31.5114L16.3551 37.4432V37.5227H21.0597V39H14.054ZM24.1378 42.2727C23.884 42.2727 23.6529 42.2519 23.4446 42.2102C23.2363 42.1723 23.081 42.1307 22.9787 42.0852L23.3878 40.6932C23.6984 40.7765 23.9749 40.8125 24.2173 40.8011C24.4598 40.7898 24.6738 40.6989 24.8594 40.5284C25.0488 40.358 25.2154 40.0795 25.3594 39.6932L25.5696 39.1136L22.3764 30.2727H24.1946L26.4048 37.0455H26.4957L28.706 30.2727H30.5298L26.9332 40.1648C26.7666 40.6193 26.5545 41.0038 26.2969 41.3182C26.0393 41.6364 25.7325 41.875 25.3764 42.0341C25.0204 42.1932 24.6075 42.2727 24.1378 42.2727ZM39.6278 39.1705C38.9233 39.1705 38.2945 38.9905 37.7415 38.6307C37.1922 38.267 36.7604 37.75 36.446 37.0795C36.1354 36.4053 35.9801 35.5966 35.9801 34.6534C35.9801 33.7102 36.1373 32.9034 36.4517 32.233C36.7699 31.5625 37.2055 31.0492 37.7585 30.6932C38.3116 30.3371 38.9384 30.1591 39.6392 30.1591C40.1809 30.1591 40.6165 30.25 40.946 30.4318C41.2794 30.6098 41.5369 30.8182 41.7188 31.0568C41.9044 31.2955 42.0483 31.5057 42.1506 31.6875H42.2528V27.3636H43.9517V39H42.2926V37.642H42.1506C42.0483 37.8277 41.9006 38.0398 41.7074 38.2784C41.518 38.517 41.2566 38.7254 40.9233 38.9034C40.59 39.0814 40.1581 39.1705 39.6278 39.1705ZM40.0028 37.7216C40.4915 37.7216 40.9044 37.5928 41.2415 37.3352C41.5824 37.0739 41.84 36.7121 42.0142 36.25C42.1922 35.7879 42.2812 35.25 42.2812 34.6364C42.2812 34.0303 42.1941 33.5 42.0199 33.0455C41.8456 32.5909 41.59 32.2367 41.2528 31.983C40.9157 31.7292 40.4991 31.6023 40.0028 31.6023C39.4915 31.6023 39.0653 31.7348 38.7244 32C38.3835 32.2652 38.1259 32.6269 37.9517 33.0852C37.7813 33.5436 37.696 34.0606 37.696 34.6364C37.696 35.2197 37.7831 35.7443 37.9574 36.2102C38.1316 36.6761 38.3892 37.0455 38.7301 37.3182C39.0748 37.5871 39.4991 37.7216 40.0028 37.7216ZM50.0526 39.1761C49.2344 39.1761 48.5204 38.9886 47.9105 38.6136C47.3007 38.2386 46.8272 37.714 46.4901 37.0398C46.1529 36.3655 45.9844 35.5777 45.9844 34.6761C45.9844 33.7708 46.1529 32.9792 46.4901 32.3011C46.8272 31.6231 47.3007 31.0966 47.9105 30.7216C48.5204 30.3466 49.2344 30.1591 50.0526 30.1591C50.8707 30.1591 51.5848 30.3466 52.1946 30.7216C52.8045 31.0966 53.2779 31.6231 53.6151 32.3011C53.9522 32.9792 54.1207 33.7708 54.1207 34.6761C54.1207 35.5777 53.9522 36.3655 53.6151 37.0398C53.2779 37.714 52.8045 38.2386 52.1946 38.6136C51.5848 38.9886 50.8707 39.1761 50.0526 39.1761ZM50.0582 37.75C50.5885 37.75 51.0279 37.6098 51.3764 37.3295C51.7249 37.0492 51.9825 36.6761 52.1491 36.2102C52.3196 35.7443 52.4048 35.2311 52.4048 34.6705C52.4048 34.1136 52.3196 33.6023 52.1491 33.1364C51.9825 32.6667 51.7249 32.2898 51.3764 32.0057C51.0279 31.7216 50.5885 31.5795 50.0582 31.5795C49.5241 31.5795 49.081 31.7216 48.7287 32.0057C48.3802 32.2898 48.1207 32.6667 47.9503 33.1364C47.7836 33.6023 47.7003 34.1136 47.7003 34.6705C47.7003 35.2311 47.7836 35.7443 47.9503 36.2102C48.1207 36.6761 48.3802 37.0492 48.7287 37.3295C49.081 37.6098 49.5241 37.75 50.0582 37.75ZM59.6761 42.4545C58.983 42.4545 58.3864 42.3636 57.8864 42.1818C57.3902 42 56.9848 41.7595 56.6705 41.4602C56.3561 41.161 56.1212 40.8333 55.9659 40.4773L57.4261 39.875C57.5284 40.0417 57.6648 40.2178 57.8352 40.4034C58.0095 40.5928 58.2443 40.7538 58.5398 40.8864C58.839 41.0189 59.2235 41.0852 59.6932 41.0852C60.3371 41.0852 60.8693 40.928 61.2898 40.6136C61.7102 40.303 61.9205 39.8068 61.9205 39.125V37.4091H61.8125C61.7102 37.5947 61.5625 37.8011 61.3693 38.0284C61.1799 38.2557 60.9186 38.4527 60.5852 38.6193C60.2519 38.786 59.8182 38.8693 59.2841 38.8693C58.5947 38.8693 57.9735 38.7083 57.4205 38.3864C56.8712 38.0606 56.4356 37.5814 56.1136 36.9489C55.7955 36.3125 55.6364 35.5303 55.6364 34.6023C55.6364 33.6742 55.7936 32.8788 56.108 32.2159C56.4261 31.553 56.8617 31.0455 57.4148 30.6932C57.9678 30.3371 58.5947 30.1591 59.2955 30.1591C59.8371 30.1591 60.2746 30.25 60.608 30.4318C60.9413 30.6098 61.2008 30.8182 61.3864 31.0568C61.5758 31.2955 61.7216 31.5057 61.8239 31.6875H61.9489V30.2727H63.6136V39.1932C63.6136 39.9432 63.4394 40.5587 63.0909 41.0398C62.7424 41.5208 62.2708 41.8769 61.6761 42.108C61.0852 42.339 60.4186 42.4545 59.6761 42.4545ZM59.6591 37.4602C60.1477 37.4602 60.5606 37.3466 60.8977 37.1193C61.2386 36.8883 61.4962 36.5587 61.6705 36.1307C61.8485 35.6989 61.9375 35.1818 61.9375 34.5795C61.9375 33.9924 61.8504 33.4754 61.6761 33.0284C61.5019 32.5814 61.2462 32.233 60.9091 31.983C60.572 31.7292 60.1553 31.6023 59.6591 31.6023C59.1477 31.6023 58.7216 31.7348 58.3807 32C58.0398 32.2614 57.7822 32.6174 57.608 33.0682C57.4375 33.5189 57.3523 34.0227 57.3523 34.5795C57.3523 35.1515 57.4394 35.6534 57.6136 36.0852C57.7879 36.517 58.0455 36.8542 58.3864 37.0966C58.7311 37.339 59.1553 37.4602 59.6591 37.4602ZM67.0114 39.108C66.7008 39.108 66.4337 38.9981 66.2102 38.7784C65.9867 38.5549 65.875 38.286 65.875 37.9716C65.875 37.661 65.9867 37.3958 66.2102 37.1761C66.4337 36.9527 66.7008 36.8409 67.0114 36.8409C67.322 36.8409 67.589 36.9527 67.8125 37.1761C68.036 37.3958 68.1477 37.661 68.1477 37.9716C68.1477 38.1799 68.0947 38.3712 67.9886 38.5455C67.8864 38.7159 67.75 38.8523 67.5795 38.9545C67.4091 39.0568 67.2197 39.108 67.0114 39.108Z" fill="black"></path>
</svg>
