<svg width="22" height="22" viewBox="0 0 22 22" xmlns="http://www.w3.org/2000/svg">
    <path fill-rule="evenodd" clip-rule="evenodd" d="M9.77778 3.4375C7.08139 3.4375 4.82087 5.38817 4.27778 7.98031C1.87223 8.29015 0 10.3642 0 12.8965C0 15.6416 2.19313 17.8749 4.88889 17.8749H5.62222C5.88669 17.8787 6.13268 17.7372 6.26601 17.5046C6.39933 17.272 6.39933 16.9843 6.26601 16.7517C6.13268 16.5191 5.88669 16.3776 5.62222 16.3814H4.88889C2.98029 16.3814 1.46667 14.8401 1.46667 12.8965C1.46667 10.953 2.98029 9.41161 4.88889 9.41161C5.26849 9.41327 5.5866 9.1197 5.62222 8.73485C5.83169 6.60115 7.61642 4.93103 9.77778 4.93103C10.9566 4.93103 11.9037 5.38526 12.6729 6.19119C12.8766 6.40543 13.1859 6.47576 13.4597 6.3701C13.7736 6.24875 14.2586 6.17563 14.6667 6.17563C16.3017 6.17563 17.6619 7.40528 17.8521 8.99933C17.8838 9.27862 18.0668 9.51612 18.3257 9.61386C19.6269 10.1003 20.5333 11.3731 20.5333 12.8965C20.5333 14.8401 19.0197 16.3814 17.1111 16.3814H16.3778C16.1133 16.3776 15.8673 16.5191 15.734 16.7517C15.6007 16.9843 15.6007 17.272 15.734 17.5046C15.8673 17.7372 16.1133 17.8787 16.3778 17.8749H17.1111C19.8069 17.8749 22 15.6416 22 12.8965C22 10.9234 20.8695 9.22733 19.2194 8.4237C18.7725 6.27663 16.8923 4.68211 14.6667 4.68211C14.2443 4.68211 13.8084 4.75019 13.3833 4.86102C12.4147 3.9904 11.1864 3.4375 9.77778 3.4375ZM11.0048 15.3818C11.2007 15.3797 11.3876 15.298 11.5239 15.1548C11.6602 15.0116 11.7346 14.8188 11.7305 14.6194V10.6367L12.1583 11.1345C12.3201 11.3285 12.5676 11.4252 12.8153 11.3912C13.0859 11.3542 13.3139 11.167 13.407 10.9056C13.5 10.6442 13.4428 10.3517 13.2583 10.1466L11.5472 8.15527C11.408 7.99455 11.2077 7.90248 10.9972 7.90248C10.7867 7.90248 10.5864 7.99455 10.4472 8.15527L8.73609 10.1466C8.55866 10.3461 8.50039 10.6274 8.58355 10.8829C8.66671 11.1384 8.87844 11.3286 9.13777 11.3807C9.39709 11.4328 9.66387 11.3387 9.83609 11.1345L10.2639 10.6367V14.6194C10.2597 14.8215 10.3362 15.0167 10.4759 15.1603C10.6155 15.304 10.8064 15.3839 11.0048 15.3818ZM8.05903 14.8723C7.8632 14.8744 7.67631 14.9561 7.53999 15.0993C7.40368 15.2425 7.32927 15.4352 7.33334 15.6346V17.1282C7.33338 17.5406 7.66168 17.8749 8.06667 17.8749H13.9333C14.3383 17.8749 14.6666 17.5406 14.6667 17.1282V15.6346C14.6704 15.3653 14.5315 15.1148 14.303 14.9791C14.0746 14.8433 13.7921 14.8433 13.5636 14.9791C13.3352 15.1148 13.1963 15.3653 13.2 15.6346V16.3814H8.8V15.6346C8.80413 15.4325 8.72764 15.2374 8.58801 15.0937C8.44837 14.9501 8.25752 14.8702 8.05903 14.8723Z" />
</svg>