<svg width="22" height="22" viewBox="0 0 22 22" xmlns="http://www.w3.org/2000/svg">
    <path d="M15.5146 1.50199C15.8913 1.47341 16.2199 1.75562 16.2485 2.13233L16.2471 2.13243C16.4059 4.2427 16.2553 5.68864 16.0167 6.68441C15.7926 7.61948 15.4946 8.13568 15.3508 8.38485C15.3391 8.40519 15.3282 8.42396 15.3187 8.44082C15.1488 8.74048 14.6814 9.33114 14.0093 9.93822C13.6169 10.2927 13.1392 10.667 12.5875 11.0022C13.1392 11.3374 13.6169 11.7117 14.0093 12.0662C14.6814 12.6733 15.1488 13.2639 15.3187 13.5636C15.3282 13.5804 15.3389 13.599 15.3507 13.6193C15.4945 13.8685 15.7926 14.3849 16.0167 15.32C16.2553 16.3158 16.4059 17.7617 16.2471 19.872L16.2485 19.8721C16.2199 20.2488 15.8913 20.531 15.5146 20.5024L15.4828 20.5C15.1075 20.4715 14.8259 20.1452 14.8522 19.7702L14.8509 19.7701C14.9142 18.9295 14.9247 18.213 14.9009 17.6035H9.66061C9.27401 17.6035 8.96061 17.2901 8.96061 16.9035C8.96061 16.5169 9.27401 16.2035 9.66061 16.2035H14.7666C14.7328 15.9975 14.695 15.8123 14.6552 15.6463C14.5245 15.101 14.3707 14.7509 14.2491 14.5186H11.3649C10.988 14.5186 10.6807 14.2207 10.6655 13.8476C10.6651 13.8378 10.6649 13.828 10.6649 13.8181C10.6649 13.4315 10.9783 13.1181 11.3649 13.1181H13.0852L13.0709 13.1051C12.5292 12.6158 11.8228 12.1045 10.9994 11.7551C10.1765 12.1045 9.47054 12.6156 8.92913 13.1046C8.32375 13.6514 7.9705 14.1278 7.89922 14.2536C7.88937 14.2709 7.87855 14.2896 7.86688 14.3098C7.7428 14.5241 7.52236 14.9048 7.34479 15.6458C7.14679 16.472 6.99842 17.7693 7.14913 19.7696C7.17513 20.144 6.89358 20.4699 6.51872 20.4989L6.48693 20.5014C6.11026 20.5305 5.78131 20.2487 5.75219 19.8721C5.5934 17.7615 5.74469 16.3154 5.98333 15.3195C6.20742 14.3844 6.50537 13.8682 6.64919 13.6191C6.66097 13.5986 6.67173 13.58 6.68132 13.5631C6.85121 13.2634 7.31863 12.6728 7.9907 12.0657C8.38292 11.7114 8.86034 11.3373 9.41167 11.0022C8.86034 10.6671 8.38292 10.293 7.9907 9.9387C7.31863 9.33163 6.85121 8.74097 6.68132 8.44131C6.67173 8.42439 6.66097 8.40576 6.64919 8.38534C6.50537 8.13617 6.20742 7.61996 5.98333 6.68489C5.74469 5.68904 5.59409 4.24295 5.75288 2.13238C5.782 1.75571 6.11026 1.47391 6.48693 1.50303L6.51872 1.50548C6.89358 1.53446 7.17442 1.86038 7.14843 2.23477C7.08618 3.06104 7.07566 3.76741 7.09788 4.37012H12.3395C12.7261 4.37012 13.0395 4.68352 13.0395 5.07012C13.0395 5.45672 12.7261 5.77012 12.3395 5.77012H7.22836C7.26339 5.98875 7.30298 6.18419 7.34479 6.35863C7.46989 6.88069 7.61626 7.22389 7.73522 7.45606H10.6353C11.0219 7.45606 11.3353 7.76946 11.3353 8.15606C11.3353 8.54266 11.0219 8.85606 10.6353 8.85606H8.88109C8.89693 8.87058 8.91294 8.88516 8.92913 8.89979C9.47054 9.38883 10.1765 9.89992 10.9994 10.2493C11.8228 9.8999 12.5292 9.38857 13.0709 8.8993C13.6762 8.35247 14.0295 7.87611 14.1008 7.75037C14.1106 7.73297 14.1215 7.71426 14.1332 7.69408C14.2572 7.47978 14.4776 7.09913 14.6552 6.35815C14.8532 5.53195 15.0016 4.23465 14.8509 2.23433L14.8522 2.23423C14.8259 1.85921 15.1075 1.53289 15.4828 1.50441L15.5146 1.50199Z" />
</svg>
    