<svg width="14" height="14" viewBox="0 0 14 14" xmlns="http://www.w3.org/2000/svg">
    <path d="M3.495 2.93497C3.21885 2.93497 2.995 3.15882 2.995 3.43497C2.995 3.71111 3.21885 3.93497 3.495 3.93497H6.495C6.77114 3.93497 6.995 3.71111 6.995 3.43497C6.995 3.15882 6.77114 2.93497 6.495 2.93497H3.495Z" />
    <path d="M2.995 5.18497C2.995 4.90882 3.21885 4.68497 3.495 4.68497H7.495C7.77114 4.68497 7.995 4.90882 7.995 5.18497C7.995 5.46111 7.77114 5.68497 7.495 5.68497H3.495C3.21885 5.68497 2.995 5.46111 2.995 5.18497Z" />
    <path d="M3.495 6.43497C3.21885 6.43497 2.995 6.65882 2.995 6.93497C2.995 7.21111 3.21885 7.43497 3.495 7.43497H5.495C5.77114 7.43497 5.995 7.21111 5.995 6.93497C5.995 6.65882 5.77114 6.43497 5.495 6.43497H3.495Z" />
    <path fill-rule="evenodd" clip-rule="evenodd" d="M8.78533 1.68544C10.568 3.46815 10.7298 6.25801 9.27054 8.22346C9.29709 8.24369 9.32259 8.26593 9.34684 8.29018L13.5684 12.5117C13.8607 12.8041 13.8607 13.2781 13.5684 13.5704C13.2761 13.8628 12.8021 13.8628 12.5097 13.5704L8.28817 9.34886C8.26382 9.32451 8.2415 9.29889 8.2212 9.27223C6.25586 10.7297 3.46744 10.5674 1.68541 8.78536C-0.275181 6.82477 -0.275181 3.64603 1.68541 1.68544C3.646 -0.275151 6.82474 -0.275151 8.78533 1.68544ZM7.67804 7.67797C9.03996 6.31605 9.03996 4.10796 7.67804 2.74604C6.31613 1.38413 4.10803 1.38413 2.74612 2.74604C1.38421 4.10796 1.38421 6.31605 2.74612 7.67797C4.10803 9.03988 6.31613 9.03988 7.67804 7.67797Z" />
</svg>
    