<svg width="22" height="22" viewBox="0 0 22 22" xmlns="http://www.w3.org/2000/svg">
    <path fill-rule="evenodd" clip-rule="evenodd" d="M11 18.6389C15.2189 18.6389 18.6389 15.2189 18.6389 11C18.6389 6.78117 15.2189 3.36112 11 3.36112C6.78117 3.36112 3.36112 6.78117 3.36112 11C3.36112 15.2189 6.78117 18.6389 11 18.6389ZM11 20.1667C16.0626 20.1667 20.1667 16.0626 20.1667 11C20.1667 5.9374 16.0626 1.83334 11 1.83334C5.9374 1.83334 1.83334 5.9374 1.83334 11C1.83334 16.0626 5.9374 20.1667 11 20.1667Z" />
    <path fill-rule="evenodd" clip-rule="evenodd" d="M14.0556 11.3056L9.0139 8.39476V14.2164L14.0556 11.3056ZM15.2778 12.364C16.0926 11.8936 16.0926 10.7175 15.2778 10.2471L9.31946 6.80704C8.50464 6.33661 7.48612 6.92465 7.48612 7.86552V14.7456C7.48612 15.6865 8.50464 16.2745 9.31946 15.8041L15.2778 12.364Z" />
</svg>