<?xml version="1.0" encoding="UTF-8"?>
<svg width="14px" height="14px" viewBox="0 0 14 14" version="1.1" xmlns="http://www.w3.org/2000/svg" xmlns:xlink="http://www.w3.org/1999/xlink">
    <title>IconCoverageSmall@1x</title>
    <g id="Icons" stroke="none" stroke-width="1" fill-rule="evenodd">
        <g id="Icons-/-Small-/-IconCoverageSmall" >
            <path d="M5.61056645,2.70718954 C6.08749862,2.70718954 6.47412854,3.09381946 6.47412854,3.57075163 L6.47412854,12.2864379 C6.47412854,12.7633701 6.08749862,13.15 5.61056645,13.15 C5.13363428,13.15 4.74700436,12.7633701 4.74700436,12.2864379 L4.74700436,3.57075163 C4.74700436,3.09381946 5.13363428,2.70718954 5.61056645,2.70718954 Z M2.86356209,4.9375817 C3.34049427,4.9375817 3.72712418,5.32421162 3.72712418,5.80114379 L3.72712418,12.275 C3.72712418,12.7519322 3.34049427,13.1385621 2.86356209,13.1385621 C2.38662992,13.1385621 2,12.7519322 2,12.275 L2,5.80114379 C2,5.32421162 2.38662992,4.9375817 2.86356209,4.9375817 Z M8.35757081,0.9 C8.83450298,0.9 9.2211329,1.28662992 9.2211329,1.76356209 L9.2211329,12.275 C9.2211329,12.7519322 8.83450298,13.1385621 8.35757081,13.1385621 C7.88063863,13.1385621 7.49400871,12.7519322 7.49400871,12.275 L7.49400871,1.76356209 C7.49400871,1.28662992 7.88063863,0.9 8.35757081,0.9 Z M11.1045752,5.12058824 C11.5815073,5.12058824 11.9681373,5.50721815 11.9681373,5.98415033 L11.9681373,12.275 C11.9681373,12.7519322 11.5815073,13.1385621 11.1045752,13.1385621 C10.627643,13.1385621 10.2410131,12.7519322 10.2410131,12.275 L10.2410131,5.98415033 C10.2410131,5.50721815 10.627643,5.12058824 11.1045752,5.12058824 Z" id="Combined-Shape"></path>
        </g>
    </g>
</svg>