<svg width="14" height="14" viewBox="0 0 14 14" fill="black" xmlns="http://www.w3.org/2000/svg">
    <defs></defs>
    <path fill-rule="evenodd" clip-rule="evenodd" d="M13.4546 5.73459L9.5908 2.20062C9.44925 2.07116 9.26897 2.00001 9.08255 2H0.780954C0.573832 2 0.375194 2.0878 0.228736 2.24408C0.082279 2.40036 0 2.61232 0 2.83333V11.1667C0 11.3877 0.082279 11.5996 0.228736 11.7559C0.375194 11.9122 0.573832 12 0.780954 12H9.08255C9.26897 12 9.44925 11.9288 9.5908 11.7994L13.4546 8.26542C13.6256 8.10896 13.763 7.91485 13.8571 7.69643C13.9513 7.478 14 7.24043 14 7.00001C14 6.75959 13.9513 6.52201 13.8571 6.30359C13.763 6.08516 13.6256 5.89106 13.4546 5.73459ZM12.7797 7.52753C12.8435 7.4691 12.8992 7.39254 12.9388 7.30061C12.9784 7.20857 13 7.10582 13 7.00001C13 6.8942 12.9784 6.79144 12.9388 6.69941C12.8992 6.60748 12.8435 6.53092 12.7797 6.47249L8.98311 3H1V11H8.98311L12.7797 7.52753Z"></path>
  </svg>