<svg width="22" height="22" viewBox="0 0 22 22" xmlns="http://www.w3.org/2000/svg">
    <path fill-rule="evenodd" clip-rule="evenodd" d="M12.251 7.50309C11.9213 7.83302 11.4658 8.02185 11.0008 8.02185C10.5377 8.02185 10.083 7.83302 9.75395 7.50309C9.42465 7.17714 9.23499 6.72203 9.23499 6.25582C9.23499 5.78793 9.42465 5.33156 9.75563 5.00414C10.0772 4.67882 10.5325 4.48999 11.0008 4.48999C11.4677 4.48999 11.9232 4.6784 12.251 5.00644C12.5789 5.33428 12.7668 5.7896 12.7668 6.25603C12.7668 6.72056 12.5786 7.17526 12.251 7.50309ZM11.4704 5.77903C11.2255 5.5322 10.7762 5.5322 10.5363 5.77709C10.4094 5.90361 10.3387 6.07496 10.3387 6.25154C10.3387 6.42638 10.4093 6.59715 10.5324 6.71998C10.6583 6.8465 10.8283 6.91811 11.0009 6.91811C11.1754 6.91811 11.3463 6.8465 11.4704 6.72173C11.5911 6.60006 11.6632 6.42444 11.6632 6.25154C11.6632 6.07457 11.593 5.90244 11.4704 5.77903Z" />
    <path fill-rule="evenodd" clip-rule="evenodd" d="M11.001 8.68408C11.609 8.68408 12.5001 9.07411 12.5457 9.94506L12.5457 15.9448C12.5459 15.9523 12.5461 15.9603 12.5461 15.9679C12.5461 16.8203 11.8531 17.5137 11.001 17.5137C10.1488 17.5137 9.45576 16.8203 9.45576 15.9679C9.45576 15.9604 9.45597 15.953 9.45618 15.9455L9.45577 9.95025C9.4947 9.12713 10.4055 8.68408 11.001 8.68408ZM10.587 15.6536C10.5916 15.8766 10.7749 16.0568 10.9993 16.0568C11.2237 16.0568 11.407 15.8768 11.4116 15.6538L11.4116 10.5524C11.4026 10.3782 11.2271 10.141 10.9993 10.141C10.7715 10.141 10.5959 10.368 10.587 10.5545V15.6536Z" />
    <path fill-rule="evenodd" clip-rule="evenodd" d="M20.5 11C20.5 16.2467 16.2467 20.5 11 20.5C5.75329 20.5 1.5 16.2467 1.5 11C1.5 5.75329 5.75329 1.5 11 1.5C16.2467 1.5 20.5 5.75329 20.5 11ZM19.05 11C19.05 15.4459 15.4459 19.05 11 19.05C6.55411 19.05 2.95 15.4459 2.95 11C2.95 6.55411 6.55411 2.95 11 2.95C15.4459 2.95 19.05 6.55411 19.05 11Z" />
</svg>
    