<svg width="22" height="22" viewBox="0 0 22 22" xmlns="http://www.w3.org/2000/svg">
    <path d="M15.9196 7.98204C16.1858 7.61228 16.1019 7.0967 15.7321 6.83047C15.3623 6.56424 14.8468 6.64817 14.5805 7.01794L9.77858 13.6873L6.86327 10.4481C6.55847 10.1094 6.03683 10.082 5.69816 10.3868C5.35949 10.6916 5.33203 11.2132 5.63684 11.5519L9.29908 15.621C9.61909 15.9766 10.1857 15.9458 10.4652 15.5576L15.9196 7.98204Z" />
    <path fill-rule="evenodd" clip-rule="evenodd" d="M20.5 11C20.5 16.2467 16.2467 20.5 11 20.5C5.75329 20.5 1.5 16.2467 1.5 11C1.5 5.75329 5.75329 1.5 11 1.5C16.2467 1.5 20.5 5.75329 20.5 11ZM19.05 11C19.05 15.4459 15.4459 19.05 11 19.05C6.55411 19.05 2.95 15.4459 2.95 11C2.95 6.55411 6.55411 2.95 11 2.95C15.4459 2.95 19.05 6.55411 19.05 11Z" />
</svg>
    