<svg width="22" height="22" viewBox="0 0 22 22" xmlns="http://www.w3.org/2000/svg">
    <path fill-rule="evenodd" clip-rule="evenodd" d="M12.0291 17.4625C12.0291 17.325 12.0291 17.1875 12.0291 17.05C12.0291 16.8437 12.0291 16.5687 12.0977 16.3625H3.30885C2.75954 16.3625 2.34756 15.95 2.34756 15.4688L1.5236 6.875C1.5236 6.66875 1.59227 6.4625 1.72959 6.325C1.86692 6.1875 2.07291 6.05 2.2789 6.05H18.4148C18.6208 6.05 18.8267 6.11875 18.9641 6.325C19.1014 6.4625 19.1701 6.66875 19.1701 6.875L18.6894 12.1C18.9641 12.1688 19.1701 12.2375 19.3761 12.375C19.3761 12.375 19.4447 12.375 19.4447 12.4438C19.6507 12.5813 19.8567 12.65 20.0627 12.7875L20.612 7.0125C20.6807 6.39375 20.4747 5.775 20.0627 5.29375C19.9254 5.0875 19.7194 4.95 19.5134 4.8125L19.582 4.33125C19.7194 3.09375 18.8267 1.99375 17.5908 1.925C17.5221 1.925 17.4535 1.925 17.3848 1.925H8.80191C8.59592 1.925 8.38993 1.85625 8.2526 1.65L7.56597 0.825C7.08533 0.34375 6.46736 0 5.78072 0H3.37751C2.75954 0 2.14157 0.275 1.72959 0.75625C1.24895 1.2375 1.04296 1.85625 1.11162 2.54375L1.38628 4.74375C1.11162 4.88125 0.836971 5.01875 0.562318 5.29375C0.150338 5.775 -0.0556515 6.39375 0.0130117 7.0125L0.768308 15.6063C0.905634 16.9125 2.00425 17.875 3.30885 17.875H12.1664C12.0977 17.7375 12.0977 17.6 12.0291 17.4625ZM2.82821 1.7875C2.96553 1.65 3.17152 1.5125 3.37751 1.5125H5.78072C5.98671 1.5125 6.1927 1.58125 6.33003 1.7875L7.01666 2.6125C7.42864 3.1625 8.04661 3.4375 8.73325 3.4375H17.2475C17.4535 3.4375 17.6595 3.50625 17.7968 3.64375C17.9341 3.78125 18.0028 3.9875 18.0028 4.19375L17.9341 4.5375H2.82821L2.62222 2.3375C2.62222 2.13125 2.69088 1.925 2.82821 1.7875Z" fill="#CCCCCC" />
    <path fill-rule="evenodd" clip-rule="evenodd" d="M17.2547 11.7069C14.1041 11.4329 11.4329 14.1041 11.7069 17.2547C11.9123 19.7204 13.8986 21.7752 16.4328 21.9806C19.5834 22.2546 22.2546 19.5834 21.9806 16.4328C21.7752 13.8986 19.7889 11.9123 17.2547 11.7069ZM17.8711 12.4603C18.0766 12.5288 18.2821 12.5973 18.4876 12.6658C18.6245 12.7342 18.693 12.8027 18.83 12.8027C19.3779 13.0767 19.8574 13.4192 20.2683 13.8986C20.2683 13.8986 20.3368 13.9671 20.3368 14.0356C20.3368 14.1041 20.3368 14.2411 20.3368 14.3096C20.3368 14.378 20.2683 14.4465 20.2683 14.515C20.2683 14.652 20.4053 14.7205 20.4738 14.7205C20.5423 14.7205 20.6793 14.7205 20.7478 14.7205C20.8163 14.7205 20.8848 14.789 20.8848 14.8575C20.9533 14.9945 21.0217 15.1315 21.0217 15.1999C21.2272 15.6794 21.2957 16.1588 21.3642 16.7068C21.3642 16.7753 21.3642 16.8438 21.2957 16.9122C21.2272 16.9807 21.0902 17.1177 21.0217 17.2547C20.8848 17.5287 20.7478 17.9396 20.5423 18.1451C20.4053 18.2821 20.2683 18.4191 20.2683 18.556C20.1998 18.693 20.2683 18.83 20.1998 18.8985C20.1998 18.967 20.1314 18.967 20.0629 18.8985C19.8574 18.6245 19.7889 18.3506 19.7204 18.0766C19.6519 17.8711 19.6519 17.6657 19.5834 17.3917C19.5149 17.1862 19.3779 16.9807 19.1725 16.8438C18.967 16.7068 18.693 16.7753 18.4876 16.7068C18.2136 16.7068 18.0081 16.6383 17.8026 16.4328C17.7341 16.3643 17.6657 16.2273 17.6657 16.1588C17.5287 15.6109 17.8711 14.9945 18.3506 14.7205C18.4191 14.652 18.4876 14.652 18.556 14.5835C18.693 14.4465 18.7615 14.3096 18.693 14.1041C18.693 14.0356 18.6245 14.0356 18.6245 14.0356C18.4876 14.1041 18.3506 14.1041 18.2821 14.1726C18.2136 14.1726 18.1451 14.1726 18.1451 14.1041C18.1451 13.8986 18.1451 13.6931 18.2136 13.4192C18.2821 13.1452 18.3506 12.9397 18.2136 12.7342C18.2136 12.6658 18.1451 12.6658 18.0766 12.6658C17.8711 12.6658 17.6657 12.6658 17.4602 12.6658C17.5972 12.5973 17.6657 12.5288 17.7341 12.3918C17.8026 12.4603 17.8026 12.4603 17.8711 12.4603ZM15.6794 12.5288C15.7479 12.5288 15.7479 12.5288 15.8164 12.5973C15.8849 12.7342 15.9534 12.8027 16.0218 12.9397C16.1588 13.2137 16.2273 13.5561 16.0903 13.7616C15.9534 14.0356 15.6109 14.1726 15.3369 14.378C14.7205 14.652 14.2411 15.1315 13.8986 15.6794L13.8301 15.7479C13.7616 15.7479 13.7616 15.7479 13.6931 15.6794C13.6246 15.6109 13.5561 15.6109 13.4877 15.5424C13.4877 15.5424 13.4192 15.5424 13.4192 15.6109C13.3507 15.8849 13.4877 16.2273 13.7616 16.3643C13.8301 16.3643 13.8301 16.4328 13.8986 16.4328C13.9671 16.5698 13.8986 16.7068 13.8986 16.8438C13.8986 17.0492 14.1726 17.1177 14.3096 17.1177C14.4465 17.1177 14.652 16.9807 14.8575 16.9122C15.2684 16.7753 15.6794 16.8438 16.0218 17.0492C16.2273 17.1862 16.3643 17.3232 16.5013 17.4602C16.6383 17.5972 16.8438 17.6657 17.0492 17.6657C17.1177 17.6657 17.1177 17.6657 17.1862 17.7341C17.2547 17.9396 17.1862 18.1451 17.0492 18.2821C16.9122 18.4876 16.7068 18.556 16.5698 18.7615C16.2273 19.1725 16.0903 19.7889 15.8164 20.2683C15.7479 20.3368 15.6794 20.4738 15.6109 20.5423C15.4739 20.6793 15.4739 20.8163 15.4739 21.0217C15.4739 21.0217 15.4739 21.0902 15.4054 21.0902C15.3369 21.0902 15.2684 21.0217 15.1999 21.0217C15.1315 21.0217 15.1315 20.9533 15.1315 20.8848C14.9945 20.2683 14.789 19.6519 14.515 19.0355C14.378 18.83 14.2411 18.556 14.0356 18.4191C13.9671 18.3506 13.8986 18.3506 13.8986 18.2821C13.8986 18.2136 13.8986 18.1451 13.8986 18.1451C13.9671 17.5287 13.6931 16.9122 13.2137 16.5698C13.1452 16.5013 13.0082 16.4328 13.0082 16.3643C12.9397 16.2958 12.9397 16.1588 12.9397 16.0903C12.8712 16.0218 12.7342 15.8849 12.6658 15.8164C12.5973 15.8164 12.5973 15.7479 12.5973 15.6794C12.8712 14.1726 14.1041 12.9397 15.6794 12.5288Z" />
</svg>
    