<svg width="14" height="14" viewBox="0 0 14 14" xmlns="http://www.w3.org/2000/svg">
<path fill-rule="evenodd" clip-rule="evenodd" d="M9.78688 8.702C10.3909 8.702 10.8806 9.1917 10.8806 9.79575C10.8806 10.3998 10.3909 10.8895 9.78688 10.8895C9.18281 10.8895 8.69313 10.3998 8.69313 9.79575C8.69313 9.19168 9.18281 8.702 9.78688 8.702ZM3.78367 8.98142C4.20855 8.98142 4.55297 9.32584 4.55297 9.75071C4.55297 10.1756 4.20855 10.52 3.78367 10.52C3.3588 10.52 3.01438 10.1756 3.01438 9.75071C3.01438 9.32584 3.3588 8.98142 3.78367 8.98142ZM11.1256 5.81875C11.7297 5.81875 12.2194 6.30843 12.2194 6.9125C12.2194 7.51657 11.7297 8.00625 11.1256 8.00625C10.5216 8.00625 10.0319 7.51657 10.0319 6.9125C10.0319 6.30843 10.5216 5.81875 11.1256 5.81875ZM2.57315 6.02526C3.02777 6.02526 3.3963 6.39379 3.3963 6.84841C3.3963 7.30303 3.02777 7.67156 2.57315 7.67156C2.11853 7.67156 1.75 7.30303 1.75 6.84841C1.75 6.39379 2.11853 6.02526 2.57315 6.02526ZM10.0129 2.90506C10.6138 2.90506 11.1009 3.39215 11.1009 3.99301C11.1009 4.59387 10.6138 5.08095 10.0129 5.08095C9.41208 5.08095 8.925 4.59387 8.925 3.99301C8.925 3.39214 9.41208 2.90506 10.0129 2.90506ZM3.91883 2.94806C4.41594 2.94806 4.81891 3.35104 4.81891 3.84814C4.81891 4.34525 4.41594 4.74822 3.91883 4.74822C3.42172 4.74822 3.01875 4.34525 3.01875 3.84814C3.01875 3.35104 3.42172 2.94806 3.91883 2.94806ZM6.99412 1.75C7.53453 1.75 7.97261 2.18808 7.97261 2.72849C7.97261 3.26891 7.53453 3.70699 6.99412 3.70699C6.4537 3.70699 6.01563 3.26891 6.01563 2.72849C6.01563 2.18808 6.4537 1.75 6.99412 1.75Z" />
</svg>
