<svg width="22" height="22" viewBox="0 0 22 22" xmlns="http://www.w3.org/2000/svg">
    <path fill-rule="evenodd" clip-rule="evenodd" d="M14.2002 12.8615C16.3756 10.0334 16.1675 5.96282 13.5759 3.37242C10.758 0.555871 6.18926 0.555871 3.37136 3.37242C0.553459 6.18898 0.553459 10.7555 3.37136 13.5721C5.96246 16.1619 10.0339 16.3704 12.8633 14.1974C12.8839 14.2227 12.9059 14.2472 12.9295 14.2708L19.1177 20.459C19.4887 20.83 20.0902 20.83 20.4612 20.459C20.8322 20.088 20.8322 19.4865 20.4612 19.1155L14.273 12.9273C14.2496 12.9039 14.2253 12.882 14.2002 12.8615ZM12.198 4.6791C14.2743 6.75546 14.2743 10.1219 12.198 12.1983C10.1216 14.2746 6.75514 14.2746 4.67878 12.1983C2.60241 10.1219 2.60241 6.75546 4.67878 4.6791C6.75514 2.60274 10.1216 2.60274 12.198 4.6791Z" />
</svg>
    