<svg width="22" height="22" viewBox="0 0 22 22" xmlns="http://www.w3.org/2000/svg">
    <path fill-rule="evenodd" clip-rule="evenodd" d="M8.02624 8.2343V13.0787C8.02624 13.3106 8.11249 13.5292 8.26929 13.6982C8.38362 13.8214 8.53007 13.9118 8.67849 13.9561L8.76753 13.9771L8.84204 13.9868L13.7816 13.9898V18.8341C13.7816 19.1489 13.6569 19.4484 13.4355 19.6698C13.2701 19.8352 13.0605 19.9472 12.8286 19.9931L12.7109 20.0106L12.5998 20.0159H3.18186C2.86704 20.0159 2.56759 19.8912 2.34616 19.6698C2.18075 19.5044 2.06879 19.2948 2.02279 19.0629L2.00535 18.9452L2 18.8341V9.41615C2 9.10134 2.12473 8.80188 2.34616 8.58045C2.51156 8.41505 2.72112 8.30308 2.953 8.25709L3.0707 8.23965L3.18186 8.2343H8.02624ZM6.62963 9.63477H3.39916V18.6138L12.3874 18.6138V15.3833H8.80193C8.37927 15.3577 7.97645 15.2131 7.63419 14.9664L7.50876 14.8692L7.31379 14.6824L7.22471 14.5917C6.91276 14.2556 6.71326 13.8344 6.65077 13.3789L6.63505 13.2259L6.63 13.0763L6.62963 9.63477ZM16.0014 13.9773C16.3728 13.9773 16.6785 14.269 16.6785 14.6273C16.6785 14.9303 16.459 15.189 16.1548 15.2594L16.0771 15.273L16.0014 15.2773H15.3411C14.9703 15.2773 14.6697 14.9863 14.6697 14.6273C14.6697 14.3263 14.8823 14.0693 15.1825 13.9966L15.2593 13.9824L15.3411 13.9773H16.0014ZM18.4064 13.5455C18.5816 13.2551 18.9082 13.1327 19.2192 13.2743C19.5568 13.4279 19.6912 13.778 19.5376 14.1155C19.2799 14.6816 18.757 15.0462 18.1367 15.106C17.7675 15.1416 17.4762 14.9499 17.4406 14.5808C17.4107 14.2712 17.5969 13.9865 17.8885 13.883L17.9636 13.861L18.0911 13.8407C18.1747 13.8223 18.25 13.7773 18.3038 13.7174L18.3399 13.6699L18.4064 13.5455ZM19.1956 9.25533C19.4967 9.25533 19.7537 9.46796 19.8263 9.76817L19.8406 9.84497L19.8456 9.9268V11.5067C19.8456 11.8775 19.5546 12.1782 19.1956 12.1782C18.8945 12.1782 18.6375 11.9655 18.5649 11.6653L18.5506 11.5885L18.5456 11.5067V9.9268C18.5456 9.55596 18.8366 9.25533 19.1956 9.25533ZM19.1956 5.18533C19.4967 5.18533 19.7537 5.39796 19.8263 5.69817L19.8406 5.77497L19.8456 5.8568V7.43671C19.8456 7.80755 19.5546 8.10817 19.1956 8.10817C18.8945 8.10817 18.6375 7.89554 18.5649 7.59534L18.5506 7.51854L18.5456 7.43671V5.8568C18.5456 5.48596 18.8366 5.18533 19.1956 5.18533ZM7.46245 4.93534C7.77512 4.93534 8.042 5.14797 8.11744 5.44817L8.13223 5.52497L8.13745 5.6068V6.67889C8.13745 7.04973 7.83524 7.35035 7.46245 7.35035C7.14979 7.35035 6.88291 7.13772 6.80747 6.83752L6.79268 6.76071L6.78745 6.67889V5.6068C6.78745 5.23596 7.08966 4.93534 7.46245 4.93534ZM8.54645 2.20571C8.91709 2.19334 9.22757 2.48376 9.23995 2.85439C9.25033 3.16525 9.04668 3.43768 8.74915 3.5227L8.67288 3.53997L8.54387 3.5523C8.459 3.56532 8.38118 3.60538 8.32383 3.66176L8.28486 3.70694L8.2105 3.82705C8.01731 4.10572 7.64409 4.19717 7.34267 4.03618C7.01557 3.86146 6.89204 3.45466 7.06675 3.12756C7.35976 2.57898 7.92259 2.22654 8.54645 2.20571ZM18.1313 2.14131C18.7552 2.16214 19.318 2.51458 19.611 3.06316C19.7857 3.39026 19.6622 3.79706 19.3351 3.97178C19.0588 4.11935 18.7222 4.0548 18.5159 3.82331L18.463 3.75607L18.4265 3.69585C18.3767 3.60261 18.2931 3.53361 18.1993 3.50273L18.1419 3.48888L18.0865 3.48349C17.7159 3.47111 17.4255 3.16062 17.4378 2.78999C17.4502 2.41936 17.7607 2.12894 18.1313 2.14131ZM12.2173 2C12.5882 2 12.8888 2.29101 12.8888 2.65C12.8888 2.95108 12.6762 3.20808 12.3759 3.28073L12.2991 3.29497L12.2173 3.3H10.6374C10.2666 3.3 9.96594 3.00899 9.96594 2.65C9.96594 2.34892 10.1786 2.09192 10.4788 2.01927L10.5556 2.00503L10.6374 2H12.2173ZM16.0099 2C16.3808 2 16.6814 2.29101 16.6814 2.65C16.6814 2.95108 16.4688 3.20808 16.1686 3.28073L16.0918 3.29497L16.0099 3.3H14.43C14.0592 3.3 13.7585 3.00899 13.7585 2.65C13.7585 2.34892 13.9712 2.09192 14.2714 2.01927L14.3482 2.00503L14.43 2H16.0099Z" />
</svg>
    