<svg width="14" height="14" viewBox="0 0 14 14" xmlns="http://www.w3.org/2000/svg">
    <path d="M6.68595 1.30595C6.86069 1.13571 7.13926 1.13571 7.314 1.30595L13.1355 6.97769C13.4247 7.25943 13.2252 7.75 12.8214 7.75H11.5V12.55C11.5 12.7985 11.2985 13 11.05 13H9.2C8.95147 13 8.75 12.7985 8.75 12.55V9.95C8.75 9.70148 8.54852 9.5 8.3 9.5H5.7C5.45147 9.5 5.25 9.70148 5.25 9.95V12.55C5.25 12.7985 5.04852 13 4.8 13H2.94998C2.70145 13 2.49998 12.7985 2.49998 12.55V7.75H1.1785C0.774764 7.75 0.575297 7.25943 0.864479 6.97769L6.68595 1.30595Z" />
</svg>