<svg width="22" height="22" viewBox="0 0 22 22" xmlns="http://www.w3.org/2000/svg">
    <path fill-rule="evenodd" clip-rule="evenodd" d="M18.0114 4.40281C21.5156 8.12497 21.4859 13.9208 17.9837 17.6064L17.8143 17.7803C16.0177 19.5902 13.5753 20.6134 11.0238 20.625C9.45245 20.6238 7.90522 20.2391 6.51666 19.5044C5.34837 20.2912 3.92766 20.6129 2.53393 20.4062C2.08774 20.3277 1.74544 19.9669 1.69092 19.5176C1.62874 19.0877 1.85883 18.6686 2.25514 18.4898C2.82703 18.1777 3.29012 17.6989 3.58272 17.1172C0.271344 13.117 0.736238 7.21328 4.63301 3.77947C8.52979 0.345665 14.4515 0.621575 18.0114 4.40281ZM5.4612 4.89192C2.13008 7.92749 1.83533 13.0649 4.79745 16.4608L5.25546 16.8056L5.02977 17.2896C4.71912 17.9908 4.2672 18.6206 3.7022 19.1397C4.57149 19.0564 5.39969 18.73 6.09183 18.1981L6.54985 17.8533L6.92821 18.2047C10.1118 20.0253 14.1047 19.5401 16.7575 17.0344L16.9182 16.8785C20.1076 13.6946 20.168 8.54918 17.0542 5.29148C13.9404 2.03379 8.79232 1.85636 5.4612 4.89192ZM9.71397 9.52218L9.85551 9.5314H11.7008C12.5231 9.52403 13.1967 10.1821 13.2076 11.0035V11.0234C13.2025 11.3096 13.1804 11.5952 13.1413 11.8788L13.0882 12.2169C12.9819 12.9198 12.8757 13.6559 12.7629 14.319C13.0749 14.3699 13.3566 14.5354 13.5528 14.7831C13.811 15.1054 13.9043 15.5295 13.805 15.9303V15.9833C13.7402 16.2416 13.6177 16.482 13.4466 16.6862C12.9416 17.357 12.1619 17.7659 11.3225 17.8002H11.2826C10.9577 17.8087 10.6327 17.782 10.3135 17.7206C9.21772 17.3965 8.50357 16.3444 8.60759 15.2075C8.65405 14.75 8.70715 14.2991 8.78017 13.8813C8.85319 13.311 8.93948 12.7408 9.02577 12.1639C8.51327 11.8955 8.22006 11.3387 8.28897 10.7648C8.33928 10.1398 8.81093 9.63031 9.43068 9.5314C9.57195 9.51757 9.71424 9.51757 9.85551 9.5314L9.71397 9.52218ZM9.78249 10.6587C9.70758 10.6489 9.63171 10.6489 9.5568 10.6587C9.49694 10.6604 9.44022 10.6858 9.39913 10.7294C9.35805 10.7729 9.33597 10.8309 9.33775 10.8907C9.3151 11.0186 9.38395 11.1452 9.5037 11.1958C9.60816 11.2255 9.71465 11.2477 9.82232 11.2621C10.0746 11.2952 10.1542 11.408 10.1542 11.713V11.8456C10.0414 12.5883 9.93516 13.3243 9.83559 14.0603C9.76921 14.4781 9.70947 14.9157 9.66965 15.3335C9.6311 15.9139 9.9756 16.4516 10.5193 16.6597C10.7517 16.6982 10.9874 16.7138 11.2229 16.7061C11.751 16.6916 12.242 16.4316 12.5505 16.0032C12.6177 15.9198 12.6653 15.8223 12.6899 15.7181C12.7231 15.5722 12.6501 15.4661 12.5438 15.4661H12.4708C12.3713 15.5125 12.285 15.5788 12.192 15.6319C12.0753 15.6855 11.9528 15.7255 11.827 15.7512H11.7938C11.6743 15.7512 11.5747 15.665 11.5349 15.4993C11.5142 15.3652 11.5142 15.2288 11.5349 15.0948C11.5614 14.8096 11.6079 14.5378 11.6477 14.2526C11.7871 13.4171 11.9132 12.5618 12.0394 11.7262C12.0697 11.5064 12.0875 11.285 12.0925 11.0632C12.0792 10.7913 11.9398 10.6587 11.7141 10.6587H9.78249ZM11.442 4.51839C12.578 4.58161 13.4667 5.52028 13.4667 6.65688C13.4667 7.79348 12.578 8.73215 11.442 8.79536C10.6487 8.83951 9.89606 8.44184 9.48612 7.762C9.07619 7.08216 9.07619 6.2316 9.48612 5.55176C9.89606 4.87192 10.6487 4.47425 11.442 4.51839ZM11.442 5.64566C11.0283 5.63486 10.6495 5.8758 10.4843 6.25475C10.3191 6.6337 10.4005 7.07488 10.6902 7.37005C10.9798 7.66521 11.4197 7.75534 11.8023 7.59789C12.1849 7.44044 12.4336 7.06688 12.431 6.65356C12.4347 6.10313 11.9929 5.65294 11.442 5.64566Z" />
</svg>
    