<svg width="22" height="22" viewBox="0 0 22 22" xmlns="http://www.w3.org/2000/svg">
    <path fill-rule="evenodd" clip-rule="evenodd" d="M11.0009 13.3196C10.3929 13.3196 9.75871 12.9296 9.71308 12.0587L9.45612 6.05896C9.45591 6.05138 9.45569 6.04339 9.45569 6.0358C9.45569 5.18346 10.1487 4.48999 11.0009 4.48999C11.8531 4.48999 12.5461 5.18346 12.5461 6.0358C12.5461 6.03955 12.546 6.04324 12.5459 6.04693C12.5459 6.05074 12.5458 6.05454 12.5456 6.05839L12.2889 12.0535C12.25 12.8766 11.5963 13.3196 11.0009 13.3196ZM11.4148 6.35013C11.4102 6.12709 11.2269 5.94689 11.0025 5.94689C10.7781 5.94689 10.5949 6.1269 10.5902 6.34994L10.8181 11.6584C10.8272 11.8326 10.8823 11.8628 11.0025 11.8628C11.055 11.8628 11.1783 11.8428 11.1871 11.6562L11.4148 6.35013Z" />
    <path fill-rule="evenodd" clip-rule="evenodd" d="M9.75081 14.5006C10.0805 14.1707 10.5361 13.9819 11.001 13.9819C11.4641 13.9819 11.9188 14.1707 12.2479 14.5006C12.5772 14.8266 12.7668 15.2817 12.7668 15.7479C12.7668 16.2158 12.5772 16.6722 12.2462 16.9996C11.9247 17.3249 11.4693 17.5137 11.001 17.5137C10.5342 17.5137 10.0786 17.3253 9.75081 16.9973C9.42298 16.6694 9.23499 16.2141 9.23499 15.7477C9.23499 15.2832 9.42319 14.8285 9.75081 14.5006ZM10.5314 16.2247C10.7764 16.4715 11.2256 16.4715 11.4656 16.2266C11.5924 16.1001 11.6631 15.9288 11.6631 15.7522C11.6631 15.5773 11.5926 15.4066 11.4694 15.2837C11.3436 15.1572 11.1736 15.0856 11.0009 15.0856C10.8265 15.0856 10.6555 15.1572 10.5314 15.282C10.4107 15.4037 10.3387 15.5793 10.3387 15.7522C10.3387 15.9292 10.4088 16.1013 10.5314 16.2247Z" />
    <path fill-rule="evenodd" clip-rule="evenodd" d="M20.5 11C20.5 16.2467 16.2467 20.5 11 20.5C5.75329 20.5 1.5 16.2467 1.5 11C1.5 5.75329 5.75329 1.5 11 1.5C16.2467 1.5 20.5 5.75329 20.5 11ZM19.05 11C19.05 15.4459 15.4459 19.05 11 19.05C6.55411 19.05 2.95 15.4459 2.95 11C2.95 6.55411 6.55411 2.95 11 2.95C15.4459 2.95 19.05 6.55411 19.05 11Z" />
</svg>
    