<svg width="14" height="14" viewBox="0 0 14 14" xmlns="http://www.w3.org/2000/svg">

    <path d="M 10.928 9.828 C 10.928 10.436 10.436 10.928 9.828 10.928 C 9.221 10.928 8.728 10.436 8.728 9.828 C 8.728 9.221 9.221 8.728 9.828 8.728 C 10.436 8.728 10.928 9.221 10.928 9.828 Z M 12 7 C 12 7.552 11.552 8 11 8 C 10.448 8 10 7.552 10 7 C 10 6.448 10.448 6 11 6 C 11.552 6 12 6.448 12 7 Z M 10.728 4.172 C 10.728 4.669 10.325 5.072 9.828 5.072 C 9.331 5.072 8.928 4.669 8.928 4.172 C 8.928 3.675 9.331 3.2720000000000002 9.828 3.2720000000000002 C 10.325 3.2720000000000002 10.728 3.675 10.728 4.172 Z M 7.8 3 C 7.8 3.442 7.442 3.8 7 3.8 C 6.558 3.8 6.2 3.442 6.2 3 C 6.2 2.558 6.558 2.2 7 2.2 C 7.442 2.2 7.8 2.558 7.8 3 Z M 4.872 4.172 C 4.872 4.558 4.558 4.872 4.172 4.872 C 3.785 4.872 3.472 4.558 3.472 4.172 C 3.472 3.785 3.785 3.472 4.172 3.472 C 4.558 3.472 4.872 3.785 4.872 4.172 Z M 3.6 7 C 3.6 7.3309999999999995 3.331 7.6 3 7.6 C 2.669 7.6 2.4 7.3309999999999995 2.4 7 C 2.4 6.669 2.669 6.4 3 6.4 C 3.331 6.4 3.6 6.669 3.6 7 Z M 4.672 9.828 C 4.672 10.105 4.448 10.328 4.172 10.328 C 3.895 10.328 3.6719999999999997 10.105 3.6719999999999997 9.828 C 3.6719999999999997 9.552 3.895 9.328 4.172 9.328 C 4.448 9.328 4.672 9.552 4.672 9.828 Z">
        <animateTransform attributeType="xml" attributeName="transform" type="rotate" dur="1s" repeatCount="indefinite" calcMode="discrete" values="0 7 7; 45 7 7; 90 7 7; 135 7 7; 180 7 7; 225 7 7; 270 7 7; 315 7 7" />
    </path>
</svg>