<svg width="14" height="14" viewBox="0 0 14 14" fill="black" xmlns="http://www.w3.org/2000/svg">
    <defs></defs>
    <path fill-rule="evenodd" clip-rule="evenodd" d="M0.780954 2H9.08255C9.26897 2.00001 9.44925 2.07116 9.5908 2.20062L13.4546 5.73459C13.6256 5.89106 13.763 6.08516 13.8571 6.30359C13.9513 6.52201 14 6.75959 14 7.00001C14 7.24043 13.9513 7.478 13.8571 7.69643C13.763 7.91485 13.6256 8.10896 13.4546 8.26543L9.5908 11.7994C9.44925 11.9288 9.26897 12 9.08255 12H0.780954C0.573832 12 0.375194 11.9122 0.228736 11.7559C0.082279 11.5996 0 11.3877 0 11.1667V2.83333C0 2.61232 0.082279 2.40036 0.228736 2.24408C0.375194 2.0878 0.573832 2 0.780954 2ZM7.42635 5.02579C7.67717 4.7144 8.14191 4.6583 8.46439 4.90049C8.76 5.1225 8.83344 5.51809 8.65044 5.82233L8.59415 5.90284L5.71746 9.47424C5.44646 9.8107 4.94061 9.83978 4.62943 9.55867L4.55594 9.48193L2.91212 7.49781C2.65691 7.18977 2.70863 6.74028 3.02765 6.49384C3.32008 6.26795 3.73559 6.29109 3.99939 6.53379L4.06737 6.6054L5.12452 7.88216L7.42635 5.02579Z"></path>
  </svg>