<svg width="14" height="14" viewBox="0 0 14 14" xmlns="http://www.w3.org/2000/svg">
<path fill-rule="evenodd" clip-rule="evenodd" d="M7 0C10.8661 0 14 3.1339 14 7C14 10.8661 10.8661 14 7 14C3.1339 14 0 10.8661 0 7C0 3.1339 3.1339 0 7 0ZM7 1.70732C4.0819 1.70732 1.70732 4.0819 1.70732 7C1.70732 9.9181 4.0819 12.2927 7 12.2927C9.9181 12.2927 12.2927 9.9181 12.2927 7C12.2927 4.0819 9.9181 1.70732 7 1.70732ZM7.84508 4.94767C8.17832 4.61443 8.7191 4.61443 9.05233 4.94767C9.3578 5.25313 9.38326 5.733 9.1287 6.06753L9.05233 6.15492L8.20683 7L9.05233 7.84508C9.33003 8.12278 9.37631 8.5446 9.19118 8.87034L9.1287 8.96494L9.05233 9.05233C8.74687 9.3578 8.267 9.38326 7.93247 9.1287L7.84508 9.05233L7 8.20683L6.15492 9.05233C5.87722 9.33003 5.4554 9.37631 5.12966 9.19118L5.03506 9.1287L4.94767 9.05233C4.6422 8.74687 4.61674 8.267 4.8713 7.93247L4.94767 7.84508L5.79317 7L4.94767 6.15492C4.66997 5.87722 4.62369 5.4554 4.80882 5.12966L4.8713 5.03506L4.94767 4.94767C5.25313 4.6422 5.733 4.61674 6.06753 4.8713L6.15492 4.94767L7 5.79317L7.84508 4.94767Z" />
</svg>
