<svg width="22" height="22" viewBox="0 0 22 22" xmlns="http://www.w3.org/2000/svg">
    <path fill-rule="evenodd" clip-rule="evenodd" d="M11.0014 12.4157L17.2415 18.6557C17.632 19.0462 18.2652 19.0462 18.6557 18.6557C19.0462 18.2652 19.0462 17.632 18.6557 17.2415L12.4157 11.0015L18.6557 4.76143C19.0462 4.3709 19.0462 3.73774 18.6557 3.34721C18.2652 2.95669 17.632 2.95669 17.2415 3.34721L11.0014 9.58725L4.76132 3.34712C4.3708 2.9566 3.73763 2.9566 3.34711 3.34712C2.95658 3.73765 2.95658 4.37081 3.34711 4.76133L9.58724 11.0015L3.34712 17.2416C2.95659 17.6321 2.95659 18.2653 3.34712 18.6558C3.73764 19.0463 4.37081 19.0463 4.76133 18.6558L11.0014 12.4157Z"/>
</svg>
    