<svg width="14" height="14" viewBox="0 0 14 14" xmlns="http://www.w3.org/2000/svg">
<path fill-rule="evenodd" clip-rule="evenodd" d="M9.03552 1.92306C9.03552 1.41371 9.44816 1 9.95858 1H12.4969C13.0074 1 13.42 1.41371 13.42 1.92306V4.46142C13.42 4.97077 13.0074 5.38449 12.4969 5.38449C11.9865 5.38449 11.5739 4.97077 11.5739 4.46142V4.04024L7.20201 8.10018C7.02403 8.26525 6.79762 8.34676 6.57367 8.34676C6.32769 8.34676 6.07948 8.24822 5.89729 8.05216C5.55011 7.6782 5.57246 7.09423 5.94492 6.74758L10.1462 2.84612H9.95858C9.44816 2.84612 9.03552 2.43241 9.03552 1.92306ZM2.05272 2.23923C2.40645 1.95892 2.83744 1.8457 3.18918 1.8457H6.10778C6.6182 1.8457 7.03084 2.25941 7.03084 2.76876C7.03084 3.27811 6.6182 3.69182 6.10778 3.69182H3.26612V11.1539H10.7282V7.88916C10.7282 7.37981 11.1408 6.9661 11.6512 6.9661C12.1617 6.9661 12.5743 7.37981 12.5743 7.88916V11.2308C12.5743 11.8509 12.3133 12.3119 11.9416 12.6065C11.5879 12.8868 11.1569 13 10.8051 13H3.18918C2.56908 13 2.10814 12.739 1.81353 12.3673C1.53322 12.0135 1.42 11.5826 1.42 11.2308V3.61488C1.42 2.99477 1.68096 2.53383 2.05272 2.23923Z" />
</svg>
