<svg width="22" height="22" viewBox="0 0 22 22" xmlns="http://www.w3.org/2000/svg">
    <path fill-rule="evenodd" clip-rule="evenodd" d="M11.7806 17.3984H9.8633V14.4539H12.3969C12.7393 13.8376 13.1501 13.3583 13.698 12.9475V10.6193H16.6424V11.7834C16.7109 11.7834 16.7794 11.7834 16.9163 11.7834C17.2587 11.7834 17.6011 11.8518 17.875 11.8518V1.99128C17.875 1.6489 17.6011 1.375 17.2587 1.375H1.30378H1.23531C0.892928 1.375 0.6875 1.6489 0.6875 1.99128V17.9462C0.6875 18.2886 0.961404 18.5625 1.30378 18.5625H11.9861C11.8491 18.2201 11.7806 17.8093 11.7806 17.3984ZM13.698 2.60757H16.6424V5.55204H13.698V2.60757ZM13.698 6.85309H16.6424V9.3867H13.698V6.85309ZM9.8633 2.60757H12.3969V5.55204H9.8633V2.60757ZM9.8633 6.85309H12.3969V9.3867H9.8633V6.85309ZM9.8633 10.6193H12.3969V13.1529H9.8633V10.6193ZM4.79607 17.3984H1.85159V14.4539H4.79607V17.3984ZM4.79607 13.1529H1.85159V10.6193H4.79607V13.1529ZM4.79607 9.3867H1.85159V6.85309H4.79607V9.3867ZM4.79607 5.55204H1.85159V2.60757H4.79607V5.55204ZM8.63073 17.3984H6.09711V14.4539H8.63073V17.3984ZM8.63073 13.1529H6.09711V10.6193H8.63073V13.1529ZM8.63073 9.3867H6.09711V6.85309H8.63073V9.3867ZM8.63073 5.55204H6.09711V2.60757H8.63073V5.55204Z" fill="#CCCCCC" />
    <path fill-rule="evenodd" clip-rule="evenodd" d="M17.2547 11.7069C14.1041 11.4329 11.4329 14.1041 11.7069 17.2547C11.9123 19.7204 13.8986 21.7752 16.4328 21.9806C19.5834 22.2546 22.2546 19.5834 21.9806 16.4328C21.7752 13.8986 19.7889 11.8439 17.2547 11.7069ZM17.8711 12.3918C18.0766 12.4603 18.2821 12.5288 18.4876 12.5973C18.6245 12.6658 18.693 12.7342 18.83 12.7342C19.3779 13.0082 19.8574 13.3507 20.2683 13.8301C20.2683 13.8301 20.3368 13.8986 20.3368 13.9671C20.3368 14.0356 20.3368 14.1726 20.3368 14.2411C20.3368 14.3096 20.2683 14.378 20.2683 14.4465C20.2683 14.5835 20.4053 14.652 20.4738 14.652C20.5423 14.652 20.6793 14.652 20.7478 14.652C20.8163 14.652 20.8848 14.7205 20.8848 14.789C20.9533 14.926 21.0217 15.063 21.0217 15.1315C21.2272 15.6109 21.2957 16.0903 21.3642 16.6383C21.3642 16.7068 21.3642 16.7753 21.2957 16.8438C21.2272 16.9122 21.0902 17.0492 21.0217 17.1862C20.8848 17.4602 20.7478 17.8711 20.5423 18.0766C20.4053 18.2136 20.2683 18.3506 20.2683 18.4876C20.1998 18.6245 20.2683 18.7615 20.1998 18.83C20.1998 18.8985 20.1314 18.8985 20.0629 18.83C19.8574 18.556 19.7889 18.2821 19.7204 18.0081C19.6519 17.8026 19.6519 17.5972 19.5834 17.3232C19.5149 17.1177 19.3779 16.9122 19.1725 16.7753C18.967 16.6383 18.693 16.7068 18.4876 16.6383C18.2136 16.6383 18.0081 16.5698 17.8026 16.3643C17.7341 16.2958 17.6657 16.1588 17.6657 16.0903C17.5287 15.5424 17.8711 14.926 18.3506 14.652C18.4191 14.5835 18.4876 14.5835 18.556 14.515C18.693 14.378 18.7615 14.2411 18.693 14.0356C18.693 13.9671 18.6245 13.9671 18.6245 13.9671C18.4876 14.0356 18.3506 14.0356 18.2821 14.1041C18.2136 14.1041 18.1451 14.1041 18.1451 14.0356C18.1451 13.8301 18.1451 13.6246 18.2136 13.3507C18.2821 13.0767 18.3506 12.8712 18.2136 12.6658C18.2136 12.5973 18.1451 12.5973 18.0766 12.5973C17.8711 12.5973 17.6657 12.5973 17.4602 12.5973C17.5972 12.5288 17.6657 12.4603 17.7341 12.3233C17.8026 12.4603 17.8711 12.3918 17.8711 12.3918ZM15.6794 12.4603C15.7479 12.4603 15.7479 12.4603 15.8164 12.5288C15.8849 12.6658 15.9534 12.7342 16.0218 12.8712C16.1588 13.1452 16.2273 13.4877 16.0903 13.6931C15.9534 13.9671 15.6109 14.1041 15.3369 14.3096C14.7205 14.5835 14.2411 15.063 13.8986 15.6109L13.8301 15.6794C13.7616 15.6794 13.7616 15.6794 13.6931 15.6109C13.6246 15.5424 13.5561 15.5424 13.4877 15.4739C13.4877 15.4739 13.4192 15.4739 13.4192 15.5424C13.3507 15.8164 13.4877 16.1588 13.7616 16.2958C13.8301 16.2958 13.8301 16.3643 13.8986 16.3643C13.9671 16.5013 13.8986 16.6383 13.8986 16.7753C13.8986 16.9807 14.1726 17.0492 14.3096 17.0492C14.515 17.0492 14.652 16.9122 14.8575 16.8438C15.2684 16.7068 15.6794 16.7753 16.0218 16.9807C16.2273 17.1177 16.3643 17.2547 16.5013 17.3917C16.6383 17.5287 16.8438 17.5972 17.0492 17.5972C17.1177 17.5972 17.1177 17.5972 17.1862 17.6657C17.2547 17.8711 17.1862 18.0766 17.0492 18.2136C16.9122 18.4191 16.7068 18.4876 16.5698 18.693C16.2273 19.104 16.0903 19.7204 15.8164 20.1998C15.7479 20.2683 15.6794 20.4053 15.6109 20.4738C15.5424 20.6108 15.5424 20.7478 15.5424 20.9533C15.5424 20.9533 15.5424 21.0217 15.4739 21.0217C15.4054 21.0217 15.3369 20.9533 15.2684 20.9533C15.1999 20.9533 15.1999 20.8848 15.1999 20.8163C15.063 20.1998 14.8575 19.5834 14.5835 18.967C14.4465 18.7615 14.3096 18.4876 14.1041 18.3506C14.0356 18.2821 13.9671 18.2821 13.9671 18.2136C13.9671 18.1451 13.9671 18.0766 13.9671 18.0766C14.0356 17.4602 13.7616 16.8438 13.2822 16.5013C13.2137 16.4328 13.0767 16.3643 13.0767 16.2958C13.0767 16.2273 13.0082 16.0903 13.0082 16.0218C12.9397 15.9534 12.8027 15.8164 12.7342 15.7479C12.6658 15.7479 12.6658 15.6794 12.6658 15.6109C12.9397 14.1726 14.1041 12.8712 15.6794 12.4603Z" />
</svg>
    