<svg width="22" height="22" viewBox="0 0 22 22" xmlns="http://www.w3.org/2000/svg">
    <path fill-rule="evenodd" clip-rule="evenodd" d="M5.71175 19.9375C5.34935 19.9317 4.99472 19.8284 4.68309 19.6378C3.78752 19.0501 3.51367 17.8323 4.06724 16.8991L5.16358 15.0454C5.19486 14.9015 5.27383 14.7734 5.38691 14.683L8.32402 9.71425V5.6375C7.54332 5.45561 6.9946 4.7333 7.01112 3.90923V3.81864C7.01112 2.84875 7.77466 2.0625 8.71654 2.0625H13.2613C14.2032 2.0625 14.9667 2.84875 14.9667 3.81864V3.90923C14.9832 4.7333 14.4345 5.45561 13.6538 5.6375V9.71425L16.5909 14.683C16.704 14.7734 16.783 14.9015 16.8142 15.0454L17.9106 16.8991C18.4642 17.8323 18.1903 19.0501 17.2947 19.6378C16.9831 19.8284 16.6285 19.9317 16.2661 19.9375H5.71175ZM16.2661 18.4113C16.3839 18.4132 16.4975 18.3663 16.5815 18.2811C16.6655 18.196 16.7127 18.0797 16.7127 17.9584C16.7118 17.868 16.6834 17.7803 16.6315 17.7075L15.6367 16.0489H6.34113L5.34631 17.7075C5.29444 17.7803 5.26604 17.868 5.2651 17.9584C5.26508 18.0797 5.31236 18.196 5.39632 18.2811C5.48029 18.3663 5.59392 18.4132 5.71175 18.4113H16.2661ZM13.1087 3.60261H8.86916C8.75329 3.60261 8.65936 3.69933 8.65936 3.81864V3.90923C8.65936 4.02855 8.75329 4.12527 8.86916 4.12527H9.22784C9.63744 4.12905 9.96859 4.47005 9.97226 4.89184V9.93726C9.97457 10.0755 9.93688 10.2114 9.86398 10.3275L7.39384 14.474H14.584L12.1138 10.3275C12.0409 10.2114 12.0033 10.0755 12.0056 9.93726V4.89184C12.0092 4.47005 12.3404 4.12905 12.75 4.12527H13.1087C13.2245 4.12527 13.3185 4.02855 13.3185 3.90923V3.81864C13.3185 3.69933 13.2245 3.60261 13.1087 3.60261Z" />
</svg>
    