<svg width="22" height="22" viewBox="0 0 22 22" xmlns="http://www.w3.org/2000/svg">
    <path fill-rule="evenodd" clip-rule="evenodd" d="M12.5681 14.575H8.84681V10.175H11.5851C11.866 11.275 12.8489 12.0312 13.9723 12.0312C15.3766 12.0312 16.5 10.9312 16.5 9.55625C16.5 8.18125 15.3766 7.08125 13.9723 7.08125C12.8489 7.08125 11.866 7.8375 11.5851 8.9375H8.84681V4.5375H11.5851C11.866 5.6375 12.8489 6.325 13.9723 6.325C15.3766 6.325 16.5 5.225 16.5 3.85C16.5 2.475 15.3766 1.375 13.9723 1.375C12.8489 1.375 11.7957 2.2 11.5851 3.3H8.28511C8.14468 3.3 8.00426 3.36875 7.86383 3.50625C7.7234 3.64375 7.65319 3.78125 7.65319 3.91875V8.9375H4.91489C4.63404 7.8375 3.65106 7.08125 2.52766 7.08125C1.1234 7.08125 0 8.18125 0 9.55625V9.625C0.0702128 10.9312 1.19362 12.0312 2.52766 12.0312C3.65106 12.0312 4.63404 11.275 4.91489 10.175H7.65319V15.1938C7.65319 15.5375 7.93404 15.8125 8.28511 15.8125H12.0064C12.0766 15.3313 12.2872 14.9875 12.5681 14.575ZM13.9723 8.31875C14.6745 8.31875 15.2362 8.86875 15.2362 9.55625C15.2362 10.2437 14.6745 10.8625 13.9723 10.8625C13.2702 10.8625 12.7085 10.3125 12.7085 9.55625C12.6383 8.86875 13.2 8.31875 13.9723 8.31875ZM13.9723 2.6125C14.6745 2.6125 15.2362 3.1625 15.2362 3.91875C15.2362 4.60625 14.6745 5.15625 13.9723 5.15625C13.2702 5.15625 12.7085 4.60625 12.7085 3.91875C12.6383 3.23125 13.2702 2.6125 13.9723 2.6125ZM2.45745 10.8625C1.75532 10.8625 1.19362 10.3125 1.19362 9.55625C1.19362 8.86875 1.75532 8.31875 2.45745 8.31875C3.15957 8.31875 3.79149 8.86875 3.79149 9.55625C3.79149 10.2437 3.15957 10.8625 2.45745 10.8625Z" fill="#CCCCCC" />
    <path fill-rule="evenodd" clip-rule="evenodd" d="M16.8438 11.6875C19.7312 11.6875 22 14.025 22 16.8438C22 19.6625 19.6625 22 16.8438 22C14.025 22 11.6875 19.6625 11.6875 16.8438C11.6875 14.025 14.025 11.6875 16.8438 11.6875ZM16.8438 13.475C15.8813 13.475 15.0562 14.3 15.0562 15.2625V15.8813C14.7125 15.8813 14.4375 16.1562 14.4375 16.5V18.9062C14.4375 19.25 14.7125 19.525 15.0562 19.525H18.6313C18.975 19.525 19.25 19.25 19.25 18.9062V16.5C19.25 16.1562 18.975 15.8813 18.6313 15.8813V15.2625C18.6313 14.3 17.8062 13.475 16.8438 13.475ZM16.8438 16.9125C17.1188 16.9125 17.325 17.1188 17.2563 17.325C17.2563 17.5313 17.1875 17.6687 17.05 17.7375V18.3563C17.05 18.4938 16.9813 18.5625 16.8438 18.5625C16.7062 18.5625 16.6375 18.4938 16.6375 18.3563V17.7375C16.5 17.6 16.4312 17.4625 16.4312 17.325C16.4312 17.1188 16.5687 16.9125 16.8438 16.9125ZM16.8438 14.0938C17.5312 14.0938 18.0813 14.6437 18.0125 15.3312V15.95H15.6063V15.3312C15.6063 14.6437 16.1562 14.0938 16.8438 14.0938Z" />
</svg>
    