<svg width="23" height="22" viewBox="0 0 23 22" xmlns="http://www.w3.org/2000/svg">
    <path fill-rule="evenodd" clip-rule="evenodd" d="M18.049 0.85C18.049 0.380558 17.6684 0 17.199 0H0.85C0.380558 0 0 0.380558 0 0.85V13.2392C0 13.7086 0.380558 14.0892 0.85 14.0892H3.01047V17.0463C3.01047 17.7863 3.8905 18.1728 4.43548 17.6722L8.33616 14.0892H9.15279V15.776C9.15279 16.2454 9.53335 16.626 10.0028 16.626H15.6274L18.1474 19.1825C18.6811 19.7239 19.6028 19.346 19.6028 18.5858V16.626H21.1806C21.65 16.626 22.0306 16.2454 22.0306 15.776V4.9877C22.0306 4.51826 21.65 4.1377 21.1806 4.1377H18.049V0.85ZM18.049 5.56751H20.612V15.1962H18.1842V17.1975L16.2115 15.1962H10.5714V14.0892H17.199C17.6684 14.0892 18.049 13.7086 18.049 13.2392V5.56751ZM16.6304 1.42983H1.41857V12.684H4.42903V15.7513L7.7956 12.684H16.6304V1.42983ZM10.7675 9.01307C11.0436 9.01307 11.2675 9.23693 11.2675 9.51307V9.91948C11.2675 10.1956 11.0436 10.4195 10.7675 10.4195H4.77778C4.50164 10.4195 4.27778 10.1956 4.27778 9.91948V9.51307C4.27778 9.23693 4.50164 9.01307 4.77778 9.01307H10.7675ZM6.06944 6.63345C6.34559 6.63345 6.56944 6.85731 6.56944 7.13345V7.53986C6.56944 7.816 6.34559 8.03986 6.06944 8.03986H4.77778C4.50164 8.03986 4.27778 7.816 4.27778 7.53986V7.13345C4.27778 6.85731 4.50164 6.63345 4.77778 6.63345H6.06944ZM13.5861 6.63345C13.8622 6.63345 14.0861 6.85731 14.0861 7.13345V7.53986C14.0861 7.816 13.8622 8.03986 13.5861 8.03986H12.5719C12.2957 8.03986 12.0719 7.816 12.0719 7.53986V7.13345C12.0719 6.85731 12.2957 6.63345 12.5719 6.63345H13.5861ZM8.59415 6.63345C8.87029 6.63345 9.09415 6.85731 9.09415 7.13345V7.53986C9.09415 7.816 8.87029 8.03986 8.59415 8.03986H7.41249C7.13634 8.03986 6.91249 7.816 6.91249 7.53986V7.13345C6.91249 6.85731 7.13634 6.63345 7.41249 6.63345H8.59415ZM11.2289 6.63345C11.505 6.63345 11.7289 6.85731 11.7289 7.13345V7.53986C11.7289 7.816 11.505 8.03986 11.2289 8.03986H9.9372C9.66106 8.03986 9.4372 7.816 9.4372 7.53986V7.13345C9.4372 6.85731 9.66106 6.63345 9.9372 6.63345H11.2289ZM13.5616 4.27778C13.8377 4.27778 14.0616 4.50164 14.0616 4.77778V5.18419C14.0616 5.46033 13.8377 5.68419 13.5616 5.68419H4.77778C4.50164 5.68419 4.27778 5.46033 4.27778 5.18419V4.77778C4.27778 4.50164 4.50164 4.27778 4.77778 4.27778H13.5616Z" />
</svg>