<?xml version="1.0" encoding="UTF-8"?>
<svg width="32px" height="32px" viewBox="0 0 32 32" version="1.1" xmlns="http://www.w3.org/2000/svg" xmlns:xlink="http://www.w3.org/1999/xlink">
	<title>IconLoadingTest</title>


	<path d="M 28.4 16 C 28.4 17.325 27.325 18.4 26 18.4 C 24.675 18.4 23.6 17.325 23.6 16 C 23.6 14.675 24.675 13.6 26 13.6 C 27.325 13.6 28.4 14.675 28.4 16 Z M 7.9 16 C 7.9 17.049 7.049 17.9 6 17.9 C 4.9510000000000005 17.9 4.1 17.049 4.1 16 C 4.1 14.951 4.9510000000000005 14.1 6 14.1 C 7.049 14.1 7.9 14.951 7.9 16 Z M 18.3 6 C 18.3 7.27 17.27 8.3 16 8.3 C 14.73 8.3 13.7 7.27 13.7 6 C 13.7 4.73 14.73 3.7 16 3.7 C 17.27 3.7 18.3 4.73 18.3 6 Z M 25.571 23.071 C 25.571 24.452 24.452 25.571 23.071 25.571 C 21.69 25.571 20.571 24.452 20.571 23.071 C 20.571 21.69 21.69 20.571 23.071 20.571 C 24.452 20.571 25.571 21.69 25.571 23.071 Z M 10.629 23.071 C 10.629 24.01 9.868 24.771 8.929 24.771 C 7.99 24.771 7.229 24.01 7.229 23.071 C 7.229 22.132 7.99 21.371 8.929 21.371 C 9.868 21.371 10.629 22.132 10.629 23.071 Z M 11.029 8.929 C 11.029 10.089 10.089 11.029 8.929 11.029 C 7.769 11.029 6.829 10.089 6.829 8.929 C 6.829 7.769 7.769 6.829 8.929 6.829 C 10.089 6.829 11.029 7.769 11.029 8.929 Z M 25.471 8.929 C 25.471 10.254 24.397 11.329 23.071 11.329 C 21.746 11.329 20.671 10.254 20.671 8.929 C 20.671 7.603 21.746 6.529 23.071 6.529 C 24.397 6.529 25.471 7.603 25.471 8.929 Z" style="">
		<animateTransform attributeType="xml" attributeName="transform" type="rotate" dur="1s" repeatCount="indefinite" calcMode="discrete" values="0 16 16; 45 16 16; 90 16 16; 135 16 16; 180 16 16; 225 16 16; 270 16 16; 315 16 16" />
	</path>
</svg>