<svg width="22" height="22" viewBox="0 0 22 22" xmlns="http://www.w3.org/2000/svg">
    <path fill-rule="evenodd" clip-rule="evenodd" d="M2.61681 2.06331C2.30049 2.09523 2.06082 2.35286 2.06251 2.65912V19.3417C2.06251 19.6707 2.33955 19.9375 2.68127 19.9375H20.0063C20.348 19.9375 20.625 19.6707 20.625 19.3417V2.65912C20.625 2.33007 20.348 2.06334 20.0063 2.06331H2.68127C2.6598 2.06223 2.63828 2.06223 2.61681 2.06331ZM3.30002 3.25492H6.60001V6.43256H3.30002V3.25492ZM7.83751 3.25492H10.725V6.43256H7.83751V3.25492ZM11.9625 3.25492H14.85V6.43256H11.9625V3.25492ZM16.0875 3.25492H19.3875V6.43256H16.0875V3.25492ZM3.30002 7.62417H6.60001V10.4046H3.30002V7.62417ZM7.83751 7.62417H10.725V10.4046H7.83751V7.62417ZM11.9625 7.62417H14.85V10.4046H11.9625V7.62417ZM16.0875 7.62417H19.3875V10.4046H16.0875V7.62417ZM3.30002 11.5962H6.60001V14.3766H3.30002V11.5962ZM7.83751 11.5962H10.725V14.3766H7.83751V11.5962ZM11.9625 11.5962H14.85V14.3766H11.9625V11.5962ZM16.0875 11.5962H19.3875V14.3766H16.0875V11.5962ZM3.30002 15.5683H6.60001V18.7459H3.30002V15.5683ZM7.83751 15.5683H10.725V18.7459H7.83751V15.5683ZM11.9625 15.5683H14.85V18.7459H11.9625V15.5683ZM16.0875 15.5683H19.3875V18.7459H16.0875V15.5683Z" />
</svg>
    