<svg width="32" height="32" viewBox="0 0 32 32" xmlns="http://www.w3.org/2000/svg">
  <path d="M 27.747 7.911 C 28.84 7.911 29.726 7.025 29.726 5.932 C 29.726 4.839 28.84 3.953 27.747 3.953 C 27.067 3.953 26.467 4.296 26.111 4.819 L 15.291 4.819 C 14.676 4.819 14.178 5.317 14.178 5.932 L 14.178 9.949 L 9.354 9.949 C 8.74 9.949 8.241 10.448 8.241 11.063 L 8.241 16.912 L 4.584 16.912 C 4.228 16.39 3.628 16.046 2.948 16.046 C 1.855 16.046 0.969 16.932 0.969 18.025 C 0.969 19.118 1.855 20.004 2.948 20.004 C 3.628 20.004 4.228 19.661 4.584 19.139 L 8.241 19.139 L 8.241 25.721 C 8.241 26.336 8.74 26.834 9.354 26.834 L 26.111 26.834 C 26.467 27.357 27.067 27.7 27.747 27.7 C 28.84 27.7 29.726 26.814 29.726 25.721 C 29.726 24.628 28.84 23.742 27.747 23.742 C 27.067 23.742 26.467 24.085 26.111 24.608 L 10.467 24.608 L 10.467 12.176 L 14.178 12.176 L 14.178 15.46 C 14.178 16.075 14.676 16.573 15.291 16.573 L 26.111 16.573 C 26.467 17.096 27.067 17.439 27.747 17.439 C 28.84 17.439 29.726 16.553 29.726 15.46 C 29.726 14.367 28.84 13.481 27.747 13.481 C 27.067 13.481 26.467 13.824 26.111 14.347 L 16.404 14.347 L 16.404 7.045 L 26.111 7.045 C 26.467 7.568 27.067 7.911 27.747 7.911 Z"></path>
</svg>