<svg width="22" height="22" viewBox="0 0 22 22" xmlns="http://www.w3.org/2000/svg">
    <path fill-rule="evenodd" clip-rule="evenodd" d="M11.0775 15.2C11.4507 15.2 11.8172 15.3522 12.0825 15.6182C12.3479 15.8809 12.5008 16.2478 12.5008 16.6235C12.5008 17.0007 12.3479 17.3685 12.0811 17.6324C11.822 17.8947 11.4549 18.0469 11.0775 18.0469C10.7012 18.0469 10.334 17.895 10.0698 17.6306C9.80551 17.3663 9.65398 16.9993 9.65398 16.6234C9.65398 16.2489 9.80567 15.8824 10.0698 15.6182C10.3355 15.3522 10.7027 15.2 11.0775 15.2ZM11.0552 3.60938C13.5413 3.60938 15.6422 5.30078 15.7537 7.37916L15.7584 7.55744L15.7519 7.77956L15.7344 7.99383C15.6063 9.18249 14.9853 9.95049 13.6777 10.9471L13.4799 11.0995L13.1354 11.3763C12.4597 11.9409 12.2297 12.2999 12.1662 12.896C12.1603 13.2718 11.854 13.5733 11.4782 13.5733H10.7611C10.3248 13.5733 9.97354 13.2151 9.98209 12.7789C10.1047 11.486 10.7853 10.6322 12.1326 9.60537C13.2723 8.74542 13.5714 8.36928 13.5714 7.55254C13.5714 6.37287 12.4623 5.44299 11.0552 5.44299L10.882 5.44774L10.7037 5.46273C9.58697 5.5895 9.02734 6.04297 8.73047 6.71484C8.61175 7.08388 8.2684 7.33411 7.88073 7.33411H6.99191C6.66564 7.33411 6.42179 7.03427 6.48828 6.71484C6.8121 4.81512 8.71139 3.60938 11.0552 3.60938Z" />
</svg>
    