<svg width="14" height="14" viewBox="0 0 14 14" xmlns="http://www.w3.org/2000/svg">
    <path fill-rule="evenodd" clip-rule="evenodd" d="M12.6 7C12.6 10.0928 10.0928 12.6 7 12.6C3.90721 12.6 1.4 10.0928 1.4 7C1.4 3.90721 3.90721 1.4 7 1.4C10.0928 1.4 12.6 3.90721 12.6 7ZM14 7C14 10.866 10.866 14 7 14C3.13401 14 0 10.866 0 7C0 3.13401 3.13401 0 7 0C10.866 0 14 3.13401 14 7ZM10.3384 5.17364C10.5724 4.84869 10.4986 4.39561 10.1737 4.16165C9.84871 3.9277 9.39563 4.00145 9.16167 4.3264L6.08722 8.59646L4.28892 6.59835C4.02106 6.30073 3.56265 6.2766 3.26503 6.54446C2.96741 6.81232 2.94328 7.27073 3.21114 7.56835L5.79788 10.4425C6.01121 10.6795 6.38895 10.659 6.57529 10.4002L10.3384 5.17364Z"></path>
</svg>
    