<svg width="14" height="14" viewBox="0 0 14 14" xmlns="http://www.w3.org/2000/svg">
    <path fill-rule="evenodd" clip-rule="evenodd" d="M2.87005 3.26277C2.83725 3.33867 2.80631 3.41588 2.77732 3.49436L1.42269 7.16127C0.553397 9.51439 1.75627 12.1267 4.10939 12.9959C5.46398 13.4964 6.90444 13.3101 8.04886 12.613L8.74893 13.2239C9.16506 13.587 9.79677 13.544 10.1599 13.1279C10.523 12.7118 10.48 12.0801 10.0639 11.717L9.48954 11.2158C9.67077 10.9372 9.82403 10.6342 9.94406 10.3092L11.2987 6.64234C11.6056 5.8115 11.6542 4.94836 11.4851 4.14104L12.0576 4.02498C12.5988 3.91524 12.9487 3.3875 12.8389 2.84623C12.7292 2.30495 12.2015 1.95512 11.6602 2.06485L10.6209 2.27556C10.1186 1.62992 9.43577 1.11198 8.61199 0.807665C7.00003 0.212173 5.26645 0.589087 4.05488 1.64204L3.5065 1.16252C3.09074 0.798972 2.45899 0.841293 2.09545 1.25705C1.7319 1.6728 1.77422 2.30455 2.18998 2.6681L2.87005 3.26277ZM5.27782 11.0103C6.10618 11.0103 6.77769 10.3388 6.77769 9.51044C6.77769 8.68208 6.10618 8.01056 5.27782 8.01056C4.44946 8.01056 3.77794 8.68208 3.77794 9.51044C3.77794 10.3388 4.44946 11.0103 5.27782 11.0103ZM8.95485 4.47284C8.95485 5.02513 8.50713 5.47284 7.95485 5.47284C7.40256 5.47284 6.95485 5.02513 6.95485 4.47284C6.95485 3.92056 7.40256 3.47284 7.95485 3.47284C8.50713 3.47284 8.95485 3.92056 8.95485 4.47284Z" />
    <path fill-rule="evenodd" clip-rule="evenodd" d="M4.45894 3.17944L4.17854 3.82826C4.15592 3.88059 4.13454 3.93395 4.11445 3.98833L2.77732 3.49436C2.80631 3.41588 2.83725 3.33867 2.87005 3.26277L2.18998 2.6681C1.77422 2.30455 1.7319 1.6728 2.09545 1.25705C2.45899 0.841293 3.09074 0.798972 3.5065 1.16252L4.05488 1.64204C5.26645 0.589087 7.00003 0.212173 8.61199 0.807665C9.43577 1.11198 10.1186 1.62992 10.6209 2.27556L11.6602 2.06485C12.2015 1.95512 12.7292 2.30495 12.8389 2.84623C12.9423 3.35624 12.6377 3.85424 12.1494 4.00186C12.1194 4.01091 12.0888 4.01864 12.0576 4.02498L11.4851 4.14104C11.4891 4.16031 11.493 4.17962 11.4968 4.19895C11.6518 4.98956 11.5983 5.83134 11.2987 6.64234L9.94406 10.3092C9.82403 10.6342 9.67077 10.9372 9.48954 11.2158L10.0639 11.717C10.48 12.0801 10.523 12.7118 10.1599 13.1279C9.79677 13.544 9.16506 13.587 8.74893 13.2239L8.04886 12.613C6.90444 13.3101 5.46398 13.4964 4.10939 12.9959C1.75627 12.1267 0.553397 9.51439 1.42269 7.16127L2.77732 3.49436L4.11445 3.98833L2.75982 7.65524C2.6744 7.88646 2.61814 8.12133 2.58918 8.35581C3.03702 7.31436 4.07226 6.58511 5.27782 6.58511C6.89343 6.58511 8.20315 7.89483 8.20315 9.51044C8.20315 10.1224 8.01524 10.6905 7.69396 11.1601L7.91148 11.0276L8.2946 10.4386C8.41844 10.2482 8.52387 10.0401 8.60693 9.81529L9.96156 6.14837C10.031 5.96042 10.0812 5.77052 10.1131 5.58064C9.71069 6.36308 8.89527 6.8983 7.95485 6.8983C6.61531 6.8983 5.52939 5.81239 5.52939 4.47284C5.52939 3.17861 6.5431 2.12114 7.81983 2.05108C6.80372 1.7864 5.74976 2.05761 4.98994 2.71795L4.45894 3.17944ZM6.77769 9.51044C6.77769 10.3388 6.10618 11.0103 5.27782 11.0103C4.44946 11.0103 3.77794 10.3388 3.77794 9.51044C3.77794 8.68208 4.44946 8.01056 5.27782 8.01056C6.10618 8.01056 6.77769 8.68208 6.77769 9.51044ZM7.95485 5.47284C8.50713 5.47284 8.95485 5.02513 8.95485 4.47284C8.95485 3.92056 8.50713 3.47284 7.95485 3.47284C7.40256 3.47284 6.95485 3.92056 6.95485 4.47284C6.95485 5.02513 7.40256 5.47284 7.95485 5.47284Z" />
</svg>