<?xml version="1.0" encoding="UTF-8"?>
<svg width="14px" height="14px" viewBox="0 0 14 14" version="1.1" xmlns="http://www.w3.org/2000/svg" xmlns:xlink="http://www.w3.org/1999/xlink">
    <title>IconRefreshSmall</title>
    <g id="Icons" stroke="none" stroke-width="1" fill-rule="evenodd">
        <g id="Icons-/-Small-/-IconRefreshSmall" >
            <path d="M1.36871802,7.6129625 L1.4923457,7.62820617 L4.80510978,8.29191585 C5.13039541,8.34950082 5.39785122,8.58061845 5.50193586,8.89341269 C5.60564282,9.2050719 5.52964881,9.54567444 5.30439216,9.77731186 C5.1242242,9.96266421 4.87130091,10.0546523 4.6163258,10.0327809 L4.50713126,10.0163767 L3.401,9.794 L3.48407778,9.91656926 C4.22252312,10.9517017 5.37081193,11.580332 6.632286,11.6633879 L6.87006635,11.6725335 L7.09668086,11.6692463 L7.3140883,11.655253 C8.87168818,11.5169224 10.2041674,10.4759317 10.7423759,8.9654831 C10.846034,8.73057704 10.9803496,8.50234637 11.1542622,8.27026475 C11.3466728,8.07545212 11.5091209,7.99375092 11.7341358,7.99375092 C12.0698127,7.99375092 12.3741307,8.11904936 12.6206414,8.381033 C12.7678043,8.60648266 12.8231562,8.84922323 12.7894252,9.11449254 L12.7651488,9.24902885 L12.7275202,9.38130646 L12.5804172,9.75688367 C11.720784,11.9118686 9.84162799,13.3307795 7.52877419,13.5669948 C5.61268284,13.7626883 3.72562093,13.0448231 2.41853239,11.6651279 L2.24393966,11.4729091 L2.085,11.283 L2.05590913,11.9280726 C2.04700356,12.1657833 1.9437339,12.3837399 1.7746931,12.5370395 L1.68482414,12.6080933 L1.58478757,12.6671236 C1.30509854,12.8074349 0.9691391,12.7841166 0.705361732,12.6063982 C0.571361606,12.5161164 0.464720125,12.3918126 0.395698985,12.2471663 C0.346667796,12.1444126 0.317673869,12.0335905 0.310281435,11.9213111 L0.310147433,11.8087908 L0.467913782,8.4278975 C0.480608474,8.17740939 0.600156068,7.94591319 0.796072679,7.79284636 C0.959406584,7.66523592 1.16271414,7.602366 1.36871802,7.6129625 Z M6.57905885,0.431779645 C8.4951502,0.236086233 10.3822121,0.953951404 11.6893007,2.33364655 L11.8638934,2.52586541 L12.021,2.716 L12.0519239,2.07070188 C12.0608295,1.83299122 12.1640991,1.61503457 12.3331399,1.46173501 L12.4230089,1.3906812 L12.5230455,1.33165089 C12.8027345,1.19133962 13.1386939,1.21465786 13.4024713,1.3923763 C13.5364714,1.48265809 13.6431129,1.6069619 13.7121341,1.75160816 C13.7611652,1.85436187 13.7901592,1.96518398 13.7975516,2.07746338 L13.7976856,2.1899837 L13.6399193,5.57087699 C13.6272246,5.8213651 13.507677,6.0528613 13.3117604,6.20592814 C13.1484265,6.33353857 12.9451189,6.39640849 12.7388875,6.38576688 L12.6150942,6.37049037 L9.30272326,5.70685865 C8.97743763,5.64927367 8.70998182,5.41815604 8.60589718,5.1053618 C8.50219022,4.79370259 8.57818423,4.45310005 8.80344088,4.22146263 C8.98360884,4.03611029 9.23653213,3.9441222 9.49150724,3.96599357 L9.60070179,3.98239775 L10.706,4.204 L10.6237553,4.08220524 C9.88530992,3.04707283 8.73702111,2.4184425 7.47554704,2.33538661 L7.23776669,2.32624103 L7.01115218,2.32952819 L6.79374474,2.34352154 C5.23614486,2.48185207 3.90366568,3.52284276 3.36545719,5.03329139 C3.26179908,5.26819746 3.12748346,5.49642812 2.95357085,5.72850974 C2.76116021,5.92332237 2.59871216,6.00502357 2.3736972,6.00502357 C2.03802032,6.00502357 1.73370235,5.87972514 1.48719164,5.61774149 C1.34002875,5.39229184 1.28467684,5.14955126 1.31840784,4.88428195 L1.34268429,4.74974564 L1.38031284,4.61746803 L1.52741589,4.24189082 C2.38704905,2.08690589 4.26620505,0.667995029 6.57905885,0.431779645 Z" id="Combined-Shape"></path>
        </g>
    </g>
</svg>