<svg width="14" height="14" viewBox="0 0 14 14" xmlns="http://www.w3.org/2000/svg">
    <path fill-rule="evenodd" clip-rule="evenodd" d="M12.6 7C12.6 10.0928 10.0928 12.6 7 12.6C3.90721 12.6 1.4 10.0928 1.4 7C1.4 3.90721 3.90721 1.4 7 1.4C10.0928 1.4 12.6 3.90721 12.6 7ZM14 7C14 10.866 10.866 14 7 14C3.13401 14 0 10.866 0 7C0 3.13401 3.13401 0 7 0C10.866 0 14 3.13401 14 7ZM6.09998 4.24998C6.09998 3.75292 6.50292 3.34998 6.99998 3.34998C7.49703 3.34998 7.89998 3.75292 7.89998 4.24998C7.89998 4.74703 7.49703 5.14998 6.99998 5.14998C6.50292 5.14998 6.09998 4.74703 6.09998 4.24998ZM7.79988 9.84998C7.79988 10.2918 7.44171 10.65 6.99988 10.65C6.55805 10.65 6.19988 10.2918 6.19988 9.84998V6.94998C6.19988 6.50815 6.55805 6.14998 6.99988 6.14998C7.44171 6.14998 7.79988 6.50815 7.79988 6.94998L7.79988 9.84998Z" />
</svg>
    