<svg width="22" height="22" viewBox="0 0 22 22" xmlns="http://www.w3.org/2000/svg">
    <path fill-rule="evenodd" clip-rule="evenodd" d="M12.4032 2.70972C12.4027 2.34785 12.1278 2.05032 11.7754 2.01413L11.7039 2.01044H10.3054C9.94349 2.01091 9.64597 2.28584 9.60978 2.63826L9.6092 2.71456C10.0645 2.64672 10.5305 2.61157 11.0047 2.61157C11.4799 2.61157 11.9469 2.64688 12.4032 2.71502V2.70972ZM8.20752 2.70972C8.20752 2.70972 8.19999 2.91357 8.20066 3.03743C4.38487 4.22991 1.61563 7.79187 1.61563 12.0006C1.61563 17.186 5.81925 21.3897 11.0047 21.3897C16.1901 21.3897 20.3937 17.186 20.3937 12.0006C20.3937 7.78828 17.6198 4.22383 13.7989 3.03438V2.60181C13.7416 1.4939 12.8258 0.613102 11.7039 0.611877H10.3054L10.1975 0.61472C9.08954 0.672012 8.20875 1.58783 8.20752 2.70972ZM3.15246 11.2125C3.52221 7.48369 6.48758 4.51826 10.2164 4.14841C10.2084 4.19553 10.2042 4.24402 10.2042 4.29352V5.125C10.2042 5.58421 10.5626 5.95648 11.0047 5.95648C11.4468 5.95648 11.8052 5.58421 11.8052 5.125V4.29352C11.8052 4.24402 11.801 4.19553 11.793 4.14841C15.5218 4.51826 18.4872 7.48369 18.8569 11.2125C18.8093 11.2044 18.7602 11.2001 18.7101 11.2001H17.877C17.4169 11.2001 17.0439 11.5585 17.0439 12.0006C17.0439 12.4427 17.4169 12.8011 17.877 12.8011H18.7101C18.7602 12.8011 18.8093 12.7968 18.8569 12.7887C18.4872 16.5175 15.5218 19.483 11.793 19.8528C11.801 19.8057 11.8052 19.7572 11.8052 19.7077V18.8762C11.8052 18.417 11.4468 18.0448 11.0047 18.0448C10.5626 18.0448 10.2042 18.417 10.2042 18.8762V19.7077C10.2042 19.7572 10.2084 19.8057 10.2164 19.8528C6.48757 19.483 3.52219 16.5175 3.15246 12.7887C3.20009 12.7968 3.24913 12.8011 3.2992 12.8011H4.1323C4.59242 12.8011 4.96541 12.4427 4.96541 12.0006C4.96541 11.5585 4.59242 11.2001 4.1323 11.2001H3.2992C3.24913 11.2001 3.2001 11.2044 3.15246 11.2125ZM14.5985 7.78578C14.776 7.67327 15.0078 7.69892 15.1564 7.8475C15.2884 7.97958 15.3234 8.17738 15.2505 8.34436L15.2181 8.40534L12.677 13.4516C12.6459 13.5164 12.5989 13.5718 12.5409 13.6129L12.4794 13.6492L7.39725 16.1902C7.33606 16.2216 7.26847 16.2385 7.19971 16.2396C7.07973 16.2391 6.96494 16.1906 6.88095 16.1049C6.76181 15.9859 6.72065 15.812 6.76928 15.6548L6.79565 15.5886L9.33675 10.5244C9.36788 10.4596 9.41485 10.4043 9.47282 10.3631L9.53429 10.3269L14.5985 7.78578ZM13.4495 9.5544L10.8585 10.8517L12.1523 12.1454L13.4495 9.5544Z" />
</svg>