<svg width="22" height="22" viewBox="0 0 22 22" xmlns="http://www.w3.org/2000/svg">
    <path fill-rule="evenodd" clip-rule="evenodd" d="M9.77778 3.4375C7.08139 3.4375 4.82087 5.38817 4.27778 7.98031C1.87223 8.29015 0 10.3642 0 12.8965C0 15.6416 2.19313 17.875 4.88889 17.875H5.62222C5.88669 17.8787 6.13268 17.7372 6.26601 17.5046C6.39933 17.272 6.39933 16.9843 6.26601 16.7517C6.13268 16.5191 5.88669 16.3776 5.62222 16.3814H4.88889C2.98029 16.3814 1.46667 14.8401 1.46667 12.8965C1.46667 10.953 2.98029 9.41161 4.88889 9.41161C5.26849 9.41327 5.5866 9.1197 5.62222 8.73485C5.83169 6.60115 7.61642 4.93103 9.77778 4.93103C10.9566 4.93103 11.9037 5.38526 12.6729 6.19119C12.8766 6.40543 13.1859 6.47576 13.4597 6.3701C13.7736 6.24875 14.2586 6.17563 14.6667 6.17563C16.3017 6.17563 17.6619 7.40528 17.8521 8.99933C17.8838 9.27862 18.0668 9.51612 18.3257 9.61386C19.6269 10.1003 20.5333 11.3731 20.5333 12.8965C20.5333 14.8401 19.0197 16.3814 17.1111 16.3814H16.3778C16.1133 16.3776 15.8673 16.5191 15.734 16.7517C15.6007 16.9843 15.6007 17.272 15.734 17.5046C15.8673 17.7372 16.1133 17.8787 16.3778 17.875H17.1111C19.8069 17.875 22 15.6416 22 12.8965C22 10.9234 20.8695 9.22733 19.2194 8.4237C18.7725 6.27663 16.8923 4.68211 14.6667 4.68211C14.2443 4.68211 13.8084 4.75019 13.3833 4.86102C12.4147 3.9904 11.1864 3.4375 9.77778 3.4375ZM10.9924 7.90248C10.7965 7.90458 10.6096 7.9863 10.4733 8.1295C10.337 8.27269 10.2626 8.46546 10.2667 8.66484V12.6476L9.83889 12.1497C9.67715 11.9558 9.42957 11.8591 9.18194 11.893C8.91129 11.9301 8.68329 12.1172 8.59022 12.3787C8.49715 12.6401 8.55444 12.9326 8.73889 13.1376L10.45 15.129C10.5892 15.2897 10.7895 15.3818 11 15.3818C11.2105 15.3818 11.4108 15.2897 11.55 15.129L13.2611 13.1376C13.4385 12.9381 13.4968 12.6568 13.4136 12.4014C13.3305 12.1459 13.1188 11.9557 12.8594 11.9036C12.6001 11.8515 12.3333 11.9455 12.1611 12.1497L11.7333 12.6476V8.66484C11.7375 8.46276 11.661 8.2676 11.5213 8.12394C11.3817 7.98028 11.1908 7.90039 10.9924 7.90248ZM8.05903 14.8723C7.86319 14.8744 7.6763 14.9561 7.53999 15.0993C7.40367 15.2425 7.32926 15.4352 7.33333 15.6346V17.1282C7.33337 17.5406 7.66167 17.8749 8.06667 17.8749H13.9333C14.3383 17.8749 14.6666 17.5406 14.6667 17.1282V15.6346C14.6704 15.3653 14.5315 15.1148 14.303 14.9791C14.0746 14.8433 13.7921 14.8433 13.5636 14.9791C13.3352 15.1148 13.1963 15.3653 13.2 15.6346V16.3814H8.8V15.6346C8.80413 15.4325 8.72764 15.2374 8.588 15.0937C8.44837 14.9501 8.25751 14.8702 8.05903 14.8723Z" />
</svg>
    