<svg width="14" height="14" viewBox="0 0 14 14" xmlns="http://www.w3.org/2000/svg">
    <path fill-rule="evenodd" clip-rule="evenodd" d="M9.27054 8.22346C10.7298 6.25801 10.568 3.46815 8.78533 1.68544C6.82474 -0.275151 3.646 -0.275151 1.68541 1.68544C-0.275181 3.64603 -0.275181 6.82477 1.68541 8.78536C3.46744 10.5674 6.25586 10.7297 8.2212 9.27223C8.2415 9.29889 8.26382 9.32451 8.28817 9.34886L12.5097 13.5704C12.8021 13.8628 13.2761 13.8628 13.5684 13.5704C13.8607 13.2781 13.8607 12.8041 13.5684 12.5117L9.34684 8.29018C9.32259 8.26593 9.29709 8.24369 9.27054 8.22346ZM7.67804 2.74604C9.03996 4.10796 9.03996 6.31605 7.67804 7.67797C6.31613 9.03988 4.10803 9.03988 2.74612 7.67797C1.38421 6.31605 1.38421 4.10796 2.74612 2.74604C4.10803 1.38413 6.31613 1.38413 7.67804 2.74604Z" />
</svg>
    