<svg width="32" height="32" viewBox="0 0 32 32" xmlns="http://www.w3.org/2000/svg">
    <defs></defs>
    <path d="M 28.09 23.591 C 28.09 20.016 25.49 16.983 22.023 16.333 C 21.59 16.225 21.265 16.442 20.94 16.767 C 19.749 18.175 18.124 18.933 16.282 18.933 C 14.44 18.933 12.815 18.175 11.624 16.767 C 11.407 16.442 10.974 16.333 10.54 16.333 C 6.966 16.983 4.474 20.016 4.474 23.591 C 4.474 24.639 4.474 25.686 4.474 26.733 C 4.474 26.996 4.525 27.305 4.582 27.491 C 5.016 28.899 6.316 29.983 7.832 29.983 L 24.623 29.983 C 26.14 29.983 27.657 29.224 27.982 27.491 C 28.063 27.058 28.09 26.993 28.09 26.733 C 28.09 25.54 28.046 24.783 28.09 23.591 Z M 25.815 26.516 C 25.815 27.166 25.273 27.708 24.623 27.708 L 7.941 27.708 C 7.291 27.708 6.749 27.166 6.749 26.516 L 6.749 23.591 C 6.749 21.316 8.266 19.366 10.324 18.716 C 11.624 20.016 13.249 20.775 14.982 21.1 C 15.415 21.208 15.849 21.208 16.282 21.208 C 16.715 21.208 17.149 21.208 17.582 21.1 C 19.315 20.883 20.94 20.016 22.24 18.716 C 24.407 19.366 25.815 21.316 25.815 23.591 L 25.815 26.516 Z M 16.282 15.9 C 20.074 15.9 23.107 12.867 23.107 9.075 C 23.107 5.284 20.074 2.142 16.282 2.142 C 12.49 2.142 9.457 5.175 9.457 8.967 C 9.457 12.758 12.49 15.9 16.282 15.9 Z M 16.282 4.417 C 18.774 4.417 20.832 6.475 20.832 8.967 C 20.832 11.458 18.774 13.517 16.282 13.517 C 13.79 13.517 11.732 11.458 11.732 8.967 C 11.732 6.475 13.79 4.417 16.282 4.417 Z" style=""></path>
  </svg>