<?xml version="1.0" encoding="UTF-8"?>
<svg width="32px" height="32px" viewBox="0 0 32 32" version="1.1" xmlns="http://www.w3.org/2000/svg" xmlns:xlink="http://www.w3.org/1999/xlink">
    <title>IconInfoPanel@1x</title>
    <g id="Icons" stroke="none" stroke-width="1" fill-rule="evenodd">
        <g id="Icons-/-Large-/-IconInfoPanel" >
            <path d="M26.1983459,6.40409432 C31.295481,11.8181425 31.2521921,20.2484794 26.1581216,25.6093451 L25.9117295,25.86228 C23.2985076,28.4948259 19.7458291,29.983108 16.0345771,30 C13.7490178,29.9982506 11.4984974,29.4386894 9.47877407,28.3699891 C7.77945236,29.5144779 5.71295788,29.9823957 3.68572281,29.6817138 C3.03671935,29.5675795 2.53882852,29.0427928 2.45952696,28.3892792 C2.36907689,27.7639475 2.70375419,27.1542889 3.28020922,26.8942987 C4.11204122,26.4403027 4.78563089,25.7438631 5.21122631,24.8977765 C0.394682125,19.0792421 1.07089088,10.4920485 6.73893062,5.49741713 C12.4069704,0.502785779 21.020304,0.904108892 26.1983459,6.40409432 Z M7.94356431,7.11552356 C3.09830168,11.5308919 2.66956999,19.0034511 6.97810694,23.942918 L7.64430784,24.4444598 L7.31603493,25.1485474 C6.86417373,26.1684839 6.2068425,27.0845064 5.38501784,27.8395122 C6.64944526,27.7183425 7.85409683,27.243669 8.8608486,26.4699172 L9.5270495,25.9683754 L10.0773894,26.4795622 C14.7081218,29.127697 20.5159677,28.4219511 24.3745174,24.7773618 L24.608293,24.5505552 C29.2473736,19.9194745 29.3352162,12.4351662 24.8061048,7.6967033 C20.2769935,2.95824036 12.7888269,2.70015525 7.94356431,7.11552356 Z M14.1294163,13.8504417 L14.3352821,13.8638565 L17.0193958,13.8638565 C18.2154678,13.8531298 19.1952001,14.8102847 19.2111002,16.0050542 L19.2111002,16.0050542 L19.2111002,16.0339893 C19.2036761,16.4502731 19.1714354,16.8657454 19.1145493,17.2781989 L19.1145493,17.2781989 L19.0373087,17.7700956 C18.8828273,18.7924693 18.7283459,19.8630682 18.5642095,20.8275717 C19.0180679,20.9016399 19.4278468,21.1424353 19.7131646,21.5027242 C20.0887818,21.9715555 20.2244125,22.5883893 20.0800579,23.1713152 L20.0800579,23.1713152 L20.0800579,23.2484755 C19.985758,23.6242161 19.8075092,23.9737475 19.5586833,24.2708492 C18.8241683,25.2464896 17.6900685,25.8412722 16.4690559,25.8912151 L16.4690559,25.8912151 L16.4111254,25.8912151 C15.9384392,25.9036067 15.4658002,25.8648001 15.0014829,25.7754747 C13.4075927,25.3039744 12.3688249,23.7736895 12.520126,22.1200064 C12.5877116,21.454499 12.6649523,20.7986366 12.7711582,20.1909994 C12.8773641,19.3615264 13.0028803,18.5320534 13.1283964,17.6929354 C12.3829398,17.3025377 11.9564454,16.4926581 12.0566819,15.657833 C12.1298602,14.7488242 12.8158942,14.0077225 13.7173566,13.8638565 C13.9228393,13.8437343 14.1297994,13.8437343 14.3352821,13.8638565 Z M14.2290761,15.5035124 C14.1201164,15.4892669 14.0097629,15.4892669 13.9008032,15.5035124 C13.8137272,15.5060332 13.7312247,15.5430248 13.6714643,15.606341 C13.6117039,15.6696572 13.5795867,15.7541055 13.5821854,15.8410886 C13.5492428,16.0271113 13.6493869,16.2111846 13.8235625,16.2847603 C13.9755109,16.3280428 14.1303973,16.3602772 14.2870066,16.3812106 C14.6538999,16.4294358 14.7697609,16.5934014 14.7697609,17.037073 L14.7697609,17.037073 L14.7697609,17.2299737 C14.6056244,18.3102176 14.4511431,19.3808165 14.3063168,20.4514154 C14.2097659,21.0590526 14.1228702,21.6956249 14.0649397,22.3032621 C14.0088718,23.1474186 14.5099643,23.9295606 15.3007906,24.2322691 C15.6388864,24.2883218 15.9816911,24.3109363 16.3242297,24.2997843 C17.0923419,24.278686 17.8065489,23.9005503 18.2552467,23.2774106 C18.3530274,23.1560504 18.4223137,23.0143262 18.4580035,22.8626741 C18.506279,22.6504833 18.400073,22.4961628 18.2455917,22.4961628 L18.2455917,22.4961628 L18.1393857,22.4961628 C17.9945594,22.563678 17.8690433,22.6601284 17.7338721,22.7372887 C17.5640921,22.8152583 17.3859169,22.8735094 17.2028424,22.9108993 L17.2028424,22.9108993 L17.154567,22.9108993 C16.9807755,22.9108993 16.8359492,22.7855138 16.7780187,22.544388 C16.7479037,22.3494259 16.7479037,22.1510029 16.7780187,21.9560408 C16.816639,21.5413043 16.8842246,21.1458579 16.9421551,20.7311214 C17.1449119,19.515847 17.3283585,18.2716375 17.5118052,17.0563631 C17.5559744,16.7365998 17.5817636,16.4145707 17.5890458,16.0918596 C17.5697357,15.6964131 17.3669789,15.5035124 17.038706,15.5035124 L17.038706,15.5035124 Z M16.6428475,6.57221002 C18.295247,6.66416308 19.5879841,8.02949516 19.5879841,9.68273381 C19.5879841,11.3359725 18.295247,12.7013045 16.6428475,12.7932576 C15.4890318,12.8574654 14.3942642,12.2790452 13.7979983,11.2901822 C13.2017324,10.3013193 13.2017324,9.06414832 13.7979983,8.07528538 C14.3942642,7.08642244 15.4890318,6.50800226 16.6428475,6.57221002 Z M16.6428475,8.21186597 C16.0412221,8.19615975 15.4902056,8.54662114 15.2498986,9.09781913 C15.0095915,9.64901713 15.1280428,10.2907407 15.549339,10.720072 C15.9706352,11.1494033 16.6105389,11.2804984 17.1669914,11.0514754 C17.7234438,10.8224523 18.0851833,10.279104 18.0814552,9.67791129 C18.0868331,8.87728344 17.4442576,8.22245253 16.6428475,8.21186597 Z" id="icon-info"></path>
        </g>
    </g>
</svg>