<svg width="14" height="14" viewBox="0 0 14 14" xmlns="http://www.w3.org/2000/svg">
<path fill-rule="evenodd" clip-rule="evenodd" d="M9.30431 1.4V1.85899H12.5903C13.1015 1.85899 13.5158 2.27335 13.5158 2.78449C13.5158 3.29564 13.1015 3.71 12.5903 3.71H12.1504L11.4017 12.716C11.3413 13.4417 10.7347 14 10.0065 14H3.81485C3.08662 14 2.47999 13.4417 2.41966 12.716L1.67094 3.71H1.39551C0.884364 3.71 0.470001 3.29564 0.470001 2.78449C0.470001 2.27335 0.884363 1.85899 1.39551 1.85899H4.4841V1.4C4.4841 0.626801 5.1109 0 5.8841 0H7.90431C8.67751 0 9.30431 0.626801 9.30431 1.4ZM8.04401 1.12H5.76201V1.84254H8.04401V1.12ZM4.40777 11.7546C4.42273 12.0306 4.65794 12.2427 4.93408 12.2291C5.21217 12.2155 5.42609 11.9782 5.41103 11.7002L5.07055 5.41559C5.05559 5.13952 4.82038 4.92742 4.54425 4.941C4.26616 4.95468 4.05223 5.19192 4.0673 5.46994L4.40777 11.7546ZM6.77911 12.2043C7.05623 12.2043 7.28088 11.9797 7.28088 11.7026V5.43466C7.28088 5.15755 7.05623 4.9329 6.77911 4.9329C6.502 4.9329 6.27735 5.15755 6.27735 5.43466V11.7026C6.27735 11.9797 6.502 12.2043 6.77911 12.2043ZM8.62415 12.2127C8.90029 12.2263 9.1355 12.0142 9.15046 11.7381L9.49093 5.45349C9.50599 5.17547 9.29207 4.93823 9.01398 4.92455C8.73785 4.91097 8.50263 5.12307 8.48768 5.39913L8.1472 11.6838C8.13214 11.9618 8.34606 12.199 8.62415 12.2127Z" />
</svg>
