<svg width="32" height="32" viewBox="0 0 32 32" fill="none" xmlns="http://www.w3.org/2000/svg">
<path fill-rule="evenodd" clip-rule="evenodd" d="M12.5654 11.6639V18.7103C12.5654 19.0476 12.6909 19.3656 12.919 19.6114C13.0853 19.7906 13.2983 19.9221 13.5142 19.9866L13.6437 20.0171L13.7521 20.0312L20.9369 20.0355V27.0818C20.9369 27.5397 20.7555 27.9753 20.4334 28.2974C20.1928 28.538 19.888 28.7008 19.5508 28.7677L19.3796 28.7931L19.2179 28.8009H5.51907C5.06116 28.8009 4.62558 28.6194 4.30351 28.2974C4.06292 28.0568 3.90006 27.752 3.83316 27.4147L3.80779 27.2435L3.8 27.0818V13.383C3.8 12.9251 3.98143 12.4895 4.30351 12.1674C4.5441 11.9268 4.84891 11.764 5.18618 11.6971L5.35738 11.6717L5.51907 11.6639H12.5654ZM10.6489 13.5795H5.7156V26.8843H19.0204V21.9491L13.6937 21.9455C13.0789 21.9084 12.493 21.698 11.9951 21.3392L11.8127 21.1978L11.644 21.0465L11.5144 20.9147C11.0607 20.4257 10.7705 19.8131 10.6796 19.1506L10.6568 18.928L10.6494 18.7103L10.6489 13.5795ZM24.2067 19.9534C24.7471 19.9534 25.1916 20.3915 25.1916 20.93C25.1916 21.3853 24.8724 21.7739 24.43 21.8798L24.3169 21.9002L24.2067 21.9067H23.2464C22.707 21.9067 22.2698 21.4694 22.2698 20.93C22.2698 20.4776 22.5791 20.0915 23.0157 19.9823L23.1274 19.9609L23.2464 19.9534H24.2067ZM27.849 19.5106C28.1037 19.0883 28.6371 18.9211 29.0894 19.127C29.5804 19.3505 29.7972 19.9296 29.5738 20.4206C29.199 21.2439 28.4123 21.808 27.5099 21.8949C26.973 21.9467 26.4958 21.5534 26.4441 21.0165C26.4007 20.5661 26.6715 20.1521 27.0957 20.0016L27.2048 19.9695L27.3903 19.94C27.5118 19.9133 27.6215 19.8478 27.6997 19.7607L27.7521 19.6917L27.849 19.5106ZM28.8242 13.1353C29.2766 13.1353 29.6628 13.4446 29.7719 13.8813L29.7933 13.993L29.8009 14.112V16.4101C29.8009 16.9495 29.3636 17.3868 28.8242 17.3868C28.3718 17.3868 27.9856 17.0775 27.8765 16.6408L27.8551 16.5291L27.8475 16.4101V14.112C27.8475 13.5726 28.2848 13.1353 28.8242 13.1353ZM28.8242 7.2316C29.2766 7.2316 29.6628 7.54088 29.7719 7.97754L29.7933 8.08925L29.8009 8.20828V10.5063C29.8009 11.0457 29.3636 11.483 28.8242 11.483C28.3718 11.483 27.9856 11.1737 27.8765 10.7371L27.8551 10.6254L27.8475 10.5063V8.20828C27.8475 7.66887 28.2848 7.2316 28.8242 7.2316ZM11.6708 6.72209C12.1233 6.72209 12.5094 7.03138 12.6186 7.46803L12.64 7.57975L12.6475 7.69877V9.25816C12.6475 9.79757 12.2102 10.2348 11.6708 10.2348C11.2184 10.2348 10.8323 9.92555 10.7231 9.4889L10.7017 9.37719L10.6942 9.25816V7.69877C10.6942 7.15937 11.1314 6.72209 11.6708 6.72209ZM13.1447 2.80143C13.6838 2.78343 14.1354 3.20586 14.1534 3.74496C14.1685 4.19711 13.8723 4.59338 13.4395 4.71705L13.3286 4.74216L13.1409 4.7601C13.0175 4.77903 12.9043 4.8373 12.8208 4.91932L12.7642 4.98504L12.656 5.15974C12.375 5.56507 11.8321 5.6981 11.3937 5.46392C10.9179 5.20979 10.7382 4.61808 10.9924 4.14229C11.4186 3.34436 12.2372 2.83173 13.1447 2.80143ZM27.4616 2.80143C28.369 2.83173 29.1877 3.34436 29.6139 4.14229C29.868 4.61808 29.6883 5.20979 29.2125 5.46392C28.8106 5.67858 28.321 5.58469 28.0209 5.24797L27.944 5.15017L27.8909 5.06258C27.8184 4.92696 27.6969 4.82659 27.5604 4.78167L27.4769 4.76153L27.3964 4.75369C26.8573 4.73569 26.4348 4.28407 26.4528 3.74496C26.4708 3.20586 26.9225 2.78343 27.4616 2.80143ZM18.6938 2.96502C19.2332 2.96502 19.6705 3.40229 19.6705 3.9417C19.6705 4.3941 19.3612 4.78026 18.9246 4.88941L18.8129 4.91081L18.6938 4.91837H16.3958C15.8564 4.91837 15.4191 4.4811 15.4191 3.9417C15.4191 3.48929 15.7284 3.10314 16.1651 2.99398L16.2768 2.97258L16.3958 2.96502H18.6938ZM24.2104 2.96502C24.7498 2.96502 25.1871 3.40229 25.1871 3.9417C25.1871 4.3941 24.8778 4.78026 24.4412 4.88941L24.3295 4.91081L24.2104 4.91837H21.9124C21.373 4.91837 20.9357 4.4811 20.9357 3.9417C20.9357 3.48929 21.245 3.10314 21.6816 2.99398L21.7933 2.97258L21.9124 2.96502H24.2104Z" />
</svg>
