<svg width="22" height="22" viewBox="0 0 22 22" fill="none" xmlns="http://www.w3.org/2000/svg">
    <path d="M 16.431 7.178 L 17.466 7.178 L 17 18.5 C 16.979 18.877 16.807 19.232 16.518 19.491 C 16.229 19.751 15.846 19.895 15.449 19.895 L 6.552 19.895 C 6.154 19.895 5.771 19.751 5.482 19.491 C 5.193 19.232 5.021 18.877 5 18.5 L 4.534 7.178 L 5.569 7.178 L 6.034 18.448 C 6.041 18.574 6.099 18.692 6.195 18.779 C 6.291 18.865 6.4190000000000005 18.914 6.552 18.913 L 15.449 18.913 C 15.581 18.914 15.709 18.866 15.805 18.779 C 15.901 18.693 15.959 18.574 15.966 18.449 L 16.431 7.178 Z M 17.668 6.984 L 17.659 7.186 L 17.194 18.511 C 17.163 18.925 16.959 19.346 16.647 19.636 C 16.328 19.914 15.881 20.083 15.448 20.089 L 6.552 20.089 C 6.12 20.083 5.672 19.914 5.352 19.635 C 5.041 19.346 4.836 18.922 4.806 18.508 L 4.332 6.984 L 5.755 6.984 L 5.763 7.17 L 6.228 18.438 C 6.225 18.526 6.251 18.578 6.325 18.635 C 6.39 18.701999999999998 6.453 18.726 6.552 18.719 L 15.449 18.719 C 15.547 18.726 15.61 18.701999999999998 15.675 18.635 C 15.749 18.578 15.774000000000001 18.529 15.772 18.441 L 16.245 6.984 L 17.668 6.984 Z M 16.16 18.457 C 16.143 18.619 16.053 18.807 15.934 18.923000000000002 C 15.808 19.028 15.615 19.101 15.448 19.107 L 6.552 19.107 C 6.384 19.101 6.192 19.028 6.065 18.923000000000002 C 5.947 18.807 5.857 18.622 5.841 18.459 L 5.383 7.372 L 4.737 7.372 L 5.194 18.492 C 5.205 18.832 5.345 19.117 5.612 19.347 C 5.87 19.588 6.188 19.707 6.551 19.701 L 15.449 19.701 C 15.812 19.707 16.13 19.588 16.388 19.347 C 16.654 19.117 16.795 18.829 16.806 18.49 L 17.263 7.372 L 16.617 7.372 L 16.16 18.457 Z" stroke-width="0.388123" stroke-linejoin="round"></path>
    <rect width="1.20007" height="9.21678" rx="0.4" transform="matrix(0.999085 -0.0427776 0.0402026 0.999192 7.77173 8.41895)"></rect>
    <rect x="10.4001" y="8.38867" width="1.2" height="9.18823" rx="0.4"></rect>
    <rect width="1.20007" height="9.21675" rx="0.4" transform="matrix(0.99904 0.0438118 -0.0411748 0.999152 13.0385 8.36694)"></rect>
    <path fill-rule="evenodd" clip-rule="evenodd" d="M6.42261 4.01807C6.42261 2.9135 7.31804 2.01807 8.42261 2.01807H13.5795C14.684 2.01807 15.5795 2.9135 15.5795 4.01807V4.61182H18.2401C18.4886 4.61182 18.6901 4.81329 18.6901 5.06182V5.57197C18.6901 5.8205 18.4886 6.02197 18.2401 6.02197H3.76006C3.51153 6.02197 3.31006 5.8205 3.31006 5.57197V5.06182C3.31006 4.81329 3.51153 4.61182 3.76006 4.61182H6.42261V4.01807ZM8.43594 3.43604C8.10457 3.43604 7.83594 3.70466 7.83594 4.03604V4.604H14.1641V4.03604C14.1641 3.70466 13.8954 3.43604 13.5641 3.43604H8.43594Z"></path>
</svg>