<svg width="14" height="14" viewBox="0 0 14 14" xmlns="http://www.w3.org/2000/svg">
    <path d="M 11.977 8.821 L 12.719 10.975 L 11.873 11.14 L 10.482 11.412 C 10.183 11.421 10.072 11.513 10.012 11.805 L 9.196 13.933 L 8.441 13.514 L 7.204 12.827 C 6.968 12.643 6.825 12.642 6.59 12.826 L 4.597 13.933 L 4.288 13.127 L 3.781 11.806 C 3.718 11.513 3.607 11.42 3.309 11.411 L 1.073 10.975 L 1.354 10.159 L 1.815 8.822 C 1.955 8.557 1.932 8.415 1.709 8.218 L 0.274 6.446 L 1.014 6.002 L 2.228 5.273 C 2.506 5.162 2.576 5.038 2.534 4.742 L 2.574 2.462 L 3.427 2.598 L 4.823 2.821 C 5.109 2.912 5.245 2.864 5.402 2.61 L 6.896 0.889 L 7.462 1.541 L 8.392 2.612 C 8.548 2.865 8.681 2.912 8.967 2.821 L 11.221 2.462 L 11.235 3.327 L 11.258 4.742 C 11.215 5.038 11.287 5.16 11.564 5.273 L 13.519 6.446 L 12.976 7.117 L 12.083 8.219 C 11.86 8.417 11.837 8.557 11.977 8.821 Z M 10.919 7.273 L 11.267 6.844 L 10.792 6.559 C 10.253 6.18 9.817 5.426 9.758 4.768 L 9.749 4.216 L 9.203 4.303 C 8.547 4.358 7.726 4.061 7.258 3.592 L 6.896 3.177 L 6.534 3.594 C 6.065 4.062 5.249 4.358 4.593 4.303 L 4.044 4.216 L 4.034 4.768 C 3.976 5.426 3.542 6.178 3.002 6.559 L 2.526 6.844 L 2.875 7.274 C 3.254 7.817 3.403 8.673 3.235 9.308 L 3.053 9.833 L 3.597 9.939 C 4.235 10.11 4.9 10.669 5.181 11.266 L 5.379 11.783 L 5.862 11.514 C 6.459 11.238 7.33 11.237 7.928 11.513 L 8.414 11.783 L 8.612 11.267 C 8.892 10.669 9.561 10.109 10.198 9.939 L 10.739 9.833 L 10.559 9.309 C 10.389 8.673 10.54 7.815 10.919 7.273 Z" />
</svg>