<?xml version="1.0" encoding="UTF-8"?>
<svg width="32px" height="32px" viewBox="0 0 32 32" version="1.1" xmlns="http://www.w3.org/2000/svg" xmlns:xlink="http://www.w3.org/1999/xlink">
    <title>IconDna@1x</title>
    <path d="M 23.79 0.263 C 24.412 0.216 24.955 0.682 25.003 1.306 L 25 1.306 C 25.263 4.795 25.014 7.186 24.619 8.833 C 24.249 10.379 23.756 11.232 23.518 11.645 C 23.499 11.678 23.482 11.709 23.465 11.737 C 23.184 12.233 22.412 13.209 21.3 14.213 C 20.652 14.799 19.862 15.418 18.949 15.972 C 19.862 16.527 20.652 17.145 21.3 17.731 C 22.412 18.735 23.184 19.712 23.465 20.208 C 23.482 20.235 23.499 20.266 23.518 20.299 C 23.756 20.712 24.249 21.565 24.619 23.112 C 25.014 24.758 25.263 27.149 25 30.639 L 25.003 30.639 C 24.955 31.262 24.412 31.728 23.79 31.681 L 23.737 31.676 C 23.116 31.63 22.651 31.09 22.694 30.47 L 22.692 30.47 C 22.796 29.08 22.814 27.895 22.775 26.888 L 14.109 26.888 C 13.47 26.888 12.952 26.37 12.952 25.73 C 12.952 25.091 13.47 24.573 14.109 24.573 L 22.553 24.573 C 22.497 24.231 22.434 23.925 22.369 23.651 C 22.152 22.749 21.898 22.171 21.696 21.786 L 16.927 21.786 C 16.305 21.786 15.796 21.294 15.772 20.677 C 15.77 20.661 15.77 20.644 15.77 20.628 C 15.77 19.989 16.289 19.471 16.927 19.471 L 19.772 19.471 L 19.749 19.449 C 18.852 18.64 17.685 17.795 16.323 17.217 C 14.962 17.795 13.796 18.64 12.901 19.448 C 11.899 20.352 11.315 21.141 11.197 21.349 C 11.181 21.377 11.163 21.408 11.144 21.441 C 10.939 21.796 10.574 22.425 10.281 23.651 C 9.953 25.017 9.708 27.162 9.956 30.469 C 10 31.088 9.534 31.627 8.915 31.675 L 8.862 31.68 C 8.239 31.727 7.695 31.262 7.647 30.639 C 7.384 27.149 7.635 24.757 8.029 23.111 C 8.4 21.565 8.892 20.711 9.13 20.299 C 9.15 20.265 9.168 20.235 9.183 20.207 C 9.464 19.711 10.238 18.734 11.348 17.73 C 11.997 17.145 12.786 16.526 13.698 15.972 C 12.786 15.418 11.997 14.8 11.348 14.214 C 10.238 13.21 9.464 12.233 9.183 11.737 C 9.168 11.709 9.15 11.679 9.13 11.645 C 8.892 11.233 8.4 10.38 8.029 8.833 C 7.635 7.187 7.386 4.795 7.648 1.306 C 7.696 0.682 8.239 0.217 8.862 0.265 L 8.915 0.269 C 9.534 0.317 9.998 0.856 9.955 1.475 C 9.853 2.841 9.836 4.009 9.872 5.005 L 18.539 5.005 C 19.179 5.005 19.697 5.524 19.697 6.163 C 19.697 6.802 19.179 7.32 18.539 7.32 L 10.088 7.32 C 10.146 7.682 10.212 8.006 10.281 8.294 C 10.488 9.157 10.729 9.725 10.926 10.108 L 15.721 10.108 C 16.361 10.108 16.879 10.627 16.879 11.265 C 16.879 11.905 16.361 12.423 15.721 12.423 L 12.821 12.423 C 12.847 12.447 12.874 12.472 12.901 12.496 C 13.796 13.305 14.962 14.149 16.323 14.727 C 17.685 14.149 18.852 13.304 19.749 12.495 C 20.75 11.591 21.333 10.803 21.452 10.595 C 21.468 10.566 21.485 10.535 21.505 10.502 C 21.71 10.147 22.075 9.518 22.369 8.293 C 22.696 6.927 22.941 4.781 22.692 1.474 L 22.694 1.474 C 22.651 0.854 23.116 0.314 23.737 0.268 L 23.79 0.263 Z"></path>
</svg>