<svg width="32" height="32" viewBox="0 0 32 32" xmlns="http://www.w3.org/2000/svg">
    <defs></defs>
    <path d="M 12.951 15.885 C 12.951 14.281 14.252 12.98 15.856 12.98 C 17.46 12.98 18.762 14.281 18.762 15.885 C 18.762 17.489 17.46 18.789 15.856 18.789 C 14.252 18.789 12.951 17.489 12.951 15.885 Z" style=""></path>
    <path d="M 2.3 15.885 C 2.3 14.281 3.601 12.98 5.205 12.98 C 6.809 12.98 8.109 14.281 8.109 15.885 C 8.109 17.489 6.809 18.789 5.205 18.789 C 3.601 18.789 2.3 17.489 2.3 15.885 Z" style=""></path>
    <path d="M 26.507 12.98 C 24.903 12.98 23.603 14.281 23.603 15.885 C 23.603 17.489 24.903 18.789 26.507 18.789 C 28.113 18.789 29.413 17.489 29.413 15.885 C 29.413 14.281 28.113 12.98 26.507 12.98 Z" style=""></path>
  </svg>