<svg width="22" height="22" viewBox="0 0 22 22" xmlns="http://www.w3.org/2000/svg">
    <path fill-rule="evenodd" clip-rule="evenodd" d="M16.59 6.06125L16.624 4.52684C16.6347 4.04681 17.037 3.66888 17.5168 3.68831C17.9851 3.70728 18.3516 4.09842 18.34 4.56696L18.2388 8.68284C18.2236 9.30041 17.6577 9.75663 17.051 9.64039L13.0286 8.86976C12.5497 8.77801 12.2346 8.31703 12.323 7.83752C12.4118 7.35552 12.8746 7.03686 13.3566 7.12583L15.3495 7.49373C14.974 6.84943 14.4863 6.28364 13.9084 5.83053C12.9006 5.04016 11.6768 4.63825 10.4329 4.68906C9.189 4.73987 7.99675 5.24048 7.04685 6.11083C6.31448 6.78186 5.78575 7.65395 5.46691 8.62269C5.31027 9.09859 4.83382 9.41858 4.34479 9.30962C3.87682 9.20534 3.57164 8.74648 3.70513 8.28599C4.11316 6.87843 4.85494 5.60996 5.90299 4.64969C7.15505 3.5025 8.72653 2.84265 10.3661 2.77567C12.0057 2.7087 13.6187 3.23845 14.9472 4.28023C15.5833 4.77905 16.1365 5.38147 16.59 6.06125ZM6.65527 14.5036C7.03079 15.1479 7.51851 15.7137 8.09631 16.1668C9.10418 16.9572 10.3279 17.3591 11.5718 17.3083C12.8158 17.2574 14.008 16.7568 14.9579 15.8865C15.6903 15.2155 16.219 14.3434 16.5379 13.3746C16.6945 12.8987 17.1709 12.5787 17.66 12.6877C18.1279 12.792 18.4331 13.2508 18.2996 13.7113C17.8916 15.1189 17.1498 16.3874 16.1018 17.3476C14.8497 18.4948 13.2782 19.1547 11.6386 19.2216C9.99903 19.2886 8.38602 18.7589 7.05756 17.7171C6.42144 17.2182 5.86815 16.6158 5.41468 15.936L5.38066 17.4705C5.37002 17.9505 4.96765 18.3284 4.48789 18.309C4.01959 18.29 3.65311 17.8989 3.66463 17.4304L3.76585 13.3145C3.78103 12.6969 4.34698 12.2407 4.95371 12.3569L8.97611 13.1276C9.45499 13.2193 9.7701 13.6803 9.68172 14.1598C9.59287 14.6418 9.13006 14.9605 8.64809 14.8715L6.65527 14.5036Z" />
</svg>
    