<svg viewBox="0 0 32 32" fill="none" xmlns="http://www.w3.org/2000/svg">
<path d="M13.4286 16.0214C13.4286 14.6013 14.5798 13.45 16 13.45C17.4202 13.45 18.5714 14.6013 18.5714 16.0214C18.5714 17.4416 17.4202 18.5929 16 18.5929C14.5798 18.5929 13.4286 17.4416 13.4286 16.0214Z" />
<path d="M4 16.0215C4 14.6013 5.15127 13.45 6.57143 13.45C7.99159 13.45 9.14286 14.6013 9.14286 16.0215C9.14286 17.4416 7.99159 18.5929 6.57143 18.5929C5.15127 18.5929 4 17.4416 4 16.0215Z" />
<path d="M25.4286 13.45C24.0084 13.45 22.8571 14.6013 22.8571 16.0214C22.8571 17.4416 24.0084 18.5929 25.4286 18.5929C26.8487 18.5929 28 17.4416 28 16.0214C28 14.6013 26.8487 13.45 25.4286 13.45Z" />
</svg>
