<svg width="22" height="22" viewBox="0 0 22 22" xmlns="http://www.w3.org/2000/svg">
    <path fill-rule="evenodd" clip-rule="evenodd" d="M10.4437 11.2977C10.6129 11.1043 10.8791 11.0076 11.1209 11.0559C12.4172 11.279 13.5024 12.0183 14.1907 13.0386C14.63 13.3869 15.262 13.6246 15.8603 13.6717C16.0015 13.692 16.0496 13.7022 16.1978 13.7022C16.3462 13.6954 16.3187 13.6971 16.5295 13.6717C17.2947 13.6115 18.12 13.2421 18.5187 12.724C18.7118 12.4823 19.0022 12.3856 19.2923 12.4581C20.8637 12.8691 22 14.3922 22 16.0845V17.535C22 18.7438 21.033 19.7109 19.8242 19.7109H2.17582C0.967033 19.7109 0 18.7438 0 17.535V15.6735C0 13.401 1.61954 11.4669 3.86813 11.0801C4.13407 11.0317 4.37582 11.1284 4.54505 11.3218C5.27033 12.1922 6.35824 12.6999 7.49451 12.6999C8.63053 12.6999 9.71844 12.1922 10.4437 11.2977ZM19.2923 14.0295C18.5015 14.7543 17.3123 15.1745 16.1949 15.1378C15.7771 15.1515 15.3509 15.0979 14.9385 14.9915C14.9689 15.2071 14.989 15.4257 14.989 15.6493V17.535C14.989 17.7903 14.9438 18.0335 14.8643 18.2603H19.8242C20.2352 18.2603 20.5494 17.946 20.5494 17.535V16.0845C20.5494 15.2141 20.0176 14.3922 19.2923 14.0295ZM3.74725 12.579C2.39316 12.9658 1.45055 14.2229 1.45055 15.6493V17.535C1.45055 17.946 1.76484 18.2603 2.17582 18.2603H12.8132C13.2239 18.2603 13.5385 17.946 13.5385 17.535V15.6735C13.5385 14.2471 12.5956 12.99 11.2418 12.6032C10.2503 13.5944 8.92064 14.1504 7.49451 14.1504C6.06813 14.1504 4.73846 13.5944 3.74725 12.579ZM16.1978 6.09989C17.9382 6.09989 19.3407 7.50208 19.3407 9.24274V9.41197C19.3407 11.1526 17.9382 12.5548 16.1978 12.5548C14.4571 12.5548 13.0549 11.1285 13.0549 9.41197V9.24274C13.0549 7.50208 14.4571 6.09989 16.1978 6.09989ZM16.1978 7.52626C15.2549 7.52626 14.5055 8.27571 14.5055 9.21857V9.3878C14.5055 10.3307 15.2549 11.0801 16.1978 11.0801C17.1404 11.0801 17.8901 10.3307 17.8901 9.3878V9.21857C17.8901 8.27571 17.1404 7.52626 16.1978 7.52626ZM7.49451 2.0625C9.88767 2.0625 11.8462 4.02074 11.8462 6.41415C11.8462 8.80756 9.88767 10.7658 7.49451 10.7658C5.1011 10.7658 3.14286 8.80756 3.14286 6.41415C3.14286 4.02074 5.1011 2.0625 7.49451 2.0625ZM7.49451 3.51305C5.89866 3.51305 4.59341 4.81854 4.59341 6.41415C4.59341 8.00975 5.89866 9.31525 7.49451 9.31525C9.09011 9.31525 10.3956 8.00975 10.3956 6.41415C10.3956 4.81854 9.09011 3.51305 7.49451 3.51305Z" />
</svg>
    