<svg width="22" height="22" viewBox="0 0 22 22" xmlns="http://www.w3.org/2000/svg">
    <path fill-rule="evenodd" clip-rule="evenodd" d="M10.9929 7.98581L10.4066 9.39549C10.1618 9.98409 9.60827 10.3863 8.97283 10.4372L7.45096 10.5592L8.61046 11.5524C9.0946 11.9672 9.30604 12.6179 9.15812 13.238L8.80388 14.7231L10.1068 13.9272C10.6508 13.5949 11.3351 13.5949 11.8791 13.9272L13.182 14.7231L12.8278 13.238C12.6798 12.6179 12.8913 11.9672 13.3754 11.5524L14.5349 10.5592L13.0131 10.4372C12.3776 10.3863 11.8241 9.98409 11.5793 9.39549L10.9929 7.98581ZM11.9163 6.43C11.5747 5.6087 10.4112 5.6087 10.0696 6.43L9.06781 8.83864C9.03181 8.9252 8.9504 8.98435 8.85696 8.99184L6.25662 9.2003C5.36996 9.27139 5.01044 10.3779 5.68597 10.9566L7.66716 12.6537C7.73835 12.7146 7.76945 12.8103 7.74769 12.9015L7.14241 15.439C6.93602 16.3042 7.87727 16.9881 8.63637 16.5244L10.8626 15.1647C10.9426 15.1158 11.0433 15.1158 11.1233 15.1647L13.3495 16.5244C14.1086 16.9881 15.0499 16.3042 14.8435 15.439L14.2382 12.9015C14.2164 12.8103 14.2475 12.7146 14.3187 12.6537L16.2999 10.9566C16.9754 10.3779 16.6159 9.27139 15.7293 9.2003L13.1289 8.99184C13.0355 8.98435 12.9541 8.9252 12.9181 8.83864L11.9163 6.43Z" />
    <path d="M10.2679 1.93502C10.2679 1.53462 10.5925 1.21002 10.9929 1.21002C11.3933 1.21002 11.7179 1.53462 11.7179 1.93502V3.48502C11.7179 3.88543 11.3933 4.21002 10.9929 4.21002C10.5925 4.21002 10.2679 3.88543 10.2679 3.48502V1.93502Z" />
    <path d="M20.4009 10.2689C20.8013 10.2689 21.1259 10.5935 21.1259 10.9939C21.1259 11.3943 20.8013 11.7189 20.4009 11.7189H18.8509C18.4505 11.7189 18.1259 11.3943 18.1259 10.9939C18.1259 10.5935 18.4505 10.2689 18.8509 10.2689H20.4009Z" />
    <path d="M17.2243 3.73293C17.5074 3.4498 17.9665 3.4498 18.2496 3.73293C18.5328 4.01606 18.5328 4.4751 18.2496 4.75823L17.1536 5.85425C16.8705 6.13738 16.4114 6.13738 16.1283 5.85425C15.8452 5.57112 15.8452 5.11207 16.1283 4.82894L17.2243 3.73293Z" />
    <path d="M19.0068 17.2323C19.2899 17.5154 19.2899 17.9745 19.0068 18.2576C18.7237 18.5407 18.2646 18.5407 17.9815 18.2576L16.8855 17.1616C16.6023 16.8784 16.6023 16.4194 16.8855 16.1363C17.1686 15.8531 17.6276 15.8531 17.9108 16.1363L19.0068 17.2323Z" />
    <path d="M10.2679 18.5026C10.2679 18.1022 10.5925 17.7776 10.9929 17.7776C11.3933 17.7776 11.7179 18.1022 11.7179 18.5026V20.0526C11.7179 20.4531 11.3933 20.7776 10.9929 20.7776C10.5925 20.7776 10.2679 20.4531 10.2679 20.0526V18.5026Z" />
    <path d="M3.13502 10.2689C3.53542 10.2689 3.86002 10.5935 3.86002 10.9939C3.86002 11.3943 3.53542 11.7189 3.13502 11.7189H1.58502C1.18461 11.7189 0.860016 11.3943 0.860016 10.9939C0.860016 10.5935 1.18461 10.2689 1.58502 10.2689H3.13502Z" />
    <path d="M4.07765 16.1362C4.36078 15.8531 4.81982 15.8531 5.10295 16.1362C5.38608 16.4194 5.38608 16.8784 5.10295 17.1616L4.00694 18.2576C3.72381 18.5407 3.26476 18.5407 2.98163 18.2576C2.6985 17.9744 2.6985 17.5154 2.98163 17.2323L4.07765 16.1362Z" />
    <path d="M5.85676 4.82884C6.13989 5.11197 6.13989 5.57101 5.85676 5.85414C5.57363 6.13727 5.11459 6.13727 4.83146 5.85414L3.73544 4.75813C3.45231 4.475 3.45231 4.01595 3.73544 3.73282C4.01857 3.44969 4.47762 3.44969 4.76075 3.73282L5.85676 4.82884Z" />
</svg>
    