<?xml version="1.0" encoding="UTF-8"?>
<svg width="32px" height="32px" viewBox="0 0 32 32" version="1.1" xmlns="http://www.w3.org/2000/svg" xmlns:xlink="http://www.w3.org/1999/xlink">
    <title>IconBacteria@1x</title>
    <path fill-rule="evenodd" clip-rule="evenodd" d="M 16.226 19.689 C 16.226 21.153 15.039 22.34 13.575 22.34 C 12.111 22.34 10.924 21.153 10.924 19.689 C 10.924 18.225 12.111 17.038 13.575 17.038 C 15.039 17.038 16.226 18.225 16.226 19.689 Z M 13.575 20.713 C 14.141 20.713 14.6 20.255 14.6 19.689 C 14.6 19.123 14.141 18.665 13.575 18.665 C 13.009 18.665 12.551 19.123 12.551 19.689 C 12.551 20.255 13.009 20.713 13.575 20.713 Z" style=""></path>
    <path d="M 18.994 10.607 C 19.76 10.607 20.381 9.986 20.381 9.22 C 20.381 8.454 19.76 7.833 18.994 7.833 C 18.228 7.833 17.607 8.454 17.607 9.22 C 17.607 9.986 18.228 10.607 18.994 10.607 Z"></path>
    <path d="M 17.012 16.222 C 16.713 15.741 16.859 15.11 17.34 14.81 L 18.74 13.938 C 19.22 13.639 19.852 13.786 20.151 14.266 C 20.45 14.746 20.303 15.378 19.823 15.677 L 18.423 16.549 C 17.943 16.848 17.311 16.702 17.012 16.222 Z" style=""></path>
    <path d="M 13.451 12.386 C 13.544 12.944 14.072 13.321 14.63 13.227 C 15.188 13.134 15.565 12.606 15.472 12.048 L 15.134 10.027 C 15.041 9.469 14.513 9.092 13.955 9.185 C 13.397 9.278 13.021 9.806 13.114 10.364 L 13.451 12.386 Z" style=""></path>
    <path fill-rule="evenodd" clip-rule="evenodd" d="M 20.283 3.067 C 19.078 2.622 17.834 2.498 16.643 2.652 L 15.865 0.961 C 15.628 0.447 15.02 0.223 14.506 0.459 C 13.992 0.696 13.767 1.304 14.004 1.818 L 14.637 3.194 C 14.375 3.304 14.119 3.429 13.871 3.568 L 13.01 2.544 C 12.646 2.111 12 2.055 11.567 2.419 C 11.134 2.783 11.078 3.429 11.442 3.862 L 12.229 4.798 C 11.952 5.07 11.696 5.364 11.461 5.679 L 10.244 5.28 C 9.706 5.104 9.127 5.398 8.951 5.935 C 8.776 6.473 9.069 7.052 9.606 7.227 L 10.454 7.505 C 10.44 7.54 10.427 7.576 10.413 7.612 L 7.457 15.616 L 6.894 15.143 C 6.461 14.779 5.815 14.835 5.451 15.268 C 5.087 15.701 5.143 16.348 5.576 16.712 L 6.862 17.792 C 6.788 18.376 6.782 18.959 6.84 19.531 L 5.46 19.765 C 4.902 19.859 4.526 20.388 4.621 20.946 C 4.715 21.504 5.244 21.879 5.802 21.785 L 7.319 21.528 C 7.926 23.095 9.041 24.459 10.544 25.355 C 10.427 25.592 10.295 25.839 10.152 26.104 L 10.131 26.141 C 9.898 26.574 9.63 27.07 9.445 27.564 C 9.253 28.075 9.106 28.696 9.231 29.353 C 9.363 30.045 9.768 30.625 10.392 31.09 C 11.057 31.586 11.759 31.756 12.457 31.67 C 13.099 31.591 13.667 31.304 14.11 31.051 C 14.317 30.933 14.49 30.828 14.649 30.731 C 14.889 30.585 15.099 30.457 15.353 30.329 C 15.728 30.14 16.02 30.054 16.279 30.054 C 16.984 30.054 17.287 30.29 17.416 30.426 C 17.494 30.507 17.54 30.585 17.565 30.637 C 17.575 30.659 17.581 30.675 17.584 30.682 C 17.733 31.219 18.284 31.543 18.829 31.409 C 19.384 31.272 19.723 30.711 19.586 30.156 L 18.589 30.402 C 19.586 30.156 19.586 30.156 19.586 30.156 L 19.585 30.153 L 19.585 30.15 L 19.583 30.144 L 19.579 30.13 L 19.57 30.096 C 19.562 30.071 19.553 30.04 19.54 30.004 C 19.515 29.933 19.48 29.842 19.429 29.737 C 19.329 29.53 19.167 29.262 18.914 28.997 C 18.383 28.44 17.534 27.984 16.279 27.984 C 15.559 27.984 14.931 28.224 14.421 28.481 C 14.109 28.638 13.758 28.85 13.462 29.028 C 13.32 29.114 13.19 29.193 13.084 29.253 C 12.685 29.481 12.417 29.589 12.206 29.615 C 12.051 29.634 11.88 29.617 11.628 29.43 C 11.335 29.211 11.281 29.054 11.264 28.965 C 11.241 28.841 11.253 28.637 11.383 28.29 C 11.514 27.941 11.718 27.56 11.973 27.087 L 11.984 27.068 C 12.132 26.793 12.297 26.488 12.45 26.167 C 14.412 26.709 16.437 26.433 18.129 25.523 L 19.176 26.771 C 19.539 27.204 20.185 27.261 20.619 26.897 C 21.052 26.534 21.109 25.888 20.746 25.454 L 19.792 24.317 C 20.333 23.801 20.805 23.201 21.183 22.526 L 22.849 22.668 C 23.412 22.716 23.908 22.298 23.956 21.734 C 24.004 21.17 23.586 20.675 23.023 20.627 L 22.018 20.541 L 24.827 12.937 C 24.862 12.843 24.895 12.749 24.925 12.654 L 25.819 12.984 C 26.349 13.18 26.939 12.909 27.135 12.378 C 27.331 11.848 27.059 11.259 26.529 11.062 L 25.298 10.608 C 25.319 10.126 25.294 9.647 25.226 9.177 L 26.418 8.995 C 26.977 8.91 27.361 8.387 27.276 7.828 C 27.191 7.269 26.668 6.884 26.109 6.97 L 24.657 7.191 C 24.45 6.717 24.195 6.265 23.896 5.841 L 24.907 4.986 C 25.339 4.62 25.393 3.974 25.027 3.542 C 24.662 3.11 24.015 3.056 23.583 3.421 L 22.5 4.338 C 21.855 3.807 21.111 3.373 20.283 3.067 Z M 19.751 20.704 L 22.885 12.219 C 23.959 9.311 22.473 6.083 19.565 5.009 C 16.657 3.935 13.429 5.421 12.355 8.329 L 9.221 16.814 C 8.147 19.721 9.633 22.949 12.541 24.024 C 15.449 25.098 18.677 23.611 19.751 20.704 Z" style=""></path>
</svg>