<svg width="22" height="22" viewBox="0 0 20 20" fill="none" xmlns="http://www.w3.org/2000/svg">
<path fill-rule="evenodd" clip-rule="evenodd" d="M10 0.375C15.3072 0.375 19.625 4.6928 19.625 10C19.625 15.3072 15.3072 19.625 10 19.625C4.6928 19.625 0.375 15.3072 0.375 10C0.375 4.6928 4.6928 0.375 10 0.375ZM10 1.75C5.45097 1.75 1.75 5.45097 1.75 10C1.75 14.549 5.45097 18.25 10 18.25C14.549 18.25 18.25 14.549 18.25 10C18.25 5.45097 14.549 1.75 10 1.75ZM8.7807 10.9523C8.82391 11.7763 9.42434 12.1454 10 12.1454C10.5638 12.1454 11.1826 11.7262 11.2195 10.9473L11.4626 5.27556C11.4628 5.26819 11.463 5.26102 11.463 5.25365C11.463 4.44719 10.8069 3.79106 10 3.79106C9.19314 3.79106 8.537 4.44719 8.537 5.25365C8.537 5.26102 8.5372 5.26819 8.53741 5.27556L8.7807 10.9523ZM10 4.8152C10.239 4.8152 10.4341 5.00729 10.4391 5.24505L10.1966 10.9013C10.1872 11.1001 10.0559 11.1214 10 11.1214C9.87201 11.1214 9.81323 11.0893 9.80361 10.9035L9.56094 5.24484C9.56585 5.00708 9.76101 4.8152 10 4.8152ZM10 12.9448C9.54517 12.9448 9.09955 13.1296 8.77701 13.4523C8.45652 13.773 8.27242 14.2178 8.27242 14.6722C8.27242 15.1285 8.45631 15.5739 8.77701 15.8946C9.09771 16.2155 9.54332 16.3998 10 16.3998C10.4581 16.3998 10.9035 16.2151 11.2181 15.8968C11.5418 15.5766 11.7274 15.1301 11.7274 14.6724C11.7274 14.2164 11.5418 13.7712 11.2197 13.4523C10.8978 13.1296 10.453 12.9448 10 12.9448ZM10.4937 15.1727C10.2388 15.4312 9.76142 15.4312 9.50114 15.1707C9.37089 15.0404 9.29635 14.8588 9.29635 14.672C9.29635 14.4896 9.37294 14.3042 9.50114 14.1758C9.63302 14.0441 9.81467 13.9686 10 13.9686C10.1835 13.9686 10.3641 14.0441 10.4978 14.1777C10.6287 14.3073 10.7036 14.4875 10.7036 14.672C10.7036 14.8584 10.6285 15.0392 10.4937 15.1727Z" fill="#3867FA"/>
</svg>
