<svg width="15" height="14" viewBox="0 0 15 14" xmlns="http://www.w3.org/2000/svg">
<path fill-rule="evenodd" clip-rule="evenodd" d="M1.875 2.13C1.875 1.57772 2.32272 1.13 2.875 1.13L9.27486 1.13C9.82714 1.13 10.2749 1.57772 10.2749 2.13V2.88C10.2749 3.43229 9.82714 3.88 9.27486 3.88L2.875 3.88C2.32272 3.88 1.875 3.43229 1.875 2.88V2.13ZM1.875 6.63014C1.875 6.07786 2.32272 5.63014 2.875 5.63014L12.875 5.63014C13.4273 5.63014 13.875 6.07786 13.875 6.63014V7.38014C13.875 7.93242 13.4273 8.38014 12.875 8.38014H2.875C2.32272 8.38014 1.875 7.93242 1.875 7.38014V6.63014ZM1.875 11.1303C1.875 10.578 2.32272 10.1303 2.875 10.1303H5.67471C6.227 10.1303 6.67471 10.578 6.67471 11.1303V11.8803C6.67471 12.4326 6.227 12.8803 5.67471 12.8803H2.875C2.32272 12.8803 1.875 12.4326 1.875 11.8803V11.1303Z" />
</svg>
