<svg width="22" height="22" viewBox="0 0 22 22" xmlns="http://www.w3.org/2000/svg">
<path d="M9.23214 10.9679C9.23214 9.99149 10.0236 9.2 11 9.2C11.9764 9.2 12.7679 9.99149 12.7679 10.9679C12.7679 11.9442 11.9764 12.7357 11 12.7357C10.0236 12.7357 9.23214 11.9442 9.23214 10.9679Z" />
<path d="M2.75 10.9679C2.75 9.9915 3.5415 9.20001 4.51786 9.20001C5.49422 9.20001 6.28571 9.9915 6.28571 10.9679C6.28571 11.9442 5.49422 12.7357 4.51786 12.7357C3.5415 12.7357 2.75 11.9442 2.75 10.9679Z" />
<path d="M17.4821 9.2C16.5058 9.2 15.7143 9.99149 15.7143 10.9679C15.7143 11.9442 16.5058 12.7357 17.4821 12.7357C18.4585 12.7357 19.25 11.9442 19.25 10.9679C19.25 9.99149 18.4585 9.2 17.4821 9.2Z" />
</svg>
