<?xml version="1.0" encoding="UTF-8"?>
<svg width="32px" height="32px" viewBox="0 0 32 32" version="1.1" xmlns="http://www.w3.org/2000/svg" xmlns:xlink="http://www.w3.org/1999/xlink">
  <title>IconVirus@1x</title>
  <path fill-rule="evenodd" clip-rule="evenodd" d="M 29.68 13.957 C 29.68 13.378 30.15 12.908 30.729 12.908 C 31.307 12.908 31.777 13.378 31.777 13.957 L 31.777 18.15 C 31.777 18.729 31.307 19.199 30.729 19.199 C 30.15 19.199 29.68 18.729 29.68 18.15 L 29.68 17.102 L 27.585 17.102 C 27.349 19.42 26.417 21.613 24.911 23.39 L 26.41 24.952 L 27.155 24.208 C 27.57 23.851 28.19 23.875 28.577 24.263 C 28.964 24.65 28.988 25.271 28.633 25.686 L 27.134 27.227 L 25.656 28.705 C 25.247 29.112 24.587 29.112 24.178 28.705 C 23.772 28.296 23.772 27.636 24.178 27.227 L 24.922 26.483 L 23.391 24.963 C 21.608 26.449 19.415 27.363 17.103 27.584 L 17.103 29.679 L 18.151 29.679 C 18.73 29.679 19.2 30.149 19.2 30.728 C 19.2 31.306 18.73 31.776 18.151 31.776 L 13.958 31.776 C 13.379 31.776 12.909 31.306 12.909 30.728 C 12.909 30.149 13.379 29.679 13.958 29.679 L 15.006 29.679 L 15.006 27.584 C 12.688 27.348 10.495 26.416 8.718 24.91 L 7.156 26.409 L 7.899 27.154 C 8.306 27.562 8.306 28.223 7.899 28.632 C 7.49 29.038 6.831 29.038 6.422 28.632 L 4.933 27.164 L 3.476 25.686 C 3.147 25.442 2.989 25.029 3.074 24.628 C 3.158 24.227 3.469 23.911 3.869 23.821 C 4.27 23.731 4.685 23.882 4.933 24.208 L 5.678 24.952 L 7.198 23.39 C 5.71 21.607 4.797 19.414 4.577 17.102 L 2.428 17.102 L 2.428 18.15 C 2.428 18.729 1.959 19.199 1.38 19.199 C 0.802 19.199 0.332 18.729 0.332 18.15 L 0.332 13.957 C 0.332 13.378 0.802 12.908 1.38 12.908 C 1.959 12.908 2.428 13.378 2.428 13.957 L 2.428 15.005 L 4.577 15.005 C 4.797 12.693 5.71 10.5 7.198 8.717 L 5.699 7.155 L 4.954 7.898 C 4.545 8.305 3.885 8.305 3.476 7.898 C 3.069 7.489 3.069 6.83 3.476 6.421 L 4.944 4.932 L 6.422 3.475 C 6.666 3.146 7.078 2.988 7.48 3.073 C 7.881 3.157 8.197 3.468 8.287 3.868 C 8.377 4.269 8.226 4.684 7.899 4.932 L 7.156 5.677 L 8.718 7.197 C 10.501 5.709 12.694 4.796 15.006 4.576 L 15.006 2.427 L 13.958 2.427 C 13.379 2.427 12.909 1.958 12.909 1.379 C 12.909 0.801 13.379 0.331 13.958 0.331 L 18.151 0.331 C 18.73 0.331 19.2 0.801 19.2 1.379 C 19.2 1.958 18.73 2.427 18.151 2.427 L 17.103 2.427 L 17.103 4.576 C 19.415 4.796 21.608 5.709 23.391 7.197 L 24.953 5.698 L 24.209 4.953 C 23.91 4.697 23.78 4.295 23.871 3.912 C 23.963 3.529 24.263 3.231 24.646 3.139 C 25.029 3.045 25.431 3.176 25.687 3.475 L 27.176 4.943 L 28.654 6.421 C 29.06 6.83 29.06 7.489 28.654 7.898 C 28.245 8.305 27.585 8.305 27.176 7.898 L 26.431 7.155 L 24.964 8.717 C 26.45 10.5 27.364 12.693 27.585 15.005 L 29.68 15.005 L 29.68 13.957 Z M 6.621 16.052 C 6.621 21.264 10.844 25.487 16.053 25.487 C 18.556 25.487 20.956 24.493 22.725 22.724 C 24.494 20.955 25.488 18.555 25.488 16.052 C 25.488 10.843 21.265 6.62 16.053 6.62 C 10.844 6.62 6.621 10.843 6.621 16.052 Z"></path>
  <path d="M 11.013 14.217 C 12.027 14.217 12.85 15.039 12.85 16.052 C 12.85 17.067 12.027 17.889 11.013 17.889 C 9.998 17.889 9.177 17.067 9.177 16.052 C 9.177 15.039 9.998 14.217 11.013 14.217 Z"></path>
  <path d="M 16.449 18.174 C 17.863 18.174 19.01 19.32 19.01 20.736 C 19.01 22.151 17.863 23.297 16.449 23.297 C 15.033 23.297 13.886 22.151 13.886 20.736 C 13.886 19.32 15.033 18.174 16.449 18.174 Z"></path>
  <path fill-rule="evenodd" clip-rule="evenodd" d="M 15.787 14.479 C 16.425 15.539 17.598 16.159 18.832 16.09 C 20.601 15.992 21.984 14.528 21.984 12.757 C 21.984 10.985 20.601 9.522 18.832 9.424 C 17.598 9.355 16.425 9.975 15.787 11.034 C 15.149 12.095 15.149 13.42 15.787 14.479 Z M 17.341 12.13 C 17.599 11.539 18.189 11.164 18.832 11.182 C 19.69 11.192 20.378 11.894 20.372 12.752 C 20.376 13.396 19.988 13.978 19.393 14.224 C 18.798 14.468 18.113 14.329 17.662 13.869 C 17.211 13.408 17.084 12.721 17.341 12.13 Z"></path>
  <path fill-rule="evenodd" clip-rule="evenodd" d="M 29.68 13.957 C 29.68 13.378 30.15 12.908 30.729 12.908 C 31.307 12.908 31.777 13.378 31.777 13.957 L 31.777 18.15 C 31.777 18.729 31.307 19.199 30.729 19.199 C 30.15 19.199 29.68 18.729 29.68 18.15 L 29.68 17.102 L 27.585 17.102 C 27.349 19.42 26.417 21.613 24.911 23.39 L 26.41 24.952 L 27.155 24.208 C 27.57 23.851 28.19 23.875 28.577 24.263 C 28.964 24.65 28.988 25.271 28.633 25.686 L 27.134 27.227 L 25.656 28.705 C 25.247 29.112 24.587 29.112 24.178 28.705 C 23.772 28.296 23.772 27.636 24.178 27.227 L 24.922 26.483 L 23.391 24.963 C 21.608 26.449 19.415 27.363 17.103 27.584 L 17.103 29.679 L 18.151 29.679 C 18.73 29.679 19.2 30.149 19.2 30.728 C 19.2 31.306 18.73 31.776 18.151 31.776 L 13.958 31.776 C 13.379 31.776 12.909 31.306 12.909 30.728 C 12.909 30.149 13.379 29.679 13.958 29.679 L 15.006 29.679 L 15.006 27.584 C 12.688 27.348 10.495 26.416 8.718 24.91 L 7.156 26.409 L 7.899 27.154 C 8.306 27.562 8.306 28.223 7.899 28.632 C 7.49 29.038 6.831 29.038 6.422 28.632 L 4.933 27.164 L 3.476 25.686 C 3.147 25.442 2.989 25.029 3.074 24.628 C 3.158 24.227 3.469 23.911 3.869 23.821 C 4.27 23.731 4.685 23.882 4.933 24.208 L 5.678 24.952 L 7.198 23.39 C 5.71 21.607 4.797 19.414 4.577 17.102 L 2.428 17.102 L 2.428 18.15 C 2.428 18.729 1.959 19.199 1.38 19.199 C 0.802 19.199 0.332 18.729 0.332 18.15 L 0.332 13.957 C 0.332 13.378 0.802 12.908 1.38 12.908 C 1.959 12.908 2.428 13.378 2.428 13.957 L 2.428 15.005 L 4.577 15.005 C 4.797 12.693 5.71 10.5 7.198 8.717 L 5.699 7.155 L 4.954 7.898 C 4.545 8.305 3.885 8.305 3.476 7.898 C 3.069 7.489 3.069 6.83 3.476 6.421 L 4.944 4.932 L 6.422 3.475 C 6.666 3.146 7.078 2.988 7.48 3.073 C 7.881 3.157 8.197 3.468 8.287 3.868 C 8.377 4.269 8.226 4.684 7.899 4.932 L 7.156 5.677 L 8.718 7.197 C 10.501 5.709 12.694 4.796 15.006 4.576 L 15.006 2.427 L 13.958 2.427 C 13.379 2.427 12.909 1.958 12.909 1.379 C 12.909 0.801 13.379 0.331 13.958 0.331 L 18.151 0.331 C 18.73 0.331 19.2 0.801 19.2 1.379 C 19.2 1.958 18.73 2.427 18.151 2.427 L 17.103 2.427 L 17.103 4.576 C 19.415 4.796 21.608 5.709 23.391 7.197 L 24.953 5.698 L 24.209 4.953 C 23.91 4.697 23.78 4.295 23.871 3.912 C 23.963 3.529 24.263 3.231 24.646 3.139 C 25.029 3.045 25.431 3.176 25.687 3.475 L 27.176 4.943 L 28.654 6.421 C 29.06 6.83 29.06 7.489 28.654 7.898 C 28.245 8.305 27.585 8.305 27.176 7.898 L 26.431 7.155 L 24.964 8.717 C 26.45 10.5 27.364 12.693 27.585 15.005 L 29.68 15.005 L 29.68 13.957 Z M 6.621 16.052 C 6.621 21.264 10.844 25.487 16.053 25.487 C 18.556 25.487 20.956 24.493 22.725 22.724 C 24.494 20.955 25.488 18.555 25.488 16.052 C 25.488 10.843 21.265 6.62 16.053 6.62 C 10.844 6.62 6.621 10.843 6.621 16.052 Z" stroke="#3867FA" stroke-width="0.195" mask="url(#path-1-outside-1_978_94)" style=""></path>
  <path d="M 11.013 14.217 C 12.027 14.217 12.85 15.039 12.85 16.052 C 12.85 17.067 12.027 17.889 11.013 17.889 C 9.998 17.889 9.177 17.067 9.177 16.052 C 9.177 15.039 9.998 14.217 11.013 14.217 Z" stroke="#3867FA" stroke-width="0.195" mask="url(#path-1-outside-1_978_94)" style=""></path>
  <path d="M 16.449 18.174 C 17.863 18.174 19.01 19.32 19.01 20.736 C 19.01 22.151 17.863 23.297 16.449 23.297 C 15.033 23.297 13.886 22.151 13.886 20.736 C 13.886 19.32 15.033 18.174 16.449 18.174 Z" stroke="#3867FA" stroke-width="0.195" mask="url(#path-1-outside-1_978_94)" style=""></path>
  <path fill-rule="evenodd" clip-rule="evenodd" d="M 15.787 14.479 C 16.425 15.539 17.598 16.159 18.832 16.09 C 20.601 15.992 21.984 14.528 21.984 12.757 C 21.984 10.985 20.601 9.522 18.832 9.424 C 17.598 9.355 16.425 9.975 15.787 11.034 C 15.149 12.095 15.149 13.42 15.787 14.479 Z M 17.341 12.13 C 17.599 11.539 18.189 11.164 18.832 11.182 C 19.69 11.192 20.378 11.894 20.372 12.752 C 20.376 13.396 19.988 13.978 19.393 14.224 C 18.798 14.468 18.113 14.329 17.662 13.869 C 17.211 13.408 17.084 12.721 17.341 12.13 Z" stroke="#3867FA" stroke-width="0.195" mask="url(#path-1-outside-1_978_94)" style=""></path>
</svg>