<svg width="22" height="22" viewBox="0 0 22 22" xmlns="http://www.w3.org/2000/svg">
    <path fill-rule="evenodd" clip-rule="evenodd" d="M14.453 3.23999C15.4353 3.23999 16.2709 3.86825 16.5799 4.74487H19.1899C19.6042 4.74487 19.9399 5.08066 19.9399 5.49487C19.9399 5.90909 19.6042 6.24487 19.1899 6.24487H16.5796C16.2705 7.12112 15.4351 7.74902 14.453 7.74902C13.4709 7.74902 12.6355 7.12112 12.3264 6.24487H2.81494C2.40073 6.24487 2.06494 5.90909 2.06494 5.49487C2.06494 5.08066 2.40073 4.74487 2.81494 4.74487H12.3261C12.6351 3.86825 13.4707 3.23999 14.453 3.23999ZM14.9109 6.33224C14.9574 6.30675 15.0016 6.27749 15.043 6.24487C15.2643 6.07033 15.4061 5.7998 15.4061 5.49609C15.4061 5.19097 15.2627 4.91932 15.0397 4.74487H15.044C14.8814 4.61657 14.6762 4.53999 14.453 4.53999C14.2299 4.53999 14.0246 4.61657 13.862 4.74487H13.8663C13.6433 4.91932 13.4999 5.19097 13.4999 5.49609C13.4999 5.7998 13.6419 6.07033 13.8632 6.24487C13.9046 6.27749 13.9486 6.30675 13.9951 6.33224C14.131 6.40681 14.2871 6.44922 14.453 6.44922C14.6189 6.44922 14.775 6.40681 14.9109 6.33224Z" />
    <path fill-rule="evenodd" clip-rule="evenodd" d="M6.70166 8.74902C7.68399 8.74902 8.51958 9.37728 8.82855 10.2539H19.1899C19.6042 10.2539 19.9399 10.5897 19.9399 11.0039C19.9399 11.4181 19.6042 11.7539 19.1899 11.7539H8.82829C8.51912 12.6301 7.68372 13.2581 6.70166 13.2581C5.7196 13.2581 4.8842 12.6301 4.57503 11.7539H2.81494C2.40073 11.7539 2.06494 11.4181 2.06494 11.0039C2.06494 10.5897 2.40073 10.2539 2.81494 10.2539H4.57477C4.88374 9.37728 5.71933 8.74902 6.70166 8.74902ZM7.15953 11.8413C7.20608 11.8158 7.25026 11.7865 7.29168 11.7539C7.51297 11.5794 7.65479 11.3088 7.65479 11.0051C7.65479 10.7 7.5114 10.4284 7.28834 10.2539H7.29261C7.13008 10.1256 6.92481 10.049 6.70166 10.049C6.47851 10.049 6.27324 10.1256 6.11071 10.2539H6.11498C5.89192 10.4284 5.74854 10.7 5.74854 11.0051C5.74854 11.3088 5.89059 11.5794 6.11187 11.7539C6.15329 11.7865 6.19724 11.8158 6.24379 11.8413C6.37968 11.9158 6.53572 11.9583 6.70166 11.9583C6.8676 11.9583 7.02364 11.9158 7.15953 11.8413Z" />
    <path fill-rule="evenodd" clip-rule="evenodd" d="M13.5008 15.7681C13.1932 14.8888 12.3563 14.2581 11.3721 14.2581C10.3878 14.2581 9.55089 14.8888 9.24338 15.7681H2.81494C2.40073 15.7681 2.06494 16.1039 2.06494 16.5181C2.06494 16.9323 2.40073 17.2681 2.81494 17.2681H9.24725C9.55787 18.1416 10.3919 18.7671 11.3721 18.7671C12.3522 18.7671 13.1863 18.1416 13.4969 17.2681H19.1899C19.6042 17.2681 19.9399 16.9323 19.9399 16.5181C19.9399 16.1039 19.6042 15.7681 19.1899 15.7681H13.5008ZM11.9555 17.2681C11.9158 17.2988 11.8736 17.3264 11.8293 17.3507C11.6936 17.425 11.5378 17.4673 11.3721 17.4673C11.2064 17.4673 11.0506 17.425 10.9148 17.3507C10.8705 17.3264 10.8285 17.2988 10.7888 17.2681C10.5638 17.0937 10.4189 16.8209 10.4189 16.5142C10.4189 16.212 10.5595 15.9427 10.7789 15.7681H10.7747C10.9382 15.6367 11.146 15.5581 11.3721 15.5581C11.5982 15.5581 11.8059 15.6367 11.9695 15.7681H11.9653C12.1846 15.9427 12.3252 16.212 12.3252 16.5142C12.3252 16.8209 12.1806 17.0937 11.9555 17.2681Z" />
</svg>
    