<svg width="14" height="14" viewBox="0 0 14 14" xmlns="http://www.w3.org/2000/svg">
<path d="M7.20148 9.11612C7.67842 9.11612 8.06505 8.72949 8.06505 8.25255C8.06505 7.77562 7.67842 7.38899 7.20148 7.38899H3.72763C3.2507 7.38899 2.86407 7.77562 2.86407 8.25255C2.86407 8.72949 3.2507 9.11612 3.72763 9.11612H7.20148Z" />
<path d="M10.8041 9.11612C11.281 9.11612 11.6676 8.72949 11.6676 8.25255C11.6676 7.77562 11.281 7.38899 10.8041 7.38899H9.3302C8.85327 7.38899 8.46664 7.77562 8.46664 8.25255C8.46664 8.72949 8.85327 9.11612 9.3302 9.11612H10.8041Z" />
<path d="M3.60048 6.6281C4.07741 6.6281 4.46404 6.24147 4.46404 5.76454C4.46404 5.2876 4.07741 4.90097 3.60048 4.90097H2.12662C1.64969 4.90097 1.26306 5.2876 1.26306 5.76454C1.26306 6.24147 1.64969 6.6281 2.12662 6.6281H3.60048Z" />
<path d="M9.20357 6.62211C9.6805 6.62211 10.0671 6.23548 10.0671 5.75854C10.0671 5.28161 9.6805 4.89498 9.20357 4.89498H5.72971C5.25278 4.89498 4.86615 5.28161 4.86615 5.75854C4.86615 6.23548 5.25278 6.62211 5.72971 6.62211H9.20357Z" />
<path d="M5.07308 4.14008C5.55001 4.14008 5.93664 3.75345 5.93664 3.27652C5.93664 2.79959 5.55001 2.41296 5.07308 2.41296H3.59923C3.12229 2.41296 2.73566 2.79959 2.73566 3.27652C2.73566 3.75345 3.12229 4.14008 3.59923 4.14008H5.07308Z" />
<path d="M10.6721 4.14008C11.149 4.14008 11.5356 3.75345 11.5356 3.27652C11.5356 2.79959 11.149 2.41296 10.6721 2.41296H7.19823C6.72129 2.41296 6.33466 2.79959 6.33466 3.27652C6.33466 3.75345 6.72129 4.14008 7.19823 4.14008H10.6721Z" />
<path d="M12.3586 11.6161C12.8356 11.6161 13.2222 11.2295 13.2222 10.7526C13.2222 10.2756 12.8356 9.88899 12.3586 9.88899H1.8472C1.37027 9.88899 0.983643 10.2756 0.983643 10.7526C0.983643 11.2295 1.37027 11.6161 1.8472 11.6161H12.3586Z" />
</svg>
