<svg width="22" height="22" viewBox="0 0 22 22" xmlns="http://www.w3.org/2000/svg">
    <path d="M5.96777 5.21926C5.55356 5.21926 5.21777 5.55504 5.21777 5.96926C5.21777 6.38347 5.55356 6.71926 5.96777 6.71926H9.96596C10.3802 6.71926 10.716 6.38347 10.716 5.96926C10.716 5.55504 10.3802 5.21926 9.96596 5.21926H5.96777Z" />
    <path d="M5.21777 8.46926C5.21777 8.05504 5.55356 7.71926 5.96777 7.71926H11.9653C12.3795 7.71926 12.7153 8.05504 12.7153 8.46926C12.7153 8.88347 12.3795 9.21926 11.9653 9.21926H5.96777C5.55356 9.21926 5.21777 8.88347 5.21777 8.46926Z" />
    <path d="M5.96777 10.2193C5.55356 10.2193 5.21777 10.555 5.21777 10.9693C5.21777 11.3835 5.55356 11.7193 5.96777 11.7193H8.46645C8.88067 11.7193 9.21645 11.3835 9.21645 10.9693C9.21645 10.555 8.88067 10.2193 8.46645 10.2193H5.96777Z" />
    <path fill-rule="evenodd" clip-rule="evenodd" d="M13.5759 3.37242C16.1675 5.96282 16.3756 10.0334 14.2002 12.8615C14.2253 12.882 14.2496 12.9039 14.273 12.9273L20.4612 19.1155C20.8322 19.4865 20.8322 20.088 20.4612 20.459C20.0902 20.83 19.4887 20.83 19.1177 20.459L12.9295 14.2708C12.9059 14.2472 12.8839 14.2227 12.8633 14.1974C10.0339 16.3704 5.96246 16.1619 3.37136 13.5721C0.553459 10.7555 0.553459 6.18898 3.37136 3.37242C6.18926 0.555871 10.758 0.555871 13.5759 3.37242ZM12.198 12.1983C14.2743 10.1219 14.2743 6.75546 12.198 4.6791C10.1216 2.60274 6.75514 2.60274 4.67878 4.6791C2.60241 6.75546 2.60241 10.1219 4.67878 12.1983C6.75514 14.2746 10.1216 14.2746 12.198 12.1983Z" />
</svg>
    