<svg xmlns="http://www.w3.org/2000/svg" xmlns:xlink="http://www.w3.org/1999/xlink" width="22px" height="22px" viewBox="0 0 22 22" version="1.1">
	<g id="surface1">
		<path d="M 19.523438 11 C 19.523438 11.910156 18.785156 12.648438 17.875 12.648438 C 16.964844 12.648438 16.226562 11.910156 16.226562 11 C 16.226562 10.089844 16.964844 9.351562 17.875 9.351562 C 18.785156 9.351562 19.523438 10.089844 19.523438 11 Z M 5.429688 11 C 5.429688 11.722656 4.847656 12.304688 4.125 12.304688 C 3.402344 12.304688 2.820312 11.722656 2.820312 11 C 2.820312 10.277344 3.402344 9.695312 4.125 9.695312 C 4.847656 9.695312 5.429688 10.277344 5.429688 11 Z M 12.582031 4.125 C 12.582031 5 11.875 5.707031 11 5.707031 C 10.125 5.707031 9.417969 5 9.417969 4.125 C 9.417969 3.25 10.125 2.542969 11 2.542969 C 11.875 2.542969 12.582031 3.25 12.582031 4.125 Z M 17.578125 15.859375 C 17.578125 16.8125 16.8125 17.578125 15.859375 17.578125 C 14.910156 17.578125 14.140625 16.8125 14.140625 15.859375 C 14.140625 14.910156 14.910156 14.140625 15.859375 14.140625 C 16.8125 14.140625 17.578125 14.910156 17.578125 15.859375 Z M 7.308594 15.859375 C 7.308594 16.507812 6.785156 17.03125 6.140625 17.03125 C 5.492188 17.03125 4.96875 16.507812 4.96875 15.859375 C 4.96875 15.214844 5.492188 14.691406 6.140625 14.691406 C 6.785156 14.691406 7.308594 15.214844 7.308594 15.859375 Z M 7.582031 6.140625 C 7.582031 6.9375 6.9375 7.582031 6.140625 7.582031 C 5.339844 7.582031 4.695312 6.9375 4.695312 6.140625 C 4.695312 5.339844 5.339844 4.695312 6.140625 4.695312 C 6.9375 4.695312 7.582031 5.339844 7.582031 6.140625 Z M 17.511719 6.140625 C 17.511719 7.050781 16.773438 7.789062 15.859375 7.789062 C 14.949219 7.789062 14.210938 7.050781 14.210938 6.140625 C 14.210938 5.226562 14.949219 4.488281 15.859375 4.488281 C 16.773438 4.488281 17.511719 5.226562 17.511719 6.140625 Z M 17.511719 6.140625 ">
			<animateTransform attributeType="xml" attributeName="transform" type="rotate" dur="1s" repeatCount="indefinite" calcMode="discrete" values="0 11 11; 45 11 11; 90 11 11; 135 11 11; 180 11 11; 225 11 11; 270 11 11; 315 11 11" />	
		</path>
	</g>
</svg>