<?xml version="1.0" encoding="UTF-8"?>
<svg width="32px" height="32px" viewBox="0 0 32 32" version="1.1" xmlns="http://www.w3.org/2000/svg" xmlns:xlink="http://www.w3.org/1999/xlink">
    <title>IconAlert</title>
    <g id="Icons" stroke="none" stroke-width="1" fill-rule="evenodd">
        <g id="Icons-/-Large-/-IconAlert" >
            <path d="M16,2 C23.7195666,2 30,8.28043337 30,16 C30,23.7195666 23.7195666,30 16,30 C8.28043337,30 2,23.7195666 2,16 C2,8.28043337 8.28043337,2 16,2 Z M16,4 C9.38323208,4 4,9.38323208 4,16 C4,22.6167679 9.38323208,28 16,28 C22.6167679,28 28,22.6167679 28,16 C28,9.38323208 22.6167679,4 16,4 Z M14.2264681,17.3851064 C14.2893191,18.5837447 15.1626809,19.1205106 16,19.1205106 C16.8200426,19.1205106 17.7202128,18.510766 17.7738298,17.3779574 L18.1274043,9.12808511 C18.1277021,9.1173617 18.128,9.10693617 18.128,9.09621277 C18.128,7.92319149 17.173617,6.96880851 16,6.96880851 C14.826383,6.96880851 13.872,7.92319149 13.872,9.09621277 C13.872,9.10693617 13.8722979,9.1173617 13.8725957,9.12808511 L14.2264681,17.3851064 Z M16,8.45846809 C16.347617,8.45846809 16.6314894,8.73787234 16.6386383,9.08370213 L16.2859574,17.3109362 C16.2722553,17.6001702 16.0813191,17.6311489 16,17.6311489 C15.8138298,17.6311489 15.7283404,17.584383 15.7143404,17.3142128 L15.3613617,9.08340426 C15.3685106,8.73757447 15.652383,8.45846809 16,8.45846809 Z M16,20.2834043 C15.3384255,20.2834043 14.6902553,20.5520851 14.2211064,21.0215319 C13.7549362,21.488 13.4871489,22.1349787 13.4871489,22.7959574 C13.4871489,23.459617 13.7546383,24.1074894 14.2211064,24.5739574 C14.6875745,25.0407234 15.3357447,25.3088085 16,25.3088085 C16.6663404,25.3088085 17.3142128,25.0401277 17.7717447,24.577234 C18.2426809,24.1113617 18.5125532,23.462 18.5125532,22.7962553 C18.5125532,22.1328936 18.2426809,21.4853191 17.7741277,21.0215319 C17.3058723,20.5520851 16.6588936,20.2834043 16,20.2834043 Z M16.7181702,23.5239574 C16.3473191,23.8998723 15.6529787,23.8998723 15.274383,23.5209787 C15.0849362,23.3315319 14.9765106,23.0673191 14.9765106,22.7956596 C14.9765106,22.5302553 15.0879149,22.2606809 15.274383,22.0739149 C15.4662128,21.882383 15.7304255,21.7724681 16,21.7724681 C16.2668936,21.7724681 16.529617,21.882383 16.7241277,22.0765957 C16.9144681,22.2651489 17.0234894,22.5272766 17.0234894,22.7956596 C17.0234894,23.0667234 16.9141702,23.3297447 16.7181702,23.5239574 Z" id="Shape"></path>
        </g>
    </g>
</svg>