<svg width="22" height="22" viewBox="0 0 22 22" xmlns="http://www.w3.org/2000/svg">
    <path fill-rule="evenodd" clip-rule="evenodd" d="M11.2709 2.01105C14.334 2.14301 16.8327 4.56223 16.9932 7.54517C17.0622 8.91752 16.6023 10.288 15.7079 11.3693C15.0222 12.1941 14.5559 12.9918 14.2604 13.8243L14.2526 13.8466V16.7173C14.2526 17.074 14.032 17.3618 13.7291 17.4831C13.6558 18.0829 13.1102 19.9528 12.5437 19.9528C12.4763 19.9951 9.53677 19.9951 9.45021 19.9528C8.83403 19.9528 8.33829 18.094 8.26477 17.503C7.95889 17.3763 7.74102 17.0739 7.74102 16.7385V13.8466L7.73363 13.8252C7.43814 12.9929 6.97189 12.1941 6.28457 11.3467C5.43686 10.3102 5.00008 9.07256 5.00008 7.76957C5.00008 6.17739 5.66732 4.69761 6.85699 3.59695C8.0492 2.49386 9.62931 1.94524 11.2709 2.01105ZM14.3555 10.3102C14.9958 9.5351 15.3267 8.58241 15.3069 7.56723C15.2021 5.48973 13.4275 3.75278 11.2269 3.65287C10.0234 3.59297 8.9041 4.01149 8.05409 4.7889C7.20351 5.58783 6.73117 6.64049 6.73117 7.76954C6.73117 8.70304 7.04001 9.5753 7.63931 10.3112C8.27015 11.0804 8.74473 11.8514 9.09863 12.6244H12.8938C13.2487 11.8328 13.7251 11.0786 14.3555 10.3102ZM12.5437 15.8962V14.288H9.45021V15.8962H12.5437ZM10.2625 18.4154C10.3053 18.4891 11.6591 18.4762 11.7369 18.4154C11.8384 18.2422 11.9466 17.7576 11.9895 17.5385H10.0059C10.0486 17.752 10.1616 18.2418 10.2625 18.4154Z" />
    <path d="M11.9076 5.93286C11.9076 5.4315 11.5013 5.20477 10.9999 5.20477C9.58878 5.20477 8.4419 6.35166 8.4419 7.76276C8.4419 8.26412 8.73119 8.67043 9.23255 8.67043C9.69214 8.67043 10.0718 8.32902 10.1319 7.88594L10.1402 7.76276C10.1402 7.39092 10.533 6.90182 10.8904 6.84861L10.9999 6.84054C11.5013 6.84054 11.9076 6.43423 11.9076 5.93286Z" />
</svg>