<svg width="14" height="14" viewBox="0 0 14 14" xmlns="http://www.w3.org/2000/svg">
<path d="M9.80001 4.00001C9.80001 5.54641 8.54641 6.80001 7.00001 6.80001C5.45362 6.80001 4.20001 5.54641 4.20001 4.00001C4.20001 2.45361 5.45362 1.20001 7.00001 1.20001C8.54641 1.20001 9.80001 2.45361 9.80001 4.00001Z" />
<path d="M8.92795 7.87158C9.02153 7.77579 9.13095 7.66378 9.29999 7.69999C10.7 7.99999 11.7 9.19999 11.7 10.7V11.9C11.7 12.6 11.2478 13.3 10.5 13.3H3.49999C2.71875 13.3 2.29999 12.6 2.29999 11.9V10.7C2.29999 9.19999 3.29999 7.99999 4.69999 7.69999C4.86782 7.66402 4.98076 7.77888 5.07562 7.87535C5.08387 7.88374 5.09199 7.89199 5.09999 7.89999C5.59999 8.49999 6.29999 8.79999 6.99999 8.79999C7.69999 8.79999 8.39999 8.39999 8.89999 7.89999C8.90918 7.8908 8.91849 7.88127 8.92795 7.87158Z" />
</svg>
