<svg width="14" height="14" viewBox="0 0 14 14" xmlns="http://www.w3.org/2000/svg">
    <path fill-rule="evenodd" clip-rule="evenodd" d="M7 14C10.866 14 14 10.866 14 7C14 3.13401 10.866 0 7 0C3.13401 0 0 3.13401 0 7C0 10.866 3.13401 14 7 14ZM9.76339 11.8142C8.94969 12.2823 8.00611 12.55 7 12.55C5.99391 12.55 5.05034 12.2823 4.23665 11.8142L5.81117 10.2397C6.18179 10.3757 6.58222 10.45 7 10.45C7.41779 10.45 7.81824 10.3757 8.18886 10.2397L9.76339 11.8142ZM11.8141 9.76366C12.2822 8.94989 12.55 8.00622 12.55 7C12.55 5.99391 12.2823 5.05034 11.8142 4.23665L10.2397 5.81118C10.3757 6.18179 10.45 6.58222 10.45 7C10.45 7.41791 10.3757 7.81847 10.2396 8.18918L11.8141 9.76366ZM9.76369 2.18597L8.18922 3.76044C7.8185 3.62431 7.41793 3.55 7 3.55C6.58209 3.55 6.18153 3.62431 5.81082 3.76043L4.23634 2.18595C5.05011 1.71777 5.99378 1.45 7 1.45C8.00623 1.45 8.94992 1.71778 9.76369 2.18597ZM2.18579 4.23661C1.71771 5.05032 1.45 5.99389 1.45 7C1.45 8.00623 1.71778 8.94992 2.18597 9.76369L3.76044 8.18922C3.62431 7.8185 3.55 7.41793 3.55 7C3.55 6.58221 3.62426 6.18176 3.76031 5.81114L2.18579 4.23661ZM7 9C8.10457 9 9 8.10457 9 7C9 5.89543 8.10457 5 7 5C5.89543 5 5 5.89543 5 7C5 8.10457 5.89543 9 7 9Z" />
</svg>