<?xml version="1.0" encoding="UTF-8"?>
<svg width="32px" height="32px" viewBox="0 0 32 32" version="1.1" xmlns="http://www.w3.org/2000/svg" xmlns:xlink="http://www.w3.org/1999/xlink">
    <title>IconDownload@1x</title>
    <g id="Icons" stroke="none" stroke-width="1" fill-rule="evenodd">
        <g id="Icons-/-Large-/-IconDownload" >
            <path d="M14.2222222,5 C10.3002087,5 7.01218027,7.83733509 6.22222222,11.6077243 C2.72323698,12.0584037 0,15.0751321 0,18.7585492 C0,22.7514612 3.19000604,26 7.11111111,26 L8.17777778,26 C8.56245609,26.0054309 8.92026457,25.7996222 9.11419135,25.4612732 C9.30811813,25.1229242 9.30811813,24.7044551 9.11419135,24.3661061 C8.92026457,24.0277571 8.56245609,23.8219485 8.17777778,23.8274884 L7.11111111,23.8274884 C4.33497173,23.8274884 2.13333333,21.5855328 2.13333333,18.7585492 C2.13333333,15.9315656 4.33497422,13.68961 7.11111111,13.68961 C7.66325462,13.6920344 8.12596894,13.26502 8.17777778,12.7052401 C8.48245369,9.60167713 11.0784295,7.17240251 14.2222222,7.17240251 C15.9368747,7.17240251 17.3145369,7.8330989 18.4333333,9.00536712 C18.7295899,9.31698711 19.1794864,9.41928928 19.5777778,9.26560284 C20.0343364,9.08908428 20.7397547,8.98273793 21.3333333,8.98273793 C23.7114965,8.98273793 25.690037,10.7713204 25.9666667,13.0899364 C26.0127698,13.4961781 26.2790097,13.8416321 26.6555556,13.9837895 C28.5481806,14.6913048 29.8666667,16.5427349 29.8666667,18.7585492 C29.8666667,21.5855328 27.6650283,23.8274884 24.8888889,23.8274884 L23.8222222,23.8274884 C23.4375439,23.8219485 23.0797354,24.0277571 22.8858087,24.3661061 C22.6918819,24.7044551 22.6918819,25.1229242 22.8858087,25.4612732 C23.0797354,25.7996222 23.4375439,26.0054309 23.8222222,26 L24.8888889,26 C28.809994,26 32,22.7514612 32,18.7585492 C32,15.8885883 30.3555676,13.4215718 27.9555556,12.2526563 C27.3055111,9.12963941 24.5705444,6.81033542 21.3333333,6.81033542 C20.7189938,6.81033542 20.0849561,6.90937163 19.4666667,7.07057114 C18.0577625,5.80421617 16.2710962,5 14.2222222,5 Z M15.9888889,11.494518 C15.7040395,11.4975661 15.4321955,11.616443 15.2339209,11.8247248 C15.0356462,12.0330066 14.9274126,12.31339 14.9333333,12.6034088 L14.9333333,18.3964821 L14.3111111,17.672348 C14.0758477,17.390259 13.715738,17.2495467 13.3555556,17.2989663 C12.9618839,17.3528934 12.6302378,17.6250873 12.4948663,18.005365 C12.3594948,18.3856426 12.4428196,18.8110184 12.7111111,19.1093017 L15.2,22.0058384 C15.402507,22.2396115 15.6938776,22.3735295 16,22.3735295 C16.3061224,22.3735295 16.597493,22.2396115 16.8,22.0058384 L19.2888889,19.1093017 C19.5469612,18.819107 19.6317262,18.4099516 19.5107628,18.0383293 C19.3897995,17.6667071 19.081823,17.3901146 18.7046283,17.314343 C18.3274336,17.2385715 17.9393794,17.3753441 17.6888889,17.672348 L17.0666667,18.3964821 L17.0666667,12.6034088 C17.0726682,12.3094655 16.9614106,12.0255977 16.7583048,11.8166401 C16.5551991,11.6076825 16.2775922,11.4914819 15.9888889,11.494518 Z M11.7222222,21.6324567 C11.4373728,21.6354444 11.1655289,21.7543214 10.9672542,21.9626032 C10.7689796,22.1708849 10.660746,22.4512684 10.6666667,22.7412871 L10.6666667,24.9136897 C10.6667256,25.5135572 11.144254,25.9998309 11.7333333,25.9998909 L20.2666667,25.9998909 C20.855746,25.9998309 21.3332744,25.5135572 21.3333333,24.9136897 L21.3333333,22.7412871 C21.3387736,22.349564 21.1366664,21.9852027 20.8044023,21.7877244 C20.4721382,21.5902461 20.0611951,21.5902461 19.728931,21.7877244 C19.396667,21.9852027 19.1945597,22.349564 19.2,22.7412871 L19.2,23.8274884 L12.8,23.8274884 L12.8,22.7412871 C12.8060015,22.4473438 12.6947439,22.1634761 12.4916382,21.9545185 C12.2885324,21.7455609 12.0109255,21.6293603 11.7222222,21.6324567 Z" id="Shape"></path>
        </g>
    </g>
</svg>