<svg width="32" height="32" viewBox="0 0 32 32" fill="none" xmlns="http://www.w3.org/2000/svg">
<path fill-rule="evenodd" clip-rule="evenodd" d="M22.47 20.2263L21.2823 20.1132L20.8212 19.6686C22.435 17.7914 23.4065 15.3544 23.4065 12.7033C23.4065 6.79176 18.6147 2 12.7032 2C6.79174 2 1.99997 6.79176 1.99997 12.7033C1.99997 18.6147 6.79174 23.4065 12.7032 23.4065C15.3543 23.4065 17.7914 22.435 19.6686 20.8213L20.1132 21.2823L20.2263 22.4701L27.7808 30.0094C28.1558 30.3837 28.7631 30.3834 29.1377 30.0087L30.0087 29.1378C30.3833 28.7631 30.3836 28.1558 30.0094 27.7808L22.47 20.2263ZM12.64 21.2C7.94771 21.2 4.15997 17.4123 4.15997 12.72C4.15997 8.02773 7.94771 4.24 12.64 4.24C17.3322 4.24 21.12 8.02773 21.12 12.72C21.12 17.4123 17.3322 21.2 12.64 21.2Z" />
<path d="M7.38338 9.0634C7.38338 8.53321 7.81319 8.1034 8.34338 8.1034H14.5834C15.1136 8.1034 15.5434 8.53321 15.5434 9.0634C15.5434 9.59359 15.1136 10.0234 14.5834 10.0234H8.34338C7.81319 10.0234 7.38338 9.59359 7.38338 9.0634Z" />
<path d="M7.38338 12.7434C7.38338 12.2132 7.81319 11.7834 8.34338 11.7834H17.6234C18.1536 11.7834 18.5834 12.2132 18.5834 12.7434C18.5834 13.2736 18.1536 13.7034 17.6234 13.7034H8.34338C7.81319 13.7034 7.38338 13.2736 7.38338 12.7434Z" />
<path d="M7.38338 16.4634C7.38338 15.9111 7.8311 15.4634 8.38338 15.4634H12.4634C13.0157 15.4634 13.4634 15.9111 13.4634 16.4634C13.4634 17.0157 13.0157 17.4634 12.4634 17.4634H8.38338C7.8311 17.4634 7.38338 17.0157 7.38338 16.4634Z" />
</svg>
