<svg width="24" height="24" viewBox="0 0 24 24" xmlns="http://www.w3.org/2000/svg">
<path d="M20.175 17.1C20.175 14.625 18.375 12.525 15.975 12.075C15.675 12 15.45 12.15 15.225 12.375C14.4 13.35 13.275 13.875 12 13.875C10.725 13.875 9.6 13.35 8.775 12.375C8.625 12.15 8.325 12.075 8.025 12.075C5.55 12.525 3.825 14.625 3.825 17.1C3.825 17.825 3.825 18.55 3.825 19.275C3.825 19.4572 3.86034 19.6711 3.9 19.8C4.2 20.775 5.1 21.525 6.15 21.525H17.775C18.825 21.525 19.875 21 20.1 19.8C20.1562 19.5 20.175 19.455 20.175 19.275C20.175 18.4489 20.1444 17.9253 20.175 17.1ZM18.6 19.125C18.6 19.575 18.225 19.95 17.775 19.95H6.225C5.775 19.95 5.4 19.575 5.4 19.125V17.1C5.4 15.525 6.45 14.175 7.875 13.725C8.775 14.625 9.9 15.15 11.1 15.375C11.4 15.45 11.7 15.45 12 15.45C12.3 15.45 12.6 15.45 12.9 15.375C14.1 15.225 15.225 14.625 16.125 13.725C17.625 14.175 18.6 15.525 18.6 17.1V19.125ZM12 11.775C14.625 11.775 16.725 9.675 16.725 7.05C16.725 4.425 14.625 2.25 12 2.25C9.375 2.25 7.275 4.35 7.275 6.975C7.275 9.6 9.375 11.775 12 11.775ZM12 3.825C13.725 3.825 15.15 5.25 15.15 6.975C15.15 8.7 13.725 10.125 12 10.125C10.275 10.125 8.85 8.7 8.85 6.975C8.85 5.25 10.275 3.825 12 3.825Z" />
</svg>
