<svg width="22" height="22" viewBox="0 0 20 20" fill="none" xmlns="http://www.w3.org/2000/svg">
<path fill-rule="evenodd" clip-rule="evenodd" d="M10 0.375C15.3072 0.375 19.625 4.6928 19.625 10C19.625 15.3072 15.3072 19.625 10 19.625C4.6928 19.625 0.375 15.3072 0.375 10C0.375 4.6928 4.6928 0.375 10 0.375ZM10 1.75C5.45097 1.75 1.75 5.45097 1.75 10C1.75 14.549 5.45097 18.25 10 18.25C14.549 18.25 18.25 14.549 18.25 10C18.25 5.45097 14.549 1.75 10 1.75ZM14.8915 5.7755L14.9227 5.87388C14.9821 6.10724 14.9467 6.36327 14.828 6.55767L14.7721 6.63696L8.79422 14.2186C8.59624 14.469 8.28485 14.5134 8.04497 14.3253L7.97971 14.2657L4.62034 10.7149C4.43206 10.5546 4.33308 10.2751 4.36329 9.99354C4.39362 9.71091 4.54912 9.47328 4.76665 9.38165C4.95854 9.30083 5.16937 9.34619 5.32976 9.50184L5.38843 9.5676L8.29836 12.7096L13.9136 5.58796C14.0064 5.4638 14.1304 5.38234 14.2661 5.35753C14.5268 5.31189 14.7787 5.48229 14.8915 5.7755Z" fill="#3867FA"/>
</svg>
