<svg width="22" height="22" viewBox="0 0 22 22" xmlns="http://www.w3.org/2000/svg">
    <path fill-rule="evenodd" clip-rule="evenodd" d="M7.21875 18.2187C8.60518 18.2187 9.90032 17.8279 11 17.1504C12.0997 17.8279 13.3948 18.2187 14.7812 18.2187C18.7681 18.2187 22 14.9868 22 11C22 7.01319 18.7681 3.78125 14.7812 3.78125C13.3948 3.78125 12.0997 4.1721 11 4.84962C9.90032 4.1721 8.60518 3.78125 7.21875 3.78125C3.23194 3.78125 0 7.01319 0 11C0 14.9868 3.23194 18.2187 7.21875 18.2187ZM7.21875 16.7687C8.12911 16.7687 8.99023 16.5579 9.7559 16.1823C8.40317 14.8703 7.5625 13.0333 7.5625 11C7.5625 8.96668 8.40317 7.1297 9.7559 5.81769C8.99023 5.44212 8.12911 5.23125 7.21875 5.23125C4.03276 5.23125 1.45 7.81401 1.45 11C1.45 14.186 4.03276 16.7687 7.21875 16.7687ZM14.7812 5.23125C13.8709 5.23125 13.0098 5.44213 12.2441 5.81769C13.5968 7.1297 14.4375 8.96668 14.4375 11C14.4375 13.0333 13.5968 14.8703 12.2441 16.1823C13.0098 16.5579 13.8709 16.7687 14.7812 16.7687C17.9672 16.7687 20.55 14.186 20.55 11C20.55 7.81401 17.9672 5.23125 14.7812 5.23125ZM11.3694 6.99367L10.1799 7.52013C9.94396 7.83159 9.73895 8.16773 9.56939 8.52401L11.8245 7.52593C11.6836 7.33935 11.5315 7.1616 11.3694 6.99367ZM12.5493 8.79079L9.05704 10.3364L9.05166 10.3243C9.0258 10.5459 9.0125 10.7714 9.0125 11C9.0125 11.0293 9.01272 11.0586 9.01316 11.0879L12.7699 9.42521C12.7085 9.20827 12.6347 8.99653 12.5493 8.79079ZM12.9869 10.9149L9.23077 12.5772C9.29286 12.7962 9.36756 13.0098 9.45403 13.2173L12.9489 11.6706C12.9744 11.4506 12.9875 11.2268 12.9875 11C12.9875 10.9716 12.9873 10.9432 12.9869 10.9149ZM12.4248 13.4882L10.181 14.4813C10.3235 14.6694 10.4774 14.8485 10.6415 15.0176L11.8016 14.5042C12.0426 14.1895 12.2519 13.8492 12.4248 13.4882Z" />
</svg>