<svg width="22" height="22" viewBox="0 0 22 22" xmlns="http://www.w3.org/2000/svg">
    <path fill-rule="evenodd" clip-rule="evenodd" d="M17.2187 15.8359C17.998 15.8359 18.6089 16.4436 18.6089 17.2189C18.6089 18.0026 17.998 18.6164 17.2187 18.6164C16.444 18.6164 15.815 17.9897 15.815 17.2189C15.815 16.4436 16.4319 15.8359 17.2187 15.8359ZM4.79569 12.3993C4.0164 12.3993 3.40557 11.7855 3.40557 11.0027C3.40557 10.2266 4.0164 9.61883 4.79569 9.61883C5.58332 9.61883 6.20022 10.2266 6.20022 11.0027C6.20022 11.7727 5.56966 12.3993 4.79569 12.3993ZM17.2187 9.61883C17.998 9.61883 18.6089 10.2266 18.6089 11.0027C18.6089 11.7855 17.998 12.3993 17.2187 12.3993C16.444 12.3993 15.815 11.7727 15.815 11.0027C15.815 10.2266 16.4319 9.61883 17.2187 9.61883ZM14.52 11.77C14.8364 12.9825 15.994 13.92 17.2187 13.92C18.7181 13.92 20.04 12.5012 20.04 11.0027C20.04 9.50332 18.7181 8.08003 17.2187 8.08003C15.988 8.08003 14.8304 9.02927 14.52 10.25H11.79V5.60003H14.54C14.8746 6.77927 16.0221 7.60003 17.2187 7.60003C18.7181 7.60003 20.04 6.27968 20.04 4.78034C20.04 3.28176 18.7181 1.96002 17.2187 1.96002C15.9781 1.96002 14.7984 2.84644 14.51 4.08003H11.0216C10.8463 4.08003 10.5769 4.18726 10.4517 4.30956C10.3242 4.43338 10.2523 4.66182 10.25 4.8498V10.25H7.49C7.17965 9.02927 6.02646 8.08002 4.79569 8.08002C3.28948 8.08002 1.96001 9.50002 1.96001 11.0027C1.96001 12.4649 3.32742 13.92 4.79569 13.92C6.02115 13.92 7.17434 12.9825 7.49 11.77H10.25V17.1706C10.2561 17.5315 10.6604 17.92 11.0209 17.92H14.51C14.7999 19.1514 15.9804 20.04 17.2187 20.04C18.7181 20.04 20.04 18.7175 20.04 17.2189C20.04 15.7204 18.7181 14.4 17.2187 14.4C16.0221 14.4 14.8746 15.22 14.54 16.4H11.79V11.77H14.52Z" />
</svg>