<svg width="32" height="32" viewBox="0 0 32 32" xmlns="http://www.w3.org/2000/svg">
<path d="M8.03758 24.5567H17.5888C18.2356 24.5567 18.7438 24.1622 18.7438 23.6593C18.7438 23.1564 18.2356 22.762 17.5888 22.762H8.03758C7.39076 22.762 6.88255 23.1564 6.88255 23.6593C6.88255 24.1622 7.39076 24.5567 8.03758 24.5567Z" />
<path d="M17.5888 20.7806H8.03758C7.40142 20.7806 6.88255 20.3737 6.88255 19.8708C6.88255 19.375 7.39076 18.9859 8.03758 18.9859H17.5888C18.2249 18.9859 18.7438 19.3946 18.7438 19.8957C18.7438 20.3915 18.2356 20.7806 17.5888 20.7806Z" />
<path fill-rule="evenodd" clip-rule="evenodd" d="M29.4499 7.56265C29.4499 7.26945 29.329 6.98158 29.1176 6.7719L23.3495 0.955882C23.1381 0.7462 22.8502 0.625366 22.5588 0.625366H11.2448C9.96719 0.625366 8.88679 1.70754 8.88679 2.98873V7.01001H4.87439C3.57365 7.01001 2.51636 8.06909 2.51636 9.37338V29.0036C2.51636 30.3078 3.57365 31.3687 4.87439 31.3687H20.7516C22.0541 31.3687 23.1132 30.3078 23.1132 29.0036V24.984H27.122C28.4015 24.984 29.4836 23.9001 29.4836 22.6207L29.4499 7.56265ZM4.79265 9.3414C4.79265 9.29875 4.82997 9.25966 4.87439 9.25966H15.0653V13.9153C15.0653 14.5355 15.5682 15.0401 16.1884 15.0401H20.8333V28.9733C20.8333 29.016 20.796 29.0551 20.7516 29.0551H4.87439C4.82997 29.0551 4.79265 29.016 4.79265 28.9733V9.3414ZM22.7791 13.1246L17.0111 7.30854C16.7996 7.09886 16.5118 6.97803 16.2203 6.97803H11.1631V2.98873C11.1631 2.94431 11.2004 2.90699 11.2448 2.90699H21.4357V7.56265C21.4357 8.18281 21.9386 8.68747 22.5588 8.68747H27.2038V22.6207C27.2038 22.6633 27.1665 22.7024 27.122 22.7024H23.1132V13.9153C23.1132 13.6239 22.9906 13.3342 22.7791 13.1246ZM17.3434 12.7585V10.8429L19.2554 12.7585H17.3434ZM23.6818 6.40584V4.49027L25.5938 6.40584H23.6818Z" />
</svg>
