<svg width="22" height="22" viewBox="0 0 20 20" fill="none" xmlns="http://www.w3.org/2000/svg">
<path d="M10 19.625C15.3072 19.625 19.625 15.3072 19.625 10C19.625 4.6928 15.3072 0.375 10 0.375C4.6928 0.375 0.375 4.6928 0.375 10C0.375 15.3072 4.6928 19.625 10 19.625ZM10 18.25C5.45097 18.25 1.75 14.549 1.75 10C1.75 5.45097 5.45097 1.75 10 1.75C14.549 1.75 18.25 5.45097 18.25 10C18.25 14.549 14.549 18.25 10 18.25Z" fill="#3867FA"/>
<path d="M10.2104 7.72219C10.9525 7.72219 11.5541 8.3238 11.5541 9.06592V14.9867C11.5541 15.7288 10.9525 16.3304 10.2104 16.3304H9.93435C9.19223 16.3304 8.59062 15.7288 8.59062 14.9867V9.06592C8.59062 8.3238 9.19223 7.72219 9.93435 7.72219H10.2104ZM10.2104 8.75344H9.93435C9.76177 8.75344 9.62187 8.89334 9.62187 9.06592V14.9867C9.62187 15.1593 9.76177 15.2992 9.93435 15.2992H10.2104C10.383 15.2992 10.5229 15.1593 10.5229 14.9867V9.06592C10.5229 8.89334 10.383 8.75344 10.2104 8.75344Z" fill="#3867FA"/>
<path d="M10.0725 3.55921C10.5279 3.55921 10.9751 3.74493 11.2988 4.06942C11.6227 4.39 11.8092 4.83762 11.8092 5.29615C11.8092 5.75633 11.6227 6.20519 11.2972 6.52721C10.9809 6.84717 10.5331 7.03289 10.0725 7.03289C9.61333 7.03289 9.1653 6.84758 8.84286 6.52494C8.52043 6.20251 8.33554 5.75468 8.33554 5.29595C8.33554 4.83906 8.52064 4.39185 8.84286 4.06942C9.16715 3.74493 9.61518 3.55921 10.0725 3.55921ZM10.0725 4.58848C9.88614 4.58848 9.70351 4.66446 9.57092 4.79685C9.44202 4.92595 9.36502 5.11229 9.36502 5.29574C9.36502 5.48352 9.43997 5.66615 9.57092 5.7971C9.83261 6.059 10.3126 6.059 10.5689 5.79916C10.7044 5.66491 10.7799 5.48311 10.7799 5.29574C10.7799 5.11023 10.7046 4.92904 10.573 4.79871C10.4386 4.66446 10.257 4.58848 10.0725 4.58848Z" fill="#3867FA"/>
</svg>
