<svg width="22" height="22" viewBox="0 0 22 22" xmlns="http://www.w3.org/2000/svg">
    <path fill-rule="evenodd" clip-rule="evenodd" d="M20.0087 5.29375C19.8717 5.0875 19.6663 4.95 19.4609 4.8125L19.5293 4.33125C19.6663 3.09375 18.7761 1.99375 17.5435 1.925C17.475 1.925 17.4065 1.925 17.338 1.925H8.77822C8.57279 1.925 8.36735 1.85625 8.23039 1.65L7.54561 0.825C7.06626 0.34375 6.44995 0 5.76517 0H3.36842C2.75212 0 2.13581 0.275 1.72494 0.75625C1.24559 1.2375 1.04015 1.85625 1.10863 2.54375L1.38255 4.74375C1.10863 4.88125 0.834719 5.01875 0.560805 5.29375C0.149934 5.775 -0.0555018 6.39375 0.0129767 7.0125L0.76624 15.6063C0.903197 16.9125 1.99885 17.875 3.29994 17.875H12.1337C12.0652 17.6 12.0652 17.325 12.0652 17.05C12.0652 16.8437 12.0652 16.5687 12.1337 16.3625H3.29994C2.75212 16.3625 2.34125 15.95 2.34125 15.4688L1.5195 6.875C1.5195 6.66875 1.58798 6.4625 1.72494 6.325C1.8619 6.1875 2.06733 6.05 2.27277 6.05H18.3652C18.5706 6.05 18.7761 6.11875 18.913 6.325C19.05 6.4625 19.1185 6.66875 19.1185 6.875L18.6391 12.1C19.187 12.2375 19.6663 12.5125 20.0772 12.7875L20.625 7.0125C20.625 6.39375 20.4196 5.775 20.0087 5.29375ZM17.9543 4.5375H2.88907L2.61516 2.3375C2.61516 2.13125 2.68364 1.925 2.82059 1.7875C2.95755 1.65 3.16299 1.5125 3.36842 1.5125H5.76517C5.97061 1.5125 6.17604 1.58125 6.313 1.7875L6.99778 2.6125C7.40865 3.1625 8.02496 3.4375 8.70974 3.4375H17.2011C17.4065 3.4375 17.6119 3.50625 17.7489 3.64375C17.8859 3.78125 17.9543 3.9875 17.9543 4.19375V4.5375Z" fill="#CCCCCC" />
    <path fill-rule="evenodd" clip-rule="evenodd" d="M16.8438 11.6875C19.7312 11.6875 22 14.025 22 16.8438C22 19.6625 19.6625 22 16.8438 22C14.025 22 11.6875 19.6625 11.6875 16.8438C11.6875 14.025 14.025 11.6875 16.8438 11.6875ZM16.8438 13.475C15.8813 13.475 15.0562 14.3 15.0562 15.2625V15.8813C14.7125 15.8813 14.4375 16.1562 14.4375 16.5V18.9062C14.4375 19.25 14.7125 19.525 15.0562 19.525H18.6313C18.975 19.525 19.25 19.25 19.25 18.9062V16.5C19.25 16.1562 18.975 15.8813 18.6313 15.8813V15.2625C18.6313 14.3 17.8062 13.475 16.8438 13.475ZM16.8438 16.9125C17.1188 16.9125 17.325 17.1188 17.2563 17.325C17.2563 17.5313 17.1875 17.6687 17.05 17.7375V18.3563C17.05 18.4938 16.9813 18.5625 16.8438 18.5625C16.7062 18.5625 16.6375 18.4938 16.6375 18.3563V17.7375C16.5 17.6 16.4312 17.4625 16.4312 17.325C16.4312 17.1188 16.5687 16.9125 16.8438 16.9125ZM16.8438 14.0938C17.5312 14.0938 18.0813 14.6437 18.0125 15.3312V15.95H15.6063V15.3312C15.6063 14.6437 16.1562 14.0938 16.8438 14.0938Z" />
</svg>
    