<svg width="14" height="14" viewBox="0 0 14 14" xmlns="http://www.w3.org/2000/svg">
<path d="M7 3.26667C6.06667 3.26667 5.32 4.01333 5.32 4.94667V5.78667H8.58667V4.94667C8.68 4.01333 7.93333 3.26667 7 3.26667Z" />
<path d="M7 7.09333C6.62667 7.09333 6.44 7.37333 6.44 7.65333C6.44 7.84 6.53333 8.02667 6.72 8.21333V9.05333C6.72 9.24 6.81333 9.33333 7 9.33333C7.18667 9.33333 7.28 9.24 7.28 9.05333V8.21333C7.46667 8.12 7.56 7.93333 7.56 7.65333C7.65333 7.37333 7.37333 7.09333 7 7.09333Z" />
<path fill-rule="evenodd" clip-rule="evenodd" d="M7 0C3.17333 0 0 3.17333 0 7C0 10.8267 3.17333 14 7 14C10.8267 14 14 10.8267 14 7C14 3.17333 10.92 0 7 0ZM10.2667 9.8C10.2667 10.2667 9.89333 10.64 9.42667 10.64H4.57333C4.10667 10.64 3.73333 10.2667 3.73333 9.8V6.53333C3.73333 6.06667 4.10667 5.69333 4.57333 5.69333V4.85333C4.57333 3.54667 5.69333 2.42667 7 2.42667C8.30667 2.42667 9.42667 3.54667 9.42667 4.85333V5.69333C9.89333 5.69333 10.2667 6.06667 10.2667 6.53333V9.8Z" />
</svg>
