<svg width="14" height="14" viewBox="0 0 14 14" xmlns="http://www.w3.org/2000/svg">
    <path fill-rule="evenodd" clip-rule="evenodd" d="M12.6882 1.30866C12.3465 0.967143 11.7927 0.967229 11.451 1.30886L6.99849 5.76149L2.54613 1.30875C2.20444 0.967028 1.65043 0.967016 1.30872 1.30872C0.967016 1.65043 0.967028 2.20444 1.30875 2.54613L5.76149 6.99849L1.30871 11.4512C0.967006 11.7929 0.967003 12.3469 1.3087 12.6886C1.65041 13.0303 2.20444 13.0303 2.54613 12.6885L6.99849 8.23549L11.451 12.6884C11.7927 13.0301 12.3465 13.0302 12.6883 12.6886C13.0302 12.347 13.0302 11.7928 12.6884 11.451L8.23549 6.99849L12.6884 2.54628C13.0302 2.20452 13.0301 1.65034 12.6882 1.30866Z" />
</svg>
    