<svg width="22" height="22" viewBox="0 0 22 22" xmlns="http://www.w3.org/2000/svg">
    <path fill-rule="evenodd" clip-rule="evenodd" d="M11.8674 17.2524C11.8674 17.1827 11.8674 17.113 11.8674 17.0363H4.72293C4.60251 17.0382 4.48638 16.9913 4.40057 16.9061C4.31476 16.821 4.26644 16.7047 4.26646 16.5834C4.26742 16.493 4.29645 16.4053 4.34945 16.3325L5.36615 14.6739H12.5521C13.1283 13.6454 14.0361 12.8462 15.125 12.409L12.6836 8.36016V4.28341C13.4892 4.10001 14.0523 3.36606 14.0253 2.53423V2.44364C14.0253 1.47375 13.245 0.6875 12.2824 0.6875H7.79376C6.83118 0.6875 6.05086 1.47375 6.05086 2.44364V2.53423C6.03398 3.3583 6.59475 4.08061 7.39261 4.2625V8.33925L4.39095 13.308C4.27538 13.3984 4.19468 13.5265 4.16271 13.6704L3.04228 15.5241C2.47654 16.4573 2.7564 17.6751 3.67166 18.2628C3.99014 18.4534 4.35257 18.5567 4.72293 18.5625H12.0403C11.927 18.1351 11.8689 17.6948 11.8674 17.2524ZM8.81045 8.98735C8.88646 8.86897 8.92726 8.73113 8.92802 8.59013V3.54471C8.92423 3.12022 8.58162 2.77813 8.16032 2.77814H7.79376C7.73751 2.77817 7.68366 2.75519 7.64454 2.71447C7.60542 2.67374 7.58439 2.61875 7.58627 2.56211V2.44364C7.58621 2.327 7.67805 2.23137 7.79376 2.22761H12.2824C12.4008 2.22761 12.4968 2.32433 12.4968 2.44364V2.53423C12.4968 2.65355 12.4008 2.75027 12.2824 2.75027H11.9159C11.4972 2.75405 11.1588 3.09505 11.1551 3.51684V8.56226C11.1527 8.70052 11.1912 8.83637 11.2657 8.95251L13.7902 13.099H6.28601L8.81045 8.98735Z" fill="#CCCCCC" />
    <path fill-rule="evenodd" clip-rule="evenodd" d="M16.8438 11.6875C19.6915 11.6875 22 13.996 22 16.8438C22 19.6915 19.6915 22 16.8438 22C13.996 22 11.6875 19.6915 11.6875 16.8438C11.6875 13.996 13.996 11.6875 16.8438 11.6875ZM16.8541 13.6346C15.8987 13.6346 15.1083 14.3777 15.0494 15.3312V15.9363C14.7179 15.9362 14.4481 16.2029 14.4444 16.5344V18.9406C14.4444 19.2748 14.7152 19.5456 15.0494 19.5456H18.6519C18.8117 19.5456 18.9649 19.4817 19.0773 19.368C19.1896 19.2544 19.2518 19.1004 19.25 18.9406L19.2569 16.5344C19.2569 16.204 18.9891 15.9363 18.6587 15.9363V15.3312C18.5999 14.3777 17.8094 13.6346 16.8541 13.6346ZM16.8438 16.9194C17.0906 16.9194 17.2906 17.1194 17.2906 17.3663C17.2882 17.5238 17.2016 17.6681 17.0637 17.7444V18.3631C17.045 18.468 16.9537 18.5444 16.8472 18.5444C16.7406 18.5444 16.6494 18.468 16.6306 18.3631V17.7444C16.4906 17.6703 16.4032 17.5247 16.4037 17.3663C16.4037 17.1221 16.5996 16.9231 16.8438 16.9194ZM16.8438 14.1281C17.1628 14.1281 17.4689 14.2549 17.6945 14.4805C17.9201 14.7061 18.0469 15.0122 18.0469 15.3312V15.9363H15.6406V15.3312C15.6444 14.6683 16.1808 14.1319 16.8438 14.1281Z" />
</svg>
    