<svg width="22" height="22" viewBox="0 0 22 22" xmlns="http://www.w3.org/2000/svg">
    <path fill-rule="evenodd" clip-rule="evenodd" d="M6.61645 11.4425C6.4967 11.5623 6.4217 11.7192 6.40345 11.8875L6.04224 15.1409C6.01904 15.3507 6.08631 15.5603 6.22708 15.7175C6.36774 15.8747 6.56882 15.9646 6.77985 15.9646C6.80713 15.9646 6.83446 15.9631 6.86156 15.9602L10.1151 15.5989C10.2833 15.5806 10.4402 15.5056 10.5599 15.3859L18.8876 7.05422C19.2176 6.72303 19.4029 6.2745 19.4029 5.80682C19.4029 5.38518 19.2522 4.97901 18.9806 4.66042L18.9841 4.65604L17.4405 3.1124C17.1092 2.78255 16.6607 2.59721 16.1932 2.59721C15.7257 2.59721 15.2769 2.78276 14.9456 3.11264L6.61645 11.4425ZM17.8373 6.00528L17.8347 6.00788L16.3462 7.49642L14.5037 5.65398L15.9949 4.16341C16.1045 4.05419 16.2819 4.05423 16.3916 4.16342L17.8369 5.60933C17.9461 5.71865 17.9463 5.89566 17.8373 6.00528ZM13.4545 6.70293L15.297 8.5454L9.69275 14.1502L7.61985 14.3801L7.84979 12.3077L13.4545 6.70293ZM3.15974 3.74832C2.79962 4.10858 2.59726 4.59703 2.59726 5.10652V17.4821C2.59726 17.9916 2.79962 18.48 3.15974 18.8403C3.52 19.2004 4.00849 19.4028 4.51798 19.4028H16.8936C17.403 19.4028 17.8915 19.2005 18.2517 18.8403C18.6119 18.4801 18.8143 17.9916 18.8143 17.4821V12.1783C18.8143 11.9815 18.7361 11.7927 18.5969 11.6535C18.4578 11.5144 18.269 11.4362 18.0722 11.4362C17.8754 11.4362 17.6866 11.5144 17.5474 11.6535C17.4083 11.7927 17.3301 11.9815 17.3301 12.1783V17.4821C17.3301 17.5979 17.2841 17.709 17.2023 17.7908C17.1204 17.8726 17.0093 17.9186 16.8936 17.9186H4.51798C4.40221 17.9186 4.29111 17.8726 4.20928 17.7908C4.12745 17.709 4.08144 17.5979 4.08144 17.4821V5.10652C4.08144 4.99075 4.12745 4.87965 4.20928 4.79782C4.29111 4.71599 4.40221 4.66998 4.51798 4.66998H9.8218C10.087 4.66998 10.332 4.52853 10.4645 4.29892C10.597 4.06934 10.597 3.78644 10.4645 3.55686C10.332 3.32726 10.087 3.1858 9.8218 3.1858H4.51798C4.00849 3.1858 3.52001 3.38821 3.15974 3.74832Z" />
</svg>
    