<svg width="14" height="14" viewBox="0 0 14 14" xmlns="http://www.w3.org/2000/svg">
    <path fill-rule="evenodd" clip-rule="evenodd" d="M7 12.6C10.0928 12.6 12.6 10.0928 12.6 7C12.6 3.90721 10.0928 1.4 7 1.4C3.90721 1.4 1.4 3.90721 1.4 7C1.4 10.0928 3.90721 12.6 7 12.6ZM7 14C10.866 14 14 10.866 14 7C14 3.13401 10.866 0 7 0C3.13401 0 0 3.13401 0 7C0 10.866 3.13401 14 7 14ZM6.19997 4.14998C6.19997 3.70815 6.55814 3.34998 6.99997 3.34998C7.4418 3.34998 7.79997 3.70815 7.79997 4.14998V7.04998C7.79997 7.4918 7.4418 7.84998 6.99997 7.84998C6.55814 7.84998 6.19997 7.4918 6.19997 7.04998V4.14998ZM6.99998 10.65C7.49703 10.65 7.89998 10.247 7.89998 9.74998C7.89998 9.25292 7.49703 8.84998 6.99998 8.84998C6.50292 8.84998 6.09998 9.25292 6.09998 9.74998C6.09998 10.247 6.50292 10.65 6.99998 10.65Z" />
</svg>
    