<svg width="104" height="8" viewBox="0 0 104 8" fill="none" xmlns="http://www.w3.org/2000/svg">
<rect width="104" height="2" transform="translate(0 2)" fill="#FACC9E" fill-opacity="0.5"/>
<path d="M43.3926 7H42.3613L40.7266 4.60938L39.0332 7H38.0605L40.2344 3.94141L38.0605 0.894531H39.1094L40.75 3.26758L42.4199 0.894531H43.3926L41.2305 3.90625L43.3926 7ZM50.8496 7H49.8184L48.1836 4.60938L46.4902 7H45.5176L47.6914 3.94141L45.5176 0.894531H46.5664L48.207 3.26758L49.877 0.894531H50.8496L48.6875 3.90625L50.8496 7ZM58.3066 7H57.2754L55.6406 4.60938L53.9473 7H52.9746L55.1484 3.94141L52.9746 0.894531H54.0234L55.6641 3.26758L57.334 0.894531H58.3066L56.1445 3.90625L58.3066 7ZM64.9082 1.76758C64.3965 1.59961 63.9141 1.51562 63.4609 1.51562C62.9648 1.51562 62.5723 1.59961 62.2832 1.76758C61.9941 1.93164 61.8496 2.15234 61.8496 2.42969C61.8496 2.60547 61.916 2.75977 62.0488 2.89258C62.1816 3.02148 62.4473 3.14258 62.8457 3.25586L63.7188 3.50781C64.1211 3.62109 64.4492 3.75781 64.7031 3.91797C64.957 4.07422 65.1465 4.26562 65.2715 4.49219C65.4004 4.71484 65.4648 4.97461 65.4648 5.27148C65.4648 5.85352 65.2207 6.31445 64.7324 6.6543C64.2441 6.99023 63.623 7.1582 62.8691 7.1582C62.1191 7.1582 61.5 7.04492 61.0117 6.81836L61.1875 6.02734C61.6992 6.26953 62.248 6.39062 62.834 6.39062C63.3418 6.39062 63.7539 6.29688 64.0703 6.10938C64.3906 5.91797 64.5508 5.66602 64.5508 5.35352C64.5508 5.14258 64.4707 4.95508 64.3105 4.79102C64.1543 4.62305 63.7832 4.44922 63.1973 4.26953C62.7246 4.125 62.377 4.01758 62.1543 3.94727C61.9316 3.87305 61.7246 3.76562 61.5332 3.625C61.3418 3.48438 61.1953 3.31641 61.0938 3.12109C60.9961 2.92578 60.9473 2.70703 60.9473 2.46484C60.9473 1.9375 61.1777 1.51953 61.6387 1.21094C62.0996 0.902344 62.7109 0.748047 63.4727 0.748047C63.9648 0.748047 64.5117 0.832031 65.1133 1L64.9082 1.76758Z" fill="#A96522"/>
</svg>
